ISO-10303-21;
HEADER;
FILE_DESCRIPTION (( 'STEP AP214' ),
    '1' );
FILE_NAME ('SimpleHandle.STEP',
    '2026-02-25T18:14:04',
    ( '' ),
    ( '' ),
    'SwSTEP 2.0',
    'SolidWorks 2025',
    '' );
FILE_SCHEMA (( 'AUTOMOTIVE_DESIGN' ));
ENDSEC;

DATA;
#1 = ORIENTED_EDGE ( 'NONE', *, *, #186, .T. ) ;
#2 = APPLICATION_CONTEXT ( 'automotive_design' ) ;
#3 = CARTESIAN_POINT ( 'NONE',  ( 190.0000000000000000, 18.52508411180257042, -17.30387744968384212 ) ) ;
#4 = ORIENTED_EDGE ( 'NONE', *, *, #254, .T. ) ;
#5 = AXIS2_PLACEMENT_3D ( 'NONE', #182, #55, #145 ) ;
#6 = DIRECTION ( 'NONE',  ( 0.000000000000000000, 0.000000000000000000, -1.000000000000000000 ) ) ;
#7 = LINE ( 'NONE', #91, #191 ) ;
#8 = LINE ( 'NONE', #92, #97 ) ;
#9 = CARTESIAN_POINT ( 'NONE',  ( 0.000000000000000000, 0.000000000000000000, 0.000000000000000000 ) ) ;
#10 = CARTESIAN_POINT ( 'NONE',  ( 70.00000000000000000, 1.555301434917138433E-15, -12.69999999999999929 ) ) ;
#11 = DIRECTION ( 'NONE',  ( 0.000000000000000000, 1.000000000000000000, 0.000000000000000000 ) ) ;
#12 = EDGE_CURVE ( 'NONE', #20, #21, #156, .T. ) ;
#13 = ADVANCED_FACE ( 'NONE', ( #154 ), #193, .F. ) ;
#14 = AXIS2_PLACEMENT_3D ( 'NONE', #53, #217, #234 ) ;
#15 = PRODUCT_DEFINITION_FORMATION_WITH_SPECIFIED_SOURCE ( 'ANY', '', #80, .NOT_KNOWN. ) ;
#16 = EDGE_LOOP ( 'NONE', ( #4, #167, #65, #153 ) ) ;
#17 = FACE_OUTER_BOUND ( 'NONE', #86, .T. ) ;
#18 = PLANE ( 'NONE',  #5 ) ;
#19 = CIRCLE ( 'NONE', #66, 12.69999999999999929 ) ;
#20 = VERTEX_POINT ( 'NONE', #3 ) ;
#21 = VERTEX_POINT ( 'NONE', #266 ) ;
#22 = EDGE_CURVE ( 'NONE', #125, #23, #247, .T. ) ;
#23 = VERTEX_POINT ( 'NONE', #41 ) ;
#24 = AXIS2_PLACEMENT_3D ( 'NONE', #72, #219, #162 ) ;
#25 = AXIS2_PLACEMENT_3D ( 'NONE', #96, #220, #123 ) ;
#26 = ORIENTED_EDGE ( 'NONE', *, *, #144, .F. ) ;
#27 = EDGE_LOOP ( 'NONE', ( #232, #42, #40, #250 ) ) ;
#28 = DIRECTION ( 'NONE',  ( -1.000000000000000000, -0.000000000000000000, -0.000000000000000000 ) ) ;
#29 = STYLED_ITEM ( 'NONE', ( #223 ), #248 ) ;
#30 = CARTESIAN_POINT ( 'NONE',  ( 70.00000000000000000, -18.52508411180257042, 17.30387744968384212 ) ) ;
#31 = DIRECTION ( 'NONE',  ( 1.000000000000000000, 0.000000000000000000, 0.000000000000000000 ) ) ;
#32 = DIRECTION ( 'NONE',  ( 1.000000000000000000, 0.000000000000000000, 0.000000000000000000 ) ) ;
#33 = VECTOR ( 'NONE', #258, 1000.000000000000000 ) ;
#34 = CARTESIAN_POINT ( 'NONE',  ( 190.0000000000000000, -18.52508411180257042, 17.30387744968384212 ) ) ;
#35 = LINE ( 'NONE', #204, #252 ) ;
#36 = CARTESIAN_POINT ( 'NONE',  ( 70.00000000000000000, -18.52508411180257042, 17.30387744968384212 ) ) ;
#37 = PRODUCT_DEFINITION_SHAPE ( 'NONE', 'NONE',  #61 ) ;
#38 = ADVANCED_FACE ( 'NONE', ( #208 ), #202, .F. ) ;
#39 = DIRECTION ( 'NONE',  ( 1.000000000000000000, 0.000000000000000000, 0.000000000000000000 ) ) ;
#40 = ORIENTED_EDGE ( 'NONE', *, *, #189, .F. ) ;
#41 = CARTESIAN_POINT ( 'NONE',  ( 70.00000000000000000, -18.52508411180257042, -17.30387744968384212 ) ) ;
#42 = ORIENTED_EDGE ( 'NONE', *, *, #22, .F. ) ;
#43 = UNCERTAINTY_MEASURE_WITH_UNIT (LENGTH_MEASURE( 1.000000000000000082E-05 ), #81, 'distance_accuracy_value', 'NONE');
#44 = EDGE_LOOP ( 'NONE', ( #152, #109, #67, #85 ) ) ;
#45 =( GEOMETRIC_REPRESENTATION_CONTEXT ( 3 ) GLOBAL_UNCERTAINTY_ASSIGNED_CONTEXT ( ( #43 ) ) GLOBAL_UNIT_ASSIGNED_CONTEXT ( ( #81, #98, #148 ) ) REPRESENTATION_CONTEXT ( 'NONE', 'WORKASPACE' ) );
#46 = ORIENTED_EDGE ( 'NONE', *, *, #52, .F. ) ;
#47 = CARTESIAN_POINT ( 'NONE',  ( 190.0000000000000000, 18.52508411180257042, -17.30387744968384212 ) ) ;
#48 = EDGE_CURVE ( 'NONE', #20, #132, #256, .T. ) ;
#49 = DIRECTION ( 'NONE',  ( 0.000000000000000000, 0.000000000000000000, -1.000000000000000000 ) ) ;
#50 = AXIS2_PLACEMENT_3D ( 'NONE', #34, #49, #94 ) ;
#51 = DIRECTION ( 'NONE',  ( 0.000000000000000000, 0.000000000000000000, -1.000000000000000000 ) ) ;
#52 = EDGE_CURVE ( 'NONE', #107, #88, #265, .T. ) ;
#53 = CARTESIAN_POINT ( 'NONE',  ( 70.00000000000000000, 0.000000000000000000, 0.000000000000000000 ) ) ;
#54 = CARTESIAN_POINT ( 'NONE',  ( 190.0000000000000000, 18.52508411180257042, 17.30387744968384212 ) ) ;
#55 = DIRECTION ( 'NONE',  ( 0.000000000000000000, -1.000000000000000000, 0.000000000000000000 ) ) ;
#56 =( LENGTH_UNIT ( ) NAMED_UNIT ( * ) SI_UNIT ( .MILLI., .METRE. ) );
#57 =( NAMED_UNIT ( * ) SI_UNIT ( $, .STERADIAN. ) SOLID_ANGLE_UNIT ( ) );
#58 = ORIENTED_EDGE ( 'NONE', *, *, #70, .T. ) ;
#59 = SURFACE_SIDE_STYLE ('',( #146 ) ) ;
#60 = AXIS2_PLACEMENT_3D ( 'NONE', #237, #257, #161 ) ;
#61 = PRODUCT_DEFINITION ( 'UNKNOWN', '', #15, #82 ) ;
#62 = DIRECTION ( 'NONE',  ( -1.000000000000000000, -0.000000000000000000, -0.000000000000000000 ) ) ;
#63 = VERTEX_POINT ( 'NONE', #140 ) ;
#64 = DIRECTION ( 'NONE',  ( -1.000000000000000000, -0.000000000000000000, -0.000000000000000000 ) ) ;
#65 = ORIENTED_EDGE ( 'NONE', *, *, #212, .F. ) ;
#66 = AXIS2_PLACEMENT_3D ( 'NONE', #139, #31, #6 ) ;
#67 = ORIENTED_EDGE ( 'NONE', *, *, #147, .T. ) ;
#68 = DIRECTION ( 'NONE',  ( -1.000000000000000000, -0.000000000000000000, -0.000000000000000000 ) ) ;
#69 = LINE ( 'NONE', #10, #159 ) ;
#70 = EDGE_CURVE ( 'NONE', #120, #233, #102, .T. ) ;
#71 = CARTESIAN_POINT ( 'NONE',  ( 190.0000000000000000, 18.52508411180257042, -17.30387744968384212 ) ) ;
#72 = CARTESIAN_POINT ( 'NONE',  ( 70.00000000000000000, 0.000000000000000000, 0.000000000000000000 ) ) ;
#73 = FACE_OUTER_BOUND ( 'NONE', #209, .T. ) ;
#74 = CARTESIAN_POINT ( 'NONE',  ( 190.0000000000000000, -18.52508411180257042, 17.30387744968384212 ) ) ;
#75 = ADVANCED_FACE ( 'NONE', ( #236 ), #175, .T. ) ;
#76 = PLANE ( 'NONE',  #178 ) ;
#77 = DIRECTION ( 'NONE',  ( -1.000000000000000000, -0.000000000000000000, -0.000000000000000000 ) ) ;
#78 = VECTOR ( 'NONE', #11, 1000.000000000000000 ) ;
#79 = DIRECTION ( 'NONE',  ( -1.000000000000000000, 0.000000000000000000, 0.000000000000000000 ) ) ;
#80 = PRODUCT ( 'SimpleHandle', 'SimpleHandle', '', ( #184 ) ) ;
#81 =( LENGTH_UNIT ( ) NAMED_UNIT ( * ) SI_UNIT ( .MILLI., .METRE. ) );
#82 = PRODUCT_DEFINITION_CONTEXT ( 'detailed design', #221, 'design' ) ;
#83 = CARTESIAN_POINT ( 'NONE',  ( 190.0000000000000000, -18.52508411180257042, -17.30387744968384212 ) ) ;
#84 = VECTOR ( 'NONE', #64, 1000.000000000000000 ) ;
#85 = ORIENTED_EDGE ( 'NONE', *, *, #100, .F. ) ;
#86 = EDGE_LOOP ( 'NONE', ( #104, #155, #229, #87 ) ) ;
#87 = ORIENTED_EDGE ( 'NONE', *, *, #12, .T. ) ;
#88 = VERTEX_POINT ( 'NONE', #116 ) ;
#89 = VECTOR ( 'NONE', #68, 1000.000000000000000 ) ;
#90 = DIRECTION ( 'NONE',  ( 1.000000000000000000, 0.000000000000000000, 0.000000000000000000 ) ) ;
#91 = CARTESIAN_POINT ( 'NONE',  ( 190.0000000000000000, -18.52508411180257042, -17.30387744968384212 ) ) ;
#92 = CARTESIAN_POINT ( 'NONE',  ( 70.00000000000000000, 18.52508411180257042, -17.30387744968384212 ) ) ;
#93 = DIRECTION ( 'NONE',  ( 0.000000000000000000, 0.000000000000000000, -1.000000000000000000 ) ) ;
#94 = DIRECTION ( 'NONE',  ( -1.000000000000000000, 0.000000000000000000, -0.000000000000000000 ) ) ;
#95 = EDGE_CURVE ( 'NONE', #132, #99, #259, .T. ) ;
#96 = CARTESIAN_POINT ( 'NONE',  ( 190.0000000000000000, -18.52508411180257042, -17.30387744968384212 ) ) ;
#97 = VECTOR ( 'NONE', #113, 1000.000000000000000 ) ;
#98 =( NAMED_UNIT ( * ) PLANE_ANGLE_UNIT ( ) SI_UNIT ( $, .RADIAN. ) );
#99 = VERTEX_POINT ( 'NONE', #138 ) ;
#100 = EDGE_CURVE ( 'NONE', #120, #107, #235, .T. ) ;
#101 = CARTESIAN_POINT ( 'NONE',  ( 70.00000000000000000, 1.555301434917138433E-15, -12.69999999999999929 ) ) ;
#102 = CIRCLE ( 'NONE', #14, 12.69999999999999929 ) ;
#103 = DIRECTION ( 'NONE',  ( -1.000000000000000000, 0.000000000000000000, 0.000000000000000000 ) ) ;
#104 = ORIENTED_EDGE ( 'NONE', *, *, #141, .T. ) ;
#105 = VECTOR ( 'NONE', #206, 1000.000000000000000 ) ;
#106 =( GEOMETRIC_REPRESENTATION_CONTEXT ( 3 ) GLOBAL_UNCERTAINTY_ASSIGNED_CONTEXT ( ( #194 ) ) GLOBAL_UNIT_ASSIGNED_CONTEXT ( ( #56, #119, #57 ) ) REPRESENTATION_CONTEXT ( 'NONE', 'WORKASPACE' ) );
#107 = VERTEX_POINT ( 'NONE', #197 ) ;
#108 = EDGE_LOOP ( 'NONE', ( #58, #226 ) ) ;
#109 = ORIENTED_EDGE ( 'NONE', *, *, #144, .T. ) ;
#110 = ADVANCED_BREP_SHAPE_REPRESENTATION ( 'SimpleHandle', ( #248, #227 ), #106 ) ;
#111 = DIRECTION ( 'NONE',  ( -1.000000000000000000, -0.000000000000000000, -0.000000000000000000 ) ) ;
#112 = COLOUR_RGB ( '',0.7921568627450980005, 0.8196078431372548767, 0.9333333333333333481 ) ;
#113 = DIRECTION ( 'NONE',  ( 0.000000000000000000, 0.000000000000000000, 1.000000000000000000 ) ) ;
#114 = DIRECTION ( 'NONE',  ( 0.000000000000000000, 0.000000000000000000, 1.000000000000000000 ) ) ;
#115 = PLANE ( 'NONE',  #50 ) ;
#116 = CARTESIAN_POINT ( 'NONE',  ( 0.000000000000000000, 1.555301434917138433E-15, -12.69999999999999929 ) ) ;
#117 = EDGE_CURVE ( 'NONE', #233, #120, #19, .T. ) ;
#118 = FILL_AREA_STYLE_COLOUR ( '', #112 ) ;
#119 =( NAMED_UNIT ( * ) PLANE_ANGLE_UNIT ( ) SI_UNIT ( $, .RADIAN. ) );
#120 = VERTEX_POINT ( 'NONE', #199 ) ;
#121 = AXIS2_PLACEMENT_3D ( 'NONE', #201, #32, #93 ) ;
#122 = DIRECTION ( 'NONE',  ( 0.000000000000000000, 0.000000000000000000, 1.000000000000000000 ) ) ;
#123 = DIRECTION ( 'NONE',  ( 0.000000000000000000, -0.000000000000000000, 1.000000000000000000 ) ) ;
#124 = LINE ( 'NONE', #241, #78 ) ;
#125 = VERTEX_POINT ( 'NONE', #180 ) ;
#126 = VECTOR ( 'NONE', #198, 1000.000000000000000 ) ;
#127 = CARTESIAN_POINT ( 'NONE',  ( 0.000000000000000000, 0.000000000000000000, 0.000000000000000000 ) ) ;
#128 = ORIENTED_EDGE ( 'NONE', *, *, #189, .T. ) ;
#129 = ADVANCED_FACE ( 'NONE', ( #73 ), #174, .T. ) ;
#130 = LINE ( 'NONE', #74, #137 ) ;
#131 = ORIENTED_EDGE ( 'NONE', *, *, #52, .T. ) ;
#132 = VERTEX_POINT ( 'NONE', #255 ) ;
#133 = ORIENTED_EDGE ( 'NONE', *, *, #48, .T. ) ;
#134 = DIRECTION ( 'NONE',  ( 1.000000000000000000, 0.000000000000000000, -0.000000000000000000 ) ) ;
#135 = FACE_OUTER_BOUND ( 'NONE', #16, .T. ) ;
#136 = VECTOR ( 'NONE', #62, 1000.000000000000000 ) ;
#137 = VECTOR ( 'NONE', #77, 1000.000000000000000 ) ;
#138 = CARTESIAN_POINT ( 'NONE',  ( 70.00000000000000000, 18.52508411180257042, 17.30387744968384212 ) ) ;
#139 = CARTESIAN_POINT ( 'NONE',  ( 70.00000000000000000, 0.000000000000000000, 0.000000000000000000 ) ) ;
#140 = CARTESIAN_POINT ( 'NONE',  ( 190.0000000000000000, -18.52508411180257042, 17.30387744968384212 ) ) ;
#141 = EDGE_CURVE ( 'NONE', #21, #99, #8, .T. ) ;
#142 = AXIS2_PLACEMENT_3D ( 'NONE', #207, #103, #230 ) ;
#143 = PLANE ( 'NONE',  #25 ) ;
#144 = EDGE_CURVE ( 'NONE', #233, #88, #69, .T. ) ;
#145 = DIRECTION ( 'NONE',  ( 0.000000000000000000, -0.000000000000000000, -1.000000000000000000 ) ) ;
#146 = SURFACE_STYLE_FILL_AREA ( #224 ) ;
#147 = EDGE_CURVE ( 'NONE', #88, #107, #238, .T. ) ;
#148 =( NAMED_UNIT ( * ) SI_UNIT ( $, .STERADIAN. ) SOLID_ANGLE_UNIT ( ) );
#149 = DIRECTION ( 'NONE',  ( 0.000000000000000000, 0.000000000000000000, 1.000000000000000000 ) ) ;
#150 = ADVANCED_FACE ( 'NONE', ( #179 ), #115, .F. ) ;
#151 = PRESENTATION_LAYER_ASSIGNMENT (  '', '', ( #29 ) ) ;
#152 = ORIENTED_EDGE ( 'NONE', *, *, #117, .F. ) ;
#153 = ORIENTED_EDGE ( 'NONE', *, *, #22, .T. ) ;
#154 = FACE_OUTER_BOUND ( 'NONE', #210, .T. ) ;
#155 = ORIENTED_EDGE ( 'NONE', *, *, #95, .F. ) ;
#156 = LINE ( 'NONE', #47, #84 ) ;
#157 = CARTESIAN_POINT ( 'NONE',  ( 70.00000000000000000, 0.000000000000000000, 12.69999999999999929 ) ) ;
#158 = DIRECTION ( 'NONE',  ( -0.000000000000000000, -0.000000000000000000, -1.000000000000000000 ) ) ;
#159 = VECTOR ( 'NONE', #28, 1000.000000000000000 ) ;
#160 = DIRECTION ( 'NONE',  ( -1.000000000000000000, -0.000000000000000000, -0.000000000000000000 ) ) ;
#161 = DIRECTION ( 'NONE',  ( 0.000000000000000000, 0.000000000000000000, -1.000000000000000000 ) ) ;
#162 = DIRECTION ( 'NONE',  ( 0.000000000000000000, 0.000000000000000000, 1.000000000000000000 ) ) ;
#163 = LINE ( 'NONE', #243, #222 ) ;
#164 = SHAPE_DEFINITION_REPRESENTATION ( #37, #110 ) ;
#165 = LINE ( 'NONE', #264, #105 ) ;
#166 = SURFACE_STYLE_USAGE ( .BOTH. , #59 ) ;
#167 = ORIENTED_EDGE ( 'NONE', *, *, #12, .F. ) ;
#168 = AXIS2_PLACEMENT_3D ( 'NONE', #216, #111, #114 ) ;
#169 = ORIENTED_EDGE ( 'NONE', *, *, #200, .F. ) ;
#170 = ORIENTED_EDGE ( 'NONE', *, *, #196, .F. ) ;
#171 = ORIENTED_EDGE ( 'NONE', *, *, #100, .T. ) ;
#172 = CLOSED_SHELL ( 'NONE', ( #75, #129, #38, #225, #150, #231, #181, #13, #240 ) ) ;
#173 = ORIENTED_EDGE ( 'NONE', *, *, #254, .F. ) ;
#174 = CYLINDRICAL_SURFACE ( 'NONE', #24, 12.69999999999999929 ) ;
#175 = CYLINDRICAL_SURFACE ( 'NONE', #168, 12.69999999999999929 ) ;
#176 = VECTOR ( 'NONE', #160, 1000.000000000000000 ) ;
#177 = DIRECTION ( 'NONE',  ( 0.000000000000000000, 0.000000000000000000, 1.000000000000000000 ) ) ;
#178 = AXIS2_PLACEMENT_3D ( 'NONE', #245, #79, #122 ) ;
#179 = FACE_OUTER_BOUND ( 'NONE', #192, .T. ) ;
#180 = CARTESIAN_POINT ( 'NONE',  ( 190.0000000000000000, -18.52508411180257042, -17.30387744968384212 ) ) ;
#181 = ADVANCED_FACE ( 'NONE', ( #135 ), #215, .F. ) ;
#182 = CARTESIAN_POINT ( 'NONE',  ( 190.0000000000000000, 18.52508411180257042, -17.30387744968384212 ) ) ;
#183 = PRODUCT_RELATED_PRODUCT_CATEGORY ( 'part', '', ( #80 ) ) ;
#184 = PRODUCT_CONTEXT ( 'NONE', #2, 'mechanical' ) ;
#185 = DIRECTION ( 'NONE',  ( -0.000000000000000000, -1.000000000000000000, -0.000000000000000000 ) ) ;
#186 = EDGE_CURVE ( 'NONE', #99, #267, #213, .T. ) ;
#187 = DIRECTION ( 'NONE',  ( 0.000000000000000000, 1.000000000000000000, 0.000000000000000000 ) ) ;
#188 = ORIENTED_EDGE ( 'NONE', *, *, #141, .F. ) ;
#189 = EDGE_CURVE ( 'NONE', #63, #125, #7, .T. ) ;
#190 = ORIENTED_EDGE ( 'NONE', *, *, #196, .T. ) ;
#191 = VECTOR ( 'NONE', #158, 1000.000000000000000 ) ;
#192 = EDGE_LOOP ( 'NONE', ( #1, #203, #170, #251 ) ) ;
#193 = PLANE ( 'NONE',  #142 ) ;
#194 = UNCERTAINTY_MEASURE_WITH_UNIT (LENGTH_MEASURE( 1.000000000000000082E-05 ), #56, 'distance_accuracy_value', 'NONE');
#195 = ORIENTED_EDGE ( 'NONE', *, *, #186, .F. ) ;
#196 = EDGE_CURVE ( 'NONE', #132, #63, #163, .T. ) ;
#197 = CARTESIAN_POINT ( 'NONE',  ( 0.000000000000000000, 0.000000000000000000, 12.69999999999999929 ) ) ;
#198 = DIRECTION ( 'NONE',  ( -0.000000000000000000, -1.000000000000000000, -0.000000000000000000 ) ) ;
#199 = CARTESIAN_POINT ( 'NONE',  ( 70.00000000000000000, 0.000000000000000000, 12.69999999999999929 ) ) ;
#200 = EDGE_CURVE ( 'NONE', #267, #23, #165, .T. ) ;
#201 = CARTESIAN_POINT ( 'NONE',  ( 0.000000000000000000, 0.000000000000000000, 0.000000000000000000 ) ) ;
#202 = PLANE ( 'NONE',  #60 ) ;
#203 = ORIENTED_EDGE ( 'NONE', *, *, #262, .F. ) ;
#204 = CARTESIAN_POINT ( 'NONE',  ( 190.0000000000000000, -18.52508411180257042, -17.30387744968384212 ) ) ;
#205 = APPLICATION_PROTOCOL_DEFINITION ( 'draft international standard', 'automotive_design', 1998, #2 ) ;
#206 = DIRECTION ( 'NONE',  ( -0.000000000000000000, -0.000000000000000000, -1.000000000000000000 ) ) ;
#207 = CARTESIAN_POINT ( 'NONE',  ( 190.0000000000000000, 0.000000000000000000, 0.000000000000000000 ) ) ;
#208 = FACE_OUTER_BOUND ( 'NONE', #249, .T. ) ;
#209 = EDGE_LOOP ( 'NONE', ( #26, #228, #171, #131 ) ) ;
#210 = EDGE_LOOP ( 'NONE', ( #133, #190, #128, #253 ) ) ;
#211 = EDGE_LOOP ( 'NONE', ( #188, #173, #169, #195 ) ) ;
#212 = EDGE_CURVE ( 'NONE', #125, #20, #35, .T. ) ;
#213 = LINE ( 'NONE', #30, #126 ) ;
#214 = AXIS2_PLACEMENT_3D ( 'NONE', #9, #90, #51 ) ;
#215 = PLANE ( 'NONE',  #218 ) ;
#216 = CARTESIAN_POINT ( 'NONE',  ( 70.00000000000000000, 0.000000000000000000, 0.000000000000000000 ) ) ;
#217 = DIRECTION ( 'NONE',  ( 1.000000000000000000, 0.000000000000000000, 0.000000000000000000 ) ) ;
#218 = AXIS2_PLACEMENT_3D ( 'NONE', #239, #177, #134 ) ;
#219 = DIRECTION ( 'NONE',  ( -1.000000000000000000, -0.000000000000000000, -0.000000000000000000 ) ) ;
#220 = DIRECTION ( 'NONE',  ( 0.000000000000000000, 1.000000000000000000, 0.000000000000000000 ) ) ;
#221 = APPLICATION_CONTEXT ( 'automotive_design' ) ;
#222 = VECTOR ( 'NONE', #185, 1000.000000000000000 ) ;
#223 = PRESENTATION_STYLE_ASSIGNMENT (( #166 ) ) ;
#224 = FILL_AREA_STYLE ('',( #118 ) ) ;
#225 = ADVANCED_FACE ( 'NONE', ( #17 ), #18, .F. ) ;
#226 = ORIENTED_EDGE ( 'NONE', *, *, #117, .T. ) ;
#227 = AXIS2_PLACEMENT_3D ( 'NONE', #127, #149, #39 ) ;
#228 = ORIENTED_EDGE ( 'NONE', *, *, #70, .F. ) ;
#229 = ORIENTED_EDGE ( 'NONE', *, *, #48, .F. ) ;
#230 = DIRECTION ( 'NONE',  ( 0.000000000000000000, 0.000000000000000000, 1.000000000000000000 ) ) ;
#231 = ADVANCED_FACE ( 'NONE', ( #260 ), #143, .F. ) ;
#232 = ORIENTED_EDGE ( 'NONE', *, *, #200, .T. ) ;
#233 = VERTEX_POINT ( 'NONE', #101 ) ;
#234 = DIRECTION ( 'NONE',  ( 0.000000000000000000, 0.000000000000000000, -1.000000000000000000 ) ) ;
#235 = LINE ( 'NONE', #157, #176 ) ;
#236 = FACE_OUTER_BOUND ( 'NONE', #44, .T. ) ;
#237 = CARTESIAN_POINT ( 'NONE',  ( 0.000000000000000000, 0.000000000000000000, 0.000000000000000000 ) ) ;
#238 = CIRCLE ( 'NONE', #121, 12.69999999999999929 ) ;
#239 = CARTESIAN_POINT ( 'NONE',  ( 190.0000000000000000, -18.52508411180257042, -17.30387744968384212 ) ) ;
#240 = ADVANCED_FACE ( 'NONE', ( #263, #261 ), #76, .T. ) ;
#241 = CARTESIAN_POINT ( 'NONE',  ( 70.00000000000000000, -18.52508411180257042, -17.30387744968384212 ) ) ;
#242 = ORIENTED_EDGE ( 'NONE', *, *, #147, .F. ) ;
#243 = CARTESIAN_POINT ( 'NONE',  ( 190.0000000000000000, -18.52508411180257042, 17.30387744968384212 ) ) ;
#244 = MECHANICAL_DESIGN_GEOMETRIC_PRESENTATION_REPRESENTATION (  '', ( #29 ), #45 ) ;
#245 = CARTESIAN_POINT ( 'NONE',  ( 70.00000000000000000, 0.000000000000000000, 0.000000000000000000 ) ) ;
#246 = APPLICATION_PROTOCOL_DEFINITION ( 'draft international standard', 'automotive_design', 1998, #221 ) ;
#247 = LINE ( 'NONE', #83, #136 ) ;
#248 = MANIFOLD_SOLID_BREP ( 'Boss-Extrude2', #172 ) ;
#249 = EDGE_LOOP ( 'NONE', ( #46, #242 ) ) ;
#250 = ORIENTED_EDGE ( 'NONE', *, *, #262, .T. ) ;
#251 = ORIENTED_EDGE ( 'NONE', *, *, #95, .T. ) ;
#252 = VECTOR ( 'NONE', #187, 1000.000000000000000 ) ;
#253 = ORIENTED_EDGE ( 'NONE', *, *, #212, .T. ) ;
#254 = EDGE_CURVE ( 'NONE', #23, #21, #124, .T. ) ;
#255 = CARTESIAN_POINT ( 'NONE',  ( 190.0000000000000000, 18.52508411180257042, 17.30387744968384212 ) ) ;
#256 = LINE ( 'NONE', #71, #33 ) ;
#257 = DIRECTION ( 'NONE',  ( 1.000000000000000000, 0.000000000000000000, 0.000000000000000000 ) ) ;
#258 = DIRECTION ( 'NONE',  ( 0.000000000000000000, 0.000000000000000000, 1.000000000000000000 ) ) ;
#259 = LINE ( 'NONE', #54, #89 ) ;
#260 = FACE_OUTER_BOUND ( 'NONE', #27, .T. ) ;
#261 = FACE_OUTER_BOUND ( 'NONE', #211, .T. ) ;
#262 = EDGE_CURVE ( 'NONE', #63, #267, #130, .T. ) ;
#263 = FACE_BOUND ( 'NONE', #108, .T. ) ;
#264 = CARTESIAN_POINT ( 'NONE',  ( 70.00000000000000000, -18.52508411180257042, -17.30387744968384212 ) ) ;
#265 = CIRCLE ( 'NONE', #214, 12.69999999999999929 ) ;
#266 = CARTESIAN_POINT ( 'NONE',  ( 70.00000000000000000, 18.52508411180257042, -17.30387744968384212 ) ) ;
#267 = VERTEX_POINT ( 'NONE', #36 ) ;
ENDSEC;
END-ISO-10303-21;
