%TF.GenerationSoftware,KiCad,Pcbnew,9.0.3*%
%TF.CreationDate,2025-10-08T17:43:42-04:00*%
%TF.ProjectId,flight_stick,666c6967-6874-45f7-9374-69636b2e6b69,5*%
%TF.SameCoordinates,Original*%
%TF.FileFunction,Copper,L3,Inr*%
%TF.FilePolarity,Positive*%
%FSLAX46Y46*%
G04 Gerber Fmt 4.6, Leading zero omitted, Abs format (unit mm)*
G04 Created by KiCad (PCBNEW 9.0.3) date 2025-10-08 17:43:42*
%MOMM*%
%LPD*%
G01*
G04 APERTURE LIST*
G04 Aperture macros list*
%AMRoundRect*
0 Rectangle with rounded corners*
0 $1 Rounding radius*
0 $2 $3 $4 $5 $6 $7 $8 $9 X,Y pos of 4 corners*
0 Add a 4 corners polygon primitive as box body*
4,1,4,$2,$3,$4,$5,$6,$7,$8,$9,$2,$3,0*
0 Add four circle primitives for the rounded corners*
1,1,$1+$1,$2,$3*
1,1,$1+$1,$4,$5*
1,1,$1+$1,$6,$7*
1,1,$1+$1,$8,$9*
0 Add four rect primitives between the rounded corners*
20,1,$1+$1,$2,$3,$4,$5,0*
20,1,$1+$1,$4,$5,$6,$7,0*
20,1,$1+$1,$6,$7,$8,$9,0*
20,1,$1+$1,$8,$9,$2,$3,0*%
%AMHorizOval*
0 Thick line with rounded ends*
0 $1 width*
0 $2 $3 position (X,Y) of the first rounded end (center of the circle)*
0 $4 $5 position (X,Y) of the second rounded end (center of the circle)*
0 Add line between two ends*
20,1,$1,$2,$3,$4,$5,0*
0 Add two circle primitives to create the rounded ends*
1,1,$1,$2,$3*
1,1,$1,$4,$5*%
%AMRotRect*
0 Rectangle, with rotation*
0 The origin of the aperture is its center*
0 $1 length*
0 $2 width*
0 $3 Rotation angle, in degrees counterclockwise*
0 Add horizontal line*
21,1,$1,$2,0,0,$3*%
G04 Aperture macros list end*
%TA.AperFunction,ComponentPad*%
%ADD10RotRect,1.000000X1.000000X45.000000*%
%TD*%
%TA.AperFunction,ComponentPad*%
%ADD11C,1.000000*%
%TD*%
%TA.AperFunction,ComponentPad*%
%ADD12RoundRect,0.250000X0.088388X-0.936916X0.936916X-0.088388X-0.088388X0.936916X-0.936916X0.088388X0*%
%TD*%
%TA.AperFunction,ComponentPad*%
%ADD13HorizOval,1.700000X-0.088388X0.088388X0.088388X-0.088388X0*%
%TD*%
%TA.AperFunction,HeatsinkPad*%
%ADD14HorizOval,1.000000X-0.388909X-0.388909X0.388909X0.388909X0*%
%TD*%
%TA.AperFunction,HeatsinkPad*%
%ADD15HorizOval,1.000000X-0.212132X-0.212132X0.212132X0.212132X0*%
%TD*%
%TA.AperFunction,ComponentPad*%
%ADD16C,1.300000*%
%TD*%
%TA.AperFunction,ComponentPad*%
%ADD17RoundRect,0.250000X0.350000X-0.350000X0.350000X0.350000X-0.350000X0.350000X-0.350000X-0.350000X0*%
%TD*%
%TA.AperFunction,ComponentPad*%
%ADD18C,1.200000*%
%TD*%
%TA.AperFunction,ComponentPad*%
%ADD19R,1.000000X1.000000*%
%TD*%
%TA.AperFunction,HeatsinkPad*%
%ADD20C,0.500000*%
%TD*%
%TA.AperFunction,ViaPad*%
%ADD21C,0.800000*%
%TD*%
G04 APERTURE END LIST*
D10*
%TO.N,+3.3VA*%
%TO.C,J12*%
X-75596664Y50781787D03*
D11*
%TO.N,Net-(J12-Pin_2)*%
X-74698638Y49883761D03*
%TO.N,Net-(J12-Pin_3)*%
X-73800613Y48985736D03*
%TO.N,GNDA*%
X-72902587Y48087710D03*
%TD*%
D12*
%TO.N,GND*%
%TO.C,J1*%
X-33938121Y30052175D03*
D13*
%TO.N,+12V*%
X-32170354Y31819942D03*
%TO.N,/CAN_IO/CAN_L*%
X-30402587Y33587709D03*
%TO.N,/CAN_IO/CAN_H*%
X-28634820Y35355476D03*
%TD*%
D14*
%TO.N,GND*%
%TO.C,J10*%
X-92244044Y39355655D03*
D15*
X-95199750Y36399948D03*
D14*
X-86134641Y33246252D03*
D15*
X-89090348Y30290546D03*
%TD*%
D16*
%TO.N,GNDA*%
%TO.C,NT1*%
X-87902587Y44387709D03*
%TO.N,GND*%
X-87902587Y41787709D03*
%TD*%
D12*
%TO.N,GND*%
%TO.C,J3*%
X-44705888Y19284408D03*
D13*
%TO.N,+12V*%
X-42938121Y21052175D03*
%TO.N,/CAN_IO/CAN_L*%
X-41170354Y22819942D03*
%TO.N,/CAN_IO/CAN_H*%
X-39402587Y24587709D03*
%TD*%
D17*
%TO.N,/MTX_ROW1*%
%TO.C,J2*%
X-28902587Y43587709D03*
D18*
%TO.N,/MTX_COL1*%
X-26902587Y43587709D03*
%TO.N,/MTX_ROW2*%
X-28902587Y45587709D03*
%TO.N,/MTX_COL2*%
X-26902587Y45587709D03*
%TO.N,/MTX_ROW3*%
X-28902587Y47587709D03*
%TO.N,/MTX_COL3*%
X-26902587Y47587709D03*
%TO.N,/MTX_ROW4*%
X-28902587Y49587709D03*
%TO.N,/MTX_COL4*%
X-26902587Y49587709D03*
%TO.N,/MTX_ROW5*%
X-28902587Y51587709D03*
%TO.N,/MTX_COL5*%
X-26902587Y51587709D03*
%TD*%
D19*
%TO.N,+3.3VA*%
%TO.C,J4*%
X-80702587Y62787709D03*
D11*
%TO.N,Net-(J4-Pin_2)*%
X-80702587Y61517709D03*
%TO.N,Net-(J4-Pin_3)*%
X-80702587Y60247709D03*
%TO.N,GNDA*%
X-80702587Y58977709D03*
%TD*%
D19*
%TO.N,+3.3VA*%
%TO.C,J6*%
X-62712586Y44587709D03*
D11*
%TO.N,Net-(J6-Pin_2)*%
X-61442586Y44587709D03*
%TO.N,Net-(J6-Pin_3)*%
X-60172586Y44587709D03*
%TO.N,GNDA*%
X-58902586Y44587709D03*
%TD*%
D20*
%TO.N,GND*%
%TO.C,U1*%
X-61352588Y17087710D03*
X-60402588Y17087710D03*
X-59452588Y17087710D03*
%TD*%
D21*
%TO.N,/~{RESET}*%
X-78721600Y19371600D03*
%TO.N,+3.3V*%
X-58902587Y29787709D03*
X-81902587Y32237709D03*
X-51902587Y35087709D03*
X-65902587Y20087709D03*
X-72711980Y23861980D03*
X-72402587Y45087709D03*
X-54402587Y46087709D03*
X-68152587Y35837709D03*
%TO.N,GND*%
X-34402587Y61587709D03*
X-60921600Y38771600D03*
X-66402587Y37587709D03*
X-80402587Y33587709D03*
X-44902587Y28587709D03*
X-60921600Y35071600D03*
X-73297256Y42632378D03*
X-44902587Y50087709D03*
X-62821600Y36571600D03*
X-58921600Y36671600D03*
%TO.N,+5V*%
X-89902587Y34587709D03*
X-85902587Y39587709D03*
%TO.N,/ADC_DRDY*%
X-82402587Y39587709D03*
X-70302587Y45837709D03*
%TO.N,/ADC_SCK*%
X-80902587Y40087709D03*
X-71145730Y44587709D03*
%TO.N,Net-(JP1-B)*%
X-59727667Y20571600D03*
%TO.N,/~{RESET}*%
X-70621600Y24371600D03*
X-53902587Y32087709D03*
X-78402587Y21587709D03*
%TO.N,+3.3VA*%
X-86902587Y53087709D03*
X-86902587Y50587709D03*
X-77902587Y46587709D03*
%TO.N,/Power/Vin_{pwr}*%
X-95402587Y43587709D03*
X-68921600Y27071600D03*
%TO.N,/EEPROM_SCK*%
X-51402587Y46087709D03*
X-50402587Y44087709D03*
%TO.N,/EEPROM_SDA*%
X-52902587Y44087709D03*
X-52902587Y47087709D03*
%TO.N,/RGB_B*%
X-41180405Y50865527D03*
X-67902587Y32087709D03*
%TO.N,/RGB_R*%
X-65892146Y33307378D03*
X-39810127Y51337709D03*
%TO.N,/RGB_G*%
X-37402587Y51087709D03*
X-64863680Y33207377D03*
%TO.N,/ADC_MISO*%
X-71902587Y43377966D03*
X-79402587Y40587709D03*
%TO.N,/ADC_MOSI*%
X-77902587Y41587709D03*
X-76841320Y43878400D03*
%TO.N,GNDA*%
X-94821600Y49071600D03*
X-78450595Y48439701D03*
%TD*%
%TA.AperFunction,Conductor*%
%TO.N,GNDA*%
G36*
X-78960048Y64567524D02*
G01*
X-78914293Y64514720D01*
X-78903087Y64463209D01*
X-78903087Y64171824D01*
X-78902473Y64158551D01*
X-78864674Y63340949D01*
X-78787928Y62512732D01*
X-78787926Y62512711D01*
X-78673014Y61688933D01*
X-78628109Y61448714D01*
X-78522305Y60882709D01*
X-78520172Y60871303D01*
X-78329742Y60061644D01*
X-78329740Y60061637D01*
X-78102124Y59261650D01*
X-78102115Y59261621D01*
X-77840106Y58479890D01*
X-77837789Y58472979D01*
X-77645920Y57977709D01*
X-77537312Y57697359D01*
X-77201349Y56936477D01*
X-76830610Y56191933D01*
X-76830598Y56191911D01*
X-76425856Y55465259D01*
X-76057465Y54870286D01*
X-75987982Y54758068D01*
X-75987981Y54758066D01*
X-75902862Y54633806D01*
X-75901526Y54631855D01*
X-75900343Y54629980D01*
X-75894975Y54622292D01*
X-75894687Y54621872D01*
X-75894620Y54621775D01*
X-75517922Y54071865D01*
X-75422525Y53945540D01*
X-75421140Y53943706D01*
X-75417118Y53937946D01*
X-75400585Y53916486D01*
X-75400265Y53916063D01*
X-75016671Y53408102D01*
X-75016655Y53408082D01*
X-74910588Y53280350D01*
X-74909126Y53278589D01*
X-74901986Y53269322D01*
X-74875223Y53237762D01*
X-74874819Y53237276D01*
X-74485297Y52768193D01*
X-74485288Y52768183D01*
X-74485287Y52768182D01*
X-74440445Y52718992D01*
X-74366658Y52638052D01*
X-74356081Y52625579D01*
X-74319849Y52586705D01*
X-74266453Y52528132D01*
X-73924967Y52153539D01*
X-73924953Y52153524D01*
X-73924938Y52153508D01*
X-73924918Y52153488D01*
X-73794877Y52023447D01*
X-73780602Y52008131D01*
X-73735678Y51964248D01*
X-73336788Y51565358D01*
X-73195041Y51436139D01*
X-73176815Y51418335D01*
X-73123946Y51371327D01*
X-73123323Y51370759D01*
X-73123322Y51370758D01*
X-72733704Y51015574D01*
X-72722103Y51004999D01*
X-72568405Y50877370D01*
X-72546046Y50857489D01*
X-72486049Y50808983D01*
X-72082195Y50473626D01*
X-72082171Y50473608D01*
X-71917981Y50349617D01*
X-71916342Y50348379D01*
X-71889682Y50326825D01*
X-71823358Y50278161D01*
X-71607288Y50114993D01*
X-71438077Y49987210D01*
X-71418429Y49972373D01*
X-71241920Y49851462D01*
X-71241920Y49851461D01*
X-71240265Y49850327D01*
X-71209166Y49827509D01*
X-71137276Y49779778D01*
X-71136599Y49779314D01*
X-71136523Y49779263D01*
X-70732222Y49502310D01*
X-70541646Y49384311D01*
X-70505994Y49360639D01*
X-70429212Y49314695D01*
X-70025037Y49064440D01*
X-69821964Y48951329D01*
X-69781711Y48927242D01*
X-69700813Y48883849D01*
X-69298385Y48659698D01*
X-69298377Y48659694D01*
X-69298364Y48659687D01*
X-69084517Y48553204D01*
X-69084518Y48553204D01*
X-69082806Y48552352D01*
X-69037911Y48528270D01*
X-68953629Y48488029D01*
X-68952725Y48487579D01*
X-68952700Y48487567D01*
X-68553816Y48288946D01*
X-68447483Y48241995D01*
X-68327413Y48188979D01*
X-68327412Y48188979D01*
X-68325755Y48188247D01*
X-68276227Y48164600D01*
X-68189243Y48127972D01*
X-68188232Y48127525D01*
X-68188231Y48127524D01*
X-68015869Y48051419D01*
X-67792919Y47952977D01*
X-67792915Y47952976D01*
X-67792914Y47952975D01*
X-67554071Y47860446D01*
X-67554070Y47860446D01*
X-67552402Y47859800D01*
X-67498334Y47837032D01*
X-67409363Y47804387D01*
X-67017317Y47652507D01*
X-66764514Y47567776D01*
X-66705943Y47546285D01*
X-66615581Y47517859D01*
X-66228666Y47388178D01*
X-65963716Y47312794D01*
X-65900794Y47292999D01*
X-65809682Y47268967D01*
X-65428649Y47160554D01*
X-65151767Y47095432D01*
X-65084658Y47077730D01*
X-64993360Y47058175D01*
X-64618974Y46970120D01*
X-64618960Y46970118D01*
X-64618949Y46970115D01*
X-64545680Y46956419D01*
X-64330423Y46916181D01*
X-64259329Y46900953D01*
X-64168500Y46885912D01*
X-63801367Y46817283D01*
X-63501453Y46775447D01*
X-63426622Y46763054D01*
X-63336686Y46752463D01*
X-62977574Y46702369D01*
X-62666650Y46673558D01*
X-62588365Y46664338D01*
X-62499892Y46658106D01*
X-62149353Y46625623D01*
X-61827798Y46610757D01*
X-61746404Y46605022D01*
X-61659913Y46602995D01*
X-61318472Y46587209D01*
X-61318468Y46587209D01*
X-60986768Y46587209D01*
X-60902587Y46585235D01*
X-60818406Y46587209D01*
X-60486706Y46587209D01*
X-60486702Y46587209D01*
X-60145301Y46602993D01*
X-60058770Y46605022D01*
X-59977369Y46610757D01*
X-59655821Y46625623D01*
X-59305244Y46658109D01*
X-59216809Y46664338D01*
X-59138536Y46673557D01*
X-58827600Y46702369D01*
X-58468443Y46752470D01*
X-58378552Y46763054D01*
X-58303736Y46775445D01*
X-58003807Y46817283D01*
X-57636668Y46885914D01*
X-57545845Y46900953D01*
X-57474765Y46916178D01*
X-57193593Y46968738D01*
X-57186226Y46970115D01*
X-57186223Y46970116D01*
X-57186200Y46970120D01*
X-56812906Y47057919D01*
X-56810780Y47058397D01*
X-56720516Y47077730D01*
X-56719400Y47078025D01*
X-56716869Y47078568D01*
X-56683434Y47076089D01*
X-56649911Y47074387D01*
X-56648690Y47073512D01*
X-56647191Y47073400D01*
X-56620395Y47053231D01*
X-56593122Y47033682D01*
X-56592568Y47032286D01*
X-56591368Y47031382D01*
X-56579728Y46999922D01*
X-56567356Y46968738D01*
X-56567339Y46966436D01*
X-56567123Y46965854D01*
X-56567327Y46964930D01*
X-56567195Y46947823D01*
X-56893780Y42702199D01*
X-56918548Y42636866D01*
X-56974706Y42595296D01*
X-57017415Y42587709D01*
X-69859090Y42587709D01*
X-69926129Y42607394D01*
X-69936552Y42614881D01*
X-71324371Y43725137D01*
X-59411607Y43725137D01*
X-59376258Y43701517D01*
X-59194280Y43626140D01*
X-59194268Y43626137D01*
X-59001082Y43587710D01*
X-59001078Y43587709D01*
X-58804094Y43587709D01*
X-58804091Y43587710D01*
X-58610905Y43626137D01*
X-58610893Y43626140D01*
X-58428910Y43701519D01*
X-58428906Y43701522D01*
X-58393567Y43725136D01*
X-58393566Y43725137D01*
X-58902585Y44234156D01*
X-58902586Y44234156D01*
X-59411607Y43725137D01*
X-71324371Y43725137D01*
X-71404811Y43789489D01*
X-71444863Y43846740D01*
X-71447606Y43916555D01*
X-71412167Y43976771D01*
X-71349800Y44008268D01*
X-71295261Y44006093D01*
X-71224787Y43987209D01*
X-71224784Y43987209D01*
X-71066675Y43987209D01*
X-71066673Y43987209D01*
X-70913946Y44028132D01*
X-70777014Y44107189D01*
X-70665210Y44218993D01*
X-70586153Y44355925D01*
X-70545230Y44508652D01*
X-70545230Y44666766D01*
X-70586153Y44819493D01*
X-70620735Y44879391D01*
X-70665206Y44956419D01*
X-70665212Y44956427D01*
X-70777013Y45068228D01*
X-70777021Y45068234D01*
X-70844967Y45107462D01*
X-63413086Y45107462D01*
X-63413086Y44067957D01*
X-63401455Y44009480D01*
X-63401454Y44009479D01*
X-63357139Y43943157D01*
X-63290817Y43898842D01*
X-63290816Y43898841D01*
X-63232339Y43887210D01*
X-63232336Y43887209D01*
X-63232334Y43887209D01*
X-62192836Y43887209D01*
X-62192835Y43887210D01*
X-62178018Y43890157D01*
X-62134357Y43898841D01*
X-62134357Y43898842D01*
X-62134355Y43898842D01*
X-62068034Y43943157D01*
X-62035307Y43992136D01*
X-61981697Y44036940D01*
X-61912373Y44045649D01*
X-61863315Y44026347D01*
X-61774404Y43966938D01*
X-61774391Y43966931D01*
X-61665395Y43921784D01*
X-61646914Y43914129D01*
X-61646910Y43914129D01*
X-61646909Y43914128D01*
X-61511582Y43887209D01*
X-61511579Y43887209D01*
X-61373591Y43887209D01*
X-61282545Y43905320D01*
X-61238258Y43914129D01*
X-61139662Y43954969D01*
X-61110782Y43966931D01*
X-61110782Y43966932D01*
X-61110775Y43966934D01*
X-60996044Y44043595D01*
X-60951930Y44087709D01*
X-60895267Y44144371D01*
X-60833944Y44177856D01*
X-60764252Y44172872D01*
X-60719905Y44144371D01*
X-60619132Y44043598D01*
X-60619128Y44043595D01*
X-60504404Y43966938D01*
X-60504391Y43966931D01*
X-60395395Y43921784D01*
X-60376914Y43914129D01*
X-60376910Y43914129D01*
X-60376909Y43914128D01*
X-60241582Y43887209D01*
X-60241579Y43887209D01*
X-60103591Y43887209D01*
X-60074659Y43892964D01*
X-60074659Y43892965D01*
X-59968258Y43914129D01*
X-59869662Y43954969D01*
X-59840782Y43966931D01*
X-59840782Y43966932D01*
X-59840775Y43966934D01*
X-59726044Y44043595D01*
X-59628472Y44141167D01*
X-59551811Y44255898D01*
X-59535694Y44294810D01*
X-59508816Y44335035D01*
X-59256140Y44587710D01*
X-59298926Y44630496D01*
X-59227586Y44630496D01*
X-59227586Y44544922D01*
X-59205437Y44462264D01*
X-59162650Y44388155D01*
X-59102140Y44327645D01*
X-59028031Y44284858D01*
X-58945373Y44262709D01*
X-58859799Y44262709D01*
X-58777141Y44284858D01*
X-58703032Y44327645D01*
X-58642522Y44388155D01*
X-58599735Y44462264D01*
X-58577586Y44544922D01*
X-58577586Y44587710D01*
X-58549033Y44587710D01*
X-58549033Y44587709D01*
X-58040014Y44078689D01*
X-58040013Y44078690D01*
X-58016399Y44114029D01*
X-58016396Y44114033D01*
X-57941017Y44296016D01*
X-57941014Y44296028D01*
X-57902587Y44489214D01*
X-57902586Y44489217D01*
X-57902586Y44686201D01*
X-57902587Y44686205D01*
X-57941014Y44879391D01*
X-57941017Y44879403D01*
X-58016394Y45061381D01*
X-58040014Y45096730D01*
X-58549033Y44587710D01*
X-58577586Y44587710D01*
X-58577586Y44630496D01*
X-58599735Y44713154D01*
X-58642522Y44787263D01*
X-58703032Y44847773D01*
X-58777141Y44890560D01*
X-58859799Y44912709D01*
X-58945373Y44912709D01*
X-59028031Y44890560D01*
X-59102140Y44847773D01*
X-59162650Y44787263D01*
X-59205437Y44713154D01*
X-59227586Y44630496D01*
X-59298926Y44630496D01*
X-59508816Y44840386D01*
X-59535696Y44880615D01*
X-59551811Y44919520D01*
X-59551815Y44919527D01*
X-59628472Y45034251D01*
X-59628475Y45034255D01*
X-59726041Y45131821D01*
X-59726045Y45131824D01*
X-59840769Y45208481D01*
X-59840782Y45208488D01*
X-59968254Y45261288D01*
X-59968266Y45261291D01*
X-60074663Y45282455D01*
X-60074664Y45282455D01*
X-60103591Y45288209D01*
X-60103593Y45288209D01*
X-60241579Y45288209D01*
X-60241581Y45288209D01*
X-60376909Y45261291D01*
X-60376919Y45261288D01*
X-60504391Y45208488D01*
X-60504404Y45208481D01*
X-60619128Y45131824D01*
X-60619132Y45131821D01*
X-60719905Y45031047D01*
X-60781228Y44997562D01*
X-60850920Y45002546D01*
X-60895267Y45031047D01*
X-60996041Y45131821D01*
X-60996045Y45131824D01*
X-61110769Y45208481D01*
X-61110782Y45208488D01*
X-61238254Y45261288D01*
X-61238264Y45261291D01*
X-61373591Y45288209D01*
X-61373593Y45288209D01*
X-61511579Y45288209D01*
X-61511581Y45288209D01*
X-61646909Y45261291D01*
X-61646919Y45261288D01*
X-61774391Y45208488D01*
X-61774409Y45208478D01*
X-61863316Y45149072D01*
X-61929993Y45128194D01*
X-61997373Y45146679D01*
X-62035307Y45183282D01*
X-62068034Y45232261D01*
X-62075440Y45237210D01*
X-62134356Y45276577D01*
X-62134357Y45276578D01*
X-62192834Y45288209D01*
X-62192838Y45288209D01*
X-63232334Y45288209D01*
X-63232339Y45288209D01*
X-63290816Y45276578D01*
X-63290817Y45276577D01*
X-63357139Y45232262D01*
X-63401454Y45165940D01*
X-63401455Y45165939D01*
X-63413086Y45107462D01*
X-70844967Y45107462D01*
X-70913940Y45147283D01*
X-70913944Y45147285D01*
X-70913946Y45147286D01*
X-71066673Y45188209D01*
X-71224787Y45188209D01*
X-71377514Y45147286D01*
X-71377521Y45147283D01*
X-71514440Y45068234D01*
X-71514448Y45068228D01*
X-71590406Y44992269D01*
X-71651729Y44958784D01*
X-71721421Y44963768D01*
X-71777354Y45005640D01*
X-71801771Y45071104D01*
X-71802087Y45079950D01*
X-71802087Y45166764D01*
X-71802087Y45166766D01*
X-71843010Y45319493D01*
X-71864771Y45357185D01*
X-71922063Y45456419D01*
X-71922069Y45456427D01*
X-72033870Y45568228D01*
X-72033878Y45568234D01*
X-72170797Y45647283D01*
X-72170801Y45647285D01*
X-72170803Y45647286D01*
X-72323530Y45688209D01*
X-72481644Y45688209D01*
X-72634371Y45647286D01*
X-72634378Y45647283D01*
X-72771297Y45568234D01*
X-72771305Y45568228D01*
X-72883106Y45456427D01*
X-72883112Y45456419D01*
X-72962161Y45319500D01*
X-72962164Y45319493D01*
X-73003087Y45166766D01*
X-73003087Y45008652D01*
X-72968451Y44879391D01*
X-72962164Y44855926D01*
X-72962163Y44855923D01*
X-72914697Y44773709D01*
X-72898224Y44705808D01*
X-72921077Y44639782D01*
X-72975998Y44596591D01*
X-73022084Y44587709D01*
X-73402585Y44587709D01*
X-73402587Y44587709D01*
X-73402588Y44587709D01*
X-73402589Y44587708D01*
X-76858622Y41625394D01*
X-76922333Y41596711D01*
X-76959706Y41597229D01*
X-77219859Y41640589D01*
X-77282750Y41671027D01*
X-77319201Y41730635D01*
X-77343010Y41819493D01*
X-77367576Y41862043D01*
X-77422063Y41956419D01*
X-77422069Y41956427D01*
X-77533870Y42068228D01*
X-77533878Y42068234D01*
X-77670797Y42147283D01*
X-77670801Y42147285D01*
X-77670803Y42147286D01*
X-77823530Y42188209D01*
X-77981644Y42188209D01*
X-78134371Y42147286D01*
X-78134378Y42147283D01*
X-78271297Y42068234D01*
X-78271305Y42068228D01*
X-78383106Y41956427D01*
X-78383110Y41956422D01*
X-78404361Y41919613D01*
X-78454928Y41871397D01*
X-78523535Y41858175D01*
X-78532133Y41859300D01*
X-79900619Y42087381D01*
X-79904552Y42088102D01*
X-84902587Y43087709D01*
X-87404389Y43087709D01*
X-87471428Y43107394D01*
X-87517183Y43160198D01*
X-87527127Y43229356D01*
X-87498102Y43292912D01*
X-87460685Y43322193D01*
X-87299858Y43404141D01*
X-87284055Y43415624D01*
X-87284054Y43415624D01*
X-87773177Y43904747D01*
X-87709594Y43921784D01*
X-87595580Y43987610D01*
X-87502488Y44080702D01*
X-87436662Y44194716D01*
X-87419625Y44258299D01*
X-86930502Y43769176D01*
X-86930502Y43769177D01*
X-86919019Y43784979D01*
X-86836842Y43946257D01*
X-86836841Y43946262D01*
X-86833203Y43957457D01*
X-77441820Y43957457D01*
X-77441820Y43799343D01*
X-77413247Y43692709D01*
X-77400897Y43646617D01*
X-77400894Y43646610D01*
X-77321845Y43509691D01*
X-77321841Y43509686D01*
X-77321840Y43509684D01*
X-77210036Y43397880D01*
X-77210034Y43397879D01*
X-77210030Y43397876D01*
X-77123317Y43347813D01*
X-77073104Y43318823D01*
X-76920377Y43277900D01*
X-76920375Y43277900D01*
X-76762265Y43277900D01*
X-76762263Y43277900D01*
X-76609536Y43318823D01*
X-76472604Y43397880D01*
X-76360800Y43509684D01*
X-76281743Y43646616D01*
X-76240820Y43799343D01*
X-76240820Y43957457D01*
X-76281743Y44110184D01*
X-76284519Y44114993D01*
X-76360796Y44247110D01*
X-76360802Y44247118D01*
X-76472603Y44358919D01*
X-76472611Y44358925D01*
X-76609530Y44437974D01*
X-76609534Y44437976D01*
X-76609536Y44437977D01*
X-76762263Y44478900D01*
X-76920377Y44478900D01*
X-77073104Y44437977D01*
X-77073111Y44437974D01*
X-77210030Y44358925D01*
X-77210038Y44358919D01*
X-77321839Y44247118D01*
X-77321845Y44247110D01*
X-77400894Y44110191D01*
X-77400897Y44110184D01*
X-77441820Y43957457D01*
X-86833203Y43957457D01*
X-86818111Y44003903D01*
X-86818110Y44003905D01*
X-86780905Y44118414D01*
X-86752587Y44297203D01*
X-86752587Y44478216D01*
X-86780905Y44657003D01*
X-86836839Y44829154D01*
X-86836840Y44829157D01*
X-86919016Y44990434D01*
X-86919021Y44990442D01*
X-86930502Y45006243D01*
X-87419625Y44517120D01*
X-87436662Y44580702D01*
X-87502488Y44694716D01*
X-87595580Y44787808D01*
X-87709594Y44853634D01*
X-87773178Y44870672D01*
X-87284054Y45359796D01*
X-87299857Y45371278D01*
X-87461140Y45453457D01*
X-87461143Y45453458D01*
X-87633294Y45509392D01*
X-87812081Y45537709D01*
X-87993093Y45537709D01*
X-88171881Y45509392D01*
X-88344032Y45453458D01*
X-88344040Y45453455D01*
X-88505318Y45371277D01*
X-88521121Y45359797D01*
X-88521121Y45359796D01*
X-88031996Y44870672D01*
X-88095580Y44853634D01*
X-88209594Y44787808D01*
X-88302686Y44694716D01*
X-88368512Y44580702D01*
X-88385550Y44517119D01*
X-88874674Y45006243D01*
X-88874675Y45006243D01*
X-88886155Y44990440D01*
X-88968333Y44829162D01*
X-88968336Y44829154D01*
X-89024270Y44657003D01*
X-89052587Y44478216D01*
X-89052587Y44297203D01*
X-89024270Y44118416D01*
X-88968336Y43946265D01*
X-88968335Y43946262D01*
X-88886156Y43784979D01*
X-88874674Y43769177D01*
X-88874674Y43769176D01*
X-88385550Y44258300D01*
X-88368512Y44194716D01*
X-88302686Y44080702D01*
X-88209594Y43987610D01*
X-88095580Y43921784D01*
X-88031997Y43904747D01*
X-88521121Y43415624D01*
X-88521121Y43415623D01*
X-88505320Y43404143D01*
X-88505312Y43404138D01*
X-88344490Y43322194D01*
X-88293694Y43274219D01*
X-88276899Y43206398D01*
X-88299437Y43140263D01*
X-88354152Y43096812D01*
X-88400785Y43087709D01*
X-92851225Y43087709D01*
X-92918264Y43107394D01*
X-92938906Y43124028D01*
X-93902587Y44087709D01*
X-95034387Y44087709D01*
X-95096387Y44104322D01*
X-95151674Y44136242D01*
X-95170801Y44147285D01*
X-95170802Y44147286D01*
X-95170803Y44147286D01*
X-95323530Y44188209D01*
X-95481644Y44188209D01*
X-95634371Y44147286D01*
X-95634374Y44147285D01*
X-95684376Y44118416D01*
X-95708788Y44104322D01*
X-95770787Y44087709D01*
X-98778087Y44087709D01*
X-98845126Y44107394D01*
X-98890881Y44160198D01*
X-98902087Y44211709D01*
X-98902087Y45916766D01*
X-70903087Y45916766D01*
X-70903087Y45758652D01*
X-70872986Y45646316D01*
X-70862164Y45605926D01*
X-70862161Y45605919D01*
X-70783112Y45469000D01*
X-70783108Y45468995D01*
X-70783107Y45468993D01*
X-70671303Y45357189D01*
X-70671301Y45357188D01*
X-70671297Y45357185D01*
X-70582422Y45305874D01*
X-70534371Y45278132D01*
X-70381644Y45237209D01*
X-70381642Y45237209D01*
X-70223532Y45237209D01*
X-70223530Y45237209D01*
X-70070803Y45278132D01*
X-69933871Y45357189D01*
X-69840777Y45450283D01*
X-59411608Y45450283D01*
X-58902586Y44941263D01*
X-58902585Y44941263D01*
X-58393566Y45450283D01*
X-58428911Y45473900D01*
X-58428913Y45473901D01*
X-58610893Y45549279D01*
X-58610905Y45549282D01*
X-58804091Y45587709D01*
X-59001082Y45587709D01*
X-59194268Y45549282D01*
X-59194276Y45549280D01*
X-59376261Y45473900D01*
X-59376268Y45473896D01*
X-59411607Y45450283D01*
X-59411608Y45450283D01*
X-69840777Y45450283D01*
X-69822067Y45468993D01*
X-69743010Y45605925D01*
X-69702087Y45758652D01*
X-69702087Y45916766D01*
X-69743010Y46069493D01*
X-69764771Y46107185D01*
X-69822063Y46206419D01*
X-69822069Y46206427D01*
X-69933870Y46318228D01*
X-69933878Y46318234D01*
X-70070797Y46397283D01*
X-70070801Y46397285D01*
X-70070803Y46397286D01*
X-70223530Y46438209D01*
X-70381644Y46438209D01*
X-70534371Y46397286D01*
X-70534378Y46397283D01*
X-70671297Y46318234D01*
X-70671305Y46318228D01*
X-70783106Y46206427D01*
X-70783112Y46206419D01*
X-70862161Y46069500D01*
X-70862164Y46069493D01*
X-70903087Y45916766D01*
X-98902087Y45916766D01*
X-98902087Y46666766D01*
X-78503087Y46666766D01*
X-78503087Y46508652D01*
X-78473246Y46397286D01*
X-78462164Y46355926D01*
X-78462161Y46355919D01*
X-78383112Y46219000D01*
X-78383108Y46218995D01*
X-78383107Y46218993D01*
X-78271303Y46107189D01*
X-78271301Y46107188D01*
X-78271297Y46107185D01*
X-78172035Y46049877D01*
X-78134371Y46028132D01*
X-77981644Y45987209D01*
X-77981642Y45987209D01*
X-77823532Y45987209D01*
X-77823530Y45987209D01*
X-77670803Y46028132D01*
X-77663617Y46032282D01*
X-77663614Y46032282D01*
X-77533878Y46107185D01*
X-77533879Y46107185D01*
X-77533871Y46107189D01*
X-77422067Y46218993D01*
X-77343010Y46355925D01*
X-77302087Y46508652D01*
X-77302087Y46666766D01*
X-77343010Y46819493D01*
X-77381220Y46885676D01*
X-77422063Y46956419D01*
X-77422069Y46956427D01*
X-77533870Y47068228D01*
X-77533878Y47068234D01*
X-77670797Y47147283D01*
X-77670801Y47147285D01*
X-77670803Y47147286D01*
X-77823530Y47188209D01*
X-77981644Y47188209D01*
X-78134371Y47147286D01*
X-78134378Y47147283D01*
X-78271297Y47068234D01*
X-78271305Y47068228D01*
X-78383106Y46956427D01*
X-78383112Y46956419D01*
X-78462161Y46819500D01*
X-78462164Y46819493D01*
X-78503087Y46666766D01*
X-98902087Y46666766D01*
X-98902087Y47837710D01*
X-73872449Y47837710D01*
X-73864157Y47796020D01*
X-73864157Y47796018D01*
X-73788780Y47614039D01*
X-73788773Y47614026D01*
X-73679339Y47450248D01*
X-73679336Y47450244D01*
X-73540054Y47310962D01*
X-73540050Y47310959D01*
X-73376272Y47201525D01*
X-73376259Y47201518D01*
X-73194279Y47126141D01*
X-73152587Y47117848D01*
X-72652587Y47117848D01*
X-72610897Y47126141D01*
X-72610895Y47126141D01*
X-72428916Y47201518D01*
X-72428903Y47201525D01*
X-72265125Y47310959D01*
X-72265121Y47310962D01*
X-72125839Y47450244D01*
X-72125836Y47450248D01*
X-72016402Y47614026D01*
X-72016395Y47614039D01*
X-71941018Y47796018D01*
X-71941018Y47796020D01*
X-71932725Y47837710D01*
X-72652587Y47837710D01*
X-72652587Y47117848D01*
X-73152587Y47117848D01*
X-73152587Y47837710D01*
X-73872449Y47837710D01*
X-98902087Y47837710D01*
X-98902087Y48130497D01*
X-73227587Y48130497D01*
X-73227587Y48044923D01*
X-73205438Y47962265D01*
X-73162651Y47888156D01*
X-73102141Y47827646D01*
X-73028032Y47784859D01*
X-72945374Y47762710D01*
X-72859800Y47762710D01*
X-72777142Y47784859D01*
X-72703033Y47827646D01*
X-72642523Y47888156D01*
X-72599736Y47962265D01*
X-72577587Y48044923D01*
X-72577587Y48130497D01*
X-72599736Y48213155D01*
X-72642523Y48287264D01*
X-72692969Y48337710D01*
X-72652587Y48337710D01*
X-71932725Y48337710D01*
X-71941018Y48379401D01*
X-71941018Y48379403D01*
X-72016395Y48561382D01*
X-72016402Y48561395D01*
X-72125836Y48725173D01*
X-72125839Y48725177D01*
X-72265121Y48864459D01*
X-72265125Y48864462D01*
X-72428903Y48973896D01*
X-72428916Y48973903D01*
X-72610896Y49049281D01*
X-72610904Y49049283D01*
X-72652587Y49057575D01*
X-72652587Y48337710D01*
X-72692969Y48337710D01*
X-72703033Y48347774D01*
X-72777142Y48390561D01*
X-72859800Y48412710D01*
X-72945374Y48412710D01*
X-73028032Y48390561D01*
X-73102141Y48347774D01*
X-73162651Y48287264D01*
X-73205438Y48213155D01*
X-73227587Y48130497D01*
X-98902087Y48130497D01*
X-98902087Y50666766D01*
X-87503087Y50666766D01*
X-87503087Y50508653D01*
X-87462164Y50355926D01*
X-87462161Y50355919D01*
X-87383112Y50219000D01*
X-87383108Y50218995D01*
X-87383107Y50218993D01*
X-87271303Y50107189D01*
X-87271301Y50107188D01*
X-87271297Y50107185D01*
X-87172035Y50049877D01*
X-87134371Y50028132D01*
X-86981644Y49987209D01*
X-86981642Y49987209D01*
X-86823532Y49987209D01*
X-86823530Y49987209D01*
X-86670803Y50028132D01*
X-86533871Y50107189D01*
X-86422067Y50218993D01*
X-86343010Y50355925D01*
X-86302087Y50508652D01*
X-86302087Y50666766D01*
X-86332907Y50781787D01*
X-76508198Y50781787D01*
X-76492638Y50703555D01*
X-76459509Y50653974D01*
X-75724478Y49918943D01*
X-75674897Y49885814D01*
X-75674895Y49885813D01*
X-75596664Y49870253D01*
X-75538887Y49881745D01*
X-75469297Y49875516D01*
X-75414121Y49832653D01*
X-75393082Y49784319D01*
X-75372220Y49679439D01*
X-75372217Y49679429D01*
X-75319417Y49551957D01*
X-75319410Y49551944D01*
X-75242753Y49437220D01*
X-75242750Y49437216D01*
X-75145184Y49339650D01*
X-75145180Y49339647D01*
X-75030456Y49262990D01*
X-75030443Y49262983D01*
X-74902971Y49210183D01*
X-74902966Y49210181D01*
X-74902962Y49210181D01*
X-74902961Y49210180D01*
X-74767634Y49183261D01*
X-74625113Y49183261D01*
X-74558074Y49163576D01*
X-74512319Y49110772D01*
X-74501113Y49059261D01*
X-74501113Y49054729D01*
X-74501113Y48916743D01*
X-74501113Y48916741D01*
X-74501114Y48916741D01*
X-74474195Y48781414D01*
X-74474192Y48781404D01*
X-74421392Y48653932D01*
X-74421385Y48653919D01*
X-74344728Y48539195D01*
X-74344725Y48539191D01*
X-74247159Y48441625D01*
X-74247155Y48441622D01*
X-74132431Y48364965D01*
X-74132418Y48364958D01*
X-74004946Y48312158D01*
X-74004941Y48312156D01*
X-74004937Y48312156D01*
X-74004936Y48312155D01*
X-73869609Y48285236D01*
X-73869606Y48285236D01*
X-73731618Y48285236D01*
X-73640572Y48303347D01*
X-73596285Y48312156D01*
X-73576614Y48320304D01*
X-73557379Y48328271D01*
X-73509927Y48337710D01*
X-73152587Y48337710D01*
X-73152587Y48695050D01*
X-73143148Y48742502D01*
X-73127035Y48781404D01*
X-73127033Y48781408D01*
X-73115072Y48841541D01*
X-73100113Y48916741D01*
X-73100113Y49054732D01*
X-73100114Y49054734D01*
X-73107532Y49092031D01*
X-73127032Y49190059D01*
X-73127033Y49190060D01*
X-73127033Y49190064D01*
X-73127035Y49190069D01*
X-73179835Y49317541D01*
X-73179842Y49317554D01*
X-73256499Y49432278D01*
X-73256502Y49432282D01*
X-73354068Y49529848D01*
X-73354072Y49529851D01*
X-73468796Y49606508D01*
X-73468809Y49606515D01*
X-73596281Y49659315D01*
X-73596291Y49659318D01*
X-73731618Y49686236D01*
X-73731620Y49686236D01*
X-73869606Y49686236D01*
X-73874138Y49686236D01*
X-73941177Y49705921D01*
X-73986932Y49758725D01*
X-73998138Y49810236D01*
X-73998138Y49952757D01*
X-74025057Y50088084D01*
X-74025058Y50088085D01*
X-74025058Y50088089D01*
X-74032970Y50107191D01*
X-74077860Y50215566D01*
X-74077867Y50215579D01*
X-74154524Y50330303D01*
X-74154527Y50330307D01*
X-74252093Y50427873D01*
X-74252097Y50427876D01*
X-74366821Y50504533D01*
X-74366834Y50504540D01*
X-74494306Y50557340D01*
X-74494316Y50557343D01*
X-74599196Y50578205D01*
X-74661107Y50610590D01*
X-74695681Y50671306D01*
X-74696622Y50724009D01*
X-74685130Y50781787D01*
X-74700690Y50860018D01*
X-74733818Y50909598D01*
X-74733820Y50909601D01*
X-75468851Y51644632D01*
X-75518432Y51677761D01*
X-75596664Y51693321D01*
X-75674897Y51677761D01*
X-75724478Y51644632D01*
X-76459509Y50909601D01*
X-76492638Y50860020D01*
X-76508198Y50781787D01*
X-86332907Y50781787D01*
X-86343010Y50819493D01*
X-86376442Y50877400D01*
X-86422063Y50956419D01*
X-86422069Y50956427D01*
X-86533870Y51068228D01*
X-86533878Y51068234D01*
X-86670797Y51147283D01*
X-86670801Y51147285D01*
X-86670803Y51147286D01*
X-86823530Y51188209D01*
X-86981644Y51188209D01*
X-87134371Y51147286D01*
X-87134378Y51147283D01*
X-87271297Y51068234D01*
X-87271305Y51068228D01*
X-87383106Y50956427D01*
X-87383112Y50956419D01*
X-87462161Y50819500D01*
X-87462164Y50819493D01*
X-87503087Y50666766D01*
X-98902087Y50666766D01*
X-98902087Y53166766D01*
X-87503087Y53166766D01*
X-87503087Y53008653D01*
X-87462164Y52855926D01*
X-87462161Y52855919D01*
X-87383112Y52719000D01*
X-87383108Y52718995D01*
X-87383107Y52718993D01*
X-87271303Y52607189D01*
X-87271301Y52607188D01*
X-87271297Y52607185D01*
X-87234897Y52586170D01*
X-87134371Y52528132D01*
X-86981644Y52487209D01*
X-86981642Y52487209D01*
X-86823532Y52487209D01*
X-86823530Y52487209D01*
X-86670803Y52528132D01*
X-86533871Y52607189D01*
X-86422067Y52718993D01*
X-86343010Y52855925D01*
X-86302087Y53008652D01*
X-86302087Y53166766D01*
X-86343010Y53319493D01*
X-86343014Y53319500D01*
X-86422063Y53456419D01*
X-86422069Y53456427D01*
X-86533870Y53568228D01*
X-86533878Y53568234D01*
X-86670797Y53647283D01*
X-86670801Y53647285D01*
X-86670803Y53647286D01*
X-86823530Y53688209D01*
X-86981644Y53688209D01*
X-87134371Y53647286D01*
X-87134378Y53647283D01*
X-87271297Y53568234D01*
X-87271305Y53568228D01*
X-87383106Y53456427D01*
X-87383112Y53456419D01*
X-87462161Y53319500D01*
X-87462164Y53319493D01*
X-87503087Y53166766D01*
X-98902087Y53166766D01*
X-98902087Y58708998D01*
X-94753087Y58708998D01*
X-94753087Y58466421D01*
X-94721426Y58225924D01*
X-94658640Y57991605D01*
X-94603540Y57858582D01*
X-94565811Y57767497D01*
X-94444523Y57557420D01*
X-94444521Y57557417D01*
X-94444520Y57557416D01*
X-94296854Y57364973D01*
X-94296848Y57364966D01*
X-94125331Y57193449D01*
X-94125325Y57193444D01*
X-93932876Y57045773D01*
X-93722799Y56924485D01*
X-93498687Y56831655D01*
X-93264376Y56768871D01*
X-93084001Y56745125D01*
X-93023876Y56737209D01*
X-93023875Y56737209D01*
X-92781298Y56737209D01*
X-92733199Y56743542D01*
X-92540798Y56768871D01*
X-92306487Y56831655D01*
X-92082375Y56924485D01*
X-91872298Y57045773D01*
X-91679849Y57193444D01*
X-91508322Y57364971D01*
X-91360651Y57557420D01*
X-91239363Y57767497D01*
X-91146533Y57991609D01*
X-91113433Y58115137D01*
X-81211608Y58115137D01*
X-81176259Y58091517D01*
X-80994281Y58016140D01*
X-80994269Y58016137D01*
X-80801083Y57977710D01*
X-80801079Y57977709D01*
X-80604095Y57977709D01*
X-80604092Y57977710D01*
X-80410906Y58016137D01*
X-80410894Y58016140D01*
X-80228911Y58091519D01*
X-80228907Y58091522D01*
X-80193568Y58115136D01*
X-80193567Y58115137D01*
X-80702586Y58624156D01*
X-80702587Y58624156D01*
X-81211608Y58115137D01*
X-91113433Y58115137D01*
X-91083749Y58225920D01*
X-91052087Y58466421D01*
X-91052087Y58708997D01*
X-91053226Y58717645D01*
X-91074496Y58879214D01*
X-91083749Y58949498D01*
X-91117700Y59076205D01*
X-81702587Y59076205D01*
X-81702587Y58879214D01*
X-81664160Y58686028D01*
X-81664157Y58686016D01*
X-81588779Y58504036D01*
X-81588778Y58504034D01*
X-81565162Y58468690D01*
X-81056141Y58977709D01*
X-81056141Y58977710D01*
X-81098927Y59020496D01*
X-81027587Y59020496D01*
X-81027587Y58934922D01*
X-81005438Y58852264D01*
X-80962651Y58778155D01*
X-80902141Y58717645D01*
X-80828032Y58674858D01*
X-80745374Y58652709D01*
X-80659800Y58652709D01*
X-80577142Y58674858D01*
X-80503033Y58717645D01*
X-80442523Y58778155D01*
X-80399736Y58852264D01*
X-80377587Y58934922D01*
X-80377587Y58977710D01*
X-80349034Y58977710D01*
X-80349034Y58977709D01*
X-79840015Y58468689D01*
X-79840014Y58468690D01*
X-79816400Y58504029D01*
X-79816397Y58504033D01*
X-79741018Y58686016D01*
X-79741015Y58686028D01*
X-79702588Y58879214D01*
X-79702587Y58879217D01*
X-79702587Y59076201D01*
X-79702588Y59076205D01*
X-79741015Y59269391D01*
X-79741018Y59269403D01*
X-79816395Y59451381D01*
X-79840015Y59486730D01*
X-80349034Y58977710D01*
X-80377587Y58977710D01*
X-80377587Y59020496D01*
X-80399736Y59103154D01*
X-80442523Y59177263D01*
X-80503033Y59237773D01*
X-80577142Y59280560D01*
X-80659800Y59302709D01*
X-80745374Y59302709D01*
X-80828032Y59280560D01*
X-80902141Y59237773D01*
X-80962651Y59177263D01*
X-81005438Y59103154D01*
X-81027587Y59020496D01*
X-81098927Y59020496D01*
X-81565161Y59486731D01*
X-81565161Y59486730D01*
X-81588774Y59451391D01*
X-81588778Y59451384D01*
X-81664158Y59269399D01*
X-81664160Y59269391D01*
X-81702587Y59076205D01*
X-91117700Y59076205D01*
X-91146533Y59183809D01*
X-91239363Y59407921D01*
X-91360651Y59617998D01*
X-91508322Y59810447D01*
X-91508327Y59810453D01*
X-91679844Y59981970D01*
X-91679851Y59981976D01*
X-91872294Y60129642D01*
X-91872295Y60129643D01*
X-91872298Y60129645D01*
X-92082375Y60250933D01*
X-92082382Y60250936D01*
X-92306483Y60343762D01*
X-92540802Y60406548D01*
X-92781298Y60438209D01*
X-92781299Y60438209D01*
X-93023875Y60438209D01*
X-93023876Y60438209D01*
X-93264373Y60406548D01*
X-93498692Y60343762D01*
X-93722793Y60250936D01*
X-93722802Y60250932D01*
X-93932881Y60129642D01*
X-94125324Y59981976D01*
X-94125331Y59981970D01*
X-94296848Y59810453D01*
X-94296854Y59810446D01*
X-94444520Y59618003D01*
X-94565810Y59407924D01*
X-94565814Y59407915D01*
X-94658640Y59183814D01*
X-94721426Y58949495D01*
X-94753087Y58708998D01*
X-98902087Y58708998D01*
X-98902087Y59585147D01*
X-98901981Y59590271D01*
X-98897294Y59703595D01*
X-98886690Y59959955D01*
X-98886327Y59965595D01*
X-98879359Y60045243D01*
X-98878891Y60049660D01*
X-98838146Y60376532D01*
X-98837229Y60382623D01*
X-98824152Y60456789D01*
X-98823435Y60460508D01*
X-98754697Y60788331D01*
X-98753128Y60794905D01*
X-98735903Y60859189D01*
X-98735014Y60862335D01*
X-98636770Y61192326D01*
X-98634466Y61199298D01*
X-98616680Y61248163D01*
X-98615723Y61250700D01*
X-98538457Y61448714D01*
X-81403088Y61448714D01*
X-81376169Y61313387D01*
X-81376166Y61313377D01*
X-81323366Y61185905D01*
X-81323359Y61185892D01*
X-81246702Y61071168D01*
X-81246699Y61071164D01*
X-81145925Y60970390D01*
X-81112440Y60909067D01*
X-81117424Y60839375D01*
X-81145925Y60795028D01*
X-81246699Y60694255D01*
X-81246702Y60694251D01*
X-81323359Y60579527D01*
X-81323366Y60579514D01*
X-81376166Y60452042D01*
X-81376169Y60452032D01*
X-81403087Y60316705D01*
X-81403087Y60316702D01*
X-81403087Y60178716D01*
X-81403087Y60178714D01*
X-81403088Y60178714D01*
X-81376169Y60043387D01*
X-81376166Y60043377D01*
X-81323366Y59915905D01*
X-81323359Y59915892D01*
X-81246702Y59801168D01*
X-81246699Y59801164D01*
X-81149133Y59703598D01*
X-81149129Y59703595D01*
X-81034405Y59626938D01*
X-81034398Y59626934D01*
X-80995493Y59610819D01*
X-80955264Y59583939D01*
X-80702588Y59331264D01*
X-80449913Y59583939D01*
X-80409688Y59610817D01*
X-80370776Y59626934D01*
X-80256045Y59703595D01*
X-80158473Y59801167D01*
X-80081812Y59915898D01*
X-80029007Y60043381D01*
X-80020198Y60087668D01*
X-80002087Y60178714D01*
X-80002087Y60316705D01*
X-80029006Y60452032D01*
X-80029007Y60452033D01*
X-80029007Y60452037D01*
X-80035086Y60466714D01*
X-80081809Y60579514D01*
X-80081816Y60579527D01*
X-80158473Y60694251D01*
X-80158476Y60694255D01*
X-80259249Y60795028D01*
X-80292734Y60856351D01*
X-80287750Y60926043D01*
X-80259249Y60970390D01*
X-80158476Y61071164D01*
X-80158473Y61071167D01*
X-80081812Y61185898D01*
X-80029007Y61313381D01*
X-80002087Y61448716D01*
X-80002087Y61586702D01*
X-80002087Y61586705D01*
X-80029006Y61722032D01*
X-80029007Y61722033D01*
X-80029007Y61722037D01*
X-80029009Y61722042D01*
X-80081809Y61849514D01*
X-80081816Y61849527D01*
X-80141225Y61938438D01*
X-80162103Y62005115D01*
X-80143619Y62072495D01*
X-80107015Y62110430D01*
X-80058035Y62143157D01*
X-80013720Y62209478D01*
X-80013720Y62209480D01*
X-80013719Y62209480D01*
X-80002088Y62267957D01*
X-80002087Y62267959D01*
X-80002087Y63307460D01*
X-80002088Y63307462D01*
X-80013719Y63365939D01*
X-80013720Y63365940D01*
X-80058035Y63432262D01*
X-80124357Y63476577D01*
X-80124358Y63476578D01*
X-80182835Y63488209D01*
X-80182839Y63488209D01*
X-81222335Y63488209D01*
X-81222340Y63488209D01*
X-81280817Y63476578D01*
X-81280818Y63476577D01*
X-81347140Y63432262D01*
X-81391455Y63365940D01*
X-81391456Y63365939D01*
X-81403087Y63307462D01*
X-81403087Y62267957D01*
X-81391456Y62209480D01*
X-81391455Y62209479D01*
X-81351425Y62149572D01*
X-81347139Y62143157D01*
X-81298161Y62110430D01*
X-81253356Y62056820D01*
X-81244649Y61987495D01*
X-81263950Y61938439D01*
X-81323356Y61849532D01*
X-81323366Y61849514D01*
X-81376166Y61722042D01*
X-81376169Y61722032D01*
X-81403087Y61586705D01*
X-81403087Y61586702D01*
X-81403087Y61448716D01*
X-81403087Y61448714D01*
X-81403088Y61448714D01*
X-98538457Y61448714D01*
X-98485094Y61585471D01*
X-98482003Y61592699D01*
X-98470162Y61618092D01*
X-98469211Y61620080D01*
X-98357047Y61849514D01*
X-98301762Y61962603D01*
X-98296895Y61971598D01*
X-98090620Y62317769D01*
X-98085028Y62326328D01*
X-97850864Y62654294D01*
X-97844573Y62662375D01*
X-97584139Y62969868D01*
X-97577222Y62977382D01*
X-97292273Y63262330D01*
X-97284745Y63269259D01*
X-97239645Y63307457D01*
X-96977229Y63529712D01*
X-96969192Y63535968D01*
X-96641196Y63770150D01*
X-96632667Y63775722D01*
X-96286458Y63982016D01*
X-96277515Y63986856D01*
X-95934763Y64154417D01*
X-95933060Y64155231D01*
X-95907585Y64167110D01*
X-95900367Y64170197D01*
X-95565502Y64300861D01*
X-95563045Y64301786D01*
X-95514174Y64319574D01*
X-95507207Y64321876D01*
X-95177220Y64420117D01*
X-95174058Y64421011D01*
X-95109798Y64438230D01*
X-95103211Y64439802D01*
X-94775394Y64508537D01*
X-94771686Y64509252D01*
X-94697501Y64522332D01*
X-94691383Y64523253D01*
X-94364522Y64563995D01*
X-94360169Y64564456D01*
X-94280438Y64571431D01*
X-94274852Y64571791D01*
X-94016026Y64582496D01*
X-93904606Y64587103D01*
X-93899482Y64587209D01*
X-79027087Y64587209D01*
X-78960048Y64567524D01*
G37*
%TD.AperFunction*%
%TD*%
%TA.AperFunction,Conductor*%
%TO.N,GND*%
G36*
X-27900025Y64587103D02*
G01*
X-27888035Y64586608D01*
X-27532203Y64571889D01*
X-27526594Y64571528D01*
X-27442739Y64564192D01*
X-27438296Y64563721D01*
X-27169771Y64530248D01*
X-27115493Y64523482D01*
X-27109301Y64522550D01*
X-27087723Y64518746D01*
X-27030960Y64508737D01*
X-27027151Y64508003D01*
X-26703487Y64440137D01*
X-26696893Y64438563D01*
X-26628134Y64420139D01*
X-26625004Y64419254D01*
X-26299354Y64322303D01*
X-26292377Y64319998D01*
X-26238669Y64300449D01*
X-26236080Y64299472D01*
X-25906099Y64170713D01*
X-25898802Y64167592D01*
X-25867980Y64153220D01*
X-25866130Y64152336D01*
X-25527699Y63986887D01*
X-25518697Y63982016D01*
X-25172521Y63775739D01*
X-25163953Y63770141D01*
X-24835998Y63535986D01*
X-24827923Y63529700D01*
X-24565522Y63307457D01*
X-24520438Y63269273D01*
X-24512898Y63262332D01*
X-24227968Y62977401D01*
X-24221027Y62969861D01*
X-23960604Y62662381D01*
X-23954311Y62654296D01*
X-23853221Y62512711D01*
X-23720162Y62326351D01*
X-23714556Y62317771D01*
X-23508289Y61971610D01*
X-23503411Y61962596D01*
X-23338012Y61624266D01*
X-23337031Y61622212D01*
X-23322714Y61591510D01*
X-23319579Y61584179D01*
X-23190828Y61254220D01*
X-23189841Y61251603D01*
X-23176992Y61216302D01*
X-23170316Y61197959D01*
X-23167994Y61190932D01*
X-23071074Y60865387D01*
X-23070144Y60862098D01*
X-23051742Y60793420D01*
X-23050156Y60786774D01*
X-22982317Y60463240D01*
X-22981562Y60459325D01*
X-22967747Y60380975D01*
X-22966815Y60374781D01*
X-22926587Y60052051D01*
X-22926107Y60047521D01*
X-22918777Y59963742D01*
X-22918411Y59958059D01*
X-22903193Y59590176D01*
X-22903087Y59585051D01*
X-22903087Y36661204D01*
X-22903183Y36656335D01*
X-22917013Y36304413D01*
X-22917389Y36298473D01*
X-22924791Y36213880D01*
X-22925179Y36210114D01*
X-22961936Y35899558D01*
X-22962960Y35892602D01*
X-22974300Y35828286D01*
X-22974799Y35825625D01*
X-23039975Y35497973D01*
X-23041817Y35490073D01*
X-23044226Y35481082D01*
X-23044657Y35479515D01*
X-23146461Y35118549D01*
X-23149469Y35109289D01*
X-23281973Y34750125D01*
X-23285699Y34741130D01*
X-23445969Y34393479D01*
X-23450390Y34384803D01*
X-23633693Y34057496D01*
X-23634497Y34056082D01*
X-23639100Y34048110D01*
X-23643383Y34041223D01*
X-23829006Y33763419D01*
X-23830534Y33761186D01*
X-23867974Y33707717D01*
X-23872169Y33702073D01*
X-24065773Y33456488D01*
X-24068163Y33453550D01*
X-24122767Y33388476D01*
X-24126700Y33384011D01*
X-24365983Y33125156D01*
X-24369358Y33121646D01*
X-42936739Y14554265D01*
X-42940248Y14550891D01*
X-43199845Y14310919D01*
X-43204310Y14306985D01*
X-43266796Y14254552D01*
X-43269735Y14252162D01*
X-43517812Y14056592D01*
X-43523457Y14052396D01*
X-43573661Y14017243D01*
X-43575893Y14015716D01*
X-43856892Y13827958D01*
X-43863775Y13823678D01*
X-43866835Y13821911D01*
X-43868254Y13821104D01*
X-44199667Y13635503D01*
X-44208342Y13631082D01*
X-44556004Y13470807D01*
X-44565000Y13467081D01*
X-44924148Y13334586D01*
X-44933408Y13331577D01*
X-45299044Y13228459D01*
X-45300600Y13228031D01*
X-45303984Y13227124D01*
X-45311896Y13225279D01*
X-45643338Y13159354D01*
X-45645996Y13158856D01*
X-45706368Y13148211D01*
X-45713327Y13147186D01*
X-46027046Y13110058D01*
X-46030811Y13109671D01*
X-46112054Y13102563D01*
X-46117995Y13102187D01*
X-46471396Y13088305D01*
X-46476263Y13088209D01*
X-75329093Y13088209D01*
X-75333962Y13088305D01*
X-75687362Y13102192D01*
X-75693301Y13102568D01*
X-75774110Y13109638D01*
X-75777878Y13110026D01*
X-76091998Y13147207D01*
X-76098953Y13148231D01*
X-76158782Y13158780D01*
X-76161443Y13159279D01*
X-76493400Y13225311D01*
X-76501330Y13227161D01*
X-76503981Y13227872D01*
X-76505517Y13228295D01*
X-76871747Y13331582D01*
X-76881008Y13334591D01*
X-77240171Y13467096D01*
X-77249166Y13470821D01*
X-77596824Y13631095D01*
X-77605499Y13635516D01*
X-77937487Y13821440D01*
X-77938893Y13822239D01*
X-77941280Y13823617D01*
X-77948176Y13827905D01*
X-78229593Y14015943D01*
X-78231827Y14017471D01*
X-78281592Y14052318D01*
X-78287235Y14056513D01*
X-78415605Y14157712D01*
X-78535698Y14252387D01*
X-78538528Y14254688D01*
X-78600730Y14306882D01*
X-78605169Y14310792D01*
X-78865216Y14551179D01*
X-78868725Y14554554D01*
X-80724304Y16410133D01*
X-61676613Y16410133D01*
X-61571352Y16366532D01*
X-61571348Y16366531D01*
X-61426462Y16337711D01*
X-61426459Y16337710D01*
X-61278717Y16337710D01*
X-61278715Y16337711D01*
X-61133828Y16366531D01*
X-61133813Y16366535D01*
X-61028564Y16410132D01*
X-61028564Y16410133D01*
X-60726613Y16410133D01*
X-60621352Y16366532D01*
X-60621348Y16366531D01*
X-60476462Y16337711D01*
X-60476459Y16337710D01*
X-60328717Y16337710D01*
X-60328715Y16337711D01*
X-60183828Y16366531D01*
X-60183813Y16366535D01*
X-60078564Y16410132D01*
X-60078564Y16410133D01*
X-59776613Y16410133D01*
X-59671352Y16366532D01*
X-59671348Y16366531D01*
X-59526462Y16337711D01*
X-59526459Y16337710D01*
X-59378717Y16337710D01*
X-59378715Y16337711D01*
X-59233828Y16366531D01*
X-59233813Y16366535D01*
X-59128564Y16410132D01*
X-59128564Y16410133D01*
X-59452587Y16734156D01*
X-59452588Y16734156D01*
X-59776613Y16410133D01*
X-60078564Y16410133D01*
X-60402587Y16734156D01*
X-60402588Y16734156D01*
X-60726613Y16410133D01*
X-61028564Y16410133D01*
X-61352587Y16734156D01*
X-61352588Y16734156D01*
X-61676613Y16410133D01*
X-80724304Y16410133D01*
X-81475755Y17161584D01*
X-62102588Y17161584D01*
X-62102588Y17013837D01*
X-62073768Y16868951D01*
X-62073766Y16868943D01*
X-62030167Y16763686D01*
X-61706142Y17087710D01*
X-61706142Y17087711D01*
X-61726032Y17107601D01*
X-61452588Y17107601D01*
X-61452588Y17067819D01*
X-61437364Y17031065D01*
X-61409233Y17002934D01*
X-61372479Y16987710D01*
X-61332697Y16987710D01*
X-61295943Y17002934D01*
X-61267812Y17031065D01*
X-61252588Y17067819D01*
X-61252588Y17087710D01*
X-60999034Y17087710D01*
X-60877588Y16966264D01*
X-60756142Y17087710D01*
X-60776033Y17107601D01*
X-60502588Y17107601D01*
X-60502588Y17067819D01*
X-60487364Y17031065D01*
X-60459233Y17002934D01*
X-60422479Y16987710D01*
X-60382697Y16987710D01*
X-60345943Y17002934D01*
X-60317812Y17031065D01*
X-60302588Y17067819D01*
X-60302588Y17087710D01*
X-60049034Y17087710D01*
X-59927588Y16966264D01*
X-59806142Y17087710D01*
X-59826033Y17107601D01*
X-59552588Y17107601D01*
X-59552588Y17067819D01*
X-59537364Y17031065D01*
X-59509233Y17002934D01*
X-59472479Y16987710D01*
X-59432697Y16987710D01*
X-59395943Y17002934D01*
X-59367812Y17031065D01*
X-59352588Y17067819D01*
X-59352588Y17087711D01*
X-59099034Y17087711D01*
X-59099034Y17087709D01*
X-58775011Y16763686D01*
X-58775010Y16763686D01*
X-58731413Y16868935D01*
X-58731409Y16868950D01*
X-58702589Y17013837D01*
X-58702588Y17013839D01*
X-58702588Y17161582D01*
X-58702589Y17161584D01*
X-58731409Y17306470D01*
X-58731410Y17306474D01*
X-58775011Y17411735D01*
X-59099034Y17087711D01*
X-59352588Y17087711D01*
X-59352588Y17107601D01*
X-59367812Y17144355D01*
X-59395943Y17172486D01*
X-59432697Y17187710D01*
X-59472479Y17187710D01*
X-59509233Y17172486D01*
X-59537364Y17144355D01*
X-59552588Y17107601D01*
X-59826033Y17107601D01*
X-59927588Y17209156D01*
X-60049034Y17087710D01*
X-60302588Y17087710D01*
X-60302588Y17107601D01*
X-60317812Y17144355D01*
X-60345943Y17172486D01*
X-60382697Y17187710D01*
X-60422479Y17187710D01*
X-60459233Y17172486D01*
X-60487364Y17144355D01*
X-60502588Y17107601D01*
X-60776033Y17107601D01*
X-60877588Y17209156D01*
X-60999034Y17087710D01*
X-61252588Y17087710D01*
X-61252588Y17107601D01*
X-61267812Y17144355D01*
X-61295943Y17172486D01*
X-61332697Y17187710D01*
X-61372479Y17187710D01*
X-61409233Y17172486D01*
X-61437364Y17144355D01*
X-61452588Y17107601D01*
X-61726032Y17107601D01*
X-62030167Y17411736D01*
X-62030168Y17411736D01*
X-62073765Y17306482D01*
X-62073768Y17306470D01*
X-62102588Y17161584D01*
X-81475755Y17161584D01*
X-82079461Y17765290D01*
X-61676614Y17765290D01*
X-61676614Y17765289D01*
X-61352588Y17441264D01*
X-61352587Y17441264D01*
X-61028564Y17765289D01*
X-61028566Y17765290D01*
X-60726614Y17765290D01*
X-60726614Y17765289D01*
X-60402588Y17441264D01*
X-60402587Y17441264D01*
X-60078564Y17765289D01*
X-60078566Y17765290D01*
X-59776614Y17765290D01*
X-59776614Y17765289D01*
X-59452588Y17441264D01*
X-59452587Y17441264D01*
X-59128564Y17765289D01*
X-59233821Y17808888D01*
X-59233829Y17808890D01*
X-59378716Y17837710D01*
X-59526460Y17837710D01*
X-59671348Y17808890D01*
X-59671360Y17808887D01*
X-59776614Y17765290D01*
X-60078566Y17765290D01*
X-60183821Y17808888D01*
X-60183829Y17808890D01*
X-60328716Y17837710D01*
X-60476460Y17837710D01*
X-60621348Y17808890D01*
X-60621360Y17808887D01*
X-60726614Y17765290D01*
X-61028566Y17765290D01*
X-61133821Y17808888D01*
X-61133829Y17808890D01*
X-61278716Y17837710D01*
X-61426460Y17837710D01*
X-61571348Y17808890D01*
X-61571360Y17808887D01*
X-61676614Y17765290D01*
X-82079461Y17765290D01*
X-83764828Y19450657D01*
X-79322100Y19450657D01*
X-79322100Y19292543D01*
X-79319920Y19284409D01*
X-79281177Y19139817D01*
X-79281174Y19139810D01*
X-79202125Y19002891D01*
X-79202121Y19002886D01*
X-79202120Y19002884D01*
X-79090316Y18891080D01*
X-79090314Y18891079D01*
X-79090310Y18891076D01*
X-79067351Y18877821D01*
X-78953384Y18812023D01*
X-78800657Y18771100D01*
X-78800655Y18771100D01*
X-78642545Y18771100D01*
X-78642543Y18771100D01*
X-78489816Y18812023D01*
X-78352884Y18891080D01*
X-78241080Y19002884D01*
X-78162023Y19139816D01*
X-78121100Y19292543D01*
X-78121100Y19450657D01*
X-78123726Y19460457D01*
X-46392805Y19460457D01*
X-46392805Y19285136D01*
X-46352372Y19114535D01*
X-46273686Y18957858D01*
X-46208487Y18877821D01*
X-46208474Y18877806D01*
X-45837259Y18506592D01*
X-45837258Y18506592D01*
X-45168439Y19175412D01*
X-45148518Y19101065D01*
X-45085983Y18992751D01*
X-44997545Y18904313D01*
X-44889231Y18841778D01*
X-44814886Y18821858D01*
X-45483705Y18153038D01*
X-45112497Y17781830D01*
X-45112476Y17781811D01*
X-45032445Y17716615D01*
X-45032439Y17716611D01*
X-44875762Y17637925D01*
X-44705160Y17597491D01*
X-44529840Y17597491D01*
X-44359239Y17637925D01*
X-44202561Y17716611D01*
X-44122524Y17781810D01*
X-44122519Y17781814D01*
X-43839683Y18064651D01*
X-44596891Y18821858D01*
X-44522545Y18841778D01*
X-44414231Y18904313D01*
X-44325793Y18992751D01*
X-44263258Y19101065D01*
X-44243338Y19175411D01*
X-43486131Y18418203D01*
X-43486130Y18418203D01*
X-43203310Y18701023D01*
X-43203291Y18701044D01*
X-43138095Y18781075D01*
X-43138091Y18781081D01*
X-43059405Y18937759D01*
X-43018971Y19108360D01*
X-43018971Y19283681D01*
X-43059405Y19454282D01*
X-43138091Y19610959D01*
X-43203290Y19690996D01*
X-43203304Y19691012D01*
X-43253827Y19741535D01*
X-43287312Y19802858D01*
X-43282328Y19872550D01*
X-43240456Y19928483D01*
X-43174992Y19952900D01*
X-43141957Y19950834D01*
X-42953201Y19913288D01*
X-42953199Y19913287D01*
X-42953198Y19913287D01*
X-42746267Y19913287D01*
X-42746266Y19913288D01*
X-42543313Y19953657D01*
X-42352135Y20032846D01*
X-42180078Y20147811D01*
X-42033757Y20294132D01*
X-41918792Y20466189D01*
X-41839603Y20657367D01*
X-41799233Y20860322D01*
X-41799233Y21067252D01*
X-41839603Y21270207D01*
X-41900853Y21418075D01*
X-41918791Y21461383D01*
X-41918796Y21461392D01*
X-42033757Y21633442D01*
X-42033760Y21633446D01*
X-42356851Y21956537D01*
X-42356855Y21956540D01*
X-42528905Y22071501D01*
X-42528914Y22071506D01*
X-42720089Y22150693D01*
X-42720097Y22150695D01*
X-42923040Y22191063D01*
X-42923044Y22191063D01*
X-43129974Y22191063D01*
X-43129979Y22191063D01*
X-43332922Y22150695D01*
X-43332930Y22150693D01*
X-43524105Y22071506D01*
X-43524114Y22071501D01*
X-43696164Y21956540D01*
X-43696168Y21956537D01*
X-43842483Y21810222D01*
X-43842486Y21810218D01*
X-43957447Y21638168D01*
X-43957452Y21638159D01*
X-44036639Y21446984D01*
X-44036641Y21446976D01*
X-44077009Y21244033D01*
X-44077009Y21037094D01*
X-44039464Y20848341D01*
X-44045691Y20778749D01*
X-44088555Y20723572D01*
X-44154444Y20700328D01*
X-44222441Y20716396D01*
X-44248762Y20736469D01*
X-44299280Y20786987D01*
X-44299301Y20787006D01*
X-44379332Y20852202D01*
X-44379338Y20852206D01*
X-44536015Y20930892D01*
X-44706616Y20971325D01*
X-44881936Y20971325D01*
X-45052538Y20930892D01*
X-45209216Y20852206D01*
X-45289253Y20787007D01*
X-45289269Y20786993D01*
X-45572094Y20504167D01*
X-44814885Y19746959D01*
X-44889231Y19727038D01*
X-44997545Y19664503D01*
X-45085983Y19576065D01*
X-45148518Y19467751D01*
X-45168439Y19393406D01*
X-45925647Y20150614D01*
X-46208476Y19867784D01*
X-46208486Y19867773D01*
X-46273682Y19787742D01*
X-46273686Y19787736D01*
X-46352372Y19631058D01*
X-46392805Y19460457D01*
X-78123726Y19460457D01*
X-78162023Y19603384D01*
X-78178000Y19631058D01*
X-78241076Y19740310D01*
X-78241082Y19740318D01*
X-78352883Y19852119D01*
X-78352891Y19852125D01*
X-78489810Y19931174D01*
X-78489814Y19931176D01*
X-78489816Y19931177D01*
X-78642543Y19972100D01*
X-78800657Y19972100D01*
X-78953384Y19931177D01*
X-78953391Y19931174D01*
X-79090310Y19852125D01*
X-79090318Y19852119D01*
X-79202119Y19740318D01*
X-79202125Y19740310D01*
X-79281174Y19603391D01*
X-79281177Y19603384D01*
X-79322100Y19450657D01*
X-83764828Y19450657D01*
X-84480937Y20166766D01*
X-66503087Y20166766D01*
X-66503087Y20008652D01*
X-66465338Y19867773D01*
X-66462164Y19855926D01*
X-66462161Y19855919D01*
X-66383112Y19719000D01*
X-66383108Y19718995D01*
X-66383107Y19718993D01*
X-66271303Y19607189D01*
X-66271301Y19607188D01*
X-66271297Y19607185D01*
X-66215666Y19575067D01*
X-66134371Y19528132D01*
X-65981644Y19487209D01*
X-65981642Y19487209D01*
X-65823532Y19487209D01*
X-65823530Y19487209D01*
X-65670803Y19528132D01*
X-65639038Y19546472D01*
X-65589507Y19575067D01*
X-65533878Y19607185D01*
X-65533879Y19607185D01*
X-65533871Y19607189D01*
X-65422067Y19718993D01*
X-65343010Y19855925D01*
X-65302087Y20008652D01*
X-65302087Y20166766D01*
X-65343010Y20319493D01*
X-65354744Y20339817D01*
X-65422063Y20456419D01*
X-65422069Y20456427D01*
X-65533870Y20568228D01*
X-65533878Y20568234D01*
X-65670797Y20647283D01*
X-65670801Y20647285D01*
X-65670803Y20647286D01*
X-65683384Y20650657D01*
X-60328167Y20650657D01*
X-60328167Y20492543D01*
X-60318487Y20456419D01*
X-60287244Y20339817D01*
X-60287241Y20339810D01*
X-60208192Y20202891D01*
X-60208188Y20202886D01*
X-60208187Y20202884D01*
X-60096383Y20091080D01*
X-60096381Y20091079D01*
X-60096377Y20091076D01*
X-59995525Y20032850D01*
X-59959451Y20012023D01*
X-59806724Y19971100D01*
X-59806722Y19971100D01*
X-59648612Y19971100D01*
X-59648610Y19971100D01*
X-59495883Y20012023D01*
X-59358951Y20091080D01*
X-59247147Y20202884D01*
X-59168090Y20339816D01*
X-59127167Y20492543D01*
X-59127167Y20650657D01*
X-59168090Y20803384D01*
X-59168094Y20803391D01*
X-59247143Y20940310D01*
X-59247149Y20940318D01*
X-59358950Y21052119D01*
X-59358958Y21052125D01*
X-59495877Y21131174D01*
X-59495881Y21131176D01*
X-59495883Y21131177D01*
X-59648610Y21172100D01*
X-59806724Y21172100D01*
X-59959451Y21131177D01*
X-59959458Y21131174D01*
X-60096377Y21052125D01*
X-60096385Y21052119D01*
X-60208186Y20940318D01*
X-60208192Y20940310D01*
X-60287241Y20803391D01*
X-60287244Y20803384D01*
X-60328167Y20650657D01*
X-65683384Y20650657D01*
X-65823530Y20688209D01*
X-65981644Y20688209D01*
X-66134371Y20647286D01*
X-66134378Y20647283D01*
X-66271297Y20568234D01*
X-66271305Y20568228D01*
X-66383106Y20456427D01*
X-66383112Y20456419D01*
X-66462161Y20319500D01*
X-66462164Y20319493D01*
X-66503087Y20166766D01*
X-84480937Y20166766D01*
X-85980937Y21666766D01*
X-79003087Y21666766D01*
X-79003087Y21508652D01*
X-78990423Y21461392D01*
X-78962164Y21355926D01*
X-78962161Y21355919D01*
X-78883112Y21219000D01*
X-78883108Y21218995D01*
X-78883107Y21218993D01*
X-78771303Y21107189D01*
X-78771301Y21107188D01*
X-78771297Y21107185D01*
X-78675920Y21052120D01*
X-78634371Y21028132D01*
X-78481644Y20987209D01*
X-78481642Y20987209D01*
X-78323532Y20987209D01*
X-78323530Y20987209D01*
X-78170803Y21028132D01*
X-78033871Y21107189D01*
X-77922067Y21218993D01*
X-77843010Y21355925D01*
X-77802087Y21508652D01*
X-77802087Y21666766D01*
X-77843010Y21819493D01*
X-77898486Y21915581D01*
X-77922063Y21956419D01*
X-77922069Y21956427D01*
X-78033870Y22068228D01*
X-78033878Y22068234D01*
X-78170797Y22147283D01*
X-78170801Y22147285D01*
X-78170803Y22147286D01*
X-78323530Y22188209D01*
X-78481644Y22188209D01*
X-78634371Y22147286D01*
X-78634378Y22147283D01*
X-78771297Y22068234D01*
X-78771305Y22068228D01*
X-78883106Y21956427D01*
X-78883112Y21956419D01*
X-78962161Y21819500D01*
X-78962164Y21819493D01*
X-79003087Y21666766D01*
X-85980937Y21666766D01*
X-87325971Y23011800D01*
X-42309242Y23011800D01*
X-42309242Y22804861D01*
X-42268874Y22601918D01*
X-42268872Y22601910D01*
X-42189685Y22410735D01*
X-42189680Y22410726D01*
X-42074719Y22238676D01*
X-42074716Y22238672D01*
X-41751625Y21915581D01*
X-41751621Y21915578D01*
X-41579571Y21800617D01*
X-41579565Y21800614D01*
X-41579564Y21800613D01*
X-41388386Y21721424D01*
X-41185436Y21681055D01*
X-41185432Y21681054D01*
X-41185431Y21681054D01*
X-40978500Y21681054D01*
X-40978499Y21681055D01*
X-40775546Y21721424D01*
X-40584368Y21800613D01*
X-40412311Y21915578D01*
X-40265990Y22061899D01*
X-40151025Y22233956D01*
X-40071836Y22425134D01*
X-40031466Y22628089D01*
X-40031466Y22835019D01*
X-40071836Y23037974D01*
X-40133086Y23185842D01*
X-40151024Y23229150D01*
X-40151029Y23229159D01*
X-40265990Y23401209D01*
X-40265993Y23401213D01*
X-40589084Y23724304D01*
X-40589088Y23724307D01*
X-40761138Y23839268D01*
X-40761147Y23839273D01*
X-40952322Y23918460D01*
X-40952330Y23918462D01*
X-41155273Y23958830D01*
X-41155277Y23958830D01*
X-41362207Y23958830D01*
X-41362212Y23958830D01*
X-41565155Y23918462D01*
X-41565163Y23918460D01*
X-41756338Y23839273D01*
X-41756347Y23839268D01*
X-41928397Y23724307D01*
X-41928401Y23724304D01*
X-42074716Y23577989D01*
X-42074719Y23577985D01*
X-42189680Y23405935D01*
X-42189685Y23405926D01*
X-42268872Y23214751D01*
X-42268874Y23214743D01*
X-42309242Y23011800D01*
X-87325971Y23011800D01*
X-88255208Y23941037D01*
X-73312480Y23941037D01*
X-73312480Y23782923D01*
X-73296773Y23724306D01*
X-73271557Y23630197D01*
X-73271554Y23630190D01*
X-73192505Y23493271D01*
X-73192501Y23493266D01*
X-73192500Y23493264D01*
X-73080696Y23381460D01*
X-73080694Y23381459D01*
X-73080690Y23381456D01*
X-72943771Y23302407D01*
X-72943764Y23302403D01*
X-72791037Y23261480D01*
X-72791035Y23261480D01*
X-72632925Y23261480D01*
X-72632923Y23261480D01*
X-72480196Y23302403D01*
X-72343264Y23381460D01*
X-72231460Y23493264D01*
X-72152403Y23630196D01*
X-72111480Y23782923D01*
X-72111480Y23941037D01*
X-72152403Y24093764D01*
X-72209639Y24192901D01*
X-72231456Y24230690D01*
X-72231462Y24230698D01*
X-72343265Y24342501D01*
X-72352173Y24347644D01*
X-72358674Y24351397D01*
X-72480194Y24421556D01*
X-72480195Y24421557D01*
X-72480196Y24421557D01*
X-72588799Y24450657D01*
X-71222100Y24450657D01*
X-71222100Y24292543D01*
X-71195546Y24193444D01*
X-71181177Y24139817D01*
X-71181174Y24139810D01*
X-71102125Y24002891D01*
X-71102121Y24002886D01*
X-71102120Y24002884D01*
X-70990316Y23891080D01*
X-70990314Y23891079D01*
X-70990310Y23891076D01*
X-70887388Y23831655D01*
X-70853384Y23812023D01*
X-70700657Y23771100D01*
X-70700655Y23771100D01*
X-70542545Y23771100D01*
X-70542543Y23771100D01*
X-70389816Y23812023D01*
X-70252884Y23891080D01*
X-70141080Y24002884D01*
X-70062023Y24139816D01*
X-70021100Y24292543D01*
X-70021100Y24450657D01*
X-70062023Y24603384D01*
X-70062027Y24603391D01*
X-70141076Y24740310D01*
X-70141082Y24740318D01*
X-70252883Y24852119D01*
X-70252891Y24852125D01*
X-70389810Y24931174D01*
X-70389814Y24931176D01*
X-70389816Y24931177D01*
X-70542543Y24972100D01*
X-70700657Y24972100D01*
X-70853384Y24931177D01*
X-70853391Y24931174D01*
X-70990310Y24852125D01*
X-70990318Y24852119D01*
X-71102119Y24740318D01*
X-71102125Y24740310D01*
X-71181174Y24603391D01*
X-71181177Y24603384D01*
X-71222100Y24450657D01*
X-72588799Y24450657D01*
X-72632923Y24462480D01*
X-72791037Y24462480D01*
X-72943764Y24421557D01*
X-72943771Y24421554D01*
X-73080690Y24342505D01*
X-73080698Y24342499D01*
X-73192499Y24230698D01*
X-73192505Y24230690D01*
X-73271554Y24093771D01*
X-73271557Y24093764D01*
X-73312480Y23941037D01*
X-88255208Y23941037D01*
X-90023169Y25708998D01*
X-62753087Y25708998D01*
X-62753087Y25466421D01*
X-62721426Y25225924D01*
X-62658640Y24991605D01*
X-62565814Y24767504D01*
X-62565811Y24767497D01*
X-62444523Y24557420D01*
X-62444521Y24557417D01*
X-62444520Y24557416D01*
X-62296854Y24364973D01*
X-62296848Y24364966D01*
X-62125331Y24193449D01*
X-62125324Y24193443D01*
X-62055428Y24139810D01*
X-61932876Y24045773D01*
X-61722799Y23924485D01*
X-61642142Y23891076D01*
X-61517067Y23839268D01*
X-61498687Y23831655D01*
X-61264376Y23768871D01*
X-61084001Y23745125D01*
X-61023876Y23737209D01*
X-61023875Y23737209D01*
X-60781298Y23737209D01*
X-60733199Y23743542D01*
X-60540798Y23768871D01*
X-60306487Y23831655D01*
X-60082375Y23924485D01*
X-59872298Y24045773D01*
X-59679849Y24193444D01*
X-59508322Y24364971D01*
X-59360651Y24557420D01*
X-59239363Y24767497D01*
X-59239360Y24767504D01*
X-59234363Y24779567D01*
X-40541475Y24779567D01*
X-40541475Y24572628D01*
X-40501107Y24369685D01*
X-40501105Y24369677D01*
X-40421918Y24178502D01*
X-40421913Y24178493D01*
X-40306952Y24006443D01*
X-40306949Y24006439D01*
X-39983858Y23683348D01*
X-39983854Y23683345D01*
X-39811804Y23568384D01*
X-39811798Y23568381D01*
X-39811797Y23568380D01*
X-39620619Y23489191D01*
X-39417669Y23448822D01*
X-39417665Y23448821D01*
X-39417664Y23448821D01*
X-39210733Y23448821D01*
X-39210732Y23448822D01*
X-39007779Y23489191D01*
X-38816601Y23568380D01*
X-38644544Y23683345D01*
X-38498223Y23829666D01*
X-38383258Y24001723D01*
X-38304069Y24192901D01*
X-38263699Y24395856D01*
X-38263699Y24602786D01*
X-38304069Y24805741D01*
X-38365319Y24953609D01*
X-38383257Y24996917D01*
X-38383262Y24996926D01*
X-38498223Y25168976D01*
X-38498226Y25168980D01*
X-38821317Y25492071D01*
X-38821321Y25492074D01*
X-38993371Y25607035D01*
X-38993380Y25607040D01*
X-39184555Y25686227D01*
X-39184563Y25686229D01*
X-39387506Y25726597D01*
X-39387510Y25726597D01*
X-39594440Y25726597D01*
X-39594445Y25726597D01*
X-39797388Y25686229D01*
X-39797396Y25686227D01*
X-39988571Y25607040D01*
X-39988580Y25607035D01*
X-40160630Y25492074D01*
X-40160634Y25492071D01*
X-40306949Y25345756D01*
X-40306952Y25345752D01*
X-40421913Y25173702D01*
X-40421918Y25173693D01*
X-40501105Y24982518D01*
X-40501107Y24982510D01*
X-40541475Y24779567D01*
X-59234363Y24779567D01*
X-59212186Y24833107D01*
X-59146535Y24991605D01*
X-59146533Y24991609D01*
X-59083749Y25225920D01*
X-59052087Y25466421D01*
X-59052087Y25708997D01*
X-59083749Y25949498D01*
X-59146533Y26183809D01*
X-59239363Y26407921D01*
X-59360651Y26617998D01*
X-59508322Y26810447D01*
X-59508327Y26810453D01*
X-59679844Y26981970D01*
X-59679851Y26981976D01*
X-59872294Y27129642D01*
X-59872295Y27129643D01*
X-59872298Y27129645D01*
X-60082375Y27250933D01*
X-60082382Y27250936D01*
X-60306483Y27343762D01*
X-60540802Y27406548D01*
X-60781298Y27438209D01*
X-60781299Y27438209D01*
X-61023875Y27438209D01*
X-61023876Y27438209D01*
X-61264373Y27406548D01*
X-61498692Y27343762D01*
X-61722793Y27250936D01*
X-61722802Y27250932D01*
X-61932881Y27129642D01*
X-62125324Y26981976D01*
X-62125331Y26981970D01*
X-62296848Y26810453D01*
X-62296854Y26810446D01*
X-62444520Y26618003D01*
X-62565810Y26407924D01*
X-62565814Y26407915D01*
X-62658640Y26183814D01*
X-62721426Y25949495D01*
X-62753087Y25708998D01*
X-90023169Y25708998D01*
X-91464828Y27150657D01*
X-69522100Y27150657D01*
X-69522100Y26992543D01*
X-69519268Y26981976D01*
X-69481177Y26839817D01*
X-69481174Y26839810D01*
X-69402125Y26702891D01*
X-69402121Y26702886D01*
X-69402120Y26702884D01*
X-69290316Y26591080D01*
X-69290314Y26591079D01*
X-69290310Y26591076D01*
X-69153391Y26512027D01*
X-69153384Y26512023D01*
X-69000657Y26471100D01*
X-69000655Y26471100D01*
X-68842545Y26471100D01*
X-68842543Y26471100D01*
X-68689816Y26512023D01*
X-68552884Y26591080D01*
X-68441080Y26702884D01*
X-68362023Y26839816D01*
X-68321100Y26992543D01*
X-68321100Y27150657D01*
X-68362023Y27303384D01*
X-68385335Y27343762D01*
X-68441076Y27440310D01*
X-68441082Y27440318D01*
X-68552883Y27552119D01*
X-68552891Y27552125D01*
X-68689810Y27631174D01*
X-68689814Y27631176D01*
X-68689816Y27631177D01*
X-68842543Y27672100D01*
X-69000657Y27672100D01*
X-69153384Y27631177D01*
X-69153391Y27631174D01*
X-69290310Y27552125D01*
X-69290318Y27552119D01*
X-69402119Y27440318D01*
X-69402125Y27440310D01*
X-69481174Y27303391D01*
X-69481177Y27303384D01*
X-69522100Y27150657D01*
X-91464828Y27150657D01*
X-94491081Y30176910D01*
X-90302480Y30176910D01*
X-90302480Y29979919D01*
X-90264053Y29786733D01*
X-90264050Y29786721D01*
X-90188672Y29604741D01*
X-90188671Y29604739D01*
X-90165055Y29569395D01*
X-89597335Y30137115D01*
X-89602481Y30117909D01*
X-89602481Y30038919D01*
X-89582036Y29962618D01*
X-89542540Y29894210D01*
X-89486684Y29838354D01*
X-89418276Y29798858D01*
X-89341975Y29778413D01*
X-89262985Y29778413D01*
X-89243784Y29783559D01*
X-89811501Y29215842D01*
X-89776152Y29192222D01*
X-89594174Y29116845D01*
X-89594162Y29116842D01*
X-89400976Y29078415D01*
X-89400972Y29078414D01*
X-89203988Y29078414D01*
X-89203985Y29078415D01*
X-89126715Y29093784D01*
X-89010799Y29116842D01*
X-89010787Y29116845D01*
X-88828807Y29192223D01*
X-88828806Y29192224D01*
X-88665019Y29301663D01*
X-88560019Y29406664D01*
X-89054993Y29901638D01*
X-88701440Y30255191D01*
X-88206466Y29760216D01*
X-88101462Y29865220D01*
X-88100429Y29866766D01*
X-59503087Y29866766D01*
X-59503087Y29708652D01*
X-59475243Y29604739D01*
X-59462164Y29555926D01*
X-59462161Y29555919D01*
X-59383112Y29419000D01*
X-59383108Y29418995D01*
X-59383107Y29418993D01*
X-59271303Y29307189D01*
X-59271301Y29307188D01*
X-59271297Y29307185D01*
X-59134378Y29228136D01*
X-59134371Y29228132D01*
X-58981644Y29187209D01*
X-58981642Y29187209D01*
X-58823532Y29187209D01*
X-58823530Y29187209D01*
X-58670803Y29228132D01*
X-58533871Y29307189D01*
X-58422067Y29418993D01*
X-58343010Y29555925D01*
X-58302087Y29708652D01*
X-58302087Y29866766D01*
X-58343010Y30019493D01*
X-58348503Y30029007D01*
X-58422065Y30156422D01*
X-58422066Y30156424D01*
X-58493866Y30228224D01*
X-35625038Y30228224D01*
X-35625038Y30052903D01*
X-35584605Y29882302D01*
X-35505919Y29725625D01*
X-35440720Y29645588D01*
X-35440707Y29645573D01*
X-35069492Y29274359D01*
X-35069491Y29274359D01*
X-34400672Y29943179D01*
X-34380751Y29868832D01*
X-34318216Y29760518D01*
X-34229778Y29672080D01*
X-34121464Y29609545D01*
X-34047119Y29589625D01*
X-34715938Y28920805D01*
X-34344730Y28549597D01*
X-34344709Y28549578D01*
X-34264678Y28484382D01*
X-34264672Y28484378D01*
X-34107995Y28405692D01*
X-33937393Y28365258D01*
X-33762073Y28365258D01*
X-33591472Y28405692D01*
X-33434794Y28484378D01*
X-33354757Y28549577D01*
X-33354752Y28549581D01*
X-33071916Y28832418D01*
X-33829124Y29589625D01*
X-33754778Y29609545D01*
X-33646464Y29672080D01*
X-33558026Y29760518D01*
X-33495491Y29868832D01*
X-33475571Y29943178D01*
X-32718364Y29185970D01*
X-32718363Y29185970D01*
X-32435543Y29468790D01*
X-32435524Y29468811D01*
X-32370328Y29548842D01*
X-32370324Y29548848D01*
X-32291638Y29705526D01*
X-32251204Y29876127D01*
X-32251204Y30051448D01*
X-32291638Y30222049D01*
X-32370324Y30378726D01*
X-32435523Y30458763D01*
X-32435537Y30458779D01*
X-32486060Y30509302D01*
X-32519545Y30570625D01*
X-32514561Y30640317D01*
X-32472689Y30696250D01*
X-32407225Y30720667D01*
X-32374190Y30718601D01*
X-32185434Y30681055D01*
X-32185432Y30681054D01*
X-32185431Y30681054D01*
X-31978500Y30681054D01*
X-31978499Y30681055D01*
X-31775546Y30721424D01*
X-31584368Y30800613D01*
X-31412311Y30915578D01*
X-31265990Y31061899D01*
X-31151025Y31233956D01*
X-31071836Y31425134D01*
X-31031466Y31628089D01*
X-31031466Y31835019D01*
X-31071836Y32037974D01*
X-31133086Y32185842D01*
X-31151024Y32229150D01*
X-31151029Y32229159D01*
X-31265990Y32401209D01*
X-31265993Y32401213D01*
X-31589084Y32724304D01*
X-31589088Y32724307D01*
X-31761142Y32839270D01*
X-31761147Y32839273D01*
X-31952322Y32918460D01*
X-31952330Y32918462D01*
X-32155273Y32958830D01*
X-32155277Y32958830D01*
X-32362207Y32958830D01*
X-32362212Y32958830D01*
X-32565155Y32918462D01*
X-32565163Y32918460D01*
X-32756338Y32839273D01*
X-32756342Y32839270D01*
X-32928397Y32724307D01*
X-32928401Y32724304D01*
X-33074716Y32577989D01*
X-33074719Y32577985D01*
X-33189680Y32405935D01*
X-33189685Y32405926D01*
X-33268872Y32214751D01*
X-33268874Y32214743D01*
X-33309242Y32011800D01*
X-33309242Y31804861D01*
X-33271697Y31616108D01*
X-33277924Y31546516D01*
X-33320788Y31491339D01*
X-33386677Y31468095D01*
X-33454674Y31484163D01*
X-33480995Y31504236D01*
X-33531513Y31554754D01*
X-33531534Y31554773D01*
X-33611565Y31619969D01*
X-33611571Y31619973D01*
X-33768248Y31698659D01*
X-33938849Y31739092D01*
X-34114169Y31739092D01*
X-34284771Y31698659D01*
X-34441449Y31619973D01*
X-34521486Y31554774D01*
X-34521502Y31554760D01*
X-34804327Y31271934D01*
X-34047118Y30514726D01*
X-34121464Y30494805D01*
X-34229778Y30432270D01*
X-34318216Y30343832D01*
X-34380751Y30235518D01*
X-34400672Y30161173D01*
X-35157880Y30918381D01*
X-35440709Y30635551D01*
X-35440719Y30635540D01*
X-35505915Y30555509D01*
X-35505919Y30555503D01*
X-35584605Y30398825D01*
X-35625038Y30228224D01*
X-58493866Y30228224D01*
X-58533870Y30268228D01*
X-58533878Y30268234D01*
X-58670797Y30347283D01*
X-58670801Y30347285D01*
X-58670803Y30347286D01*
X-58823530Y30388209D01*
X-58981644Y30388209D01*
X-59134371Y30347286D01*
X-59134378Y30347283D01*
X-59271297Y30268234D01*
X-59271305Y30268228D01*
X-59383106Y30156427D01*
X-59383112Y30156419D01*
X-59462161Y30019500D01*
X-59462164Y30019493D01*
X-59503087Y29866766D01*
X-88100429Y29866766D01*
X-88048966Y29943784D01*
X-87992031Y30028994D01*
X-87992024Y30029007D01*
X-87916647Y30210985D01*
X-87916644Y30210997D01*
X-87878217Y30404183D01*
X-87878216Y30404186D01*
X-87878216Y30601171D01*
X-87878217Y30601175D01*
X-87916644Y30794360D01*
X-87916647Y30794372D01*
X-87992024Y30976350D01*
X-88015644Y31011699D01*
X-88583360Y30443983D01*
X-88578215Y30463183D01*
X-88578215Y30542174D01*
X-88598660Y30618474D01*
X-88638156Y30686882D01*
X-88694012Y30742738D01*
X-88762420Y30782234D01*
X-88838720Y30802679D01*
X-88917711Y30802679D01*
X-88936917Y30797533D01*
X-88369197Y31365253D01*
X-88404541Y31388869D01*
X-88404543Y31388870D01*
X-88586523Y31464248D01*
X-88586535Y31464251D01*
X-88779720Y31502678D01*
X-88976712Y31502678D01*
X-89169898Y31464251D01*
X-89169910Y31464248D01*
X-89351888Y31388871D01*
X-89351901Y31388864D01*
X-89515676Y31279432D01*
X-89620679Y31174430D01*
X-89125704Y30679455D01*
X-89479257Y30325902D01*
X-89974232Y30820877D01*
X-90079229Y30715879D01*
X-90079233Y30715874D01*
X-90188671Y30552089D01*
X-90188672Y30552088D01*
X-90264050Y30370108D01*
X-90264053Y30370096D01*
X-90302480Y30176910D01*
X-94491081Y30176910D01*
X-97436031Y33121860D01*
X-97439406Y33125370D01*
X-97679278Y33384861D01*
X-97683210Y33389325D01*
X-97710743Y33422136D01*
X-97735893Y33452108D01*
X-97738243Y33454997D01*
X-97933670Y33702894D01*
X-97937840Y33708504D01*
X-97973188Y33758986D01*
X-97974638Y33761105D01*
X-98106476Y33958414D01*
X-88096071Y33958414D01*
X-88096071Y33806882D01*
X-88083237Y33758986D01*
X-88056852Y33660512D01*
X-88023526Y33602791D01*
X-87981086Y33529283D01*
X-87873936Y33422133D01*
X-87742706Y33346367D01*
X-87596337Y33307148D01*
X-87596329Y33307148D01*
X-87588277Y33306087D01*
X-87588741Y33302565D01*
X-87537312Y33287463D01*
X-87491557Y33234659D01*
X-87481613Y33165501D01*
X-87483946Y33155009D01*
X-87483933Y33155006D01*
X-87523550Y32955839D01*
X-87523550Y32758848D01*
X-87485123Y32565662D01*
X-87485120Y32565650D01*
X-87409742Y32383670D01*
X-87409741Y32383668D01*
X-87386125Y32348324D01*
X-86818405Y32916044D01*
X-86823551Y32896838D01*
X-86823551Y32817848D01*
X-86803106Y32741547D01*
X-86763610Y32673139D01*
X-86707754Y32617283D01*
X-86639346Y32577787D01*
X-86563045Y32557342D01*
X-86484055Y32557342D01*
X-86464854Y32562488D01*
X-87032571Y31994771D01*
X-86997222Y31971151D01*
X-86815244Y31895774D01*
X-86815232Y31895771D01*
X-86622046Y31857344D01*
X-86622042Y31857343D01*
X-86425058Y31857343D01*
X-86425055Y31857344D01*
X-86231869Y31895771D01*
X-86231857Y31895774D01*
X-86049877Y31971152D01*
X-86049876Y31971153D01*
X-85886088Y32080593D01*
X-85886084Y32080596D01*
X-85649914Y32316766D01*
X-82503087Y32316766D01*
X-82503087Y32158652D01*
X-82462894Y32008652D01*
X-82462164Y32005926D01*
X-82462161Y32005919D01*
X-82383112Y31869000D01*
X-82383108Y31868995D01*
X-82383107Y31868993D01*
X-82271303Y31757189D01*
X-82271301Y31757188D01*
X-82271297Y31757185D01*
X-82169925Y31698659D01*
X-82134371Y31678132D01*
X-81981644Y31637209D01*
X-81981642Y31637209D01*
X-81823532Y31637209D01*
X-81823530Y31637209D01*
X-81670803Y31678132D01*
X-81533871Y31757189D01*
X-81422067Y31868993D01*
X-81343010Y32005925D01*
X-81302087Y32158652D01*
X-81302087Y32166766D01*
X-68503087Y32166766D01*
X-68503087Y32008652D01*
X-68465665Y31868993D01*
X-68462164Y31855926D01*
X-68462161Y31855919D01*
X-68383112Y31719000D01*
X-68383108Y31718995D01*
X-68383107Y31718993D01*
X-68271303Y31607189D01*
X-68271301Y31607188D01*
X-68271297Y31607185D01*
X-68134378Y31528136D01*
X-68134371Y31528132D01*
X-67981644Y31487209D01*
X-67981642Y31487209D01*
X-67823532Y31487209D01*
X-67823530Y31487209D01*
X-67670803Y31528132D01*
X-67533871Y31607189D01*
X-67422067Y31718993D01*
X-67343010Y31855925D01*
X-67302087Y32008652D01*
X-67302087Y32166766D01*
X-54503087Y32166766D01*
X-54503087Y32008652D01*
X-54465665Y31868993D01*
X-54462164Y31855926D01*
X-54462161Y31855919D01*
X-54383112Y31719000D01*
X-54383108Y31718995D01*
X-54383107Y31718993D01*
X-54271303Y31607189D01*
X-54271301Y31607188D01*
X-54271297Y31607185D01*
X-54134378Y31528136D01*
X-54134371Y31528132D01*
X-53981644Y31487209D01*
X-53981642Y31487209D01*
X-53823532Y31487209D01*
X-53823530Y31487209D01*
X-53670803Y31528132D01*
X-53533871Y31607189D01*
X-53422067Y31718993D01*
X-53343010Y31855925D01*
X-53302087Y32008652D01*
X-53302087Y32166766D01*
X-53343010Y32319493D01*
X-53390188Y32401209D01*
X-53422063Y32456419D01*
X-53422069Y32456427D01*
X-53533870Y32568228D01*
X-53533878Y32568234D01*
X-53670797Y32647283D01*
X-53670801Y32647285D01*
X-53670803Y32647286D01*
X-53823530Y32688209D01*
X-53981644Y32688209D01*
X-54134371Y32647286D01*
X-54134378Y32647283D01*
X-54271297Y32568234D01*
X-54271305Y32568228D01*
X-54383106Y32456427D01*
X-54383112Y32456419D01*
X-54462161Y32319500D01*
X-54462164Y32319493D01*
X-54503087Y32166766D01*
X-67302087Y32166766D01*
X-67343010Y32319493D01*
X-67390188Y32401209D01*
X-67422063Y32456419D01*
X-67422069Y32456427D01*
X-67533870Y32568228D01*
X-67533878Y32568234D01*
X-67670797Y32647283D01*
X-67670801Y32647285D01*
X-67670803Y32647286D01*
X-67823530Y32688209D01*
X-67981644Y32688209D01*
X-68134371Y32647286D01*
X-68134378Y32647283D01*
X-68271297Y32568234D01*
X-68271305Y32568228D01*
X-68383106Y32456427D01*
X-68383112Y32456419D01*
X-68462161Y32319500D01*
X-68462164Y32319493D01*
X-68503087Y32166766D01*
X-81302087Y32166766D01*
X-81302087Y32316766D01*
X-81343010Y32469493D01*
X-81354382Y32489190D01*
X-81422063Y32606419D01*
X-81422069Y32606427D01*
X-81533870Y32718228D01*
X-81533878Y32718234D01*
X-81670797Y32797283D01*
X-81670801Y32797285D01*
X-81670803Y32797286D01*
X-81823530Y32838209D01*
X-81981644Y32838209D01*
X-82134371Y32797286D01*
X-82134378Y32797283D01*
X-82271297Y32718234D01*
X-82271305Y32718228D01*
X-82383106Y32606427D01*
X-82383112Y32606419D01*
X-82462161Y32469500D01*
X-82462164Y32469493D01*
X-82503087Y32316766D01*
X-85649914Y32316766D01*
X-85604311Y32362369D01*
X-86099286Y32857344D01*
X-85745733Y33210896D01*
X-85250759Y32715922D01*
X-84968980Y32997700D01*
X-84859547Y33161477D01*
X-84859540Y33161490D01*
X-84784163Y33343468D01*
X-84784160Y33343480D01*
X-84775615Y33386435D01*
X-66492646Y33386435D01*
X-66492646Y33228321D01*
X-66464062Y33121646D01*
X-66451723Y33075595D01*
X-66451720Y33075588D01*
X-66372671Y32938669D01*
X-66372667Y32938664D01*
X-66372666Y32938662D01*
X-66260862Y32826858D01*
X-66260860Y32826857D01*
X-66260856Y32826854D01*
X-66143064Y32758848D01*
X-66123930Y32747801D01*
X-65971203Y32706878D01*
X-65971201Y32706878D01*
X-65813091Y32706878D01*
X-65813089Y32706878D01*
X-65660362Y32747801D01*
X-65523430Y32826858D01*
X-65515596Y32834693D01*
X-65454277Y32868178D01*
X-65384585Y32863196D01*
X-65340233Y32834694D01*
X-65232396Y32726857D01*
X-65232394Y32726856D01*
X-65232390Y32726853D01*
X-65139353Y32673139D01*
X-65095464Y32647800D01*
X-64942737Y32606877D01*
X-64942735Y32606877D01*
X-64784625Y32606877D01*
X-64784623Y32606877D01*
X-64631896Y32647800D01*
X-64494964Y32726857D01*
X-64383160Y32838661D01*
X-64304103Y32975593D01*
X-64263180Y33128320D01*
X-64263180Y33286434D01*
X-64304103Y33439161D01*
X-64360397Y33536666D01*
X-64383156Y33576087D01*
X-64383162Y33576095D01*
X-64494962Y33687895D01*
X-64494972Y33687903D01*
X-64631890Y33766951D01*
X-64631894Y33766953D01*
X-64631896Y33766954D01*
X-64678968Y33779567D01*
X-31541475Y33779567D01*
X-31541475Y33572628D01*
X-31501107Y33369685D01*
X-31501105Y33369677D01*
X-31421918Y33178502D01*
X-31421913Y33178493D01*
X-31306952Y33006443D01*
X-31306949Y33006439D01*
X-30983858Y32683348D01*
X-30983854Y32683345D01*
X-30811804Y32568384D01*
X-30811795Y32568379D01*
X-30785149Y32557342D01*
X-30620619Y32489191D01*
X-30455902Y32456427D01*
X-30417669Y32448822D01*
X-30417665Y32448821D01*
X-30417664Y32448821D01*
X-30210733Y32448821D01*
X-30210732Y32448822D01*
X-30007779Y32489191D01*
X-29816601Y32568380D01*
X-29644544Y32683345D01*
X-29498223Y32829666D01*
X-29383258Y33001723D01*
X-29304069Y33192901D01*
X-29263699Y33395856D01*
X-29263699Y33602786D01*
X-29304069Y33805741D01*
X-29367309Y33958414D01*
X-29383257Y33996917D01*
X-29383262Y33996926D01*
X-29498223Y34168976D01*
X-29498226Y34168980D01*
X-29821317Y34492071D01*
X-29821321Y34492074D01*
X-29993371Y34607035D01*
X-29993380Y34607040D01*
X-30184555Y34686227D01*
X-30184563Y34686229D01*
X-30387506Y34726597D01*
X-30387510Y34726597D01*
X-30594440Y34726597D01*
X-30594445Y34726597D01*
X-30797388Y34686229D01*
X-30797396Y34686227D01*
X-30988571Y34607040D01*
X-30988580Y34607035D01*
X-31160630Y34492074D01*
X-31160634Y34492071D01*
X-31306949Y34345756D01*
X-31306952Y34345752D01*
X-31421913Y34173702D01*
X-31421918Y34173693D01*
X-31501105Y33982518D01*
X-31501107Y33982510D01*
X-31541475Y33779567D01*
X-64678968Y33779567D01*
X-64784623Y33807877D01*
X-64942737Y33807877D01*
X-65095464Y33766954D01*
X-65095471Y33766951D01*
X-65232390Y33687902D01*
X-65232400Y33687895D01*
X-65240235Y33680059D01*
X-65301559Y33646576D01*
X-65371251Y33651563D01*
X-65415594Y33680062D01*
X-65523429Y33787897D01*
X-65523437Y33787903D01*
X-65660356Y33866952D01*
X-65660360Y33866954D01*
X-65660362Y33866955D01*
X-65813089Y33907878D01*
X-65971203Y33907878D01*
X-66123930Y33866955D01*
X-66123937Y33866952D01*
X-66260856Y33787903D01*
X-66260864Y33787897D01*
X-66372665Y33676096D01*
X-66372671Y33676088D01*
X-66451720Y33539169D01*
X-66451723Y33539162D01*
X-66492646Y33386435D01*
X-84775615Y33386435D01*
X-84769186Y33418753D01*
X-84745733Y33536666D01*
X-84745732Y33536669D01*
X-84745732Y33733654D01*
X-84745733Y33733658D01*
X-84784160Y33926843D01*
X-84784163Y33926855D01*
X-84859540Y34108833D01*
X-84883160Y34144182D01*
X-85450876Y33576466D01*
X-85445731Y33595666D01*
X-85445731Y33674657D01*
X-85466176Y33750957D01*
X-85505672Y33819365D01*
X-85561528Y33875221D01*
X-85629936Y33914717D01*
X-85706236Y33935162D01*
X-85785227Y33935162D01*
X-85804433Y33930016D01*
X-85236713Y34497736D01*
X-85272057Y34521352D01*
X-85272059Y34521353D01*
X-85454039Y34596731D01*
X-85454051Y34596734D01*
X-85647236Y34635161D01*
X-85844228Y34635161D01*
X-86037414Y34596734D01*
X-86037426Y34596731D01*
X-86219404Y34521354D01*
X-86219417Y34521347D01*
X-86383195Y34411913D01*
X-86383199Y34411910D01*
X-86664972Y34130137D01*
X-86664972Y34130136D01*
X-86169997Y33635161D01*
X-86523550Y33281608D01*
X-86916374Y33674432D01*
X-86949859Y33735755D01*
X-86948467Y33794208D01*
X-86945377Y33805741D01*
X-86945071Y33806882D01*
X-86945071Y33958414D01*
X-86984290Y34104783D01*
X-86984293Y34104789D01*
X-86992785Y34119498D01*
X-86992786Y34119499D01*
X-87021354Y34168980D01*
X-87060056Y34236013D01*
X-87167206Y34343163D01*
X-87254359Y34393481D01*
X-87298435Y34418929D01*
X-87371621Y34438539D01*
X-87444805Y34458148D01*
X-87596337Y34458148D01*
X-87742708Y34418929D01*
X-87873936Y34343163D01*
X-87873939Y34343161D01*
X-87981084Y34236016D01*
X-87981086Y34236013D01*
X-88056852Y34104785D01*
X-88089613Y33982517D01*
X-88096071Y33958414D01*
X-98106476Y33958414D01*
X-98162319Y34041989D01*
X-98166593Y34048862D01*
X-98168439Y34052059D01*
X-98169189Y34053376D01*
X-98354801Y34384811D01*
X-98359217Y34393481D01*
X-98367713Y34411910D01*
X-98485202Y34666766D01*
X-90503087Y34666766D01*
X-90503087Y34508652D01*
X-90471041Y34389057D01*
X-90462164Y34355926D01*
X-90462161Y34355919D01*
X-90383112Y34219000D01*
X-90383108Y34218995D01*
X-90383107Y34218993D01*
X-90271303Y34107189D01*
X-90271301Y34107188D01*
X-90271297Y34107185D01*
X-90134378Y34028136D01*
X-90134371Y34028132D01*
X-89981644Y33987209D01*
X-89981642Y33987209D01*
X-89823532Y33987209D01*
X-89823530Y33987209D01*
X-89670803Y34028132D01*
X-89670799Y34028135D01*
X-89670797Y34028135D01*
X-89591485Y34073926D01*
X-89591480Y34073929D01*
X-89533871Y34107189D01*
X-89422067Y34218993D01*
X-89343010Y34355925D01*
X-89302087Y34508652D01*
X-89302087Y34666766D01*
X-89343010Y34819493D01*
X-89404895Y34926682D01*
X-89422063Y34956419D01*
X-89422069Y34956427D01*
X-89533870Y35068228D01*
X-89533878Y35068234D01*
X-89670797Y35147283D01*
X-89670801Y35147285D01*
X-89670803Y35147286D01*
X-89743503Y35166766D01*
X-52503087Y35166766D01*
X-52503087Y35008652D01*
X-52481124Y34926687D01*
X-52462164Y34855926D01*
X-52462161Y34855919D01*
X-52383112Y34719000D01*
X-52383108Y34718995D01*
X-52383107Y34718993D01*
X-52271303Y34607189D01*
X-52271301Y34607188D01*
X-52271297Y34607185D01*
X-52195894Y34563652D01*
X-52134371Y34528132D01*
X-51981644Y34487209D01*
X-51981642Y34487209D01*
X-51823532Y34487209D01*
X-51823530Y34487209D01*
X-51670803Y34528132D01*
X-51533871Y34607189D01*
X-51422067Y34718993D01*
X-51343010Y34855925D01*
X-51302087Y35008652D01*
X-51302087Y35166766D01*
X-51343010Y35319493D01*
X-51364771Y35357185D01*
X-51422063Y35456419D01*
X-51422069Y35456427D01*
X-51512976Y35547334D01*
X-29773708Y35547334D01*
X-29773708Y35340395D01*
X-29733340Y35137452D01*
X-29733338Y35137444D01*
X-29654151Y34946269D01*
X-29654146Y34946260D01*
X-29539185Y34774210D01*
X-29539182Y34774206D01*
X-29216091Y34451115D01*
X-29216087Y34451112D01*
X-29044037Y34336151D01*
X-29044031Y34336148D01*
X-29044030Y34336147D01*
X-28852852Y34256958D01*
X-28662023Y34219000D01*
X-28649902Y34216589D01*
X-28649898Y34216588D01*
X-28649897Y34216588D01*
X-28442966Y34216588D01*
X-28442965Y34216589D01*
X-28240012Y34256958D01*
X-28048834Y34336147D01*
X-27876777Y34451112D01*
X-27730456Y34597433D01*
X-27615491Y34769490D01*
X-27536302Y34960668D01*
X-27495932Y35163623D01*
X-27495932Y35370553D01*
X-27536302Y35573508D01*
X-27597552Y35721376D01*
X-27615490Y35764684D01*
X-27615495Y35764693D01*
X-27730456Y35936743D01*
X-27730459Y35936747D01*
X-28053550Y36259838D01*
X-28053554Y36259841D01*
X-28225604Y36374802D01*
X-28225613Y36374807D01*
X-28416788Y36453994D01*
X-28416796Y36453996D01*
X-28619739Y36494364D01*
X-28619743Y36494364D01*
X-28826673Y36494364D01*
X-28826678Y36494364D01*
X-29029621Y36453996D01*
X-29029629Y36453994D01*
X-29220804Y36374807D01*
X-29220813Y36374802D01*
X-29392863Y36259841D01*
X-29392867Y36259838D01*
X-29539182Y36113523D01*
X-29539185Y36113519D01*
X-29654146Y35941469D01*
X-29654151Y35941460D01*
X-29733338Y35750285D01*
X-29733340Y35750277D01*
X-29773708Y35547334D01*
X-51512976Y35547334D01*
X-51533870Y35568228D01*
X-51533878Y35568234D01*
X-51670797Y35647283D01*
X-51670801Y35647285D01*
X-51670803Y35647286D01*
X-51823530Y35688209D01*
X-51981644Y35688209D01*
X-52134371Y35647286D01*
X-52134378Y35647283D01*
X-52271297Y35568234D01*
X-52271305Y35568228D01*
X-52383106Y35456427D01*
X-52383112Y35456419D01*
X-52462161Y35319500D01*
X-52462164Y35319493D01*
X-52503087Y35166766D01*
X-89743503Y35166766D01*
X-89823530Y35188209D01*
X-89981644Y35188209D01*
X-90134371Y35147286D01*
X-90134378Y35147283D01*
X-90271297Y35068234D01*
X-90271305Y35068228D01*
X-90383106Y34956427D01*
X-90383112Y34956419D01*
X-90462161Y34819500D01*
X-90462164Y34819493D01*
X-90503087Y34666766D01*
X-98485202Y34666766D01*
X-98519489Y34741142D01*
X-98523207Y34750119D01*
X-98548800Y34819493D01*
X-98655709Y35109289D01*
X-98658712Y35118532D01*
X-98762016Y35484831D01*
X-98762389Y35486187D01*
X-98763146Y35489015D01*
X-98764983Y35496893D01*
X-98765198Y35497973D01*
X-98831035Y35828977D01*
X-98831519Y35831560D01*
X-98842059Y35891338D01*
X-98843072Y35898215D01*
X-98880277Y36212594D01*
X-98880656Y36216276D01*
X-98886782Y36286312D01*
X-96411882Y36286312D01*
X-96411882Y36089321D01*
X-96373455Y35896135D01*
X-96373452Y35896123D01*
X-96298074Y35714143D01*
X-96298073Y35714141D01*
X-96274457Y35678797D01*
X-95706737Y36246517D01*
X-95711883Y36227311D01*
X-95711883Y36148321D01*
X-95691438Y36072020D01*
X-95651942Y36003612D01*
X-95596086Y35947756D01*
X-95527678Y35908260D01*
X-95451377Y35887815D01*
X-95372387Y35887815D01*
X-95353186Y35892961D01*
X-95920903Y35325244D01*
X-95885554Y35301624D01*
X-95703576Y35226247D01*
X-95703564Y35226244D01*
X-95510378Y35187817D01*
X-95510374Y35187816D01*
X-95313390Y35187816D01*
X-95313387Y35187817D01*
X-95120201Y35226244D01*
X-95120189Y35226247D01*
X-94938209Y35301625D01*
X-94938208Y35301626D01*
X-94774421Y35411065D01*
X-94669421Y35516066D01*
X-95164395Y36011040D01*
X-94810842Y36364592D01*
X-94315868Y35869618D01*
X-94268720Y35916766D01*
X-68753087Y35916766D01*
X-68753087Y35758652D01*
X-68723246Y35647286D01*
X-68712164Y35605926D01*
X-68712161Y35605919D01*
X-68633112Y35469000D01*
X-68633108Y35468995D01*
X-68633107Y35468993D01*
X-68521303Y35357189D01*
X-68521301Y35357188D01*
X-68521297Y35357185D01*
X-68422925Y35300391D01*
X-68384371Y35278132D01*
X-68231644Y35237209D01*
X-68231642Y35237209D01*
X-68073532Y35237209D01*
X-68073530Y35237209D01*
X-67920803Y35278132D01*
X-67913617Y35282282D01*
X-67913614Y35282282D01*
X-67783878Y35357185D01*
X-67783879Y35357185D01*
X-67783871Y35357189D01*
X-67672067Y35468993D01*
X-67593010Y35605925D01*
X-67552087Y35758652D01*
X-67552087Y35916766D01*
X-67593010Y36069493D01*
X-67594469Y36072020D01*
X-67672063Y36206419D01*
X-67672069Y36206427D01*
X-67783870Y36318228D01*
X-67783878Y36318234D01*
X-67920797Y36397283D01*
X-67920801Y36397285D01*
X-67920803Y36397286D01*
X-68073530Y36438209D01*
X-68231644Y36438209D01*
X-68384371Y36397286D01*
X-68384378Y36397283D01*
X-68521297Y36318234D01*
X-68521305Y36318228D01*
X-68633106Y36206427D01*
X-68633112Y36206419D01*
X-68712161Y36069500D01*
X-68712164Y36069493D01*
X-68753087Y35916766D01*
X-94268720Y35916766D01*
X-94210866Y35974620D01*
X-94198061Y35993783D01*
X-94198061Y35993784D01*
X-94101433Y36138396D01*
X-94101426Y36138409D01*
X-94026049Y36320387D01*
X-94026046Y36320399D01*
X-93987619Y36513585D01*
X-93987618Y36513588D01*
X-93987618Y36710573D01*
X-93987619Y36710577D01*
X-94026046Y36903762D01*
X-94026049Y36903774D01*
X-94101426Y37085752D01*
X-94125046Y37121101D01*
X-94692762Y36553385D01*
X-94687617Y36572585D01*
X-94687617Y36651576D01*
X-94708062Y36727876D01*
X-94747558Y36796284D01*
X-94803414Y36852140D01*
X-94871822Y36891636D01*
X-94948122Y36912081D01*
X-95027113Y36912081D01*
X-95046319Y36906935D01*
X-94478599Y37474655D01*
X-94513943Y37498271D01*
X-94513945Y37498272D01*
X-94695925Y37573650D01*
X-94695937Y37573653D01*
X-94889122Y37612080D01*
X-95086114Y37612080D01*
X-95279300Y37573653D01*
X-95279312Y37573650D01*
X-95461290Y37498273D01*
X-95461303Y37498266D01*
X-95625078Y37388834D01*
X-95730081Y37283832D01*
X-95235106Y36788857D01*
X-95588659Y36435304D01*
X-96083634Y36930279D01*
X-96188631Y36825281D01*
X-96188635Y36825276D01*
X-96298073Y36661491D01*
X-96298074Y36661490D01*
X-96373452Y36479510D01*
X-96373455Y36479498D01*
X-96411882Y36286312D01*
X-98886782Y36286312D01*
X-98887716Y36296984D01*
X-98888083Y36302756D01*
X-98901993Y36656924D01*
X-98902087Y36661779D01*
X-98902087Y39065242D01*
X-93632953Y39065242D01*
X-93632953Y38868251D01*
X-93594526Y38675065D01*
X-93594523Y38675053D01*
X-93519145Y38493073D01*
X-93519144Y38493071D01*
X-93495528Y38457727D01*
X-92927808Y39025447D01*
X-92932954Y39006241D01*
X-92932954Y38927251D01*
X-92912509Y38850950D01*
X-92873013Y38782542D01*
X-92817157Y38726686D01*
X-92748749Y38687190D01*
X-92672448Y38666745D01*
X-92593458Y38666745D01*
X-92574257Y38671891D01*
X-93141974Y38104174D01*
X-93106625Y38080554D01*
X-92924647Y38005177D01*
X-92924635Y38005174D01*
X-92731449Y37966747D01*
X-92731445Y37966746D01*
X-92534461Y37966746D01*
X-92534458Y37966747D01*
X-92335289Y38006363D01*
X-92334953Y38004674D01*
X-92273298Y38005235D01*
X-92214178Y37967998D01*
X-92184576Y37904709D01*
X-92184370Y37901998D01*
X-92184209Y37902019D01*
X-92183148Y37893960D01*
X-92143929Y37747589D01*
X-92106046Y37681975D01*
X-92068163Y37616360D01*
X-91961013Y37509210D01*
X-91829783Y37433444D01*
X-91683414Y37394225D01*
X-91683412Y37394225D01*
X-91531884Y37394225D01*
X-91531882Y37394225D01*
X-91385513Y37433444D01*
X-91254283Y37509210D01*
X-91147133Y37616360D01*
X-91071367Y37747590D01*
X-91032148Y37893959D01*
X-91032148Y38045491D01*
X-91071367Y38191860D01*
X-91147133Y38323090D01*
X-91254283Y38430240D01*
X-91319898Y38468123D01*
X-91385512Y38506006D01*
X-91458698Y38525616D01*
X-91531882Y38545225D01*
X-91683414Y38545225D01*
X-91683416Y38545225D01*
X-91696098Y38541827D01*
X-91765948Y38543494D01*
X-91815865Y38573923D01*
X-92208689Y38966747D01*
X-91855136Y39320299D01*
X-91360162Y38825325D01*
X-91078383Y39107103D01*
X-90968950Y39270880D01*
X-90968943Y39270893D01*
X-90893566Y39452871D01*
X-90893563Y39452883D01*
X-90855136Y39646069D01*
X-90855135Y39646072D01*
X-90855135Y39666766D01*
X-86503087Y39666766D01*
X-86503087Y39508652D01*
X-86484804Y39440421D01*
X-86462164Y39355926D01*
X-86462161Y39355919D01*
X-86383112Y39219000D01*
X-86383108Y39218995D01*
X-86383107Y39218993D01*
X-86271303Y39107189D01*
X-86271301Y39107188D01*
X-86271297Y39107185D01*
X-86228613Y39082542D01*
X-86134371Y39028132D01*
X-85981644Y38987209D01*
X-85981642Y38987209D01*
X-85823532Y38987209D01*
X-85823530Y38987209D01*
X-85670803Y39028132D01*
X-85533871Y39107189D01*
X-85422067Y39218993D01*
X-85343010Y39355925D01*
X-85302087Y39508652D01*
X-85302087Y39666766D01*
X-83003087Y39666766D01*
X-83003087Y39508652D01*
X-82984804Y39440421D01*
X-82962164Y39355926D01*
X-82962161Y39355919D01*
X-82883112Y39219000D01*
X-82883108Y39218995D01*
X-82883107Y39218993D01*
X-82771303Y39107189D01*
X-82771301Y39107188D01*
X-82771297Y39107185D01*
X-82728613Y39082542D01*
X-82634371Y39028132D01*
X-82481644Y38987209D01*
X-82481642Y38987209D01*
X-82323532Y38987209D01*
X-82323530Y38987209D01*
X-82170803Y39028132D01*
X-82033871Y39107189D01*
X-81922067Y39218993D01*
X-81843010Y39355925D01*
X-81802087Y39508652D01*
X-81802087Y39666766D01*
X-81843010Y39819493D01*
X-81843014Y39819500D01*
X-81922063Y39956419D01*
X-81922069Y39956427D01*
X-82033870Y40068228D01*
X-82033871Y40068229D01*
X-82170803Y40147286D01*
X-82243503Y40166766D01*
X-81503087Y40166766D01*
X-81503087Y40008652D01*
X-81496648Y39984624D01*
X-81462164Y39855926D01*
X-81462161Y39855919D01*
X-81383112Y39719000D01*
X-81383108Y39718995D01*
X-81383107Y39718993D01*
X-81271303Y39607189D01*
X-81271301Y39607188D01*
X-81271297Y39607185D01*
X-81190192Y39560360D01*
X-81134371Y39528132D01*
X-80981644Y39487209D01*
X-80981642Y39487209D01*
X-80823532Y39487209D01*
X-80823530Y39487209D01*
X-80670803Y39528132D01*
X-80533871Y39607189D01*
X-80422067Y39718993D01*
X-80343010Y39855925D01*
X-80302087Y40008652D01*
X-80302087Y40166766D01*
X-80343010Y40319493D01*
X-80364044Y40355926D01*
X-80422063Y40456419D01*
X-80422069Y40456427D01*
X-80533870Y40568228D01*
X-80533871Y40568229D01*
X-80670803Y40647286D01*
X-80743503Y40666766D01*
X-80003087Y40666766D01*
X-80003087Y40508653D01*
X-79962164Y40355926D01*
X-79962161Y40355919D01*
X-79883112Y40219000D01*
X-79883108Y40218995D01*
X-79883107Y40218993D01*
X-79771303Y40107189D01*
X-79771301Y40107188D01*
X-79771297Y40107185D01*
X-79703822Y40068229D01*
X-79634371Y40028132D01*
X-79481644Y39987209D01*
X-79481642Y39987209D01*
X-79323532Y39987209D01*
X-79323530Y39987209D01*
X-79170803Y40028132D01*
X-79033871Y40107189D01*
X-78922067Y40218993D01*
X-78843010Y40355925D01*
X-78802087Y40508652D01*
X-78802087Y40666766D01*
X-78843010Y40819493D01*
X-78843014Y40819500D01*
X-78922063Y40956419D01*
X-78922069Y40956427D01*
X-79033870Y41068228D01*
X-79033878Y41068234D01*
X-79170797Y41147283D01*
X-79170801Y41147285D01*
X-79170803Y41147286D01*
X-79323530Y41188209D01*
X-79481644Y41188209D01*
X-79634371Y41147286D01*
X-79634378Y41147283D01*
X-79771297Y41068234D01*
X-79771305Y41068228D01*
X-79883106Y40956427D01*
X-79883112Y40956419D01*
X-79962161Y40819500D01*
X-79962164Y40819493D01*
X-80003087Y40666766D01*
X-80743503Y40666766D01*
X-80823530Y40688209D01*
X-80981644Y40688209D01*
X-81134371Y40647286D01*
X-81134378Y40647283D01*
X-81271297Y40568234D01*
X-81271305Y40568228D01*
X-81383106Y40456427D01*
X-81383112Y40456419D01*
X-81462161Y40319500D01*
X-81462164Y40319493D01*
X-81503087Y40166766D01*
X-82243503Y40166766D01*
X-82323530Y40188209D01*
X-82481644Y40188209D01*
X-82634371Y40147286D01*
X-82634378Y40147283D01*
X-82771297Y40068234D01*
X-82771305Y40068228D01*
X-82883106Y39956427D01*
X-82883112Y39956419D01*
X-82962161Y39819500D01*
X-82962164Y39819493D01*
X-83003087Y39666766D01*
X-85302087Y39666766D01*
X-85343010Y39819493D01*
X-85343014Y39819500D01*
X-85422063Y39956419D01*
X-85422069Y39956427D01*
X-85533870Y40068228D01*
X-85533878Y40068234D01*
X-85670797Y40147283D01*
X-85670801Y40147285D01*
X-85670803Y40147286D01*
X-85823530Y40188209D01*
X-85981644Y40188209D01*
X-86134371Y40147286D01*
X-86134378Y40147283D01*
X-86271297Y40068234D01*
X-86271305Y40068228D01*
X-86383106Y39956427D01*
X-86383112Y39956419D01*
X-86462161Y39819500D01*
X-86462164Y39819493D01*
X-86503087Y39666766D01*
X-90855135Y39666766D01*
X-90855135Y39843057D01*
X-90855136Y39843061D01*
X-90893563Y40036246D01*
X-90893566Y40036258D01*
X-90968943Y40218236D01*
X-90992563Y40253585D01*
X-91560279Y39685869D01*
X-91555134Y39705069D01*
X-91555134Y39784060D01*
X-91575579Y39860360D01*
X-91615075Y39928768D01*
X-91670931Y39984624D01*
X-91739339Y40024120D01*
X-91815639Y40044565D01*
X-91894630Y40044565D01*
X-91913836Y40039419D01*
X-91346116Y40607139D01*
X-91381460Y40630755D01*
X-91381462Y40630756D01*
X-91563442Y40706134D01*
X-91563454Y40706137D01*
X-91740060Y40741266D01*
X-91756639Y40744564D01*
X-91953631Y40744564D01*
X-92146817Y40706137D01*
X-92146829Y40706134D01*
X-92328807Y40630757D01*
X-92328820Y40630750D01*
X-92492598Y40521316D01*
X-92492602Y40521313D01*
X-92774375Y40239540D01*
X-92774375Y40239539D01*
X-92279400Y39744564D01*
X-92632953Y39391011D01*
X-93127928Y39885986D01*
X-93409704Y39604209D01*
X-93519144Y39440421D01*
X-93519145Y39440420D01*
X-93594523Y39258440D01*
X-93594526Y39258428D01*
X-93632953Y39065242D01*
X-98902087Y39065242D01*
X-98902087Y43463709D01*
X-98882402Y43530748D01*
X-98829598Y43576503D01*
X-98778087Y43587709D01*
X-96119418Y43587709D01*
X-96052379Y43568024D01*
X-96006624Y43515220D01*
X-95999647Y43495812D01*
X-95962164Y43355926D01*
X-95962161Y43355919D01*
X-95883112Y43219000D01*
X-95883108Y43218995D01*
X-95883107Y43218993D01*
X-95771303Y43107189D01*
X-95771301Y43107188D01*
X-95771297Y43107185D01*
X-95634378Y43028136D01*
X-95634371Y43028132D01*
X-95481644Y42987209D01*
X-95481642Y42987209D01*
X-95323532Y42987209D01*
X-95323530Y42987209D01*
X-95170803Y43028132D01*
X-95033871Y43107189D01*
X-94922067Y43218993D01*
X-94843010Y43355925D01*
X-94805530Y43495805D01*
X-94769166Y43555463D01*
X-94706319Y43585992D01*
X-94685756Y43587709D01*
X-93755857Y43587709D01*
X-93688818Y43568024D01*
X-93663049Y43545944D01*
X-92902588Y42687709D01*
X-92902587Y42687709D01*
X-88913541Y42687709D01*
X-88846502Y42668024D01*
X-88800747Y42615220D01*
X-88790803Y42546062D01*
X-88813223Y42490824D01*
X-88886153Y42390444D01*
X-88968335Y42229157D01*
X-88968336Y42229154D01*
X-89024270Y42057003D01*
X-89052587Y41878216D01*
X-89052587Y41697203D01*
X-89024270Y41518416D01*
X-88968336Y41346265D01*
X-88968335Y41346262D01*
X-88886156Y41184979D01*
X-88874674Y41169177D01*
X-88874674Y41169176D01*
X-88385550Y41658301D01*
X-88368512Y41594716D01*
X-88302686Y41480702D01*
X-88209594Y41387610D01*
X-88095580Y41321784D01*
X-88031997Y41304747D01*
X-88521121Y40815624D01*
X-88521121Y40815623D01*
X-88505320Y40804143D01*
X-88505312Y40804138D01*
X-88344035Y40721962D01*
X-88344032Y40721961D01*
X-88171881Y40666027D01*
X-87993093Y40637709D01*
X-87812081Y40637709D01*
X-87633294Y40666027D01*
X-87461143Y40721961D01*
X-87461135Y40721964D01*
X-87299857Y40804141D01*
X-87284055Y40815624D01*
X-87284054Y40815624D01*
X-87773177Y41304747D01*
X-87709594Y41321784D01*
X-87595580Y41387610D01*
X-87502488Y41480702D01*
X-87436662Y41594716D01*
X-87419625Y41658300D01*
X-86930502Y41169177D01*
X-86919019Y41184979D01*
X-86836842Y41346257D01*
X-86836839Y41346265D01*
X-86780905Y41518416D01*
X-86752587Y41697203D01*
X-86752587Y41878216D01*
X-86780905Y42057003D01*
X-86836839Y42229154D01*
X-86836840Y42229157D01*
X-86919022Y42390444D01*
X-86991951Y42490824D01*
X-87015431Y42556630D01*
X-86999605Y42624684D01*
X-86949499Y42673379D01*
X-86891633Y42687709D01*
X-84716615Y42687709D01*
X-84688916Y42684576D01*
X-79902587Y41587709D01*
X-78514606Y41356379D01*
X-78451716Y41325942D01*
X-78427606Y41296067D01*
X-78383110Y41218997D01*
X-78383108Y41218994D01*
X-78383107Y41218993D01*
X-78271303Y41107189D01*
X-78271301Y41107188D01*
X-78271297Y41107185D01*
X-78203822Y41068229D01*
X-78134371Y41028132D01*
X-77981644Y40987209D01*
X-77981642Y40987209D01*
X-77823532Y40987209D01*
X-77823530Y40987209D01*
X-77670803Y41028132D01*
X-77533871Y41107189D01*
X-77505506Y41135555D01*
X-77444188Y41169038D01*
X-77397448Y41170186D01*
X-76902587Y41087709D01*
X-73960198Y43609757D01*
X-73437414Y44057857D01*
X-73373703Y44086540D01*
X-73356716Y44087709D01*
X-72446084Y44087709D01*
X-72422986Y44080927D01*
X-72399039Y44078438D01*
X-72383633Y44069372D01*
X-72379045Y44068024D01*
X-72368622Y44060537D01*
X-72320965Y44022411D01*
X-72310488Y44014030D01*
X-72270436Y43956780D01*
X-72267693Y43886964D01*
X-72300268Y43829521D01*
X-72383109Y43746680D01*
X-72383112Y43746676D01*
X-72462161Y43609757D01*
X-72462164Y43609750D01*
X-72503087Y43457023D01*
X-72503087Y43298909D01*
X-72462342Y43146849D01*
X-72462164Y43146183D01*
X-72462161Y43146176D01*
X-72383112Y43009257D01*
X-72383108Y43009252D01*
X-72383107Y43009250D01*
X-72271303Y42897446D01*
X-72271301Y42897445D01*
X-72271297Y42897442D01*
X-72238162Y42878312D01*
X-72134371Y42818389D01*
X-71981644Y42777466D01*
X-71981642Y42777466D01*
X-71823532Y42777466D01*
X-71823530Y42777466D01*
X-71670803Y42818389D01*
X-71533871Y42897446D01*
X-71422067Y43009250D01*
X-71378096Y43085412D01*
X-71327531Y43133625D01*
X-71258925Y43146849D01*
X-71194060Y43120882D01*
X-71193277Y43120261D01*
X-69902587Y42087709D01*
X-56402587Y42087709D01*
X-56254083Y44166766D01*
X-53503087Y44166766D01*
X-53503087Y44008652D01*
X-53470546Y43887209D01*
X-53462164Y43855926D01*
X-53462161Y43855919D01*
X-53383112Y43719000D01*
X-53383108Y43718995D01*
X-53383107Y43718993D01*
X-53271303Y43607189D01*
X-53271301Y43607188D01*
X-53271297Y43607185D01*
X-53218153Y43576503D01*
X-53134371Y43528132D01*
X-52981644Y43487209D01*
X-52981642Y43487209D01*
X-52823532Y43487209D01*
X-52823530Y43487209D01*
X-52670803Y43528132D01*
X-52533871Y43607189D01*
X-52422067Y43718993D01*
X-52343010Y43855925D01*
X-52302087Y44008652D01*
X-52302087Y44166766D01*
X-51003087Y44166766D01*
X-51003087Y44008652D01*
X-50970546Y43887209D01*
X-50962164Y43855926D01*
X-50962161Y43855919D01*
X-50883112Y43719000D01*
X-50883108Y43718995D01*
X-50883107Y43718993D01*
X-50771303Y43607189D01*
X-50771301Y43607188D01*
X-50771297Y43607185D01*
X-50718153Y43576503D01*
X-50634371Y43528132D01*
X-50481644Y43487209D01*
X-50481642Y43487209D01*
X-50323532Y43487209D01*
X-50323530Y43487209D01*
X-50170803Y43528132D01*
X-50033871Y43607189D01*
X-49922067Y43718993D01*
X-49843010Y43855925D01*
X-49806555Y43991979D01*
X-29703087Y43991979D01*
X-29703087Y43183440D01*
X-29700234Y43153010D01*
X-29700234Y43153008D01*
X-29655381Y43024829D01*
X-29655380Y43024827D01*
X-29574737Y42915559D01*
X-29465469Y42834916D01*
X-29422742Y42819965D01*
X-29337288Y42790063D01*
X-29306857Y42787209D01*
X-29306853Y42787209D01*
X-28498317Y42787209D01*
X-28467888Y42790063D01*
X-28467886Y42790063D01*
X-28403797Y42812490D01*
X-28339705Y42834916D01*
X-28230437Y42915559D01*
X-28149794Y43024827D01*
X-28107330Y43146182D01*
X-28104941Y43153008D01*
X-28104941Y43153010D01*
X-28102087Y43183440D01*
X-28102087Y43666556D01*
X-27703087Y43666556D01*
X-27703087Y43508863D01*
X-27672326Y43354220D01*
X-27672323Y43354208D01*
X-27611985Y43208537D01*
X-27611978Y43208524D01*
X-27524377Y43077421D01*
X-27524374Y43077417D01*
X-27412880Y42965923D01*
X-27412876Y42965920D01*
X-27281773Y42878319D01*
X-27281760Y42878312D01*
X-27137093Y42818390D01*
X-27136084Y42817972D01*
X-26995777Y42790063D01*
X-26981434Y42787210D01*
X-26981431Y42787209D01*
X-26981429Y42787209D01*
X-26823743Y42787209D01*
X-26823742Y42787210D01*
X-26669090Y42817972D01*
X-26523408Y42878315D01*
X-26392298Y42965920D01*
X-26280798Y43077420D01*
X-26193193Y43208530D01*
X-26188859Y43218992D01*
X-26155757Y43298910D01*
X-26132850Y43354212D01*
X-26102087Y43508867D01*
X-26102087Y43666551D01*
X-26102087Y43666554D01*
X-26102088Y43666556D01*
X-26112518Y43718992D01*
X-26132850Y43821206D01*
X-26148292Y43858486D01*
X-26193190Y43966882D01*
X-26193197Y43966895D01*
X-26280798Y44097998D01*
X-26280801Y44098002D01*
X-26392295Y44209496D01*
X-26392299Y44209499D01*
X-26523402Y44297100D01*
X-26523415Y44297107D01*
X-26669086Y44357445D01*
X-26669098Y44357448D01*
X-26823742Y44388209D01*
X-26823745Y44388209D01*
X-26981429Y44388209D01*
X-26981432Y44388209D01*
X-27136077Y44357448D01*
X-27136089Y44357445D01*
X-27281760Y44297107D01*
X-27281773Y44297100D01*
X-27412876Y44209499D01*
X-27412880Y44209496D01*
X-27524374Y44098002D01*
X-27524377Y44097998D01*
X-27611978Y43966895D01*
X-27611985Y43966882D01*
X-27672323Y43821211D01*
X-27672326Y43821199D01*
X-27703087Y43666556D01*
X-28102087Y43666556D01*
X-28102087Y43991979D01*
X-28104941Y44022409D01*
X-28104941Y44022411D01*
X-28145958Y44139627D01*
X-28149794Y44150591D01*
X-28230437Y44259859D01*
X-28339705Y44340502D01*
X-28339707Y44340503D01*
X-28467887Y44385356D01*
X-28498317Y44388209D01*
X-28498321Y44388209D01*
X-29306853Y44388209D01*
X-29306857Y44388209D01*
X-29337287Y44385356D01*
X-29337289Y44385356D01*
X-29465468Y44340503D01*
X-29465470Y44340502D01*
X-29574737Y44259859D01*
X-29655380Y44150592D01*
X-29655381Y44150590D01*
X-29700234Y44022411D01*
X-29700234Y44022409D01*
X-29703087Y43991979D01*
X-49806555Y43991979D01*
X-49802087Y44008652D01*
X-49802087Y44166766D01*
X-49843010Y44319493D01*
X-49881035Y44385355D01*
X-49922063Y44456419D01*
X-49922069Y44456427D01*
X-50033870Y44568228D01*
X-50033878Y44568234D01*
X-50170797Y44647283D01*
X-50170801Y44647285D01*
X-50170803Y44647286D01*
X-50323530Y44688209D01*
X-50481644Y44688209D01*
X-50634371Y44647286D01*
X-50634378Y44647283D01*
X-50771297Y44568234D01*
X-50771305Y44568228D01*
X-50883106Y44456427D01*
X-50883112Y44456419D01*
X-50962161Y44319500D01*
X-50962164Y44319493D01*
X-51003087Y44166766D01*
X-52302087Y44166766D01*
X-52343010Y44319493D01*
X-52381035Y44385355D01*
X-52422063Y44456419D01*
X-52422069Y44456427D01*
X-52533870Y44568228D01*
X-52533878Y44568234D01*
X-52670797Y44647283D01*
X-52670801Y44647285D01*
X-52670803Y44647286D01*
X-52823530Y44688209D01*
X-52981644Y44688209D01*
X-53134371Y44647286D01*
X-53134378Y44647283D01*
X-53271297Y44568234D01*
X-53271305Y44568228D01*
X-53383106Y44456427D01*
X-53383112Y44456419D01*
X-53462161Y44319500D01*
X-53462164Y44319493D01*
X-53503087Y44166766D01*
X-56254083Y44166766D01*
X-56111226Y46166766D01*
X-55003087Y46166766D01*
X-55003087Y46008653D01*
X-54962164Y45855926D01*
X-54962161Y45855919D01*
X-54883112Y45719000D01*
X-54883108Y45718995D01*
X-54883107Y45718993D01*
X-54771303Y45607189D01*
X-54771301Y45607188D01*
X-54771297Y45607185D01*
X-54703822Y45568229D01*
X-54634371Y45528132D01*
X-54481644Y45487209D01*
X-54481642Y45487209D01*
X-54323532Y45487209D01*
X-54323530Y45487209D01*
X-54170803Y45528132D01*
X-54033871Y45607189D01*
X-53922067Y45718993D01*
X-53843010Y45855925D01*
X-53802087Y46008652D01*
X-53802087Y46166766D01*
X-52003087Y46166766D01*
X-52003087Y46008653D01*
X-51962164Y45855926D01*
X-51962161Y45855919D01*
X-51883112Y45719000D01*
X-51883108Y45718995D01*
X-51883107Y45718993D01*
X-51771303Y45607189D01*
X-51771301Y45607188D01*
X-51771297Y45607185D01*
X-51703822Y45568229D01*
X-51634371Y45528132D01*
X-51481644Y45487209D01*
X-51481642Y45487209D01*
X-51323532Y45487209D01*
X-51323530Y45487209D01*
X-51170803Y45528132D01*
X-51033871Y45607189D01*
X-50974504Y45666556D01*
X-29703087Y45666556D01*
X-29703087Y45508863D01*
X-29672326Y45354220D01*
X-29672323Y45354208D01*
X-29611985Y45208537D01*
X-29611978Y45208524D01*
X-29524377Y45077421D01*
X-29524374Y45077417D01*
X-29412880Y44965923D01*
X-29412876Y44965920D01*
X-29281773Y44878319D01*
X-29281760Y44878312D01*
X-29139756Y44819493D01*
X-29136084Y44817972D01*
X-28998336Y44790572D01*
X-28981434Y44787210D01*
X-28981431Y44787209D01*
X-28981429Y44787209D01*
X-28823743Y44787209D01*
X-28823742Y44787210D01*
X-28669090Y44817972D01*
X-28523408Y44878315D01*
X-28392298Y44965920D01*
X-28280798Y45077420D01*
X-28193193Y45208530D01*
X-28132850Y45354212D01*
X-28102087Y45508867D01*
X-28102087Y45666551D01*
X-28102087Y45666554D01*
X-28102088Y45666556D01*
X-27703087Y45666556D01*
X-27703087Y45508863D01*
X-27672326Y45354220D01*
X-27672323Y45354208D01*
X-27611985Y45208537D01*
X-27611978Y45208524D01*
X-27524377Y45077421D01*
X-27524374Y45077417D01*
X-27412880Y44965923D01*
X-27412876Y44965920D01*
X-27281773Y44878319D01*
X-27281760Y44878312D01*
X-27139756Y44819493D01*
X-27136084Y44817972D01*
X-26998336Y44790572D01*
X-26981434Y44787210D01*
X-26981431Y44787209D01*
X-26981429Y44787209D01*
X-26823743Y44787209D01*
X-26823742Y44787210D01*
X-26669090Y44817972D01*
X-26523408Y44878315D01*
X-26392298Y44965920D01*
X-26280798Y45077420D01*
X-26193193Y45208530D01*
X-26132850Y45354212D01*
X-26102087Y45508867D01*
X-26102087Y45666551D01*
X-26102087Y45666554D01*
X-26102088Y45666556D01*
X-26112518Y45718992D01*
X-26132850Y45821206D01*
X-26172432Y45916766D01*
X-26193190Y45966882D01*
X-26193197Y45966895D01*
X-26280798Y46097998D01*
X-26280801Y46098002D01*
X-26392295Y46209496D01*
X-26392299Y46209499D01*
X-26523402Y46297100D01*
X-26523415Y46297107D01*
X-26669086Y46357445D01*
X-26669098Y46357448D01*
X-26823742Y46388209D01*
X-26823745Y46388209D01*
X-26981429Y46388209D01*
X-26981432Y46388209D01*
X-27136077Y46357448D01*
X-27136089Y46357445D01*
X-27281760Y46297107D01*
X-27281773Y46297100D01*
X-27412876Y46209499D01*
X-27412880Y46209496D01*
X-27524374Y46098002D01*
X-27524377Y46097998D01*
X-27611978Y45966895D01*
X-27611985Y45966882D01*
X-27672323Y45821211D01*
X-27672326Y45821199D01*
X-27703087Y45666556D01*
X-28102088Y45666556D01*
X-28112518Y45718992D01*
X-28132850Y45821206D01*
X-28172432Y45916766D01*
X-28193190Y45966882D01*
X-28193197Y45966895D01*
X-28280798Y46097998D01*
X-28280801Y46098002D01*
X-28392295Y46209496D01*
X-28392299Y46209499D01*
X-28523402Y46297100D01*
X-28523415Y46297107D01*
X-28669086Y46357445D01*
X-28669098Y46357448D01*
X-28823742Y46388209D01*
X-28823745Y46388209D01*
X-28981429Y46388209D01*
X-28981432Y46388209D01*
X-29136077Y46357448D01*
X-29136089Y46357445D01*
X-29281760Y46297107D01*
X-29281773Y46297100D01*
X-29412876Y46209499D01*
X-29412880Y46209496D01*
X-29524374Y46098002D01*
X-29524377Y46097998D01*
X-29611978Y45966895D01*
X-29611985Y45966882D01*
X-29672323Y45821211D01*
X-29672326Y45821199D01*
X-29703087Y45666556D01*
X-50974504Y45666556D01*
X-50922067Y45718993D01*
X-50918818Y45724621D01*
X-50913031Y45734643D01*
X-50863055Y45821206D01*
X-50843010Y45855925D01*
X-50802087Y46008652D01*
X-50802087Y46166766D01*
X-50843010Y46319493D01*
X-50911550Y46438209D01*
X-50922063Y46456419D01*
X-50922069Y46456427D01*
X-51033870Y46568228D01*
X-51033878Y46568234D01*
X-51170797Y46647283D01*
X-51170801Y46647285D01*
X-51170803Y46647286D01*
X-51323530Y46688209D01*
X-51481644Y46688209D01*
X-51634371Y46647286D01*
X-51634378Y46647283D01*
X-51771297Y46568234D01*
X-51771305Y46568228D01*
X-51883106Y46456427D01*
X-51883112Y46456419D01*
X-51962161Y46319500D01*
X-51962164Y46319493D01*
X-52003087Y46166766D01*
X-53802087Y46166766D01*
X-53843010Y46319493D01*
X-53911550Y46438209D01*
X-53922063Y46456419D01*
X-53922069Y46456427D01*
X-54033870Y46568228D01*
X-54033878Y46568234D01*
X-54170797Y46647283D01*
X-54170801Y46647285D01*
X-54170803Y46647286D01*
X-54323530Y46688209D01*
X-54481644Y46688209D01*
X-54634371Y46647286D01*
X-54634378Y46647283D01*
X-54771297Y46568234D01*
X-54771305Y46568228D01*
X-54883106Y46456427D01*
X-54883112Y46456419D01*
X-54962161Y46319500D01*
X-54962164Y46319493D01*
X-55003087Y46166766D01*
X-56111226Y46166766D01*
X-56039798Y47166766D01*
X-53503087Y47166766D01*
X-53503087Y47008652D01*
X-53468162Y46878312D01*
X-53462164Y46855926D01*
X-53462161Y46855919D01*
X-53383112Y46719000D01*
X-53383108Y46718995D01*
X-53383107Y46718993D01*
X-53271303Y46607189D01*
X-53271301Y46607188D01*
X-53271297Y46607185D01*
X-53203822Y46568229D01*
X-53134371Y46528132D01*
X-52981644Y46487209D01*
X-52981642Y46487209D01*
X-52823532Y46487209D01*
X-52823530Y46487209D01*
X-52670803Y46528132D01*
X-52533871Y46607189D01*
X-52422067Y46718993D01*
X-52343010Y46855925D01*
X-52302087Y47008652D01*
X-52302087Y47166766D01*
X-52343010Y47319493D01*
X-52343014Y47319500D01*
X-52422063Y47456419D01*
X-52422069Y47456427D01*
X-52533870Y47568228D01*
X-52533878Y47568234D01*
X-52670797Y47647283D01*
X-52670801Y47647285D01*
X-52670803Y47647286D01*
X-52742720Y47666556D01*
X-29703087Y47666556D01*
X-29703087Y47508863D01*
X-29672326Y47354220D01*
X-29672323Y47354208D01*
X-29611985Y47208537D01*
X-29611978Y47208524D01*
X-29524377Y47077421D01*
X-29524374Y47077417D01*
X-29412880Y46965923D01*
X-29412876Y46965920D01*
X-29281773Y46878319D01*
X-29281760Y46878312D01*
X-29139756Y46819493D01*
X-29136084Y46817972D01*
X-28981434Y46787210D01*
X-28981431Y46787209D01*
X-28981429Y46787209D01*
X-28823743Y46787209D01*
X-28823742Y46787210D01*
X-28669090Y46817972D01*
X-28523408Y46878315D01*
X-28392298Y46965920D01*
X-28280798Y47077420D01*
X-28193193Y47208530D01*
X-28132850Y47354212D01*
X-28102087Y47508867D01*
X-28102087Y47666551D01*
X-28102087Y47666554D01*
X-28102088Y47666556D01*
X-27703087Y47666556D01*
X-27703087Y47508863D01*
X-27672326Y47354220D01*
X-27672323Y47354208D01*
X-27611985Y47208537D01*
X-27611978Y47208524D01*
X-27524377Y47077421D01*
X-27524374Y47077417D01*
X-27412880Y46965923D01*
X-27412876Y46965920D01*
X-27281773Y46878319D01*
X-27281760Y46878312D01*
X-27139756Y46819493D01*
X-27136084Y46817972D01*
X-26981434Y46787210D01*
X-26981431Y46787209D01*
X-26981429Y46787209D01*
X-26823743Y46787209D01*
X-26823742Y46787210D01*
X-26669090Y46817972D01*
X-26523408Y46878315D01*
X-26392298Y46965920D01*
X-26280798Y47077420D01*
X-26193193Y47208530D01*
X-26132850Y47354212D01*
X-26102087Y47508867D01*
X-26102087Y47666551D01*
X-26102087Y47666554D01*
X-26102088Y47666556D01*
X-26129363Y47803675D01*
X-26132850Y47821206D01*
X-26148842Y47859814D01*
X-26193190Y47966882D01*
X-26193197Y47966895D01*
X-26280798Y48097998D01*
X-26280801Y48098002D01*
X-26392295Y48209496D01*
X-26392299Y48209499D01*
X-26523402Y48297100D01*
X-26523415Y48297107D01*
X-26669086Y48357445D01*
X-26669098Y48357448D01*
X-26823742Y48388209D01*
X-26823745Y48388209D01*
X-26981429Y48388209D01*
X-26981432Y48388209D01*
X-27136077Y48357448D01*
X-27136089Y48357445D01*
X-27281760Y48297107D01*
X-27281773Y48297100D01*
X-27412876Y48209499D01*
X-27412880Y48209496D01*
X-27524374Y48098002D01*
X-27524377Y48097998D01*
X-27611978Y47966895D01*
X-27611985Y47966882D01*
X-27672323Y47821211D01*
X-27672326Y47821199D01*
X-27703087Y47666556D01*
X-28102088Y47666556D01*
X-28129363Y47803675D01*
X-28132850Y47821206D01*
X-28148842Y47859814D01*
X-28193190Y47966882D01*
X-28193197Y47966895D01*
X-28280798Y48097998D01*
X-28280801Y48098002D01*
X-28392295Y48209496D01*
X-28392299Y48209499D01*
X-28523402Y48297100D01*
X-28523415Y48297107D01*
X-28669086Y48357445D01*
X-28669098Y48357448D01*
X-28823742Y48388209D01*
X-28823745Y48388209D01*
X-28981429Y48388209D01*
X-28981432Y48388209D01*
X-29136077Y48357448D01*
X-29136089Y48357445D01*
X-29281760Y48297107D01*
X-29281773Y48297100D01*
X-29412876Y48209499D01*
X-29412880Y48209496D01*
X-29524374Y48098002D01*
X-29524377Y48097998D01*
X-29611978Y47966895D01*
X-29611985Y47966882D01*
X-29672323Y47821211D01*
X-29672326Y47821199D01*
X-29703087Y47666556D01*
X-52742720Y47666556D01*
X-52823530Y47688209D01*
X-52981644Y47688209D01*
X-53134371Y47647286D01*
X-53134378Y47647283D01*
X-53271297Y47568234D01*
X-53271305Y47568228D01*
X-53383106Y47456427D01*
X-53383112Y47456419D01*
X-53462161Y47319500D01*
X-53462164Y47319493D01*
X-53503087Y47166766D01*
X-56039798Y47166766D01*
X-56039526Y47170574D01*
X-56031274Y47192704D01*
X-56027341Y47215993D01*
X-56019294Y47224834D01*
X-56015116Y47236036D01*
X-55996209Y47250193D01*
X-55980307Y47267661D01*
X-55963100Y47274983D01*
X-55959186Y47277913D01*
X-55947853Y47281532D01*
X-55947626Y47281593D01*
X-55904380Y47292999D01*
X-55843016Y47312304D01*
X-55839893Y47313239D01*
X-55576508Y47388178D01*
X-55189577Y47517865D01*
X-55099231Y47546285D01*
X-55040674Y47567772D01*
X-54787857Y47652507D01*
X-54395762Y47804406D01*
X-54306840Y47837032D01*
X-54252783Y47859796D01*
X-54012255Y47952977D01*
X-53615899Y48127986D01*
X-53528947Y48164600D01*
X-53479450Y48188234D01*
X-53251358Y48288946D01*
X-52851534Y48488036D01*
X-52767263Y48528270D01*
X-52722384Y48552345D01*
X-52506789Y48659698D01*
X-52104337Y48883863D01*
X-52023463Y48927242D01*
X-51983218Y48951325D01*
X-51780137Y49064440D01*
X-51375909Y49314728D01*
X-51299180Y49360639D01*
X-51263539Y49384305D01*
X-51072952Y49502310D01*
X-50833183Y49666556D01*
X-29703087Y49666556D01*
X-29703087Y49508863D01*
X-29672326Y49354220D01*
X-29672323Y49354208D01*
X-29611985Y49208537D01*
X-29611978Y49208524D01*
X-29524377Y49077421D01*
X-29524374Y49077417D01*
X-29412880Y48965923D01*
X-29412876Y48965920D01*
X-29281773Y48878319D01*
X-29281760Y48878312D01*
X-29136089Y48817974D01*
X-29136084Y48817972D01*
X-28986461Y48788210D01*
X-28981434Y48787210D01*
X-28981431Y48787209D01*
X-28981429Y48787209D01*
X-28823743Y48787209D01*
X-28823742Y48787210D01*
X-28669090Y48817972D01*
X-28523408Y48878315D01*
X-28392298Y48965920D01*
X-28280798Y49077420D01*
X-28193193Y49208530D01*
X-28132850Y49354212D01*
X-28102087Y49508867D01*
X-28102087Y49666551D01*
X-28102087Y49666554D01*
X-28102088Y49666556D01*
X-27703087Y49666556D01*
X-27703087Y49508863D01*
X-27672326Y49354220D01*
X-27672323Y49354208D01*
X-27611985Y49208537D01*
X-27611978Y49208524D01*
X-27524377Y49077421D01*
X-27524374Y49077417D01*
X-27412880Y48965923D01*
X-27412876Y48965920D01*
X-27281773Y48878319D01*
X-27281760Y48878312D01*
X-27136089Y48817974D01*
X-27136084Y48817972D01*
X-26986461Y48788210D01*
X-26981434Y48787210D01*
X-26981431Y48787209D01*
X-26981429Y48787209D01*
X-26823743Y48787209D01*
X-26823742Y48787210D01*
X-26669090Y48817972D01*
X-26523408Y48878315D01*
X-26392298Y48965920D01*
X-26280798Y49077420D01*
X-26193193Y49208530D01*
X-26132850Y49354212D01*
X-26102087Y49508867D01*
X-26102087Y49666551D01*
X-26102087Y49666554D01*
X-26102088Y49666556D01*
X-26106003Y49686236D01*
X-26132850Y49821206D01*
X-26159611Y49885813D01*
X-26193190Y49966882D01*
X-26193197Y49966895D01*
X-26280798Y50097998D01*
X-26280801Y50098002D01*
X-26392295Y50209496D01*
X-26392299Y50209499D01*
X-26523402Y50297100D01*
X-26523415Y50297107D01*
X-26669086Y50357445D01*
X-26669098Y50357448D01*
X-26823742Y50388209D01*
X-26823745Y50388209D01*
X-26981429Y50388209D01*
X-26981432Y50388209D01*
X-27136077Y50357448D01*
X-27136089Y50357445D01*
X-27281760Y50297107D01*
X-27281773Y50297100D01*
X-27412876Y50209499D01*
X-27412880Y50209496D01*
X-27524374Y50098002D01*
X-27524377Y50097998D01*
X-27611978Y49966895D01*
X-27611985Y49966882D01*
X-27672323Y49821211D01*
X-27672326Y49821199D01*
X-27703087Y49666556D01*
X-28102088Y49666556D01*
X-28106003Y49686236D01*
X-28132850Y49821206D01*
X-28159611Y49885813D01*
X-28193190Y49966882D01*
X-28193197Y49966895D01*
X-28280798Y50097998D01*
X-28280801Y50098002D01*
X-28392295Y50209496D01*
X-28392299Y50209499D01*
X-28523402Y50297100D01*
X-28523415Y50297107D01*
X-28669086Y50357445D01*
X-28669098Y50357448D01*
X-28823742Y50388209D01*
X-28823745Y50388209D01*
X-28981429Y50388209D01*
X-28981432Y50388209D01*
X-29136077Y50357448D01*
X-29136089Y50357445D01*
X-29281760Y50297107D01*
X-29281773Y50297100D01*
X-29412876Y50209499D01*
X-29412880Y50209496D01*
X-29524374Y50098002D01*
X-29524377Y50097998D01*
X-29611978Y49966895D01*
X-29611985Y49966882D01*
X-29672323Y49821211D01*
X-29672326Y49821199D01*
X-29703087Y49666556D01*
X-50833183Y49666556D01*
X-50668616Y49779287D01*
X-50667233Y49780220D01*
X-50596008Y49827509D01*
X-50566451Y49849196D01*
X-50563332Y49851409D01*
X-50386745Y49972373D01*
X-49981826Y50278155D01*
X-49915492Y50326825D01*
X-49888849Y50348368D01*
X-49722979Y50473626D01*
X-49319115Y50808991D01*
X-49259128Y50857489D01*
X-49236781Y50877361D01*
X-49155827Y50944584D01*
X-41780905Y50944584D01*
X-41780905Y50786470D01*
X-41762824Y50718993D01*
X-41739982Y50633744D01*
X-41739979Y50633737D01*
X-41660930Y50496818D01*
X-41660926Y50496813D01*
X-41660925Y50496811D01*
X-41549121Y50385007D01*
X-41549119Y50385006D01*
X-41549115Y50385003D01*
X-41485707Y50348395D01*
X-41412189Y50305950D01*
X-41259462Y50265027D01*
X-41259460Y50265027D01*
X-41101350Y50265027D01*
X-41101348Y50265027D01*
X-40948621Y50305950D01*
X-40811689Y50385007D01*
X-40699885Y50496811D01*
X-40620828Y50633743D01*
X-40579905Y50786470D01*
X-40579905Y50944584D01*
X-40620828Y51097311D01*
X-40699885Y51234243D01*
X-40811689Y51346047D01*
X-40811691Y51346048D01*
X-40811696Y51346052D01*
X-40934178Y51416766D01*
X-40410627Y51416766D01*
X-40410627Y51258651D01*
X-40392146Y51189677D01*
X-40392139Y51189653D01*
X-40369704Y51105925D01*
X-40290647Y50968993D01*
X-40178843Y50857189D01*
X-40178841Y50857188D01*
X-40178837Y50857185D01*
X-40056355Y50786471D01*
X-40041911Y50778132D01*
X-39889184Y50737209D01*
X-39889182Y50737209D01*
X-39731072Y50737209D01*
X-39731070Y50737209D01*
X-39578343Y50778132D01*
X-39441411Y50857189D01*
X-39329607Y50968993D01*
X-39250550Y51105925D01*
X-39234248Y51166766D01*
X-38003087Y51166766D01*
X-38003087Y51008652D01*
X-37962501Y50857185D01*
X-37962164Y50855926D01*
X-37962161Y50855919D01*
X-37883112Y50719000D01*
X-37883108Y50718995D01*
X-37883107Y50718993D01*
X-37771303Y50607189D01*
X-37771301Y50607188D01*
X-37771297Y50607185D01*
X-37716151Y50575347D01*
X-37634371Y50528132D01*
X-37481644Y50487209D01*
X-37481642Y50487209D01*
X-37323532Y50487209D01*
X-37323530Y50487209D01*
X-37170803Y50528132D01*
X-37033871Y50607189D01*
X-36922067Y50718993D01*
X-36843010Y50855925D01*
X-36802087Y51008652D01*
X-36802087Y51166766D01*
X-36843010Y51319493D01*
X-36858344Y51346052D01*
X-36922063Y51456419D01*
X-36922069Y51456427D01*
X-37033870Y51568228D01*
X-37033878Y51568234D01*
X-37170797Y51647283D01*
X-37170801Y51647285D01*
X-37170803Y51647286D01*
X-37242720Y51666556D01*
X-29703087Y51666556D01*
X-29703087Y51508863D01*
X-29672326Y51354220D01*
X-29672323Y51354208D01*
X-29611985Y51208537D01*
X-29611978Y51208524D01*
X-29524377Y51077421D01*
X-29524374Y51077417D01*
X-29412880Y50965923D01*
X-29412876Y50965920D01*
X-29281773Y50878319D01*
X-29281760Y50878312D01*
X-29139756Y50819493D01*
X-29136084Y50817972D01*
X-28981434Y50787210D01*
X-28981431Y50787209D01*
X-28981429Y50787209D01*
X-28823743Y50787209D01*
X-28823742Y50787210D01*
X-28669090Y50817972D01*
X-28523408Y50878315D01*
X-28392298Y50965920D01*
X-28280798Y51077420D01*
X-28193193Y51208530D01*
X-28132850Y51354212D01*
X-28102087Y51508867D01*
X-28102087Y51666551D01*
X-28102087Y51666554D01*
X-28102088Y51666556D01*
X-27703087Y51666556D01*
X-27703087Y51508863D01*
X-27672326Y51354220D01*
X-27672323Y51354208D01*
X-27611985Y51208537D01*
X-27611978Y51208524D01*
X-27524377Y51077421D01*
X-27524374Y51077417D01*
X-27412880Y50965923D01*
X-27412876Y50965920D01*
X-27281773Y50878319D01*
X-27281760Y50878312D01*
X-27139756Y50819493D01*
X-27136084Y50817972D01*
X-26981434Y50787210D01*
X-26981431Y50787209D01*
X-26981429Y50787209D01*
X-26823743Y50787209D01*
X-26823742Y50787210D01*
X-26669090Y50817972D01*
X-26523408Y50878315D01*
X-26392298Y50965920D01*
X-26280798Y51077420D01*
X-26193193Y51208530D01*
X-26132850Y51354212D01*
X-26102087Y51508867D01*
X-26102087Y51666551D01*
X-26102087Y51666554D01*
X-26102088Y51666556D01*
X-26110017Y51706419D01*
X-26132850Y51821206D01*
X-26164363Y51897286D01*
X-26193190Y51966882D01*
X-26193197Y51966895D01*
X-26280798Y52097998D01*
X-26280801Y52098002D01*
X-26392295Y52209496D01*
X-26392299Y52209499D01*
X-26523402Y52297100D01*
X-26523415Y52297107D01*
X-26669086Y52357445D01*
X-26669098Y52357448D01*
X-26823742Y52388209D01*
X-26823745Y52388209D01*
X-26981429Y52388209D01*
X-26981432Y52388209D01*
X-27136077Y52357448D01*
X-27136089Y52357445D01*
X-27281760Y52297107D01*
X-27281773Y52297100D01*
X-27412876Y52209499D01*
X-27412880Y52209496D01*
X-27524374Y52098002D01*
X-27524377Y52097998D01*
X-27611978Y51966895D01*
X-27611985Y51966882D01*
X-27672323Y51821211D01*
X-27672326Y51821199D01*
X-27703087Y51666556D01*
X-28102088Y51666556D01*
X-28110017Y51706419D01*
X-28132850Y51821206D01*
X-28164363Y51897286D01*
X-28193190Y51966882D01*
X-28193197Y51966895D01*
X-28280798Y52097998D01*
X-28280801Y52098002D01*
X-28392295Y52209496D01*
X-28392299Y52209499D01*
X-28523402Y52297100D01*
X-28523415Y52297107D01*
X-28669086Y52357445D01*
X-28669098Y52357448D01*
X-28823742Y52388209D01*
X-28823745Y52388209D01*
X-28981429Y52388209D01*
X-28981432Y52388209D01*
X-29136077Y52357448D01*
X-29136089Y52357445D01*
X-29281760Y52297107D01*
X-29281773Y52297100D01*
X-29412876Y52209499D01*
X-29412880Y52209496D01*
X-29524374Y52098002D01*
X-29524377Y52097998D01*
X-29611978Y51966895D01*
X-29611985Y51966882D01*
X-29672323Y51821211D01*
X-29672326Y51821199D01*
X-29703087Y51666556D01*
X-37242720Y51666556D01*
X-37323530Y51688209D01*
X-37481644Y51688209D01*
X-37634371Y51647286D01*
X-37634378Y51647283D01*
X-37771297Y51568234D01*
X-37771305Y51568228D01*
X-37883106Y51456427D01*
X-37883112Y51456419D01*
X-37962161Y51319500D01*
X-37962164Y51319493D01*
X-38003087Y51166766D01*
X-39234248Y51166766D01*
X-39209627Y51258652D01*
X-39209627Y51416766D01*
X-39250550Y51569493D01*
X-39250554Y51569500D01*
X-39329603Y51706419D01*
X-39329609Y51706427D01*
X-39441410Y51818228D01*
X-39441418Y51818234D01*
X-39578337Y51897283D01*
X-39578341Y51897285D01*
X-39578343Y51897286D01*
X-39731070Y51938209D01*
X-39889184Y51938209D01*
X-40041911Y51897286D01*
X-40041918Y51897283D01*
X-40178837Y51818234D01*
X-40178845Y51818228D01*
X-40290646Y51706427D01*
X-40290652Y51706419D01*
X-40369701Y51569500D01*
X-40369704Y51569493D01*
X-40410627Y51416766D01*
X-40934178Y51416766D01*
X-40948615Y51425101D01*
X-40948619Y51425103D01*
X-40948621Y51425104D01*
X-41101348Y51466027D01*
X-41259462Y51466027D01*
X-41412189Y51425104D01*
X-41412196Y51425101D01*
X-41549115Y51346052D01*
X-41549123Y51346046D01*
X-41660924Y51234245D01*
X-41660930Y51234237D01*
X-41739979Y51097318D01*
X-41739982Y51097311D01*
X-41780905Y50944584D01*
X-49155827Y50944584D01*
X-49083071Y51004999D01*
X-48681204Y51371350D01*
X-48628359Y51418335D01*
X-48610145Y51436129D01*
X-48468386Y51565358D01*
X-48069454Y51964291D01*
X-48024572Y52008131D01*
X-48010313Y52023432D01*
X-47880236Y52153508D01*
X-47485292Y52586742D01*
X-47449093Y52625579D01*
X-47438533Y52638035D01*
X-47319877Y52768193D01*
X-46929937Y53237781D01*
X-46903188Y53269322D01*
X-46896053Y53278586D01*
X-46788504Y53408101D01*
X-46404550Y53916539D01*
X-46388056Y53937946D01*
X-46384042Y53943696D01*
X-46287251Y54071867D01*
X-45910215Y54622272D01*
X-45904831Y54629980D01*
X-45903637Y54631876D01*
X-45817188Y54758074D01*
X-45379318Y55465259D01*
X-44974576Y56191911D01*
X-44603824Y56936480D01*
X-44267855Y57697377D01*
X-43967385Y58472979D01*
X-43888279Y58708998D01*
X-30753087Y58708998D01*
X-30753087Y58466421D01*
X-30721426Y58225924D01*
X-30658640Y57991605D01*
X-30565814Y57767504D01*
X-30565811Y57767497D01*
X-30444523Y57557420D01*
X-30444521Y57557417D01*
X-30444520Y57557416D01*
X-30296854Y57364973D01*
X-30296848Y57364966D01*
X-30125331Y57193449D01*
X-30125325Y57193444D01*
X-29932876Y57045773D01*
X-29722799Y56924485D01*
X-29498687Y56831655D01*
X-29264376Y56768871D01*
X-29084001Y56745125D01*
X-29023876Y56737209D01*
X-29023875Y56737209D01*
X-28781298Y56737209D01*
X-28733199Y56743542D01*
X-28540798Y56768871D01*
X-28306487Y56831655D01*
X-28082375Y56924485D01*
X-27872298Y57045773D01*
X-27679849Y57193444D01*
X-27508322Y57364971D01*
X-27360651Y57557420D01*
X-27239363Y57767497D01*
X-27146533Y57991609D01*
X-27083749Y58225920D01*
X-27052087Y58466421D01*
X-27052087Y58708997D01*
X-27083749Y58949498D01*
X-27146533Y59183809D01*
X-27239363Y59407921D01*
X-27360651Y59617998D01*
X-27508322Y59810447D01*
X-27508327Y59810453D01*
X-27679844Y59981970D01*
X-27679851Y59981976D01*
X-27872294Y60129642D01*
X-27872295Y60129643D01*
X-27872298Y60129645D01*
X-28082375Y60250933D01*
X-28082382Y60250936D01*
X-28306483Y60343762D01*
X-28540802Y60406548D01*
X-28781298Y60438209D01*
X-28781299Y60438209D01*
X-29023875Y60438209D01*
X-29023876Y60438209D01*
X-29264373Y60406548D01*
X-29498692Y60343762D01*
X-29722793Y60250936D01*
X-29722802Y60250932D01*
X-29932881Y60129642D01*
X-30125324Y59981976D01*
X-30125331Y59981970D01*
X-30296848Y59810453D01*
X-30296854Y59810446D01*
X-30444520Y59618003D01*
X-30565810Y59407924D01*
X-30565814Y59407915D01*
X-30658640Y59183814D01*
X-30721426Y58949495D01*
X-30753087Y58708998D01*
X-43888279Y58708998D01*
X-43703056Y59261630D01*
X-43475432Y60061647D01*
X-43284998Y60871322D01*
X-43132161Y61688929D01*
X-43017247Y62512722D01*
X-42940501Y63340943D01*
X-42902087Y64171824D01*
X-42902087Y64463209D01*
X-42882402Y64530248D01*
X-42829598Y64576003D01*
X-42778087Y64587209D01*
X-27905149Y64587209D01*
X-27900025Y64587103D01*
G37*
%TD.AperFunction*%
%TD*%
M02*
