M48
; DRILL file {KiCad 9.0.3} date 2025-10-08T18:16:25-0400
; FORMAT={-:-/ absolute / inch / decimal}
; #@! TF.CreationDate,2025-10-08T18:16:25-04:00
; #@! TF.GenerationSoftware,Kicad,Pcbnew,9.0.3
; #@! TF.FileFunction,Plated,1,4,PTH
FMAT,2
INCH
; #@! TA.AperFunction,Plated,PTH,ComponentDrill
T1C0.0079
; #@! TA.AperFunction,Plated,PTH,ViaDrill
T2C0.0157
; #@! TA.AperFunction,Plated,PTH,ComponentDrill
T3C0.0236
; #@! TA.AperFunction,Plated,PTH,ComponentDrill
T4C0.0256
; #@! TA.AperFunction,Plated,PTH,ComponentDrill
T5C0.0295
; #@! TA.AperFunction,Plated,PTH,ComponentDrill
T6C0.0374
; #@! TA.AperFunction,Plated,PTH,ComponentDrill
T7C0.0394
%
G90
G05
T1
X-2.4162Y0.6721
X-2.3788Y0.6721
X-2.3414Y0.6721
T2
X-3.756Y1.7161
X-3.7331Y1.932
X-3.5395Y1.3617
X-3.4214Y2.0901
X-3.4214Y1.9916
X-3.382Y1.5586
X-3.2442Y1.5586
X-3.2245Y1.2692
X-3.1851Y1.5783
X-3.1655Y1.3224
X-3.1261Y1.5979
X-3.0993Y0.7627
X-3.0886Y1.9071
X-3.0867Y0.8499
X-3.067Y1.8342
X-3.067Y1.6373
X-3.0252Y1.7275
X-2.8857Y1.6784
X-2.8627Y0.9394
X-2.8505Y1.7751
X-2.8308Y1.7078
X-2.801Y1.7554
X-2.7804Y0.9595
X-2.7678Y1.8046
X-2.7134Y1.0658
X-2.6832Y1.4109
X-2.6733Y1.2633
X-2.6143Y1.4798
X-2.5946Y0.7909
X-2.5942Y1.3113
X-2.5537Y1.3074
X-2.4733Y1.4398
X-2.3985Y1.5264
X-2.3985Y1.3808
X-2.3515Y0.8099
X-2.3197Y1.4438
X-2.319Y1.1727
X-2.1418Y1.8145
X-2.1221Y1.2633
X-2.0828Y1.8538
X-2.0828Y1.7357
X-2.0434Y1.3814
X-2.0237Y1.8145
X-1.9844Y1.7357
X-1.7678Y1.972
X-1.7678Y1.1255
X-1.6213Y2.0026
X-1.5673Y2.0212
X-1.4725Y2.0113
X-1.3544Y2.4247
T4
X-3.1773Y2.472
X-3.1773Y2.422
X-3.1773Y2.372
X-3.1773Y2.322
X-2.9762Y1.9993
X-2.9409Y1.9639
X-2.9055Y1.9286
X-2.8702Y1.8932
X-2.469Y1.7554
X-2.419Y1.7554
X-2.369Y1.7554
X-2.319Y1.7554
T5
X-1.1379Y2.031
X-1.1379Y1.9523
X-1.1379Y1.8735
X-1.1379Y1.7948
X-1.1379Y1.7161
X-1.0592Y2.031
X-1.0592Y1.9523
X-1.0592Y1.8735
X-1.0592Y1.7948
X-1.0592Y1.7161
T6
X-1.7601Y0.7592
X-1.6905Y0.8288
X-1.6209Y0.8984
X-1.5513Y0.968
X-1.3361Y1.1832
X-1.2665Y1.2528
X-1.197Y1.3224
X-1.1274Y1.3919
T7
X-3.4607Y1.7475
X-3.4607Y1.6452
T3
G00X-3.7397Y1.4414
M15
G01X-3.7564Y1.4247
M16
G05
G00X-3.6163Y1.5647
M15
G01X-3.647Y1.5341
M16
G05
G00X-3.4991Y1.2009
M15
G01X-3.5158Y1.1842
M16
G05
G00X-3.3758Y1.3242
M15
G01X-3.4064Y1.2936
M16
G05
M30
