%TF.GenerationSoftware,KiCad,Pcbnew,9.0.3*%
%TF.CreationDate,2025-10-08T17:43:42-04:00*%
%TF.ProjectId,flight_stick,666c6967-6874-45f7-9374-69636b2e6b69,5*%
%TF.SameCoordinates,Original*%
%TF.FileFunction,Copper,L2,Inr*%
%TF.FilePolarity,Positive*%
%FSLAX46Y46*%
G04 Gerber Fmt 4.6, Leading zero omitted, Abs format (unit mm)*
G04 Created by KiCad (PCBNEW 9.0.3) date 2025-10-08 17:43:42*
%MOMM*%
%LPD*%
G01*
G04 APERTURE LIST*
G04 Aperture macros list*
%AMRoundRect*
0 Rectangle with rounded corners*
0 $1 Rounding radius*
0 $2 $3 $4 $5 $6 $7 $8 $9 X,Y pos of 4 corners*
0 Add a 4 corners polygon primitive as box body*
4,1,4,$2,$3,$4,$5,$6,$7,$8,$9,$2,$3,0*
0 Add four circle primitives for the rounded corners*
1,1,$1+$1,$2,$3*
1,1,$1+$1,$4,$5*
1,1,$1+$1,$6,$7*
1,1,$1+$1,$8,$9*
0 Add four rect primitives between the rounded corners*
20,1,$1+$1,$2,$3,$4,$5,0*
20,1,$1+$1,$4,$5,$6,$7,0*
20,1,$1+$1,$6,$7,$8,$9,0*
20,1,$1+$1,$8,$9,$2,$3,0*%
%AMHorizOval*
0 Thick line with rounded ends*
0 $1 width*
0 $2 $3 position (X,Y) of the first rounded end (center of the circle)*
0 $4 $5 position (X,Y) of the second rounded end (center of the circle)*
0 Add line between two ends*
20,1,$1,$2,$3,$4,$5,0*
0 Add two circle primitives to create the rounded ends*
1,1,$1,$2,$3*
1,1,$1,$4,$5*%
%AMRotRect*
0 Rectangle, with rotation*
0 The origin of the aperture is its center*
0 $1 length*
0 $2 width*
0 $3 Rotation angle, in degrees counterclockwise*
0 Add horizontal line*
21,1,$1,$2,0,0,$3*%
G04 Aperture macros list end*
%TA.AperFunction,ComponentPad*%
%ADD10RotRect,1.000000X1.000000X45.000000*%
%TD*%
%TA.AperFunction,ComponentPad*%
%ADD11C,1.000000*%
%TD*%
%TA.AperFunction,ComponentPad*%
%ADD12RoundRect,0.250000X0.088388X-0.936916X0.936916X-0.088388X-0.088388X0.936916X-0.936916X0.088388X0*%
%TD*%
%TA.AperFunction,ComponentPad*%
%ADD13HorizOval,1.700000X-0.088388X0.088388X0.088388X-0.088388X0*%
%TD*%
%TA.AperFunction,HeatsinkPad*%
%ADD14HorizOval,1.000000X-0.388909X-0.388909X0.388909X0.388909X0*%
%TD*%
%TA.AperFunction,HeatsinkPad*%
%ADD15HorizOval,1.000000X-0.212132X-0.212132X0.212132X0.212132X0*%
%TD*%
%TA.AperFunction,ComponentPad*%
%ADD16C,1.300000*%
%TD*%
%TA.AperFunction,ComponentPad*%
%ADD17RoundRect,0.250000X0.350000X-0.350000X0.350000X0.350000X-0.350000X0.350000X-0.350000X-0.350000X0*%
%TD*%
%TA.AperFunction,ComponentPad*%
%ADD18C,1.200000*%
%TD*%
%TA.AperFunction,ComponentPad*%
%ADD19R,1.000000X1.000000*%
%TD*%
%TA.AperFunction,HeatsinkPad*%
%ADD20C,0.500000*%
%TD*%
%TA.AperFunction,ViaPad*%
%ADD21C,0.800000*%
%TD*%
G04 APERTURE END LIST*
D10*
%TO.N,+3.3VA*%
%TO.C,J12*%
X-75596664Y50781787D03*
D11*
%TO.N,Net-(J12-Pin_2)*%
X-74698638Y49883761D03*
%TO.N,Net-(J12-Pin_3)*%
X-73800613Y48985736D03*
%TO.N,GNDA*%
X-72902587Y48087710D03*
%TD*%
D12*
%TO.N,GND*%
%TO.C,J1*%
X-33938121Y30052175D03*
D13*
%TO.N,+12V*%
X-32170354Y31819942D03*
%TO.N,/CAN_IO/CAN_L*%
X-30402587Y33587709D03*
%TO.N,/CAN_IO/CAN_H*%
X-28634820Y35355476D03*
%TD*%
D14*
%TO.N,GND*%
%TO.C,J10*%
X-92244044Y39355655D03*
D15*
X-95199750Y36399948D03*
D14*
X-86134641Y33246252D03*
D15*
X-89090348Y30290546D03*
%TD*%
D16*
%TO.N,GNDA*%
%TO.C,NT1*%
X-87902587Y44387709D03*
%TO.N,GND*%
X-87902587Y41787709D03*
%TD*%
D12*
%TO.N,GND*%
%TO.C,J3*%
X-44705888Y19284408D03*
D13*
%TO.N,+12V*%
X-42938121Y21052175D03*
%TO.N,/CAN_IO/CAN_L*%
X-41170354Y22819942D03*
%TO.N,/CAN_IO/CAN_H*%
X-39402587Y24587709D03*
%TD*%
D17*
%TO.N,/MTX_ROW1*%
%TO.C,J2*%
X-28902587Y43587709D03*
D18*
%TO.N,/MTX_COL1*%
X-26902587Y43587709D03*
%TO.N,/MTX_ROW2*%
X-28902587Y45587709D03*
%TO.N,/MTX_COL2*%
X-26902587Y45587709D03*
%TO.N,/MTX_ROW3*%
X-28902587Y47587709D03*
%TO.N,/MTX_COL3*%
X-26902587Y47587709D03*
%TO.N,/MTX_ROW4*%
X-28902587Y49587709D03*
%TO.N,/MTX_COL4*%
X-26902587Y49587709D03*
%TO.N,/MTX_ROW5*%
X-28902587Y51587709D03*
%TO.N,/MTX_COL5*%
X-26902587Y51587709D03*
%TD*%
D19*
%TO.N,+3.3VA*%
%TO.C,J4*%
X-80702587Y62787709D03*
D11*
%TO.N,Net-(J4-Pin_2)*%
X-80702587Y61517709D03*
%TO.N,Net-(J4-Pin_3)*%
X-80702587Y60247709D03*
%TO.N,GNDA*%
X-80702587Y58977709D03*
%TD*%
D19*
%TO.N,+3.3VA*%
%TO.C,J6*%
X-62712586Y44587709D03*
D11*
%TO.N,Net-(J6-Pin_2)*%
X-61442586Y44587709D03*
%TO.N,Net-(J6-Pin_3)*%
X-60172586Y44587709D03*
%TO.N,GNDA*%
X-58902586Y44587709D03*
%TD*%
D20*
%TO.N,GND*%
%TO.C,U1*%
X-61352588Y17087710D03*
X-60402588Y17087710D03*
X-59452588Y17087710D03*
%TD*%
D21*
%TO.N,/~{RESET}*%
X-78721600Y19371600D03*
%TO.N,+3.3V*%
X-58902587Y29787709D03*
X-81902587Y32237709D03*
X-51902587Y35087709D03*
X-65902587Y20087709D03*
X-72711980Y23861980D03*
X-72402587Y45087709D03*
X-54402587Y46087709D03*
X-68152587Y35837709D03*
%TO.N,GND*%
X-34402587Y61587709D03*
X-60921600Y38771600D03*
X-66402587Y37587709D03*
X-80402587Y33587709D03*
X-44902587Y28587709D03*
X-60921600Y35071600D03*
X-73297256Y42632378D03*
X-44902587Y50087709D03*
X-62821600Y36571600D03*
X-58921600Y36671600D03*
%TO.N,+5V*%
X-89902587Y34587709D03*
X-85902587Y39587709D03*
%TO.N,/ADC_DRDY*%
X-82402587Y39587709D03*
X-70302587Y45837709D03*
%TO.N,/ADC_SCK*%
X-80902587Y40087709D03*
X-71145730Y44587709D03*
%TO.N,Net-(JP1-B)*%
X-59727667Y20571600D03*
%TO.N,/~{RESET}*%
X-70621600Y24371600D03*
X-53902587Y32087709D03*
X-78402587Y21587709D03*
%TO.N,+3.3VA*%
X-86902587Y53087709D03*
X-86902587Y50587709D03*
X-77902587Y46587709D03*
%TO.N,/Power/Vin_{pwr}*%
X-95402587Y43587709D03*
X-68921600Y27071600D03*
%TO.N,/EEPROM_SCK*%
X-51402587Y46087709D03*
X-50402587Y44087709D03*
%TO.N,/EEPROM_SDA*%
X-52902587Y44087709D03*
X-52902587Y47087709D03*
%TO.N,/RGB_B*%
X-41180405Y50865527D03*
X-67902587Y32087709D03*
%TO.N,/RGB_R*%
X-65892146Y33307378D03*
X-39810127Y51337709D03*
%TO.N,/RGB_G*%
X-37402587Y51087709D03*
X-64863680Y33207377D03*
%TO.N,/ADC_MISO*%
X-71902587Y43377966D03*
X-79402587Y40587709D03*
%TO.N,/ADC_MOSI*%
X-77902587Y41587709D03*
X-76841320Y43878400D03*
%TO.N,GNDA*%
X-94821600Y49071600D03*
X-78450595Y48439701D03*
%TD*%
%TA.AperFunction,Conductor*%
%TO.N,+3.3VA*%
G36*
X-78960048Y64567524D02*
G01*
X-78914293Y64514720D01*
X-78903087Y64463209D01*
X-78903087Y64171828D01*
X-78864674Y63340949D01*
X-78787928Y62512732D01*
X-78787926Y62512711D01*
X-78673014Y61688933D01*
X-78628109Y61448714D01*
X-78522305Y60882709D01*
X-78520172Y60871303D01*
X-78329742Y60061644D01*
X-78329740Y60061637D01*
X-78102124Y59261650D01*
X-78102115Y59261621D01*
X-78030082Y59046702D01*
X-77837789Y58472979D01*
X-77564486Y57767504D01*
X-77537312Y57697359D01*
X-77201349Y56936477D01*
X-76830610Y56191933D01*
X-76830598Y56191911D01*
X-76425856Y55465259D01*
X-76425849Y55465248D01*
X-75987982Y54758068D01*
X-75987981Y54758066D01*
X-75902862Y54633806D01*
X-75901526Y54631855D01*
X-75900343Y54629980D01*
X-75894975Y54622292D01*
X-75894687Y54621872D01*
X-75894620Y54621775D01*
X-75517922Y54071865D01*
X-75422525Y53945540D01*
X-75421140Y53943706D01*
X-75417118Y53937946D01*
X-75400585Y53916486D01*
X-75400265Y53916063D01*
X-75016671Y53408102D01*
X-75016655Y53408082D01*
X-74910588Y53280350D01*
X-74909126Y53278589D01*
X-74901986Y53269322D01*
X-74875223Y53237762D01*
X-74874819Y53237276D01*
X-74485297Y52768193D01*
X-74366658Y52638052D01*
X-74356081Y52625579D01*
X-74319849Y52586705D01*
X-74319361Y52586170D01*
X-73924967Y52153539D01*
X-73924953Y52153524D01*
X-73924938Y52153508D01*
X-73924918Y52153488D01*
X-73794877Y52023447D01*
X-73780602Y52008131D01*
X-73735678Y51964248D01*
X-73336788Y51565358D01*
X-73195041Y51436139D01*
X-73176815Y51418335D01*
X-73123946Y51371327D01*
X-73123323Y51370759D01*
X-73123322Y51370758D01*
X-72833760Y51106787D01*
X-72722103Y51004999D01*
X-72568405Y50877370D01*
X-72546046Y50857489D01*
X-72486049Y50808983D01*
X-72082195Y50473626D01*
X-72033927Y50437176D01*
X-71917981Y50349617D01*
X-71916342Y50348379D01*
X-71889682Y50326825D01*
X-71823358Y50278161D01*
X-71418429Y49972373D01*
X-71241920Y49851462D01*
X-71241920Y49851461D01*
X-71240265Y49850327D01*
X-71209166Y49827509D01*
X-71137276Y49779778D01*
X-71136599Y49779314D01*
X-71136523Y49779263D01*
X-70732222Y49502310D01*
X-70541646Y49384311D01*
X-70505994Y49360639D01*
X-70429212Y49314695D01*
X-70025037Y49064440D01*
X-69821964Y48951329D01*
X-69781711Y48927242D01*
X-69700813Y48883849D01*
X-69298385Y48659698D01*
X-69298377Y48659694D01*
X-69298364Y48659687D01*
X-69084517Y48553204D01*
X-69084518Y48553204D01*
X-69082806Y48552352D01*
X-69037911Y48528270D01*
X-68953629Y48488029D01*
X-68952725Y48487579D01*
X-68952700Y48487567D01*
X-68553816Y48288946D01*
X-68500831Y48265551D01*
X-68327413Y48188979D01*
X-68327412Y48188979D01*
X-68325755Y48188247D01*
X-68276227Y48164600D01*
X-68189243Y48127972D01*
X-68188232Y48127525D01*
X-68188231Y48127524D01*
X-67982825Y48036829D01*
X-67792919Y47952977D01*
X-67792915Y47952976D01*
X-67792914Y47952975D01*
X-67554071Y47860446D01*
X-67554070Y47860446D01*
X-67552402Y47859800D01*
X-67498334Y47837032D01*
X-67409363Y47804387D01*
X-67017317Y47652507D01*
X-66764514Y47567776D01*
X-66705943Y47546285D01*
X-66615581Y47517859D01*
X-66228666Y47388178D01*
X-65963716Y47312794D01*
X-65900794Y47292999D01*
X-65809682Y47268967D01*
X-65428649Y47160554D01*
X-65151767Y47095432D01*
X-65084658Y47077730D01*
X-64993374Y47058178D01*
X-64618974Y46970120D01*
X-64618960Y46970118D01*
X-64618949Y46970115D01*
X-64550543Y46957328D01*
X-64330423Y46916181D01*
X-64259329Y46900953D01*
X-64168500Y46885912D01*
X-63801367Y46817283D01*
X-63501453Y46775447D01*
X-63426622Y46763054D01*
X-63336686Y46752463D01*
X-62977574Y46702369D01*
X-62666650Y46673558D01*
X-62588365Y46664338D01*
X-62499892Y46658106D01*
X-62149353Y46625623D01*
X-61827798Y46610757D01*
X-61746404Y46605022D01*
X-61659913Y46602995D01*
X-61318472Y46587209D01*
X-61318468Y46587209D01*
X-60986768Y46587209D01*
X-60902587Y46585235D01*
X-60818406Y46587209D01*
X-60486706Y46587209D01*
X-60486702Y46587209D01*
X-60145301Y46602993D01*
X-60058770Y46605022D01*
X-59977369Y46610757D01*
X-59655821Y46625623D01*
X-59305244Y46658109D01*
X-59216809Y46664338D01*
X-59138536Y46673557D01*
X-58827600Y46702369D01*
X-58468443Y46752470D01*
X-58378552Y46763054D01*
X-58303736Y46775445D01*
X-58003807Y46817283D01*
X-57636668Y46885914D01*
X-57545845Y46900953D01*
X-57474784Y46916175D01*
X-57254633Y46957328D01*
X-57185121Y46950297D01*
X-57130442Y46906799D01*
X-57107960Y46840646D01*
X-57108360Y46824213D01*
X-57392335Y43700483D01*
X-57418008Y43635501D01*
X-57474738Y43594714D01*
X-57515826Y43587709D01*
X-61714583Y43587709D01*
X-61781622Y43607394D01*
X-61827377Y43660198D01*
X-61837321Y43729356D01*
X-61813849Y43786020D01*
X-61769239Y43845611D01*
X-61767174Y43849393D01*
X-61764125Y43852443D01*
X-61763917Y43852720D01*
X-61763878Y43852691D01*
X-61717771Y43898801D01*
X-61649499Y43913657D01*
X-61634146Y43911589D01*
X-61511582Y43887209D01*
X-61511579Y43887209D01*
X-61373591Y43887209D01*
X-61282545Y43905320D01*
X-61238258Y43914129D01*
X-61110775Y43966934D01*
X-60996044Y44043595D01*
X-60948142Y44091497D01*
X-60895267Y44144371D01*
X-60833944Y44177856D01*
X-60764252Y44172872D01*
X-60719905Y44144371D01*
X-60619132Y44043598D01*
X-60619128Y44043595D01*
X-60504404Y43966938D01*
X-60504391Y43966931D01*
X-60433441Y43937543D01*
X-60376914Y43914129D01*
X-60376910Y43914129D01*
X-60376909Y43914128D01*
X-60241582Y43887209D01*
X-60241579Y43887209D01*
X-60103591Y43887209D01*
X-60012545Y43905320D01*
X-59968258Y43914129D01*
X-59840775Y43966934D01*
X-59726044Y44043595D01*
X-59678142Y44091497D01*
X-59625267Y44144371D01*
X-59563944Y44177856D01*
X-59494252Y44172872D01*
X-59449905Y44144371D01*
X-59349132Y44043598D01*
X-59349128Y44043595D01*
X-59234404Y43966938D01*
X-59234391Y43966931D01*
X-59163441Y43937543D01*
X-59106914Y43914129D01*
X-59106910Y43914129D01*
X-59106909Y43914128D01*
X-58971582Y43887209D01*
X-58971579Y43887209D01*
X-58833591Y43887209D01*
X-58742545Y43905320D01*
X-58698258Y43914129D01*
X-58570775Y43966934D01*
X-58456044Y44043595D01*
X-58358472Y44141167D01*
X-58281811Y44255898D01*
X-58229006Y44383381D01*
X-58213315Y44462264D01*
X-58202086Y44518714D01*
X-58202086Y44656705D01*
X-58229005Y44792032D01*
X-58229006Y44792033D01*
X-58229006Y44792037D01*
X-58229008Y44792042D01*
X-58281808Y44919514D01*
X-58281815Y44919527D01*
X-58358472Y45034251D01*
X-58358475Y45034255D01*
X-58456041Y45131821D01*
X-58456045Y45131824D01*
X-58570769Y45208481D01*
X-58570782Y45208488D01*
X-58698254Y45261288D01*
X-58698264Y45261291D01*
X-58833591Y45288209D01*
X-58833593Y45288209D01*
X-58971579Y45288209D01*
X-58971581Y45288209D01*
X-59106909Y45261291D01*
X-59106919Y45261288D01*
X-59234391Y45208488D01*
X-59234404Y45208481D01*
X-59349128Y45131824D01*
X-59349132Y45131821D01*
X-59449905Y45031047D01*
X-59511228Y44997562D01*
X-59580920Y45002546D01*
X-59625267Y45031047D01*
X-59726041Y45131821D01*
X-59726045Y45131824D01*
X-59840769Y45208481D01*
X-59840782Y45208488D01*
X-59968254Y45261288D01*
X-59968264Y45261291D01*
X-60103591Y45288209D01*
X-60103593Y45288209D01*
X-60241579Y45288209D01*
X-60241581Y45288209D01*
X-60376909Y45261291D01*
X-60376919Y45261288D01*
X-60504391Y45208488D01*
X-60504404Y45208481D01*
X-60619128Y45131824D01*
X-60619132Y45131821D01*
X-60719905Y45031047D01*
X-60781228Y44997562D01*
X-60850920Y45002546D01*
X-60895267Y45031047D01*
X-60996041Y45131821D01*
X-60996045Y45131824D01*
X-61110769Y45208481D01*
X-61110782Y45208488D01*
X-61238254Y45261288D01*
X-61238264Y45261291D01*
X-61373591Y45288209D01*
X-61373593Y45288209D01*
X-61511579Y45288209D01*
X-61511584Y45288209D01*
X-61634147Y45263830D01*
X-61703739Y45270057D01*
X-61758916Y45312921D01*
X-61767171Y45326023D01*
X-61769233Y45329799D01*
X-61855396Y45444897D01*
X-61855399Y45444900D01*
X-61970493Y45531060D01*
X-61970500Y45531064D01*
X-62105207Y45581306D01*
X-62105214Y45581308D01*
X-62164742Y45587709D01*
X-62462586Y45587709D01*
X-62462586Y44797327D01*
X-62513032Y44847773D01*
X-62587141Y44890560D01*
X-62669799Y44912709D01*
X-62755373Y44912709D01*
X-62838031Y44890560D01*
X-62912140Y44847773D01*
X-62972650Y44787263D01*
X-63015437Y44713154D01*
X-63037586Y44630496D01*
X-63037586Y44544922D01*
X-63015437Y44462264D01*
X-62972650Y44388155D01*
X-62922204Y44337709D01*
X-63712586Y44337709D01*
X-63712586Y44039865D01*
X-63706185Y43980337D01*
X-63706183Y43980330D01*
X-63652840Y43837310D01*
X-63654175Y43836813D01*
X-63641338Y43777809D01*
X-63665753Y43712344D01*
X-63721685Y43670471D01*
X-63789340Y43665060D01*
X-65892240Y44085640D01*
X-65912435Y44091497D01*
X-68334661Y45023123D01*
X-68626982Y45135554D01*
X-63712586Y45135554D01*
X-63712586Y44837709D01*
X-62962586Y44837709D01*
X-62962586Y45587709D01*
X-63260431Y45587709D01*
X-63319959Y45581308D01*
X-63319966Y45581306D01*
X-63454673Y45531064D01*
X-63454680Y45531060D01*
X-63569774Y45444900D01*
X-63569777Y45444897D01*
X-63655937Y45329803D01*
X-63655941Y45329796D01*
X-63706183Y45195089D01*
X-63706185Y45195082D01*
X-63712586Y45135554D01*
X-68626982Y45135554D01*
X-69648862Y45528585D01*
X-69704367Y45571023D01*
X-69728117Y45636733D01*
X-69724125Y45676406D01*
X-69702087Y45758652D01*
X-69702087Y45916766D01*
X-69743010Y46069493D01*
X-69743014Y46069500D01*
X-69822063Y46206419D01*
X-69822069Y46206427D01*
X-69933870Y46318228D01*
X-69933878Y46318234D01*
X-70070797Y46397283D01*
X-70070801Y46397285D01*
X-70070803Y46397286D01*
X-70223530Y46438209D01*
X-70381644Y46438209D01*
X-70534371Y46397286D01*
X-70534378Y46397283D01*
X-70671297Y46318234D01*
X-70671305Y46318228D01*
X-70783106Y46206427D01*
X-70783110Y46206422D01*
X-70844257Y46100510D01*
X-70894824Y46052295D01*
X-70963431Y46039071D01*
X-70996157Y46046775D01*
X-72013887Y46438209D01*
X-72402587Y46587709D01*
X-72402588Y46587709D01*
X-76856007Y41639466D01*
X-76915485Y41602805D01*
X-76971027Y41600542D01*
X-77224197Y41648012D01*
X-77286461Y41679714D01*
X-77321119Y41737793D01*
X-77343010Y41819493D01*
X-77383042Y41888831D01*
X-77422063Y41956419D01*
X-77422069Y41956427D01*
X-77533870Y42068228D01*
X-77533878Y42068234D01*
X-77670797Y42147283D01*
X-77670801Y42147285D01*
X-77670803Y42147286D01*
X-77823530Y42188209D01*
X-77981644Y42188209D01*
X-78134371Y42147286D01*
X-78134378Y42147283D01*
X-78271297Y42068234D01*
X-78271305Y42068228D01*
X-78383105Y41956428D01*
X-78383112Y41956419D01*
X-78386665Y41950264D01*
X-78437234Y41902051D01*
X-78505842Y41888831D01*
X-78516901Y41890393D01*
X-84902586Y43087709D01*
X-84902587Y43087709D01*
X-92851225Y43087709D01*
X-92918264Y43107394D01*
X-92938906Y43124028D01*
X-93902587Y44087709D01*
X-95034387Y44087709D01*
X-95096387Y44104322D01*
X-95170803Y44147286D01*
X-95323530Y44188209D01*
X-95481644Y44188209D01*
X-95634371Y44147286D01*
X-95634374Y44147285D01*
X-95687285Y44116737D01*
X-95708788Y44104322D01*
X-95770787Y44087709D01*
X-98778087Y44087709D01*
X-98845126Y44107394D01*
X-98890881Y44160198D01*
X-98902087Y44211709D01*
X-98902087Y44471481D01*
X-88753087Y44471481D01*
X-88753087Y44303938D01*
X-88720405Y44139635D01*
X-88720403Y44139627D01*
X-88656292Y43984849D01*
X-88563214Y43845547D01*
X-88444750Y43727083D01*
X-88360024Y43670471D01*
X-88305450Y43634006D01*
X-88150669Y43569893D01*
X-87986359Y43537210D01*
X-87986355Y43537209D01*
X-87986354Y43537209D01*
X-87818819Y43537209D01*
X-87818818Y43537210D01*
X-87654505Y43569893D01*
X-87499724Y43634006D01*
X-87360425Y43727083D01*
X-87241961Y43845547D01*
X-87167185Y43957457D01*
X-77441820Y43957457D01*
X-77441820Y43799343D01*
X-77415330Y43700483D01*
X-77400897Y43646617D01*
X-77400894Y43646610D01*
X-77321845Y43509691D01*
X-77321841Y43509686D01*
X-77321840Y43509684D01*
X-77210036Y43397880D01*
X-77210034Y43397879D01*
X-77210030Y43397876D01*
X-77073111Y43318827D01*
X-77073104Y43318823D01*
X-76920377Y43277900D01*
X-76920375Y43277900D01*
X-76762265Y43277900D01*
X-76762263Y43277900D01*
X-76609536Y43318823D01*
X-76472604Y43397880D01*
X-76360800Y43509684D01*
X-76281743Y43646616D01*
X-76240820Y43799343D01*
X-76240820Y43957457D01*
X-76281743Y44110184D01*
X-76303163Y44147285D01*
X-76360796Y44247110D01*
X-76360802Y44247118D01*
X-76472603Y44358919D01*
X-76472611Y44358925D01*
X-76609530Y44437974D01*
X-76609534Y44437976D01*
X-76609536Y44437977D01*
X-76762263Y44478900D01*
X-76920377Y44478900D01*
X-77073104Y44437977D01*
X-77073111Y44437974D01*
X-77210030Y44358925D01*
X-77210038Y44358919D01*
X-77321839Y44247118D01*
X-77321845Y44247110D01*
X-77400894Y44110191D01*
X-77400897Y44110184D01*
X-77441820Y43957457D01*
X-87167185Y43957457D01*
X-87148884Y43984846D01*
X-87084771Y44139627D01*
X-87052087Y44303942D01*
X-87052087Y44471476D01*
X-87084771Y44635791D01*
X-87148884Y44790572D01*
X-87215694Y44890560D01*
X-87241961Y44929872D01*
X-87360425Y45048336D01*
X-87499727Y45141414D01*
X-87654505Y45205525D01*
X-87654513Y45205527D01*
X-87818816Y45238209D01*
X-87818820Y45238209D01*
X-87986354Y45238209D01*
X-87986359Y45238209D01*
X-88150662Y45205527D01*
X-88150670Y45205525D01*
X-88305448Y45141414D01*
X-88444750Y45048336D01*
X-88563214Y44929872D01*
X-88656292Y44790570D01*
X-88720403Y44635792D01*
X-88720405Y44635784D01*
X-88753087Y44471481D01*
X-98902087Y44471481D01*
X-98902087Y49150657D01*
X-95422100Y49150657D01*
X-95422100Y48992543D01*
X-95386772Y48860699D01*
X-95381177Y48839817D01*
X-95381174Y48839810D01*
X-95302125Y48702891D01*
X-95302121Y48702886D01*
X-95302120Y48702884D01*
X-95190316Y48591080D01*
X-95190314Y48591079D01*
X-95190310Y48591076D01*
X-95065046Y48518756D01*
X-95053384Y48512023D01*
X-94900657Y48471100D01*
X-94900655Y48471100D01*
X-94742545Y48471100D01*
X-94742543Y48471100D01*
X-94589816Y48512023D01*
X-94578151Y48518758D01*
X-79051095Y48518758D01*
X-79051095Y48360644D01*
X-79030889Y48285236D01*
X-79010172Y48207918D01*
X-79010169Y48207911D01*
X-78931120Y48070992D01*
X-78931116Y48070987D01*
X-78931115Y48070985D01*
X-78819311Y47959181D01*
X-78819309Y47959180D01*
X-78819305Y47959177D01*
X-78688022Y47883382D01*
X-78682379Y47880124D01*
X-78529652Y47839201D01*
X-78529650Y47839201D01*
X-78371540Y47839201D01*
X-78371538Y47839201D01*
X-78218811Y47880124D01*
X-78081879Y47959181D01*
X-77970075Y48070985D01*
X-77891018Y48207917D01*
X-77850095Y48360644D01*
X-77850095Y48518758D01*
X-77891018Y48671485D01*
X-77912382Y48708489D01*
X-77970071Y48808411D01*
X-77970077Y48808419D01*
X-78081878Y48920220D01*
X-78081886Y48920226D01*
X-78218805Y48999275D01*
X-78218809Y48999277D01*
X-78218811Y48999278D01*
X-78371538Y49040201D01*
X-78529652Y49040201D01*
X-78682379Y48999278D01*
X-78682386Y48999275D01*
X-78819305Y48920226D01*
X-78819313Y48920220D01*
X-78931114Y48808419D01*
X-78931120Y48808411D01*
X-79010169Y48671492D01*
X-79010172Y48671485D01*
X-79051095Y48518758D01*
X-94578151Y48518758D01*
X-94452884Y48591080D01*
X-94341080Y48702884D01*
X-94262023Y48839816D01*
X-94221100Y48992543D01*
X-94221100Y49150657D01*
X-94262023Y49303384D01*
X-94262027Y49303391D01*
X-94341076Y49440310D01*
X-94341082Y49440318D01*
X-94452883Y49552119D01*
X-94452891Y49552125D01*
X-94589810Y49631174D01*
X-94589814Y49631176D01*
X-94589816Y49631177D01*
X-94742543Y49672100D01*
X-94900657Y49672100D01*
X-95053384Y49631177D01*
X-95053391Y49631174D01*
X-95190310Y49552125D01*
X-95190318Y49552119D01*
X-95302119Y49440318D01*
X-95302125Y49440310D01*
X-95381174Y49303391D01*
X-95381177Y49303384D01*
X-95422100Y49150657D01*
X-98902087Y49150657D01*
X-98902087Y49897905D01*
X-76126995Y49897905D01*
X-76126995Y49897904D01*
X-75916397Y49687306D01*
X-75869766Y49649729D01*
X-75869759Y49649724D01*
X-75738986Y49590002D01*
X-75738978Y49590000D01*
X-75596664Y49569540D01*
X-75454347Y49590001D01*
X-75450220Y49591212D01*
X-75445917Y49591213D01*
X-75445570Y49591262D01*
X-75445563Y49591213D01*
X-75380350Y49591214D01*
X-75321572Y49553441D01*
X-75312181Y49541126D01*
X-75242756Y49437224D01*
X-75242750Y49437216D01*
X-75145184Y49339650D01*
X-75145180Y49339647D01*
X-75030456Y49262990D01*
X-75030443Y49262983D01*
X-74902971Y49210183D01*
X-74902966Y49210181D01*
X-74902962Y49210181D01*
X-74902961Y49210180D01*
X-74767634Y49183261D01*
X-74625113Y49183261D01*
X-74558074Y49163576D01*
X-74512319Y49110772D01*
X-74501113Y49059261D01*
X-74501113Y49054729D01*
X-74501113Y48916743D01*
X-74501113Y48916741D01*
X-74501114Y48916741D01*
X-74474195Y48781414D01*
X-74474192Y48781404D01*
X-74421392Y48653932D01*
X-74421385Y48653919D01*
X-74344728Y48539195D01*
X-74344725Y48539191D01*
X-74247159Y48441625D01*
X-74247155Y48441622D01*
X-74132431Y48364965D01*
X-74132418Y48364958D01*
X-74039286Y48326382D01*
X-74004941Y48312156D01*
X-74004937Y48312156D01*
X-74004936Y48312155D01*
X-73869609Y48285236D01*
X-73727087Y48285236D01*
X-73660048Y48265551D01*
X-73614293Y48212747D01*
X-73603087Y48161236D01*
X-73603087Y48156703D01*
X-73603087Y48018717D01*
X-73603087Y48018715D01*
X-73603088Y48018715D01*
X-73576169Y47883388D01*
X-73576166Y47883378D01*
X-73523366Y47755906D01*
X-73523359Y47755893D01*
X-73446702Y47641169D01*
X-73446699Y47641165D01*
X-73349133Y47543599D01*
X-73349129Y47543596D01*
X-73234405Y47466939D01*
X-73234392Y47466932D01*
X-73106920Y47414132D01*
X-73106915Y47414130D01*
X-73106911Y47414130D01*
X-73106910Y47414129D01*
X-72971583Y47387210D01*
X-72971580Y47387210D01*
X-72833592Y47387210D01*
X-72742546Y47405321D01*
X-72698259Y47414130D01*
X-72570776Y47466935D01*
X-72456045Y47543596D01*
X-72358473Y47641168D01*
X-72281812Y47755899D01*
X-72229007Y47883382D01*
X-72215164Y47952975D01*
X-72202087Y48018715D01*
X-72202087Y48156706D01*
X-72229006Y48292033D01*
X-72229007Y48292034D01*
X-72229007Y48292038D01*
X-72259211Y48364958D01*
X-72281809Y48419515D01*
X-72281816Y48419528D01*
X-72358473Y48534252D01*
X-72358476Y48534256D01*
X-72456042Y48631822D01*
X-72456046Y48631825D01*
X-72570770Y48708482D01*
X-72570783Y48708489D01*
X-72698255Y48761289D01*
X-72698265Y48761292D01*
X-72833592Y48788210D01*
X-72833594Y48788210D01*
X-72971580Y48788210D01*
X-72976113Y48788210D01*
X-73043152Y48807895D01*
X-73088907Y48860699D01*
X-73100113Y48912210D01*
X-73100113Y49054732D01*
X-73127032Y49190059D01*
X-73127033Y49190060D01*
X-73127033Y49190064D01*
X-73135366Y49210181D01*
X-73179835Y49317541D01*
X-73179842Y49317554D01*
X-73256499Y49432278D01*
X-73256502Y49432282D01*
X-73354068Y49529848D01*
X-73354072Y49529851D01*
X-73468796Y49606508D01*
X-73468809Y49606515D01*
X-73596281Y49659315D01*
X-73596291Y49659318D01*
X-73731618Y49686236D01*
X-73731620Y49686236D01*
X-73869606Y49686236D01*
X-73874138Y49686236D01*
X-73941177Y49705921D01*
X-73986932Y49758725D01*
X-73998138Y49810236D01*
X-73998138Y49952757D01*
X-74025057Y50088084D01*
X-74025058Y50088085D01*
X-74025058Y50088089D01*
X-74025060Y50088094D01*
X-74077860Y50215566D01*
X-74077867Y50215579D01*
X-74154524Y50330303D01*
X-74154527Y50330307D01*
X-74252093Y50427873D01*
X-74252101Y50427879D01*
X-74356003Y50497304D01*
X-74400809Y50550916D01*
X-74409516Y50620241D01*
X-74406089Y50635343D01*
X-74404878Y50639470D01*
X-74384417Y50781787D01*
X-74404877Y50924101D01*
X-74404879Y50924109D01*
X-74464601Y51054882D01*
X-74464606Y51054889D01*
X-74502183Y51101520D01*
X-74712781Y51312118D01*
X-74712782Y51312118D01*
X-75271664Y50753234D01*
X-75271664Y50824574D01*
X-75293813Y50907232D01*
X-75336600Y50981341D01*
X-75397110Y51041851D01*
X-75471219Y51084638D01*
X-75553877Y51106787D01*
X-75639451Y51106787D01*
X-75722109Y51084638D01*
X-75796218Y51041851D01*
X-75856728Y50981341D01*
X-75899515Y50907232D01*
X-75921664Y50824574D01*
X-75921664Y50739000D01*
X-75899515Y50656342D01*
X-75856728Y50582233D01*
X-75796218Y50521723D01*
X-75722109Y50478936D01*
X-75639451Y50456787D01*
X-75568111Y50456787D01*
X-76126995Y49897905D01*
X-98902087Y49897905D01*
X-98902087Y50781787D01*
X-76808912Y50781787D01*
X-76788452Y50639474D01*
X-76788450Y50639466D01*
X-76728728Y50508693D01*
X-76728723Y50508686D01*
X-76691146Y50462055D01*
X-76480548Y50251457D01*
X-75950218Y50781787D01*
X-75950218Y50781788D01*
X-76480547Y51312118D01*
X-76480549Y51312118D01*
X-76691142Y51101525D01*
X-76728723Y51054889D01*
X-76728728Y51054882D01*
X-76788450Y50924109D01*
X-76788452Y50924101D01*
X-76808912Y50781787D01*
X-98902087Y50781787D01*
X-98902087Y51665672D01*
X-76126995Y51665672D01*
X-76126995Y51665671D01*
X-75596664Y51135341D01*
X-75596663Y51135341D01*
X-75066334Y51665671D01*
X-75276932Y51876269D01*
X-75323563Y51913846D01*
X-75323570Y51913851D01*
X-75454343Y51973573D01*
X-75454351Y51973575D01*
X-75596664Y51994035D01*
X-75738978Y51973575D01*
X-75738986Y51973573D01*
X-75869759Y51913851D01*
X-75869766Y51913846D01*
X-75916402Y51876265D01*
X-76126995Y51665672D01*
X-98902087Y51665672D01*
X-98902087Y58708998D01*
X-94753087Y58708998D01*
X-94753087Y58466421D01*
X-94721426Y58225924D01*
X-94658640Y57991605D01*
X-94565814Y57767504D01*
X-94565811Y57767497D01*
X-94444523Y57557420D01*
X-94444521Y57557417D01*
X-94444520Y57557416D01*
X-94296854Y57364973D01*
X-94296848Y57364966D01*
X-94125331Y57193449D01*
X-94125325Y57193444D01*
X-93932876Y57045773D01*
X-93722799Y56924485D01*
X-93498687Y56831655D01*
X-93264376Y56768871D01*
X-93084001Y56745125D01*
X-93023876Y56737209D01*
X-93023875Y56737209D01*
X-92781298Y56737209D01*
X-92733199Y56743542D01*
X-92540798Y56768871D01*
X-92306487Y56831655D01*
X-92082375Y56924485D01*
X-91872298Y57045773D01*
X-91679849Y57193444D01*
X-91508322Y57364971D01*
X-91360651Y57557420D01*
X-91239363Y57767497D01*
X-91146533Y57991609D01*
X-91083749Y58225920D01*
X-91052087Y58466421D01*
X-91052087Y58708997D01*
X-91083749Y58949498D01*
X-91146533Y59183809D01*
X-91239363Y59407921D01*
X-91360651Y59617998D01*
X-91508322Y59810447D01*
X-91508327Y59810453D01*
X-91679844Y59981970D01*
X-91679851Y59981976D01*
X-91872294Y60129642D01*
X-91872295Y60129643D01*
X-91872298Y60129645D01*
X-92082375Y60250933D01*
X-92082382Y60250936D01*
X-92306483Y60343762D01*
X-92540802Y60406548D01*
X-92781298Y60438209D01*
X-92781299Y60438209D01*
X-93023875Y60438209D01*
X-93023876Y60438209D01*
X-93264373Y60406548D01*
X-93498692Y60343762D01*
X-93722793Y60250936D01*
X-93722802Y60250932D01*
X-93932881Y60129642D01*
X-94125324Y59981976D01*
X-94125331Y59981970D01*
X-94296848Y59810453D01*
X-94296854Y59810446D01*
X-94444520Y59618003D01*
X-94565810Y59407924D01*
X-94565814Y59407915D01*
X-94658640Y59183814D01*
X-94721426Y58949495D01*
X-94753087Y58708998D01*
X-98902087Y58708998D01*
X-98902087Y59585147D01*
X-98901981Y59590271D01*
X-98899963Y59639067D01*
X-98886690Y59959955D01*
X-98886327Y59965595D01*
X-98879359Y60045243D01*
X-98878891Y60049660D01*
X-98838146Y60376532D01*
X-98837229Y60382623D01*
X-98824152Y60456789D01*
X-98823435Y60460508D01*
X-98754697Y60788331D01*
X-98753128Y60794905D01*
X-98735903Y60859189D01*
X-98735014Y60862335D01*
X-98636770Y61192326D01*
X-98634466Y61199298D01*
X-98616680Y61248163D01*
X-98615723Y61250700D01*
X-98485094Y61585471D01*
X-98482003Y61592699D01*
X-98470162Y61618092D01*
X-98469211Y61620080D01*
X-98359566Y61844362D01*
X-98301762Y61962603D01*
X-98296895Y61971598D01*
X-98090620Y62317769D01*
X-98085028Y62326328D01*
X-97934104Y62537709D01*
X-81702587Y62537709D01*
X-81702587Y62239865D01*
X-81696186Y62180337D01*
X-81696184Y62180330D01*
X-81645942Y62045623D01*
X-81645938Y62045616D01*
X-81559778Y61930522D01*
X-81559775Y61930519D01*
X-81444677Y61844356D01*
X-81440901Y61842294D01*
X-81437858Y61839251D01*
X-81437576Y61839040D01*
X-81437607Y61839000D01*
X-81391494Y61792890D01*
X-81376641Y61724618D01*
X-81378708Y61709270D01*
X-81403087Y61586707D01*
X-81403087Y61586702D01*
X-81403087Y61448716D01*
X-81403087Y61448714D01*
X-81403088Y61448714D01*
X-81376169Y61313387D01*
X-81376166Y61313377D01*
X-81323366Y61185905D01*
X-81323359Y61185892D01*
X-81246702Y61071168D01*
X-81246699Y61071164D01*
X-81145925Y60970390D01*
X-81112440Y60909067D01*
X-81117424Y60839375D01*
X-81145925Y60795028D01*
X-81246699Y60694255D01*
X-81246702Y60694251D01*
X-81323359Y60579527D01*
X-81323366Y60579514D01*
X-81376166Y60452042D01*
X-81376169Y60452032D01*
X-81403087Y60316705D01*
X-81403087Y60316702D01*
X-81403087Y60178716D01*
X-81403087Y60178714D01*
X-81403088Y60178714D01*
X-81376169Y60043387D01*
X-81376166Y60043377D01*
X-81323366Y59915905D01*
X-81323359Y59915892D01*
X-81246702Y59801168D01*
X-81246699Y59801164D01*
X-81145925Y59700390D01*
X-81112440Y59639067D01*
X-81117424Y59569375D01*
X-81145925Y59525028D01*
X-81246699Y59424255D01*
X-81246702Y59424251D01*
X-81323359Y59309527D01*
X-81323366Y59309514D01*
X-81376166Y59182042D01*
X-81376169Y59182032D01*
X-81403087Y59046705D01*
X-81403087Y59046702D01*
X-81403087Y58908716D01*
X-81403087Y58908714D01*
X-81403088Y58908714D01*
X-81376169Y58773387D01*
X-81376166Y58773377D01*
X-81323366Y58645905D01*
X-81323359Y58645892D01*
X-81246702Y58531168D01*
X-81246699Y58531164D01*
X-81149133Y58433598D01*
X-81149129Y58433595D01*
X-81034405Y58356938D01*
X-81034392Y58356931D01*
X-80906920Y58304131D01*
X-80906915Y58304129D01*
X-80906911Y58304129D01*
X-80906910Y58304128D01*
X-80771583Y58277209D01*
X-80771580Y58277209D01*
X-80633592Y58277209D01*
X-80542546Y58295320D01*
X-80498259Y58304129D01*
X-80370776Y58356934D01*
X-80256045Y58433595D01*
X-80158473Y58531167D01*
X-80081812Y58645898D01*
X-80029007Y58773381D01*
X-80002087Y58908716D01*
X-80002087Y59046702D01*
X-80002087Y59046705D01*
X-80029006Y59182032D01*
X-80029007Y59182033D01*
X-80029007Y59182037D01*
X-80029743Y59183814D01*
X-80081809Y59309514D01*
X-80081816Y59309527D01*
X-80158473Y59424251D01*
X-80158476Y59424255D01*
X-80259249Y59525028D01*
X-80292734Y59586351D01*
X-80287750Y59656043D01*
X-80259249Y59700390D01*
X-80158476Y59801164D01*
X-80158473Y59801167D01*
X-80081812Y59915898D01*
X-80029007Y60043381D01*
X-80002087Y60178716D01*
X-80002087Y60316702D01*
X-80002087Y60316705D01*
X-80029006Y60452032D01*
X-80029007Y60452033D01*
X-80029007Y60452037D01*
X-80035086Y60466714D01*
X-80081809Y60579514D01*
X-80081816Y60579527D01*
X-80158473Y60694251D01*
X-80158476Y60694255D01*
X-80259249Y60795028D01*
X-80292734Y60856351D01*
X-80287750Y60926043D01*
X-80259249Y60970390D01*
X-80158476Y61071164D01*
X-80158473Y61071167D01*
X-80081812Y61185898D01*
X-80029007Y61313381D01*
X-80002087Y61448716D01*
X-80002087Y61586702D01*
X-80002087Y61586705D01*
X-80026467Y61709269D01*
X-80020240Y61778861D01*
X-79977377Y61834038D01*
X-79964271Y61842297D01*
X-79960489Y61844362D01*
X-79845400Y61930519D01*
X-79845397Y61930522D01*
X-79759237Y62045616D01*
X-79759233Y62045623D01*
X-79708991Y62180330D01*
X-79708989Y62180337D01*
X-79702588Y62239865D01*
X-79702587Y62239882D01*
X-79702587Y62537709D01*
X-80492969Y62537709D01*
X-80442523Y62588155D01*
X-80399736Y62662264D01*
X-80377587Y62744922D01*
X-80377587Y62830496D01*
X-80399736Y62913154D01*
X-80442523Y62987263D01*
X-80492969Y63037709D01*
X-80452587Y63037709D01*
X-79702587Y63037709D01*
X-79702587Y63335537D01*
X-79702588Y63335554D01*
X-79708989Y63395082D01*
X-79708991Y63395089D01*
X-79759233Y63529796D01*
X-79759237Y63529803D01*
X-79845397Y63644897D01*
X-79845400Y63644900D01*
X-79960494Y63731060D01*
X-79960501Y63731064D01*
X-80095208Y63781306D01*
X-80095215Y63781308D01*
X-80154743Y63787709D01*
X-80452587Y63787709D01*
X-80452587Y63037709D01*
X-80492969Y63037709D01*
X-80503033Y63047773D01*
X-80577142Y63090560D01*
X-80659800Y63112709D01*
X-80745374Y63112709D01*
X-80828032Y63090560D01*
X-80902141Y63047773D01*
X-80962651Y62987263D01*
X-81005438Y62913154D01*
X-81027587Y62830496D01*
X-81027587Y62744922D01*
X-81005438Y62662264D01*
X-80962651Y62588155D01*
X-80912205Y62537709D01*
X-81702587Y62537709D01*
X-97934104Y62537709D01*
X-97850864Y62654294D01*
X-97844582Y62662365D01*
X-97584139Y62969868D01*
X-97577222Y62977382D01*
X-97292273Y63262330D01*
X-97284758Y63269249D01*
X-97206472Y63335554D01*
X-81702587Y63335554D01*
X-81702587Y63037709D01*
X-80952587Y63037709D01*
X-80952587Y63787709D01*
X-81250432Y63787709D01*
X-81309960Y63781308D01*
X-81309967Y63781306D01*
X-81444674Y63731064D01*
X-81444681Y63731060D01*
X-81559775Y63644900D01*
X-81559778Y63644897D01*
X-81645938Y63529803D01*
X-81645942Y63529796D01*
X-81696184Y63395089D01*
X-81696186Y63395082D01*
X-81702587Y63335554D01*
X-97206472Y63335554D01*
X-96977244Y63529700D01*
X-96969192Y63535968D01*
X-96641196Y63770150D01*
X-96632667Y63775722D01*
X-96286458Y63982016D01*
X-96277515Y63986856D01*
X-95934763Y64154417D01*
X-95933060Y64155231D01*
X-95907585Y64167110D01*
X-95900367Y64170197D01*
X-95565502Y64300861D01*
X-95563045Y64301786D01*
X-95514174Y64319574D01*
X-95507207Y64321876D01*
X-95177220Y64420117D01*
X-95174058Y64421011D01*
X-95109798Y64438230D01*
X-95103211Y64439802D01*
X-94775394Y64508537D01*
X-94771686Y64509252D01*
X-94697501Y64522332D01*
X-94691383Y64523253D01*
X-94364522Y64563995D01*
X-94360169Y64564456D01*
X-94280438Y64571431D01*
X-94274852Y64571791D01*
X-94016026Y64582496D01*
X-93904606Y64587103D01*
X-93899482Y64587209D01*
X-79027087Y64587209D01*
X-78960048Y64567524D01*
G37*
%TD.AperFunction*%
%TD*%
%TA.AperFunction,Conductor*%
%TO.N,+3.3V*%
G36*
X-27900025Y64587103D02*
G01*
X-27888035Y64586608D01*
X-27532203Y64571889D01*
X-27526594Y64571528D01*
X-27442739Y64564192D01*
X-27438296Y64563721D01*
X-27169771Y64530248D01*
X-27115493Y64523482D01*
X-27109301Y64522550D01*
X-27087723Y64518746D01*
X-27030960Y64508737D01*
X-27027151Y64508003D01*
X-26703487Y64440137D01*
X-26696893Y64438563D01*
X-26628134Y64420139D01*
X-26625004Y64419254D01*
X-26299354Y64322303D01*
X-26292377Y64319998D01*
X-26238669Y64300449D01*
X-26236080Y64299472D01*
X-25906099Y64170713D01*
X-25898802Y64167592D01*
X-25867980Y64153220D01*
X-25866130Y64152336D01*
X-25527699Y63986887D01*
X-25518697Y63982016D01*
X-25172521Y63775739D01*
X-25163953Y63770141D01*
X-24835998Y63535986D01*
X-24827923Y63529700D01*
X-24565522Y63307457D01*
X-24520438Y63269273D01*
X-24512898Y63262332D01*
X-24227968Y62977401D01*
X-24221027Y62969861D01*
X-23960604Y62662381D01*
X-23954311Y62654296D01*
X-23853221Y62512711D01*
X-23720162Y62326351D01*
X-23714556Y62317771D01*
X-23508289Y61971610D01*
X-23503411Y61962596D01*
X-23338012Y61624266D01*
X-23337031Y61622212D01*
X-23322714Y61591510D01*
X-23319579Y61584179D01*
X-23190828Y61254220D01*
X-23189841Y61251603D01*
X-23177974Y61219000D01*
X-23170316Y61197959D01*
X-23167994Y61190932D01*
X-23071074Y60865387D01*
X-23070144Y60862098D01*
X-23051742Y60793420D01*
X-23050156Y60786774D01*
X-22982317Y60463240D01*
X-22981562Y60459325D01*
X-22967747Y60380975D01*
X-22966815Y60374781D01*
X-22926587Y60052051D01*
X-22926107Y60047521D01*
X-22918777Y59963742D01*
X-22918411Y59958059D01*
X-22903193Y59590176D01*
X-22903087Y59585051D01*
X-22903087Y36661204D01*
X-22903183Y36656335D01*
X-22917013Y36304413D01*
X-22917389Y36298473D01*
X-22924791Y36213880D01*
X-22925179Y36210114D01*
X-22961936Y35899558D01*
X-22962960Y35892602D01*
X-22974300Y35828286D01*
X-22974799Y35825625D01*
X-23039975Y35497973D01*
X-23041817Y35490073D01*
X-23044226Y35481082D01*
X-23044657Y35479515D01*
X-23146461Y35118549D01*
X-23149469Y35109289D01*
X-23281973Y34750125D01*
X-23285699Y34741130D01*
X-23445969Y34393479D01*
X-23450390Y34384803D01*
X-23633693Y34057496D01*
X-23634497Y34056082D01*
X-23639100Y34048110D01*
X-23643383Y34041223D01*
X-23829006Y33763419D01*
X-23830534Y33761186D01*
X-23867974Y33707717D01*
X-23872169Y33702073D01*
X-24065773Y33456488D01*
X-24068163Y33453550D01*
X-24122767Y33388476D01*
X-24126700Y33384011D01*
X-24365983Y33125156D01*
X-24369358Y33121646D01*
X-42936739Y14554265D01*
X-42940248Y14550891D01*
X-43199845Y14310919D01*
X-43204310Y14306985D01*
X-43266796Y14254552D01*
X-43269735Y14252162D01*
X-43517812Y14056592D01*
X-43523457Y14052396D01*
X-43573661Y14017243D01*
X-43575893Y14015716D01*
X-43856892Y13827958D01*
X-43863775Y13823678D01*
X-43866835Y13821911D01*
X-43868254Y13821104D01*
X-44199667Y13635503D01*
X-44208342Y13631082D01*
X-44556004Y13470807D01*
X-44565000Y13467081D01*
X-44924148Y13334586D01*
X-44933408Y13331577D01*
X-45299044Y13228459D01*
X-45300600Y13228031D01*
X-45303984Y13227124D01*
X-45311896Y13225279D01*
X-45643338Y13159354D01*
X-45645996Y13158856D01*
X-45706368Y13148211D01*
X-45713327Y13147186D01*
X-46027046Y13110058D01*
X-46030811Y13109671D01*
X-46112054Y13102563D01*
X-46117995Y13102187D01*
X-46471396Y13088305D01*
X-46476263Y13088209D01*
X-75329093Y13088209D01*
X-75333962Y13088305D01*
X-75687362Y13102192D01*
X-75693301Y13102568D01*
X-75774110Y13109638D01*
X-75777878Y13110026D01*
X-76091998Y13147207D01*
X-76098953Y13148231D01*
X-76158782Y13158780D01*
X-76161443Y13159279D01*
X-76493400Y13225311D01*
X-76501330Y13227161D01*
X-76503981Y13227872D01*
X-76505517Y13228295D01*
X-76871747Y13331582D01*
X-76881008Y13334591D01*
X-77240171Y13467096D01*
X-77249166Y13470821D01*
X-77596824Y13631095D01*
X-77605499Y13635516D01*
X-77937487Y13821440D01*
X-77938893Y13822239D01*
X-77941280Y13823617D01*
X-77948176Y13827905D01*
X-78229593Y14015943D01*
X-78231827Y14017471D01*
X-78281592Y14052318D01*
X-78287235Y14056513D01*
X-78415605Y14157712D01*
X-78535698Y14252387D01*
X-78538528Y14254688D01*
X-78600730Y14306882D01*
X-78605169Y14310792D01*
X-78865216Y14551179D01*
X-78868725Y14554554D01*
X-81461190Y17147019D01*
X-61803088Y17147019D01*
X-61803088Y17028401D01*
X-61772387Y16913824D01*
X-61713077Y16811097D01*
X-61629201Y16727221D01*
X-61526474Y16667911D01*
X-61411897Y16637210D01*
X-61411894Y16637210D01*
X-61293282Y16637210D01*
X-61293279Y16637210D01*
X-61178702Y16667911D01*
X-61075975Y16727221D01*
X-60992099Y16811097D01*
X-60984975Y16823436D01*
X-60934408Y16871652D01*
X-60865801Y16884874D01*
X-60800936Y16858906D01*
X-60770201Y16823436D01*
X-60763080Y16811101D01*
X-60763078Y16811099D01*
X-60763077Y16811097D01*
X-60679201Y16727221D01*
X-60576474Y16667911D01*
X-60461897Y16637210D01*
X-60461894Y16637210D01*
X-60343282Y16637210D01*
X-60343279Y16637210D01*
X-60228702Y16667911D01*
X-60125975Y16727221D01*
X-60042099Y16811097D01*
X-60034975Y16823436D01*
X-59984408Y16871652D01*
X-59915801Y16884874D01*
X-59850936Y16858906D01*
X-59820201Y16823436D01*
X-59813080Y16811101D01*
X-59813078Y16811099D01*
X-59813077Y16811097D01*
X-59729201Y16727221D01*
X-59626474Y16667911D01*
X-59511897Y16637210D01*
X-59511894Y16637210D01*
X-59393282Y16637210D01*
X-59393279Y16637210D01*
X-59278702Y16667911D01*
X-59175975Y16727221D01*
X-59092099Y16811097D01*
X-59032789Y16913824D01*
X-59002088Y17028401D01*
X-59002088Y17147019D01*
X-59032789Y17261596D01*
X-59092099Y17364323D01*
X-59175975Y17448199D01*
X-59278702Y17507509D01*
X-59393279Y17538210D01*
X-59511897Y17538210D01*
X-59626474Y17507509D01*
X-59626476Y17507509D01*
X-59626476Y17507508D01*
X-59729201Y17448199D01*
X-59729204Y17448197D01*
X-59813075Y17364326D01*
X-59813077Y17364323D01*
X-59820202Y17351982D01*
X-59870771Y17303768D01*
X-59939378Y17290547D01*
X-60004242Y17316516D01*
X-60034974Y17351982D01*
X-60042099Y17364323D01*
X-60125975Y17448199D01*
X-60228702Y17507509D01*
X-60343279Y17538210D01*
X-60461897Y17538210D01*
X-60576474Y17507509D01*
X-60576476Y17507509D01*
X-60576476Y17507508D01*
X-60679201Y17448199D01*
X-60679204Y17448197D01*
X-60763075Y17364326D01*
X-60763077Y17364323D01*
X-60770202Y17351982D01*
X-60820771Y17303768D01*
X-60889378Y17290547D01*
X-60954242Y17316516D01*
X-60984974Y17351982D01*
X-60992099Y17364323D01*
X-61075975Y17448199D01*
X-61178702Y17507509D01*
X-61293279Y17538210D01*
X-61411897Y17538210D01*
X-61526474Y17507509D01*
X-61526476Y17507509D01*
X-61526476Y17507508D01*
X-61629201Y17448199D01*
X-61629204Y17448197D01*
X-61713075Y17364326D01*
X-61713077Y17364323D01*
X-61772387Y17261596D01*
X-61803088Y17147019D01*
X-81461190Y17147019D01*
X-83764828Y19450657D01*
X-79322100Y19450657D01*
X-79322100Y19292543D01*
X-79307621Y19238509D01*
X-79281177Y19139817D01*
X-79281174Y19139810D01*
X-79202125Y19002891D01*
X-79202121Y19002886D01*
X-79202120Y19002884D01*
X-79090316Y18891080D01*
X-79090314Y18891079D01*
X-79090310Y18891076D01*
X-78953391Y18812027D01*
X-78953384Y18812023D01*
X-78800657Y18771100D01*
X-78800655Y18771100D01*
X-78642545Y18771100D01*
X-78642543Y18771100D01*
X-78489816Y18812023D01*
X-78352884Y18891080D01*
X-78241080Y19002884D01*
X-78162023Y19139816D01*
X-78121100Y19292543D01*
X-78121100Y19372796D01*
X-46098393Y19372796D01*
X-46086296Y19292543D01*
X-46078152Y19238510D01*
X-46019230Y19116155D01*
X-46019229Y19116154D01*
X-45999728Y19092617D01*
X-44897679Y17990568D01*
X-44874142Y17971067D01*
X-44751787Y17912144D01*
X-44617500Y17891903D01*
X-44483212Y17912144D01*
X-44360857Y17971067D01*
X-44337320Y17990568D01*
X-43412048Y18915840D01*
X-43392547Y18939377D01*
X-43333624Y19061732D01*
X-43313383Y19196020D01*
X-43333624Y19330307D01*
X-43392547Y19452662D01*
X-43412048Y19476199D01*
X-44514097Y20578248D01*
X-44537634Y20597749D01*
X-44537635Y20597750D01*
X-44631514Y20642959D01*
X-44659989Y20656672D01*
X-44794276Y20676913D01*
X-44928564Y20656672D01*
X-45050919Y20597750D01*
X-45074461Y20578244D01*
X-45999724Y19652981D01*
X-46019230Y19629439D01*
X-46078152Y19507084D01*
X-46086657Y19450655D01*
X-46098393Y19372796D01*
X-78121100Y19372796D01*
X-78121100Y19450657D01*
X-78162023Y19603384D01*
X-78177066Y19629439D01*
X-78241076Y19740310D01*
X-78241082Y19740318D01*
X-78352883Y19852119D01*
X-78352891Y19852125D01*
X-78489810Y19931174D01*
X-78489814Y19931176D01*
X-78489816Y19931177D01*
X-78642543Y19972100D01*
X-78800657Y19972100D01*
X-78953384Y19931177D01*
X-78953391Y19931174D01*
X-79090310Y19852125D01*
X-79090318Y19852119D01*
X-79202119Y19740318D01*
X-79202125Y19740310D01*
X-79281174Y19603391D01*
X-79281177Y19603384D01*
X-79322100Y19450657D01*
X-83764828Y19450657D01*
X-84964828Y20650657D01*
X-60328167Y20650657D01*
X-60328167Y20492544D01*
X-60287244Y20339817D01*
X-60287241Y20339810D01*
X-60208192Y20202891D01*
X-60208188Y20202886D01*
X-60208187Y20202884D01*
X-60096383Y20091080D01*
X-60096381Y20091079D01*
X-60096377Y20091076D01*
X-59995525Y20032850D01*
X-59959451Y20012023D01*
X-59806724Y19971100D01*
X-59806722Y19971100D01*
X-59648612Y19971100D01*
X-59648610Y19971100D01*
X-59495883Y20012023D01*
X-59358951Y20091080D01*
X-59247147Y20202884D01*
X-59168090Y20339816D01*
X-59127167Y20492543D01*
X-59127167Y20650657D01*
X-59168090Y20803384D01*
X-59168094Y20803391D01*
X-59247143Y20940310D01*
X-59247149Y20940318D01*
X-59358950Y21052119D01*
X-59358958Y21052125D01*
X-59495877Y21131174D01*
X-59495881Y21131176D01*
X-59495883Y21131177D01*
X-59648610Y21172100D01*
X-59806724Y21172100D01*
X-59959451Y21131177D01*
X-59959458Y21131174D01*
X-60096377Y21052125D01*
X-60096385Y21052119D01*
X-60208186Y20940318D01*
X-60208192Y20940310D01*
X-60287241Y20803391D01*
X-60287244Y20803384D01*
X-60328167Y20650657D01*
X-84964828Y20650657D01*
X-85980937Y21666766D01*
X-79003087Y21666766D01*
X-79003087Y21508652D01*
X-78990423Y21461392D01*
X-78962164Y21355926D01*
X-78962161Y21355919D01*
X-78883112Y21219000D01*
X-78883108Y21218995D01*
X-78883107Y21218993D01*
X-78771303Y21107189D01*
X-78771301Y21107188D01*
X-78771297Y21107185D01*
X-78675920Y21052120D01*
X-78634371Y21028132D01*
X-78481644Y20987209D01*
X-78481642Y20987209D01*
X-78323532Y20987209D01*
X-78323530Y20987209D01*
X-78170803Y21028132D01*
X-78033871Y21107189D01*
X-77922067Y21218993D01*
X-77907610Y21244033D01*
X-44077009Y21244033D01*
X-44077009Y21037094D01*
X-44036641Y20834151D01*
X-44036639Y20834143D01*
X-43957452Y20642968D01*
X-43957447Y20642959D01*
X-43842486Y20470909D01*
X-43842483Y20470905D01*
X-43519392Y20147814D01*
X-43519388Y20147811D01*
X-43347338Y20032850D01*
X-43347332Y20032847D01*
X-43347331Y20032846D01*
X-43156153Y19953657D01*
X-42953203Y19913288D01*
X-42953199Y19913287D01*
X-42953198Y19913287D01*
X-42746267Y19913287D01*
X-42746266Y19913288D01*
X-42543313Y19953657D01*
X-42352135Y20032846D01*
X-42180078Y20147811D01*
X-42033757Y20294132D01*
X-41918792Y20466189D01*
X-41839603Y20657367D01*
X-41799233Y20860322D01*
X-41799233Y21067252D01*
X-41839603Y21270207D01*
X-41900853Y21418075D01*
X-41918791Y21461383D01*
X-41918796Y21461392D01*
X-42033757Y21633442D01*
X-42033760Y21633446D01*
X-42356851Y21956537D01*
X-42356855Y21956540D01*
X-42528905Y22071501D01*
X-42528914Y22071506D01*
X-42720089Y22150693D01*
X-42720097Y22150695D01*
X-42923040Y22191063D01*
X-42923044Y22191063D01*
X-43129974Y22191063D01*
X-43129979Y22191063D01*
X-43332922Y22150695D01*
X-43332930Y22150693D01*
X-43524105Y22071506D01*
X-43524114Y22071501D01*
X-43696164Y21956540D01*
X-43696168Y21956537D01*
X-43842483Y21810222D01*
X-43842486Y21810218D01*
X-43957447Y21638168D01*
X-43957452Y21638159D01*
X-44036639Y21446984D01*
X-44036641Y21446976D01*
X-44077009Y21244033D01*
X-77907610Y21244033D01*
X-77843010Y21355925D01*
X-77802087Y21508652D01*
X-77802087Y21666766D01*
X-77843010Y21819493D01*
X-77898486Y21915581D01*
X-77922063Y21956419D01*
X-77922069Y21956427D01*
X-78033870Y22068228D01*
X-78033878Y22068234D01*
X-78170797Y22147283D01*
X-78170801Y22147285D01*
X-78170803Y22147286D01*
X-78323530Y22188209D01*
X-78481644Y22188209D01*
X-78634371Y22147286D01*
X-78634378Y22147283D01*
X-78771297Y22068234D01*
X-78771305Y22068228D01*
X-78883106Y21956427D01*
X-78883112Y21956419D01*
X-78962161Y21819500D01*
X-78962164Y21819493D01*
X-79003087Y21666766D01*
X-85980937Y21666766D01*
X-87325971Y23011800D01*
X-42309242Y23011800D01*
X-42309242Y22804861D01*
X-42268874Y22601918D01*
X-42268872Y22601910D01*
X-42189685Y22410735D01*
X-42189680Y22410726D01*
X-42074719Y22238676D01*
X-42074716Y22238672D01*
X-41751625Y21915581D01*
X-41751621Y21915578D01*
X-41579571Y21800617D01*
X-41579565Y21800614D01*
X-41579564Y21800613D01*
X-41388386Y21721424D01*
X-41185436Y21681055D01*
X-41185432Y21681054D01*
X-41185431Y21681054D01*
X-40978500Y21681054D01*
X-40978499Y21681055D01*
X-40775546Y21721424D01*
X-40584368Y21800613D01*
X-40412311Y21915578D01*
X-40265990Y22061899D01*
X-40151025Y22233956D01*
X-40071836Y22425134D01*
X-40031466Y22628089D01*
X-40031466Y22835019D01*
X-40071836Y23037974D01*
X-40133086Y23185842D01*
X-40151024Y23229150D01*
X-40151029Y23229159D01*
X-40265990Y23401209D01*
X-40265993Y23401213D01*
X-40589084Y23724304D01*
X-40589088Y23724307D01*
X-40761138Y23839268D01*
X-40761147Y23839273D01*
X-40952322Y23918460D01*
X-40952330Y23918462D01*
X-41155273Y23958830D01*
X-41155277Y23958830D01*
X-41362207Y23958830D01*
X-41362212Y23958830D01*
X-41565155Y23918462D01*
X-41565163Y23918460D01*
X-41756338Y23839273D01*
X-41756347Y23839268D01*
X-41928397Y23724307D01*
X-41928401Y23724304D01*
X-42074716Y23577989D01*
X-42074719Y23577985D01*
X-42189680Y23405935D01*
X-42189685Y23405926D01*
X-42268872Y23214751D01*
X-42268874Y23214743D01*
X-42309242Y23011800D01*
X-87325971Y23011800D01*
X-88764828Y24450657D01*
X-71222100Y24450657D01*
X-71222100Y24292543D01*
X-71195546Y24193444D01*
X-71181177Y24139817D01*
X-71181174Y24139810D01*
X-71102125Y24002891D01*
X-71102121Y24002886D01*
X-71102120Y24002884D01*
X-70990316Y23891080D01*
X-70990314Y23891079D01*
X-70990310Y23891076D01*
X-70887388Y23831655D01*
X-70853384Y23812023D01*
X-70700657Y23771100D01*
X-70700655Y23771100D01*
X-70542545Y23771100D01*
X-70542543Y23771100D01*
X-70389816Y23812023D01*
X-70252884Y23891080D01*
X-70141080Y24002884D01*
X-70062023Y24139816D01*
X-70021100Y24292543D01*
X-70021100Y24450657D01*
X-70062023Y24603384D01*
X-70062027Y24603391D01*
X-70141076Y24740310D01*
X-70141082Y24740318D01*
X-70252883Y24852119D01*
X-70252891Y24852125D01*
X-70389810Y24931174D01*
X-70389814Y24931176D01*
X-70389816Y24931177D01*
X-70542543Y24972100D01*
X-70700657Y24972100D01*
X-70853384Y24931177D01*
X-70853391Y24931174D01*
X-70990310Y24852125D01*
X-70990318Y24852119D01*
X-71102119Y24740318D01*
X-71102125Y24740310D01*
X-71181174Y24603391D01*
X-71181177Y24603384D01*
X-71222100Y24450657D01*
X-88764828Y24450657D01*
X-90023169Y25708998D01*
X-62753087Y25708998D01*
X-62753087Y25466421D01*
X-62721426Y25225924D01*
X-62658640Y24991605D01*
X-62565814Y24767504D01*
X-62565811Y24767497D01*
X-62444523Y24557420D01*
X-62444521Y24557417D01*
X-62444520Y24557416D01*
X-62296854Y24364973D01*
X-62296848Y24364966D01*
X-62125331Y24193449D01*
X-62125324Y24193443D01*
X-62055428Y24139810D01*
X-61932876Y24045773D01*
X-61722799Y23924485D01*
X-61642142Y23891076D01*
X-61517067Y23839268D01*
X-61498687Y23831655D01*
X-61264376Y23768871D01*
X-61084001Y23745125D01*
X-61023876Y23737209D01*
X-61023875Y23737209D01*
X-60781298Y23737209D01*
X-60733199Y23743542D01*
X-60540798Y23768871D01*
X-60306487Y23831655D01*
X-60082375Y23924485D01*
X-59872298Y24045773D01*
X-59679849Y24193444D01*
X-59508322Y24364971D01*
X-59360651Y24557420D01*
X-59239363Y24767497D01*
X-59239360Y24767504D01*
X-59234363Y24779567D01*
X-40541475Y24779567D01*
X-40541475Y24572628D01*
X-40501107Y24369685D01*
X-40501105Y24369677D01*
X-40421918Y24178502D01*
X-40421913Y24178493D01*
X-40306952Y24006443D01*
X-40306949Y24006439D01*
X-39983858Y23683348D01*
X-39983854Y23683345D01*
X-39811804Y23568384D01*
X-39811798Y23568381D01*
X-39811797Y23568380D01*
X-39620619Y23489191D01*
X-39417669Y23448822D01*
X-39417665Y23448821D01*
X-39417664Y23448821D01*
X-39210733Y23448821D01*
X-39210732Y23448822D01*
X-39007779Y23489191D01*
X-38816601Y23568380D01*
X-38644544Y23683345D01*
X-38498223Y23829666D01*
X-38383258Y24001723D01*
X-38304069Y24192901D01*
X-38263699Y24395856D01*
X-38263699Y24602786D01*
X-38304069Y24805741D01*
X-38365319Y24953609D01*
X-38383257Y24996917D01*
X-38383262Y24996926D01*
X-38498223Y25168976D01*
X-38498226Y25168980D01*
X-38821317Y25492071D01*
X-38821321Y25492074D01*
X-38993371Y25607035D01*
X-38993380Y25607040D01*
X-39184555Y25686227D01*
X-39184563Y25686229D01*
X-39387506Y25726597D01*
X-39387510Y25726597D01*
X-39594440Y25726597D01*
X-39594445Y25726597D01*
X-39797388Y25686229D01*
X-39797396Y25686227D01*
X-39988571Y25607040D01*
X-39988580Y25607035D01*
X-40160630Y25492074D01*
X-40160634Y25492071D01*
X-40306949Y25345756D01*
X-40306952Y25345752D01*
X-40421913Y25173702D01*
X-40421918Y25173693D01*
X-40501105Y24982518D01*
X-40501107Y24982510D01*
X-40541475Y24779567D01*
X-59234363Y24779567D01*
X-59212186Y24833107D01*
X-59146535Y24991605D01*
X-59146533Y24991609D01*
X-59083749Y25225920D01*
X-59052087Y25466421D01*
X-59052087Y25708997D01*
X-59083749Y25949498D01*
X-59146533Y26183809D01*
X-59239363Y26407921D01*
X-59360651Y26617998D01*
X-59508322Y26810447D01*
X-59508327Y26810453D01*
X-59679844Y26981970D01*
X-59679851Y26981976D01*
X-59872294Y27129642D01*
X-59872295Y27129643D01*
X-59872298Y27129645D01*
X-60082375Y27250933D01*
X-60082382Y27250936D01*
X-60306483Y27343762D01*
X-60540802Y27406548D01*
X-60781298Y27438209D01*
X-60781299Y27438209D01*
X-61023875Y27438209D01*
X-61023876Y27438209D01*
X-61264373Y27406548D01*
X-61498692Y27343762D01*
X-61722793Y27250936D01*
X-61722802Y27250932D01*
X-61932881Y27129642D01*
X-62125324Y26981976D01*
X-62125331Y26981970D01*
X-62296848Y26810453D01*
X-62296854Y26810446D01*
X-62444520Y26618003D01*
X-62565810Y26407924D01*
X-62565814Y26407915D01*
X-62658640Y26183814D01*
X-62721426Y25949495D01*
X-62753087Y25708998D01*
X-90023169Y25708998D01*
X-91464828Y27150657D01*
X-69522100Y27150657D01*
X-69522100Y26992543D01*
X-69519268Y26981976D01*
X-69481177Y26839817D01*
X-69481174Y26839810D01*
X-69402125Y26702891D01*
X-69402121Y26702886D01*
X-69402120Y26702884D01*
X-69290316Y26591080D01*
X-69290314Y26591079D01*
X-69290310Y26591076D01*
X-69153391Y26512027D01*
X-69153384Y26512023D01*
X-69000657Y26471100D01*
X-69000655Y26471100D01*
X-68842545Y26471100D01*
X-68842543Y26471100D01*
X-68689816Y26512023D01*
X-68552884Y26591080D01*
X-68441080Y26702884D01*
X-68362023Y26839816D01*
X-68321100Y26992543D01*
X-68321100Y27150657D01*
X-68362023Y27303384D01*
X-68385335Y27343762D01*
X-68441076Y27440310D01*
X-68441082Y27440318D01*
X-68552883Y27552119D01*
X-68552891Y27552125D01*
X-68689810Y27631174D01*
X-68689814Y27631176D01*
X-68689816Y27631177D01*
X-68842543Y27672100D01*
X-69000657Y27672100D01*
X-69153384Y27631177D01*
X-69153391Y27631174D01*
X-69290310Y27552125D01*
X-69290318Y27552119D01*
X-69402119Y27440318D01*
X-69402125Y27440310D01*
X-69481174Y27303391D01*
X-69481177Y27303384D01*
X-69522100Y27150657D01*
X-91464828Y27150657D01*
X-92980937Y28666766D01*
X-45503087Y28666766D01*
X-45503087Y28508653D01*
X-45462164Y28355926D01*
X-45462161Y28355919D01*
X-45383112Y28219000D01*
X-45383108Y28218995D01*
X-45383107Y28218993D01*
X-45271303Y28107189D01*
X-45271301Y28107188D01*
X-45271297Y28107185D01*
X-45134378Y28028136D01*
X-45134371Y28028132D01*
X-44981644Y27987209D01*
X-44981642Y27987209D01*
X-44823532Y27987209D01*
X-44823530Y27987209D01*
X-44670803Y28028132D01*
X-44533871Y28107189D01*
X-44422067Y28218993D01*
X-44343010Y28355925D01*
X-44302087Y28508652D01*
X-44302087Y28666766D01*
X-44343010Y28819493D01*
X-44343014Y28819500D01*
X-44422063Y28956419D01*
X-44422069Y28956427D01*
X-44533870Y29068228D01*
X-44533878Y29068234D01*
X-44670797Y29147283D01*
X-44670801Y29147285D01*
X-44670803Y29147286D01*
X-44823530Y29188209D01*
X-44981644Y29188209D01*
X-45134371Y29147286D01*
X-45134378Y29147283D01*
X-45271297Y29068234D01*
X-45271305Y29068228D01*
X-45383106Y28956427D01*
X-45383112Y28956419D01*
X-45462161Y28819500D01*
X-45462164Y28819493D01*
X-45503087Y28666766D01*
X-92980937Y28666766D01*
X-94323589Y30009418D01*
X-90002981Y30009418D01*
X-89976062Y29874092D01*
X-89976059Y29874082D01*
X-89923258Y29746607D01*
X-89846593Y29631869D01*
X-89749026Y29534302D01*
X-89634288Y29457637D01*
X-89506813Y29404836D01*
X-89506808Y29404834D01*
X-89506804Y29404834D01*
X-89506803Y29404833D01*
X-89371477Y29377914D01*
X-89371474Y29377914D01*
X-89233484Y29377914D01*
X-89142440Y29396025D01*
X-89098152Y29404834D01*
X-89034411Y29431237D01*
X-88970673Y29457637D01*
X-88970672Y29457638D01*
X-88970669Y29457639D01*
X-88855937Y29534300D01*
X-88334102Y30056135D01*
X-88277689Y30140563D01*
X-35330626Y30140563D01*
X-35310858Y30009418D01*
X-35310385Y30006277D01*
X-35251463Y29883922D01*
X-35251462Y29883921D01*
X-35231961Y29860384D01*
X-34129912Y28758335D01*
X-34106375Y28738834D01*
X-33984020Y28679911D01*
X-33849733Y28659670D01*
X-33715445Y28679911D01*
X-33593090Y28738834D01*
X-33569553Y28758335D01*
X-32644281Y29683607D01*
X-32624780Y29707144D01*
X-32565857Y29829499D01*
X-32545616Y29963787D01*
X-32565857Y30098074D01*
X-32624780Y30220429D01*
X-32644281Y30243966D01*
X-33746330Y31346015D01*
X-33769867Y31365516D01*
X-33769868Y31365517D01*
X-33863747Y31410726D01*
X-33892222Y31424439D01*
X-34026509Y31444680D01*
X-34160797Y31424439D01*
X-34283152Y31365517D01*
X-34306694Y31346011D01*
X-35231957Y30420748D01*
X-35251463Y30397206D01*
X-35310385Y30274851D01*
X-35322072Y30197311D01*
X-35330626Y30140563D01*
X-88277689Y30140563D01*
X-88257441Y30170867D01*
X-88204636Y30298350D01*
X-88177716Y30433684D01*
X-88177716Y30571672D01*
X-88177716Y30571675D01*
X-88204635Y30707001D01*
X-88204636Y30707002D01*
X-88204636Y30707006D01*
X-88210608Y30721424D01*
X-88257439Y30834486D01*
X-88334104Y30949224D01*
X-88431671Y31046791D01*
X-88546409Y31123456D01*
X-88673884Y31176257D01*
X-88673894Y31176260D01*
X-88809220Y31203178D01*
X-88809222Y31203178D01*
X-88947210Y31203178D01*
X-88947212Y31203178D01*
X-89082539Y31176260D01*
X-89082549Y31176257D01*
X-89210024Y31123456D01*
X-89324762Y31046791D01*
X-89846593Y30524960D01*
X-89923258Y30410222D01*
X-89976059Y30282747D01*
X-89976062Y30282737D01*
X-90002980Y30147411D01*
X-90002980Y30147408D01*
X-90002980Y30009420D01*
X-90002980Y30009418D01*
X-90002981Y30009418D01*
X-94323589Y30009418D01*
X-97436031Y33121860D01*
X-97439406Y33125370D01*
X-97679278Y33384861D01*
X-97683210Y33389325D01*
X-97710743Y33422136D01*
X-97735893Y33452108D01*
X-97738243Y33454997D01*
X-97933670Y33702894D01*
X-97937840Y33708504D01*
X-97973188Y33758986D01*
X-97974638Y33761105D01*
X-98106476Y33958414D01*
X-88096071Y33958414D01*
X-88096071Y33806882D01*
X-88083237Y33758986D01*
X-88056852Y33660512D01*
X-88037991Y33627845D01*
X-87981086Y33529283D01*
X-87873936Y33422133D01*
X-87742706Y33346367D01*
X-87596337Y33307148D01*
X-87596335Y33307148D01*
X-87444808Y33307148D01*
X-87444805Y33307148D01*
X-87298436Y33346367D01*
X-87298433Y33346370D01*
X-87294716Y33347365D01*
X-87224866Y33345702D01*
X-87167003Y33306540D01*
X-87139499Y33242311D01*
X-87148060Y33180138D01*
X-87148741Y33178493D01*
X-87197130Y33061671D01*
X-87197131Y33061668D01*
X-87197131Y33061667D01*
X-87197132Y33061666D01*
X-87224050Y32926340D01*
X-87224050Y32926337D01*
X-87224050Y32788349D01*
X-87224050Y32788347D01*
X-87224051Y32788347D01*
X-87197132Y32653021D01*
X-87197129Y32653011D01*
X-87144328Y32525536D01*
X-87067663Y32410798D01*
X-86970096Y32313231D01*
X-86855358Y32236566D01*
X-86727883Y32183765D01*
X-86727878Y32183763D01*
X-86727874Y32183763D01*
X-86727873Y32183762D01*
X-86592547Y32156843D01*
X-86592544Y32156843D01*
X-86454554Y32156843D01*
X-86404671Y32166766D01*
X-68503087Y32166766D01*
X-68503087Y32008653D01*
X-68462164Y31855926D01*
X-68462161Y31855919D01*
X-68383112Y31719000D01*
X-68383108Y31718995D01*
X-68383107Y31718993D01*
X-68271303Y31607189D01*
X-68271301Y31607188D01*
X-68271297Y31607185D01*
X-68134378Y31528136D01*
X-68134371Y31528132D01*
X-67981644Y31487209D01*
X-67981642Y31487209D01*
X-67823532Y31487209D01*
X-67823530Y31487209D01*
X-67670803Y31528132D01*
X-67533871Y31607189D01*
X-67422067Y31718993D01*
X-67343010Y31855925D01*
X-67302087Y32008652D01*
X-67302087Y32166766D01*
X-54503087Y32166766D01*
X-54503087Y32008653D01*
X-54462164Y31855926D01*
X-54462161Y31855919D01*
X-54383112Y31719000D01*
X-54383108Y31718995D01*
X-54383107Y31718993D01*
X-54271303Y31607189D01*
X-54271301Y31607188D01*
X-54271297Y31607185D01*
X-54134378Y31528136D01*
X-54134371Y31528132D01*
X-53981644Y31487209D01*
X-53981642Y31487209D01*
X-53823532Y31487209D01*
X-53823530Y31487209D01*
X-53670803Y31528132D01*
X-53533871Y31607189D01*
X-53422067Y31718993D01*
X-53343010Y31855925D01*
X-53302087Y32008652D01*
X-53302087Y32011800D01*
X-33309242Y32011800D01*
X-33309242Y31804861D01*
X-33268874Y31601918D01*
X-33268872Y31601910D01*
X-33189685Y31410735D01*
X-33189680Y31410726D01*
X-33074719Y31238676D01*
X-33074716Y31238672D01*
X-32751625Y30915581D01*
X-32751621Y30915578D01*
X-32579571Y30800617D01*
X-32579565Y30800614D01*
X-32579564Y30800613D01*
X-32388386Y30721424D01*
X-32185436Y30681055D01*
X-32185432Y30681054D01*
X-32185431Y30681054D01*
X-31978500Y30681054D01*
X-31978499Y30681055D01*
X-31775546Y30721424D01*
X-31584368Y30800613D01*
X-31412311Y30915578D01*
X-31265990Y31061899D01*
X-31151025Y31233956D01*
X-31071836Y31425134D01*
X-31031466Y31628089D01*
X-31031466Y31835019D01*
X-31071836Y32037974D01*
X-31133086Y32185842D01*
X-31151024Y32229150D01*
X-31151029Y32229159D01*
X-31265990Y32401209D01*
X-31265993Y32401213D01*
X-31589084Y32724304D01*
X-31589088Y32724307D01*
X-31761138Y32839268D01*
X-31761147Y32839273D01*
X-31952322Y32918460D01*
X-31952330Y32918462D01*
X-32155273Y32958830D01*
X-32155277Y32958830D01*
X-32362207Y32958830D01*
X-32362212Y32958830D01*
X-32565155Y32918462D01*
X-32565163Y32918460D01*
X-32756338Y32839273D01*
X-32756347Y32839268D01*
X-32928397Y32724307D01*
X-32928401Y32724304D01*
X-33074716Y32577989D01*
X-33074719Y32577985D01*
X-33189680Y32405935D01*
X-33189685Y32405926D01*
X-33268872Y32214751D01*
X-33268874Y32214743D01*
X-33309242Y32011800D01*
X-53302087Y32011800D01*
X-53302087Y32166766D01*
X-53343010Y32319493D01*
X-53390188Y32401209D01*
X-53422063Y32456419D01*
X-53422069Y32456427D01*
X-53533870Y32568228D01*
X-53533878Y32568234D01*
X-53670797Y32647283D01*
X-53670801Y32647285D01*
X-53670803Y32647286D01*
X-53823530Y32688209D01*
X-53981644Y32688209D01*
X-54134371Y32647286D01*
X-54134378Y32647283D01*
X-54271297Y32568234D01*
X-54271305Y32568228D01*
X-54383106Y32456427D01*
X-54383112Y32456419D01*
X-54462161Y32319500D01*
X-54462164Y32319493D01*
X-54503087Y32166766D01*
X-67302087Y32166766D01*
X-67343010Y32319493D01*
X-67390188Y32401209D01*
X-67422063Y32456419D01*
X-67422069Y32456427D01*
X-67533870Y32568228D01*
X-67533878Y32568234D01*
X-67670797Y32647283D01*
X-67670801Y32647285D01*
X-67670803Y32647286D01*
X-67823530Y32688209D01*
X-67981644Y32688209D01*
X-68134371Y32647286D01*
X-68134378Y32647283D01*
X-68271297Y32568234D01*
X-68271305Y32568228D01*
X-68383106Y32456427D01*
X-68383112Y32456419D01*
X-68462161Y32319500D01*
X-68462164Y32319493D01*
X-68503087Y32166766D01*
X-86404671Y32166766D01*
X-86363510Y32174954D01*
X-86319222Y32183763D01*
X-86191739Y32236568D01*
X-86077007Y32313229D01*
X-85201618Y33188618D01*
X-85124957Y33303350D01*
X-85123635Y33306540D01*
X-85086640Y33395856D01*
X-85072152Y33430833D01*
X-85063343Y33475121D01*
X-85045232Y33566165D01*
X-85045232Y33666766D01*
X-81003087Y33666766D01*
X-81003087Y33508652D01*
X-80969689Y33384011D01*
X-80962164Y33355926D01*
X-80962161Y33355919D01*
X-80883112Y33219000D01*
X-80883108Y33218995D01*
X-80883107Y33218993D01*
X-80771303Y33107189D01*
X-80771301Y33107188D01*
X-80771297Y33107185D01*
X-80634378Y33028136D01*
X-80634371Y33028132D01*
X-80481644Y32987209D01*
X-80481642Y32987209D01*
X-80323532Y32987209D01*
X-80323530Y32987209D01*
X-80170803Y33028132D01*
X-80033871Y33107189D01*
X-79922067Y33218993D01*
X-79843010Y33355925D01*
X-79834835Y33386435D01*
X-66492646Y33386435D01*
X-66492646Y33228321D01*
X-66460187Y33107185D01*
X-66451723Y33075595D01*
X-66451720Y33075588D01*
X-66372671Y32938669D01*
X-66372667Y32938664D01*
X-66372666Y32938662D01*
X-66260862Y32826858D01*
X-66260860Y32826857D01*
X-66260856Y32826854D01*
X-66123937Y32747805D01*
X-66123930Y32747801D01*
X-65971203Y32706878D01*
X-65971201Y32706878D01*
X-65813091Y32706878D01*
X-65813089Y32706878D01*
X-65660362Y32747801D01*
X-65523430Y32826858D01*
X-65515596Y32834693D01*
X-65454277Y32868178D01*
X-65384585Y32863196D01*
X-65340233Y32834694D01*
X-65232396Y32726857D01*
X-65232394Y32726856D01*
X-65232390Y32726853D01*
X-65104507Y32653021D01*
X-65095464Y32647800D01*
X-64942737Y32606877D01*
X-64942735Y32606877D01*
X-64784625Y32606877D01*
X-64784623Y32606877D01*
X-64631896Y32647800D01*
X-64494964Y32726857D01*
X-64383160Y32838661D01*
X-64304103Y32975593D01*
X-64263180Y33128320D01*
X-64263180Y33286434D01*
X-64304103Y33439161D01*
X-64361842Y33539169D01*
X-64383156Y33576087D01*
X-64383162Y33576095D01*
X-64494962Y33687895D01*
X-64494972Y33687903D01*
X-64631890Y33766951D01*
X-64631894Y33766953D01*
X-64631896Y33766954D01*
X-64678968Y33779567D01*
X-31541475Y33779567D01*
X-31541475Y33572628D01*
X-31501107Y33369685D01*
X-31501105Y33369677D01*
X-31421918Y33178502D01*
X-31421913Y33178493D01*
X-31306952Y33006443D01*
X-31306949Y33006439D01*
X-30983858Y32683348D01*
X-30983854Y32683345D01*
X-30811804Y32568384D01*
X-30811795Y32568379D01*
X-30811430Y32568228D01*
X-30620619Y32489191D01*
X-30455902Y32456427D01*
X-30417669Y32448822D01*
X-30417665Y32448821D01*
X-30417664Y32448821D01*
X-30210733Y32448821D01*
X-30210732Y32448822D01*
X-30007779Y32489191D01*
X-29816601Y32568380D01*
X-29644544Y32683345D01*
X-29498223Y32829666D01*
X-29383258Y33001723D01*
X-29304069Y33192901D01*
X-29263699Y33395856D01*
X-29263699Y33602786D01*
X-29304069Y33805741D01*
X-29370853Y33966972D01*
X-29383257Y33996917D01*
X-29383262Y33996926D01*
X-29498223Y34168976D01*
X-29498226Y34168980D01*
X-29821317Y34492071D01*
X-29821321Y34492074D01*
X-29993371Y34607035D01*
X-29993380Y34607040D01*
X-30184555Y34686227D01*
X-30184563Y34686229D01*
X-30387506Y34726597D01*
X-30387510Y34726597D01*
X-30594440Y34726597D01*
X-30594445Y34726597D01*
X-30797388Y34686229D01*
X-30797396Y34686227D01*
X-30988571Y34607040D01*
X-30988580Y34607035D01*
X-31160630Y34492074D01*
X-31160634Y34492071D01*
X-31306949Y34345756D01*
X-31306952Y34345752D01*
X-31421913Y34173702D01*
X-31421918Y34173693D01*
X-31501105Y33982518D01*
X-31501107Y33982510D01*
X-31541475Y33779567D01*
X-64678968Y33779567D01*
X-64784623Y33807877D01*
X-64942737Y33807877D01*
X-65095464Y33766954D01*
X-65095471Y33766951D01*
X-65232390Y33687902D01*
X-65232400Y33687895D01*
X-65240235Y33680059D01*
X-65301559Y33646576D01*
X-65371251Y33651563D01*
X-65415594Y33680062D01*
X-65523429Y33787897D01*
X-65523437Y33787903D01*
X-65660356Y33866952D01*
X-65660360Y33866954D01*
X-65660362Y33866955D01*
X-65813089Y33907878D01*
X-65971203Y33907878D01*
X-66123930Y33866955D01*
X-66123937Y33866952D01*
X-66260856Y33787903D01*
X-66260864Y33787897D01*
X-66372665Y33676096D01*
X-66372671Y33676088D01*
X-66451720Y33539169D01*
X-66451723Y33539162D01*
X-66492646Y33386435D01*
X-79834835Y33386435D01*
X-79802087Y33508652D01*
X-79802087Y33666766D01*
X-79843010Y33819493D01*
X-79877079Y33878503D01*
X-79922063Y33956419D01*
X-79922069Y33956427D01*
X-80033870Y34068228D01*
X-80033878Y34068234D01*
X-80170797Y34147283D01*
X-80170801Y34147285D01*
X-80170803Y34147286D01*
X-80323530Y34188209D01*
X-80481644Y34188209D01*
X-80634371Y34147286D01*
X-80634378Y34147283D01*
X-80771297Y34068234D01*
X-80771305Y34068228D01*
X-80883106Y33956427D01*
X-80883112Y33956419D01*
X-80962161Y33819500D01*
X-80962164Y33819493D01*
X-81003087Y33666766D01*
X-85045232Y33666766D01*
X-85045232Y33704158D01*
X-85072151Y33839485D01*
X-85072152Y33839486D01*
X-85072152Y33839490D01*
X-85124957Y33966972D01*
X-85201618Y34081704D01*
X-85201620Y34081707D01*
X-85299187Y34179274D01*
X-85384104Y34236013D01*
X-85413921Y34255936D01*
X-85416386Y34256957D01*
X-85541403Y34308741D01*
X-85541409Y34308743D01*
X-85676736Y34335661D01*
X-85676738Y34335661D01*
X-85814726Y34335661D01*
X-85814728Y34335661D01*
X-85950055Y34308743D01*
X-85950065Y34308740D01*
X-86077540Y34255939D01*
X-86192278Y34179274D01*
X-86757078Y33614474D01*
X-86818401Y33580989D01*
X-86888093Y33585973D01*
X-86944026Y33627845D01*
X-86968443Y33693309D01*
X-86964535Y33734242D01*
X-86945071Y33806882D01*
X-86945071Y33958414D01*
X-86984290Y34104783D01*
X-87060056Y34236013D01*
X-87167206Y34343163D01*
X-87254359Y34393481D01*
X-87298435Y34418929D01*
X-87371621Y34438539D01*
X-87444805Y34458148D01*
X-87596337Y34458148D01*
X-87742708Y34418929D01*
X-87873936Y34343163D01*
X-87873939Y34343161D01*
X-87981084Y34236016D01*
X-87981086Y34236013D01*
X-88056852Y34104785D01*
X-88089613Y33982517D01*
X-88096071Y33958414D01*
X-98106476Y33958414D01*
X-98162319Y34041989D01*
X-98166593Y34048862D01*
X-98168439Y34052059D01*
X-98169189Y34053376D01*
X-98354801Y34384811D01*
X-98359217Y34393481D01*
X-98370949Y34418929D01*
X-98485202Y34666766D01*
X-90503087Y34666766D01*
X-90503087Y34508652D01*
X-90471041Y34389057D01*
X-90462164Y34355926D01*
X-90462161Y34355919D01*
X-90383112Y34219000D01*
X-90383108Y34218995D01*
X-90383107Y34218993D01*
X-90271303Y34107189D01*
X-90271301Y34107188D01*
X-90271297Y34107185D01*
X-90134378Y34028136D01*
X-90134371Y34028132D01*
X-89981644Y33987209D01*
X-89981642Y33987209D01*
X-89823532Y33987209D01*
X-89823530Y33987209D01*
X-89670803Y34028132D01*
X-89670799Y34028135D01*
X-89670797Y34028135D01*
X-89591485Y34073926D01*
X-89591480Y34073929D01*
X-89533871Y34107189D01*
X-89422067Y34218993D01*
X-89343010Y34355925D01*
X-89302087Y34508652D01*
X-89302087Y34666766D01*
X-89343010Y34819493D01*
X-89404895Y34926682D01*
X-89422063Y34956419D01*
X-89422069Y34956427D01*
X-89533870Y35068228D01*
X-89533878Y35068234D01*
X-89670797Y35147283D01*
X-89670801Y35147285D01*
X-89670803Y35147286D01*
X-89683384Y35150657D01*
X-61522100Y35150657D01*
X-61522100Y34992543D01*
X-61504452Y34926682D01*
X-61481177Y34839817D01*
X-61481174Y34839810D01*
X-61402125Y34702891D01*
X-61402121Y34702886D01*
X-61402120Y34702884D01*
X-61290316Y34591080D01*
X-61290314Y34591079D01*
X-61290310Y34591076D01*
X-61153391Y34512027D01*
X-61153384Y34512023D01*
X-61000657Y34471100D01*
X-61000655Y34471100D01*
X-60842545Y34471100D01*
X-60842543Y34471100D01*
X-60689816Y34512023D01*
X-60552884Y34591080D01*
X-60441080Y34702884D01*
X-60362023Y34839816D01*
X-60321100Y34992543D01*
X-60321100Y35150657D01*
X-60362023Y35303384D01*
X-60383393Y35340399D01*
X-60441076Y35440310D01*
X-60441082Y35440318D01*
X-60548098Y35547334D01*
X-29773708Y35547334D01*
X-29773708Y35340395D01*
X-29733340Y35137452D01*
X-29733338Y35137444D01*
X-29654151Y34946269D01*
X-29654146Y34946260D01*
X-29539185Y34774210D01*
X-29539182Y34774206D01*
X-29216091Y34451115D01*
X-29216087Y34451112D01*
X-29044037Y34336151D01*
X-29044031Y34336148D01*
X-29044030Y34336147D01*
X-28852852Y34256958D01*
X-28662023Y34219000D01*
X-28649902Y34216589D01*
X-28649898Y34216588D01*
X-28649897Y34216588D01*
X-28442966Y34216588D01*
X-28442965Y34216589D01*
X-28240012Y34256958D01*
X-28048834Y34336147D01*
X-27876777Y34451112D01*
X-27730456Y34597433D01*
X-27615491Y34769490D01*
X-27536302Y34960668D01*
X-27495932Y35163623D01*
X-27495932Y35370553D01*
X-27536302Y35573508D01*
X-27605793Y35741273D01*
X-27615490Y35764684D01*
X-27615495Y35764693D01*
X-27730456Y35936743D01*
X-27730459Y35936747D01*
X-28053550Y36259838D01*
X-28053554Y36259841D01*
X-28225604Y36374802D01*
X-28225613Y36374807D01*
X-28416788Y36453994D01*
X-28416796Y36453996D01*
X-28619739Y36494364D01*
X-28619743Y36494364D01*
X-28826673Y36494364D01*
X-28826678Y36494364D01*
X-29029621Y36453996D01*
X-29029629Y36453994D01*
X-29220804Y36374807D01*
X-29220813Y36374802D01*
X-29392863Y36259841D01*
X-29392867Y36259838D01*
X-29539182Y36113523D01*
X-29539185Y36113519D01*
X-29654146Y35941469D01*
X-29654151Y35941460D01*
X-29733338Y35750285D01*
X-29733340Y35750277D01*
X-29773708Y35547334D01*
X-60548098Y35547334D01*
X-60552883Y35552119D01*
X-60552891Y35552125D01*
X-60689810Y35631174D01*
X-60689814Y35631176D01*
X-60689816Y35631177D01*
X-60842543Y35672100D01*
X-61000657Y35672100D01*
X-61153384Y35631177D01*
X-61153391Y35631174D01*
X-61290310Y35552125D01*
X-61290318Y35552119D01*
X-61402119Y35440318D01*
X-61402125Y35440310D01*
X-61481174Y35303391D01*
X-61481177Y35303384D01*
X-61522100Y35150657D01*
X-89683384Y35150657D01*
X-89823530Y35188209D01*
X-89981644Y35188209D01*
X-90134371Y35147286D01*
X-90134378Y35147283D01*
X-90271297Y35068234D01*
X-90271305Y35068228D01*
X-90383106Y34956427D01*
X-90383112Y34956419D01*
X-90462161Y34819500D01*
X-90462164Y34819493D01*
X-90503087Y34666766D01*
X-98485202Y34666766D01*
X-98519489Y34741142D01*
X-98523207Y34750119D01*
X-98548800Y34819493D01*
X-98655709Y35109289D01*
X-98658712Y35118532D01*
X-98762016Y35484831D01*
X-98762389Y35486187D01*
X-98763146Y35489015D01*
X-98764983Y35496893D01*
X-98765198Y35497973D01*
X-98831035Y35828977D01*
X-98831519Y35831560D01*
X-98842059Y35891338D01*
X-98843072Y35898215D01*
X-98869179Y36118820D01*
X-96112383Y36118820D01*
X-96085464Y35983494D01*
X-96085461Y35983484D01*
X-96032660Y35856009D01*
X-95955995Y35741271D01*
X-95858428Y35643704D01*
X-95743690Y35567039D01*
X-95616215Y35514238D01*
X-95616210Y35514236D01*
X-95616206Y35514236D01*
X-95616205Y35514235D01*
X-95480879Y35487316D01*
X-95480876Y35487316D01*
X-95342886Y35487316D01*
X-95251842Y35505427D01*
X-95207554Y35514236D01*
X-95116096Y35552119D01*
X-95080075Y35567039D01*
X-95080074Y35567040D01*
X-95080071Y35567041D01*
X-94965339Y35643702D01*
X-94443504Y36165537D01*
X-94366843Y36280269D01*
X-94359302Y36298473D01*
X-94314040Y36407748D01*
X-94314038Y36407752D01*
X-94297172Y36492543D01*
X-94287118Y36543084D01*
X-94287118Y36650657D01*
X-63422100Y36650657D01*
X-63422100Y36492543D01*
X-63395199Y36392149D01*
X-63381177Y36339817D01*
X-63381174Y36339810D01*
X-63302125Y36202891D01*
X-63302121Y36202886D01*
X-63302120Y36202884D01*
X-63190316Y36091080D01*
X-63190314Y36091079D01*
X-63190310Y36091076D01*
X-63053391Y36012027D01*
X-63053384Y36012023D01*
X-62900657Y35971100D01*
X-62900655Y35971100D01*
X-62742545Y35971100D01*
X-62742543Y35971100D01*
X-62589816Y36012023D01*
X-62452884Y36091080D01*
X-62341080Y36202884D01*
X-62262023Y36339816D01*
X-62221100Y36492543D01*
X-62221100Y36650657D01*
X-62247895Y36750657D01*
X-59522100Y36750657D01*
X-59522100Y36592543D01*
X-59484976Y36453996D01*
X-59481177Y36439817D01*
X-59481174Y36439810D01*
X-59402125Y36302891D01*
X-59402121Y36302886D01*
X-59402120Y36302884D01*
X-59290316Y36191080D01*
X-59290314Y36191079D01*
X-59290310Y36191076D01*
X-59165160Y36118822D01*
X-59153384Y36112023D01*
X-59000657Y36071100D01*
X-59000655Y36071100D01*
X-58842545Y36071100D01*
X-58842543Y36071100D01*
X-58689816Y36112023D01*
X-58552884Y36191080D01*
X-58441080Y36302884D01*
X-58362023Y36439816D01*
X-58321100Y36592543D01*
X-58321100Y36750657D01*
X-58362023Y36903384D01*
X-58383342Y36940310D01*
X-58441076Y37040310D01*
X-58441082Y37040318D01*
X-58552883Y37152119D01*
X-58552891Y37152125D01*
X-58689810Y37231174D01*
X-58689814Y37231176D01*
X-58689816Y37231177D01*
X-58842543Y37272100D01*
X-59000657Y37272100D01*
X-59153384Y37231177D01*
X-59153391Y37231174D01*
X-59290310Y37152125D01*
X-59290318Y37152119D01*
X-59402119Y37040318D01*
X-59402125Y37040310D01*
X-59481174Y36903391D01*
X-59481177Y36903384D01*
X-59522100Y36750657D01*
X-62247895Y36750657D01*
X-62262023Y36803384D01*
X-62319757Y36903384D01*
X-62341076Y36940310D01*
X-62341082Y36940318D01*
X-62452883Y37052119D01*
X-62452891Y37052125D01*
X-62589810Y37131174D01*
X-62589814Y37131176D01*
X-62589816Y37131177D01*
X-62742543Y37172100D01*
X-62900657Y37172100D01*
X-63053384Y37131177D01*
X-63053391Y37131174D01*
X-63190310Y37052125D01*
X-63190318Y37052119D01*
X-63302119Y36940318D01*
X-63302125Y36940310D01*
X-63381174Y36803391D01*
X-63381177Y36803384D01*
X-63422100Y36650657D01*
X-94287118Y36650657D01*
X-94287118Y36681077D01*
X-94314037Y36816403D01*
X-94314038Y36816404D01*
X-94314038Y36816408D01*
X-94314040Y36816413D01*
X-94366841Y36943888D01*
X-94443506Y37058626D01*
X-94541073Y37156193D01*
X-94655811Y37232858D01*
X-94783286Y37285659D01*
X-94783296Y37285662D01*
X-94918622Y37312580D01*
X-94918624Y37312580D01*
X-95056612Y37312580D01*
X-95056614Y37312580D01*
X-95191941Y37285662D01*
X-95191951Y37285659D01*
X-95319426Y37232858D01*
X-95434164Y37156193D01*
X-95955995Y36634362D01*
X-96032660Y36519624D01*
X-96085461Y36392149D01*
X-96085464Y36392139D01*
X-96112382Y36256813D01*
X-96112382Y36256810D01*
X-96112382Y36118822D01*
X-96112382Y36118820D01*
X-96112383Y36118820D01*
X-98869179Y36118820D01*
X-98880277Y36212594D01*
X-98880656Y36216276D01*
X-98887717Y36296989D01*
X-98888083Y36302756D01*
X-98901993Y36656924D01*
X-98902087Y36661779D01*
X-98902087Y38897750D01*
X-93333454Y38897750D01*
X-93306535Y38762424D01*
X-93306532Y38762414D01*
X-93253731Y38634939D01*
X-93177066Y38520201D01*
X-93079499Y38422634D01*
X-92964761Y38345969D01*
X-92837286Y38293168D01*
X-92837281Y38293166D01*
X-92837277Y38293166D01*
X-92837276Y38293165D01*
X-92701950Y38266246D01*
X-92701947Y38266246D01*
X-92563957Y38266246D01*
X-92472913Y38284357D01*
X-92428625Y38293166D01*
X-92310159Y38342237D01*
X-92240690Y38349705D01*
X-92178211Y38318430D01*
X-92142559Y38258341D01*
X-92142932Y38195582D01*
X-92183148Y38045491D01*
X-92183148Y37893960D01*
X-92143929Y37747589D01*
X-92137754Y37736894D01*
X-92068163Y37616360D01*
X-91961013Y37509210D01*
X-91829783Y37433444D01*
X-91683414Y37394225D01*
X-91683412Y37394225D01*
X-91531884Y37394225D01*
X-91531882Y37394225D01*
X-91385513Y37433444D01*
X-91254283Y37509210D01*
X-91147133Y37616360D01*
X-91118031Y37666766D01*
X-67003087Y37666766D01*
X-67003087Y37508652D01*
X-66972426Y37394226D01*
X-66962164Y37355926D01*
X-66962161Y37355919D01*
X-66883112Y37219000D01*
X-66883108Y37218995D01*
X-66883107Y37218993D01*
X-66771303Y37107189D01*
X-66771301Y37107188D01*
X-66771297Y37107185D01*
X-66675920Y37052120D01*
X-66634371Y37028132D01*
X-66481644Y36987209D01*
X-66481642Y36987209D01*
X-66323532Y36987209D01*
X-66323530Y36987209D01*
X-66170803Y37028132D01*
X-66033871Y37107189D01*
X-65922067Y37218993D01*
X-65843010Y37355925D01*
X-65802087Y37508652D01*
X-65802087Y37666766D01*
X-65843010Y37819493D01*
X-65843014Y37819500D01*
X-65922063Y37956419D01*
X-65922069Y37956427D01*
X-66033870Y38068228D01*
X-66033878Y38068234D01*
X-66170797Y38147283D01*
X-66170801Y38147285D01*
X-66170803Y38147286D01*
X-66323530Y38188209D01*
X-66481644Y38188209D01*
X-66634371Y38147286D01*
X-66634378Y38147283D01*
X-66771297Y38068234D01*
X-66771305Y38068228D01*
X-66883106Y37956427D01*
X-66883112Y37956419D01*
X-66962161Y37819500D01*
X-66962164Y37819493D01*
X-67003087Y37666766D01*
X-91118031Y37666766D01*
X-91071367Y37747590D01*
X-91032148Y37893959D01*
X-91032148Y38045491D01*
X-91071367Y38191860D01*
X-91147133Y38323090D01*
X-91254283Y38430240D01*
X-91319898Y38468123D01*
X-91385512Y38506006D01*
X-91459248Y38525763D01*
X-91531882Y38545225D01*
X-91683414Y38545225D01*
X-91683416Y38545225D01*
X-91756050Y38525763D01*
X-91825900Y38527426D01*
X-91883762Y38566589D01*
X-91911265Y38630818D01*
X-91899678Y38699720D01*
X-91875823Y38733219D01*
X-91758385Y38850657D01*
X-61522100Y38850657D01*
X-61522100Y38692544D01*
X-61481177Y38539817D01*
X-61481174Y38539810D01*
X-61402125Y38402891D01*
X-61402121Y38402886D01*
X-61402120Y38402884D01*
X-61290316Y38291080D01*
X-61290314Y38291079D01*
X-61290310Y38291076D01*
X-61233610Y38258341D01*
X-61153384Y38212023D01*
X-61000657Y38171100D01*
X-61000655Y38171100D01*
X-60842545Y38171100D01*
X-60842543Y38171100D01*
X-60689816Y38212023D01*
X-60552884Y38291080D01*
X-60441080Y38402884D01*
X-60362023Y38539816D01*
X-60321100Y38692543D01*
X-60321100Y38850657D01*
X-60362023Y39003384D01*
X-60376313Y39028136D01*
X-60441076Y39140310D01*
X-60441082Y39140318D01*
X-60552883Y39252119D01*
X-60552891Y39252125D01*
X-60689810Y39331174D01*
X-60689814Y39331176D01*
X-60689816Y39331177D01*
X-60842543Y39372100D01*
X-61000657Y39372100D01*
X-61153384Y39331177D01*
X-61153391Y39331174D01*
X-61290310Y39252125D01*
X-61290318Y39252119D01*
X-61402119Y39140318D01*
X-61402125Y39140310D01*
X-61481174Y39003391D01*
X-61481177Y39003384D01*
X-61522100Y38850657D01*
X-91758385Y38850657D01*
X-91311023Y39298019D01*
X-91311021Y39298021D01*
X-91234360Y39412753D01*
X-91234136Y39413292D01*
X-91203519Y39487210D01*
X-91181555Y39540236D01*
X-91168237Y39607191D01*
X-91156386Y39666766D01*
X-86503087Y39666766D01*
X-86503087Y39508652D01*
X-86477534Y39413289D01*
X-86462164Y39355926D01*
X-86462161Y39355919D01*
X-86383112Y39219000D01*
X-86383108Y39218995D01*
X-86383107Y39218993D01*
X-86271303Y39107189D01*
X-86271301Y39107188D01*
X-86271297Y39107185D01*
X-86147554Y39035743D01*
X-86134371Y39028132D01*
X-85981644Y38987209D01*
X-85981642Y38987209D01*
X-85823532Y38987209D01*
X-85823530Y38987209D01*
X-85670803Y39028132D01*
X-85533871Y39107189D01*
X-85422067Y39218993D01*
X-85343010Y39355925D01*
X-85302087Y39508652D01*
X-85302087Y39666766D01*
X-83003087Y39666766D01*
X-83003087Y39508652D01*
X-82977534Y39413289D01*
X-82962164Y39355926D01*
X-82962161Y39355919D01*
X-82883112Y39219000D01*
X-82883108Y39218995D01*
X-82883107Y39218993D01*
X-82771303Y39107189D01*
X-82771301Y39107188D01*
X-82771297Y39107185D01*
X-82647554Y39035743D01*
X-82634371Y39028132D01*
X-82481644Y38987209D01*
X-82481642Y38987209D01*
X-82323532Y38987209D01*
X-82323530Y38987209D01*
X-82170803Y39028132D01*
X-82033871Y39107189D01*
X-81922067Y39218993D01*
X-81843010Y39355925D01*
X-81802087Y39508652D01*
X-81802087Y39666766D01*
X-81843010Y39819493D01*
X-81864044Y39855926D01*
X-81922063Y39956419D01*
X-81922069Y39956427D01*
X-82033870Y40068228D01*
X-82033871Y40068229D01*
X-82170803Y40147286D01*
X-82243503Y40166766D01*
X-81503087Y40166766D01*
X-81503087Y40008652D01*
X-81487074Y39948893D01*
X-81462164Y39855926D01*
X-81462161Y39855919D01*
X-81383112Y39719000D01*
X-81383108Y39718995D01*
X-81383107Y39718993D01*
X-81271303Y39607189D01*
X-81271301Y39607188D01*
X-81271297Y39607185D01*
X-81155336Y39540236D01*
X-81134371Y39528132D01*
X-80981644Y39487209D01*
X-80981642Y39487209D01*
X-80823532Y39487209D01*
X-80823530Y39487209D01*
X-80670803Y39528132D01*
X-80533871Y39607189D01*
X-80422067Y39718993D01*
X-80343010Y39855925D01*
X-80302087Y40008652D01*
X-80302087Y40166766D01*
X-80343010Y40319493D01*
X-80369479Y40365339D01*
X-80422063Y40456419D01*
X-80422069Y40456427D01*
X-80533870Y40568228D01*
X-80533871Y40568229D01*
X-80670803Y40647286D01*
X-80743503Y40666766D01*
X-80003087Y40666766D01*
X-80003087Y40508652D01*
X-79964686Y40365340D01*
X-79962164Y40355926D01*
X-79962161Y40355919D01*
X-79883112Y40219000D01*
X-79883108Y40218995D01*
X-79883107Y40218993D01*
X-79771303Y40107189D01*
X-79771301Y40107188D01*
X-79771297Y40107185D01*
X-79703822Y40068229D01*
X-79634371Y40028132D01*
X-79481644Y39987209D01*
X-79481642Y39987209D01*
X-79323532Y39987209D01*
X-79323530Y39987209D01*
X-79170803Y40028132D01*
X-79033871Y40107189D01*
X-78922067Y40218993D01*
X-78843010Y40355925D01*
X-78802087Y40508652D01*
X-78802087Y40666766D01*
X-78843010Y40819493D01*
X-78843014Y40819500D01*
X-78922063Y40956419D01*
X-78922069Y40956427D01*
X-79033870Y41068228D01*
X-79033878Y41068234D01*
X-79170797Y41147283D01*
X-79170801Y41147285D01*
X-79170803Y41147286D01*
X-79323530Y41188209D01*
X-79481644Y41188209D01*
X-79634371Y41147286D01*
X-79634378Y41147283D01*
X-79771297Y41068234D01*
X-79771305Y41068228D01*
X-79883106Y40956427D01*
X-79883112Y40956419D01*
X-79962161Y40819500D01*
X-79962164Y40819493D01*
X-80003087Y40666766D01*
X-80743503Y40666766D01*
X-80823530Y40688209D01*
X-80981644Y40688209D01*
X-81134371Y40647286D01*
X-81134378Y40647283D01*
X-81271297Y40568234D01*
X-81271305Y40568228D01*
X-81383106Y40456427D01*
X-81383112Y40456419D01*
X-81462161Y40319500D01*
X-81462164Y40319493D01*
X-81503087Y40166766D01*
X-82243503Y40166766D01*
X-82323530Y40188209D01*
X-82481644Y40188209D01*
X-82634371Y40147286D01*
X-82634378Y40147283D01*
X-82771297Y40068234D01*
X-82771305Y40068228D01*
X-82883106Y39956427D01*
X-82883112Y39956419D01*
X-82962161Y39819500D01*
X-82962164Y39819493D01*
X-83003087Y39666766D01*
X-85302087Y39666766D01*
X-85343010Y39819493D01*
X-85364044Y39855926D01*
X-85422063Y39956419D01*
X-85422069Y39956427D01*
X-85533870Y40068228D01*
X-85533878Y40068234D01*
X-85670797Y40147283D01*
X-85670801Y40147285D01*
X-85670803Y40147286D01*
X-85823530Y40188209D01*
X-85981644Y40188209D01*
X-86134371Y40147286D01*
X-86134378Y40147283D01*
X-86271297Y40068234D01*
X-86271305Y40068228D01*
X-86383106Y39956427D01*
X-86383112Y39956419D01*
X-86462161Y39819500D01*
X-86462164Y39819493D01*
X-86503087Y39666766D01*
X-91156386Y39666766D01*
X-91154635Y39675568D01*
X-91154635Y39813561D01*
X-91181554Y39948888D01*
X-91181555Y39948889D01*
X-91181555Y39948893D01*
X-91234360Y40076375D01*
X-91311021Y40191107D01*
X-91311023Y40191110D01*
X-91408590Y40288677D01*
X-91509235Y40355925D01*
X-91523324Y40365339D01*
X-91650806Y40418144D01*
X-91650812Y40418146D01*
X-91786139Y40445064D01*
X-91786141Y40445064D01*
X-91924129Y40445064D01*
X-91924131Y40445064D01*
X-92059458Y40418146D01*
X-92059468Y40418143D01*
X-92186943Y40365342D01*
X-92301681Y40288677D01*
X-93177066Y39413292D01*
X-93253731Y39298554D01*
X-93306532Y39171079D01*
X-93306535Y39171069D01*
X-93333453Y39035743D01*
X-93333453Y39035740D01*
X-93333453Y38897752D01*
X-93333453Y38897750D01*
X-93333454Y38897750D01*
X-98902087Y38897750D01*
X-98902087Y43463709D01*
X-98882402Y43530748D01*
X-98829598Y43576503D01*
X-98778087Y43587709D01*
X-96119418Y43587709D01*
X-96052379Y43568024D01*
X-96006624Y43515220D01*
X-95999647Y43495812D01*
X-95962164Y43355926D01*
X-95962161Y43355919D01*
X-95883112Y43219000D01*
X-95883108Y43218995D01*
X-95883107Y43218993D01*
X-95771303Y43107189D01*
X-95771301Y43107188D01*
X-95771297Y43107185D01*
X-95634378Y43028136D01*
X-95634371Y43028132D01*
X-95481644Y42987209D01*
X-95481642Y42987209D01*
X-95323532Y42987209D01*
X-95323530Y42987209D01*
X-95170803Y43028132D01*
X-95033871Y43107189D01*
X-94922067Y43218993D01*
X-94843010Y43355925D01*
X-94805530Y43495805D01*
X-94769166Y43555463D01*
X-94706319Y43585992D01*
X-94685756Y43587709D01*
X-93953949Y43587709D01*
X-93886910Y43568024D01*
X-93866268Y43551390D01*
X-92902587Y42587709D01*
X-88604738Y42587709D01*
X-88537699Y42568024D01*
X-88491944Y42515220D01*
X-88482000Y42446062D01*
X-88511025Y42382506D01*
X-88517057Y42376028D01*
X-88563211Y42329875D01*
X-88563214Y42329872D01*
X-88656292Y42190570D01*
X-88720403Y42035792D01*
X-88720405Y42035784D01*
X-88753087Y41871481D01*
X-88753087Y41703938D01*
X-88720405Y41539635D01*
X-88720403Y41539627D01*
X-88656292Y41384849D01*
X-88563214Y41245547D01*
X-88444750Y41127083D01*
X-88414970Y41107185D01*
X-88305450Y41034006D01*
X-88305449Y41034006D01*
X-88305448Y41034005D01*
X-88291269Y41028132D01*
X-88150669Y40969893D01*
X-87986359Y40937210D01*
X-87986355Y40937209D01*
X-87986354Y40937209D01*
X-87818819Y40937209D01*
X-87818818Y40937210D01*
X-87654505Y40969893D01*
X-87499724Y41034006D01*
X-87360425Y41127083D01*
X-87241961Y41245547D01*
X-87148884Y41384846D01*
X-87084771Y41539627D01*
X-87052087Y41703942D01*
X-87052087Y41871476D01*
X-87084771Y42035791D01*
X-87148884Y42190572D01*
X-87197726Y42263669D01*
X-87241961Y42329872D01*
X-87288117Y42376028D01*
X-87321602Y42437351D01*
X-87316618Y42507043D01*
X-87274746Y42562976D01*
X-87209282Y42587393D01*
X-87200436Y42587709D01*
X-84914111Y42587709D01*
X-84891259Y42585585D01*
X-78533864Y41393574D01*
X-78471604Y41361873D01*
X-78449333Y41333700D01*
X-78383107Y41218993D01*
X-78271303Y41107189D01*
X-78271301Y41107188D01*
X-78271297Y41107185D01*
X-78134378Y41028136D01*
X-78134371Y41028132D01*
X-77981644Y40987209D01*
X-77981642Y40987209D01*
X-77823532Y40987209D01*
X-77823530Y40987209D01*
X-77670803Y41028132D01*
X-77533871Y41107189D01*
X-77496847Y41144214D01*
X-77435527Y41177699D01*
X-77386320Y41178409D01*
X-76902587Y41087709D01*
X-75441234Y42711435D01*
X-73897756Y42711435D01*
X-73897756Y42553322D01*
X-73856833Y42400595D01*
X-73856830Y42400588D01*
X-73777781Y42263669D01*
X-73777777Y42263664D01*
X-73777776Y42263662D01*
X-73665972Y42151858D01*
X-73665970Y42151857D01*
X-73665966Y42151854D01*
X-73529047Y42072805D01*
X-73529040Y42072801D01*
X-73376313Y42031878D01*
X-73376311Y42031878D01*
X-73218201Y42031878D01*
X-73218199Y42031878D01*
X-73065472Y42072801D01*
X-72928540Y42151858D01*
X-72816736Y42263662D01*
X-72737679Y42400594D01*
X-72696756Y42553321D01*
X-72696756Y42711435D01*
X-72737679Y42864162D01*
X-72756895Y42897446D01*
X-72816732Y43001088D01*
X-72816738Y43001096D01*
X-72928539Y43112897D01*
X-72928547Y43112903D01*
X-73065466Y43191952D01*
X-73065470Y43191954D01*
X-73065472Y43191955D01*
X-73218199Y43232878D01*
X-73376313Y43232878D01*
X-73529040Y43191955D01*
X-73529047Y43191952D01*
X-73665966Y43112903D01*
X-73665974Y43112897D01*
X-73777775Y43001096D01*
X-73777781Y43001088D01*
X-73856830Y42864169D01*
X-73856833Y42864162D01*
X-73897756Y42711435D01*
X-75441234Y42711435D01*
X-74770205Y43457023D01*
X-72503087Y43457023D01*
X-72503087Y43298909D01*
X-72463993Y43153010D01*
X-72462164Y43146183D01*
X-72462161Y43146176D01*
X-72383112Y43009257D01*
X-72383108Y43009252D01*
X-72383107Y43009250D01*
X-72271303Y42897446D01*
X-72271301Y42897445D01*
X-72271297Y42897442D01*
X-72213653Y42864162D01*
X-72134371Y42818389D01*
X-71981644Y42777466D01*
X-71981642Y42777466D01*
X-71823532Y42777466D01*
X-71823530Y42777466D01*
X-71670803Y42818389D01*
X-71533871Y42897446D01*
X-71422067Y43009250D01*
X-71343010Y43146182D01*
X-71302087Y43298909D01*
X-71302087Y43457023D01*
X-71343010Y43609750D01*
X-71375804Y43666551D01*
X-71422063Y43746676D01*
X-71422069Y43746684D01*
X-71495613Y43820228D01*
X-71529098Y43881551D01*
X-71524114Y43951243D01*
X-71482242Y44007176D01*
X-71416778Y44031593D01*
X-71375845Y44027685D01*
X-71224787Y43987209D01*
X-71224784Y43987209D01*
X-71066675Y43987209D01*
X-71066673Y43987209D01*
X-70913946Y44028132D01*
X-70777014Y44107189D01*
X-70665210Y44218993D01*
X-70586153Y44355925D01*
X-70545230Y44508652D01*
X-70545230Y44666766D01*
X-70586153Y44819493D01*
X-70620112Y44878312D01*
X-70665206Y44956419D01*
X-70665212Y44956427D01*
X-70777013Y45068228D01*
X-70777021Y45068234D01*
X-70913940Y45147283D01*
X-70913944Y45147285D01*
X-70913946Y45147286D01*
X-71066673Y45188209D01*
X-71224787Y45188209D01*
X-71377514Y45147286D01*
X-71377521Y45147283D01*
X-71514440Y45068234D01*
X-71514448Y45068228D01*
X-71626249Y44956427D01*
X-71626255Y44956419D01*
X-71705304Y44819500D01*
X-71705307Y44819493D01*
X-71746230Y44666766D01*
X-71746230Y44508652D01*
X-71705714Y44357446D01*
X-71705307Y44355926D01*
X-71705304Y44355919D01*
X-71626255Y44219000D01*
X-71626249Y44218992D01*
X-71552705Y44145448D01*
X-71519220Y44084125D01*
X-71524204Y44014433D01*
X-71566076Y43958500D01*
X-71631540Y43934083D01*
X-71672479Y43937992D01*
X-71691755Y43943157D01*
X-71823530Y43978466D01*
X-71981644Y43978466D01*
X-72134371Y43937543D01*
X-72134378Y43937540D01*
X-72271297Y43858491D01*
X-72271305Y43858485D01*
X-72383106Y43746684D01*
X-72383112Y43746676D01*
X-72462161Y43609757D01*
X-72462164Y43609750D01*
X-72503087Y43457023D01*
X-74770205Y43457023D01*
X-72457962Y46026182D01*
X-72398486Y46062841D01*
X-72328629Y46061527D01*
X-72324575Y46060176D01*
X-70860490Y45543440D01*
X-70803826Y45502566D01*
X-70794376Y45488511D01*
X-70783107Y45468993D01*
X-70671303Y45357189D01*
X-70671301Y45357188D01*
X-70671297Y45357185D01*
X-70551825Y45288209D01*
X-70534371Y45278132D01*
X-70381644Y45237209D01*
X-70381642Y45237209D01*
X-70223533Y45237209D01*
X-70223530Y45237209D01*
X-70129513Y45262401D01*
X-70059667Y45260738D01*
X-70056223Y45259581D01*
X-63902587Y43087709D01*
X-56902588Y43087709D01*
X-56902587Y43087709D01*
X-56812666Y44166766D01*
X-53503087Y44166766D01*
X-53503087Y44008652D01*
X-53462851Y43858491D01*
X-53462164Y43855926D01*
X-53462161Y43855919D01*
X-53383112Y43719000D01*
X-53383108Y43718995D01*
X-53383107Y43718993D01*
X-53271303Y43607189D01*
X-53271301Y43607188D01*
X-53271297Y43607185D01*
X-53150093Y43537209D01*
X-53134371Y43528132D01*
X-52981644Y43487209D01*
X-52981642Y43487209D01*
X-52823532Y43487209D01*
X-52823530Y43487209D01*
X-52670803Y43528132D01*
X-52533871Y43607189D01*
X-52422067Y43718993D01*
X-52343010Y43855925D01*
X-52302087Y44008652D01*
X-52302087Y44166766D01*
X-51003087Y44166766D01*
X-51003087Y44008652D01*
X-50962851Y43858491D01*
X-50962164Y43855926D01*
X-50962161Y43855919D01*
X-50883112Y43719000D01*
X-50883108Y43718995D01*
X-50883107Y43718993D01*
X-50771303Y43607189D01*
X-50771301Y43607188D01*
X-50771297Y43607185D01*
X-50650093Y43537209D01*
X-50634371Y43528132D01*
X-50481644Y43487209D01*
X-50481642Y43487209D01*
X-50323532Y43487209D01*
X-50323530Y43487209D01*
X-50170803Y43528132D01*
X-50033871Y43607189D01*
X-49922067Y43718993D01*
X-49843010Y43855925D01*
X-49806555Y43991979D01*
X-29703087Y43991979D01*
X-29703087Y43183440D01*
X-29700234Y43153010D01*
X-29700234Y43153008D01*
X-29655381Y43024829D01*
X-29655380Y43024827D01*
X-29574737Y42915559D01*
X-29465469Y42834916D01*
X-29422742Y42819965D01*
X-29337288Y42790063D01*
X-29306857Y42787209D01*
X-29306853Y42787209D01*
X-28498317Y42787209D01*
X-28467888Y42790063D01*
X-28467886Y42790063D01*
X-28403797Y42812490D01*
X-28339705Y42834916D01*
X-28230437Y42915559D01*
X-28149794Y43024827D01*
X-28118977Y43112897D01*
X-28104941Y43153008D01*
X-28104941Y43153010D01*
X-28102087Y43183440D01*
X-28102087Y43666556D01*
X-27703087Y43666556D01*
X-27703087Y43508863D01*
X-27672326Y43354220D01*
X-27672323Y43354208D01*
X-27611985Y43208537D01*
X-27611978Y43208524D01*
X-27524377Y43077421D01*
X-27524374Y43077417D01*
X-27412880Y42965923D01*
X-27412876Y42965920D01*
X-27281773Y42878319D01*
X-27281760Y42878312D01*
X-27137093Y42818390D01*
X-27136084Y42817972D01*
X-26995777Y42790063D01*
X-26981434Y42787210D01*
X-26981431Y42787209D01*
X-26981429Y42787209D01*
X-26823743Y42787209D01*
X-26823742Y42787210D01*
X-26669090Y42817972D01*
X-26523408Y42878315D01*
X-26392298Y42965920D01*
X-26280798Y43077420D01*
X-26193193Y43208530D01*
X-26188859Y43218992D01*
X-26155756Y43298911D01*
X-26132850Y43354212D01*
X-26102087Y43508867D01*
X-26102087Y43666551D01*
X-26102087Y43666554D01*
X-26102088Y43666556D01*
X-26112518Y43718992D01*
X-26132850Y43821206D01*
X-26148294Y43858491D01*
X-26193190Y43966882D01*
X-26193197Y43966895D01*
X-26280798Y44097998D01*
X-26280801Y44098002D01*
X-26392295Y44209496D01*
X-26392299Y44209499D01*
X-26523402Y44297100D01*
X-26523415Y44297107D01*
X-26669086Y44357445D01*
X-26669098Y44357448D01*
X-26823742Y44388209D01*
X-26823745Y44388209D01*
X-26981429Y44388209D01*
X-26981432Y44388209D01*
X-27136077Y44357448D01*
X-27136089Y44357445D01*
X-27281760Y44297107D01*
X-27281773Y44297100D01*
X-27412876Y44209499D01*
X-27412880Y44209496D01*
X-27524374Y44098002D01*
X-27524377Y44097998D01*
X-27611978Y43966895D01*
X-27611985Y43966882D01*
X-27672323Y43821211D01*
X-27672326Y43821199D01*
X-27703087Y43666556D01*
X-28102087Y43666556D01*
X-28102087Y43991979D01*
X-28104941Y44022409D01*
X-28104941Y44022411D01*
X-28145958Y44139627D01*
X-28149794Y44150591D01*
X-28230437Y44259859D01*
X-28339705Y44340502D01*
X-28339707Y44340503D01*
X-28467887Y44385356D01*
X-28498317Y44388209D01*
X-28498321Y44388209D01*
X-29306853Y44388209D01*
X-29306857Y44388209D01*
X-29337287Y44385356D01*
X-29337289Y44385356D01*
X-29465468Y44340503D01*
X-29465470Y44340502D01*
X-29574737Y44259859D01*
X-29655380Y44150592D01*
X-29655381Y44150590D01*
X-29700234Y44022411D01*
X-29700234Y44022409D01*
X-29703087Y43991979D01*
X-49806555Y43991979D01*
X-49802087Y44008652D01*
X-49802087Y44166766D01*
X-49843010Y44319493D01*
X-49881035Y44385355D01*
X-49922063Y44456419D01*
X-49922069Y44456427D01*
X-50033870Y44568228D01*
X-50033878Y44568234D01*
X-50170797Y44647283D01*
X-50170801Y44647285D01*
X-50170803Y44647286D01*
X-50323530Y44688209D01*
X-50481644Y44688209D01*
X-50634371Y44647286D01*
X-50634378Y44647283D01*
X-50771297Y44568234D01*
X-50771305Y44568228D01*
X-50883106Y44456427D01*
X-50883112Y44456419D01*
X-50962161Y44319500D01*
X-50962164Y44319493D01*
X-51003087Y44166766D01*
X-52302087Y44166766D01*
X-52343010Y44319493D01*
X-52381035Y44385355D01*
X-52422063Y44456419D01*
X-52422069Y44456427D01*
X-52533870Y44568228D01*
X-52533878Y44568234D01*
X-52670797Y44647283D01*
X-52670801Y44647285D01*
X-52670803Y44647286D01*
X-52823530Y44688209D01*
X-52981644Y44688209D01*
X-53134371Y44647286D01*
X-53134378Y44647283D01*
X-53271297Y44568234D01*
X-53271305Y44568228D01*
X-53383106Y44456427D01*
X-53383112Y44456419D01*
X-53462161Y44319500D01*
X-53462164Y44319493D01*
X-53503087Y44166766D01*
X-56812666Y44166766D01*
X-56646000Y46166766D01*
X-52003087Y46166766D01*
X-52003087Y46008653D01*
X-51962164Y45855926D01*
X-51962161Y45855919D01*
X-51883112Y45719000D01*
X-51883108Y45718995D01*
X-51883107Y45718993D01*
X-51771303Y45607189D01*
X-51771301Y45607188D01*
X-51771297Y45607185D01*
X-51634378Y45528136D01*
X-51634371Y45528132D01*
X-51481644Y45487209D01*
X-51481642Y45487209D01*
X-51323532Y45487209D01*
X-51323530Y45487209D01*
X-51170803Y45528132D01*
X-51033871Y45607189D01*
X-50974504Y45666556D01*
X-29703087Y45666556D01*
X-29703087Y45508863D01*
X-29672326Y45354220D01*
X-29672323Y45354208D01*
X-29611985Y45208537D01*
X-29611978Y45208524D01*
X-29524377Y45077421D01*
X-29524374Y45077417D01*
X-29412880Y44965923D01*
X-29412876Y44965920D01*
X-29281773Y44878319D01*
X-29281760Y44878312D01*
X-29139773Y44819500D01*
X-29136084Y44817972D01*
X-28998336Y44790572D01*
X-28981434Y44787210D01*
X-28981431Y44787209D01*
X-28981429Y44787209D01*
X-28823743Y44787209D01*
X-28823742Y44787210D01*
X-28669090Y44817972D01*
X-28523408Y44878315D01*
X-28392298Y44965920D01*
X-28280798Y45077420D01*
X-28193193Y45208530D01*
X-28132850Y45354212D01*
X-28102087Y45508867D01*
X-28102087Y45666551D01*
X-28102087Y45666554D01*
X-28102088Y45666556D01*
X-27703087Y45666556D01*
X-27703087Y45508863D01*
X-27672326Y45354220D01*
X-27672323Y45354208D01*
X-27611985Y45208537D01*
X-27611978Y45208524D01*
X-27524377Y45077421D01*
X-27524374Y45077417D01*
X-27412880Y44965923D01*
X-27412876Y44965920D01*
X-27281773Y44878319D01*
X-27281760Y44878312D01*
X-27139773Y44819500D01*
X-27136084Y44817972D01*
X-26998336Y44790572D01*
X-26981434Y44787210D01*
X-26981431Y44787209D01*
X-26981429Y44787209D01*
X-26823743Y44787209D01*
X-26823742Y44787210D01*
X-26669090Y44817972D01*
X-26523408Y44878315D01*
X-26392298Y44965920D01*
X-26280798Y45077420D01*
X-26193193Y45208530D01*
X-26132850Y45354212D01*
X-26102087Y45508867D01*
X-26102087Y45666551D01*
X-26102087Y45666554D01*
X-26102088Y45666556D01*
X-26112518Y45718992D01*
X-26132850Y45821206D01*
X-26172432Y45916766D01*
X-26193190Y45966882D01*
X-26193197Y45966895D01*
X-26280798Y46097998D01*
X-26280801Y46098002D01*
X-26392295Y46209496D01*
X-26392299Y46209499D01*
X-26523402Y46297100D01*
X-26523415Y46297107D01*
X-26669086Y46357445D01*
X-26669098Y46357448D01*
X-26823742Y46388209D01*
X-26823745Y46388209D01*
X-26981429Y46388209D01*
X-26981432Y46388209D01*
X-27136077Y46357448D01*
X-27136089Y46357445D01*
X-27281760Y46297107D01*
X-27281773Y46297100D01*
X-27412876Y46209499D01*
X-27412880Y46209496D01*
X-27524374Y46098002D01*
X-27524377Y46097998D01*
X-27611978Y45966895D01*
X-27611985Y45966882D01*
X-27672323Y45821211D01*
X-27672326Y45821199D01*
X-27703087Y45666556D01*
X-28102088Y45666556D01*
X-28112518Y45718992D01*
X-28132850Y45821206D01*
X-28172432Y45916766D01*
X-28193190Y45966882D01*
X-28193197Y45966895D01*
X-28280798Y46097998D01*
X-28280801Y46098002D01*
X-28392295Y46209496D01*
X-28392299Y46209499D01*
X-28523402Y46297100D01*
X-28523415Y46297107D01*
X-28669086Y46357445D01*
X-28669098Y46357448D01*
X-28823742Y46388209D01*
X-28823745Y46388209D01*
X-28981429Y46388209D01*
X-28981432Y46388209D01*
X-29136077Y46357448D01*
X-29136089Y46357445D01*
X-29281760Y46297107D01*
X-29281773Y46297100D01*
X-29412876Y46209499D01*
X-29412880Y46209496D01*
X-29524374Y46098002D01*
X-29524377Y46097998D01*
X-29611978Y45966895D01*
X-29611985Y45966882D01*
X-29672323Y45821211D01*
X-29672326Y45821199D01*
X-29703087Y45666556D01*
X-50974504Y45666556D01*
X-50922067Y45718993D01*
X-50918818Y45724621D01*
X-50913031Y45734643D01*
X-50863055Y45821206D01*
X-50843010Y45855925D01*
X-50802087Y46008652D01*
X-50802087Y46166766D01*
X-50843010Y46319493D01*
X-50911550Y46438209D01*
X-50922063Y46456419D01*
X-50922069Y46456427D01*
X-51033870Y46568228D01*
X-51033878Y46568234D01*
X-51170797Y46647283D01*
X-51170801Y46647285D01*
X-51170803Y46647286D01*
X-51323530Y46688209D01*
X-51481644Y46688209D01*
X-51634371Y46647286D01*
X-51634378Y46647283D01*
X-51771297Y46568234D01*
X-51771305Y46568228D01*
X-51883106Y46456427D01*
X-51883112Y46456419D01*
X-51962161Y46319500D01*
X-51962164Y46319493D01*
X-52003087Y46166766D01*
X-56646000Y46166766D01*
X-56574398Y47025997D01*
X-56549214Y47091167D01*
X-56492792Y47132379D01*
X-56479224Y47136400D01*
X-56376525Y47160554D01*
X-56354692Y47166766D01*
X-53503087Y47166766D01*
X-53503087Y47008652D01*
X-53468162Y46878312D01*
X-53462164Y46855926D01*
X-53462161Y46855919D01*
X-53383112Y46719000D01*
X-53383108Y46718995D01*
X-53383107Y46718993D01*
X-53271303Y46607189D01*
X-53271301Y46607188D01*
X-53271297Y46607185D01*
X-53203822Y46568229D01*
X-53134371Y46528132D01*
X-52981644Y46487209D01*
X-52981642Y46487209D01*
X-52823532Y46487209D01*
X-52823530Y46487209D01*
X-52670803Y46528132D01*
X-52533871Y46607189D01*
X-52422067Y46718993D01*
X-52343010Y46855925D01*
X-52302087Y47008652D01*
X-52302087Y47166766D01*
X-52343010Y47319493D01*
X-52343014Y47319500D01*
X-52422063Y47456419D01*
X-52422069Y47456427D01*
X-52533870Y47568228D01*
X-52533878Y47568234D01*
X-52670797Y47647283D01*
X-52670801Y47647285D01*
X-52670803Y47647286D01*
X-52742720Y47666556D01*
X-29703087Y47666556D01*
X-29703087Y47508863D01*
X-29672326Y47354220D01*
X-29672323Y47354208D01*
X-29611985Y47208537D01*
X-29611978Y47208524D01*
X-29524377Y47077421D01*
X-29524374Y47077417D01*
X-29412880Y46965923D01*
X-29412876Y46965920D01*
X-29281773Y46878319D01*
X-29281760Y46878312D01*
X-29139756Y46819493D01*
X-29136084Y46817972D01*
X-28981434Y46787210D01*
X-28981431Y46787209D01*
X-28981429Y46787209D01*
X-28823743Y46787209D01*
X-28823742Y46787210D01*
X-28669090Y46817972D01*
X-28523408Y46878315D01*
X-28392298Y46965920D01*
X-28280798Y47077420D01*
X-28193193Y47208530D01*
X-28132850Y47354212D01*
X-28102087Y47508867D01*
X-28102087Y47666551D01*
X-28102087Y47666554D01*
X-28102088Y47666556D01*
X-27703087Y47666556D01*
X-27703087Y47508863D01*
X-27672326Y47354220D01*
X-27672323Y47354208D01*
X-27611985Y47208537D01*
X-27611978Y47208524D01*
X-27524377Y47077421D01*
X-27524374Y47077417D01*
X-27412880Y46965923D01*
X-27412876Y46965920D01*
X-27281773Y46878319D01*
X-27281760Y46878312D01*
X-27139756Y46819493D01*
X-27136084Y46817972D01*
X-26981434Y46787210D01*
X-26981431Y46787209D01*
X-26981429Y46787209D01*
X-26823743Y46787209D01*
X-26823742Y46787210D01*
X-26669090Y46817972D01*
X-26523408Y46878315D01*
X-26392298Y46965920D01*
X-26280798Y47077420D01*
X-26193193Y47208530D01*
X-26132850Y47354212D01*
X-26102087Y47508867D01*
X-26102087Y47666551D01*
X-26102087Y47666554D01*
X-26102088Y47666556D01*
X-26129363Y47803675D01*
X-26132850Y47821206D01*
X-26148842Y47859814D01*
X-26193190Y47966882D01*
X-26193197Y47966895D01*
X-26280798Y48097998D01*
X-26280801Y48098002D01*
X-26392295Y48209496D01*
X-26392299Y48209499D01*
X-26523402Y48297100D01*
X-26523415Y48297107D01*
X-26669086Y48357445D01*
X-26669098Y48357448D01*
X-26823742Y48388209D01*
X-26823745Y48388209D01*
X-26981429Y48388209D01*
X-26981432Y48388209D01*
X-27136077Y48357448D01*
X-27136089Y48357445D01*
X-27281760Y48297107D01*
X-27281773Y48297100D01*
X-27412876Y48209499D01*
X-27412880Y48209496D01*
X-27524374Y48098002D01*
X-27524377Y48097998D01*
X-27611978Y47966895D01*
X-27611985Y47966882D01*
X-27672323Y47821211D01*
X-27672326Y47821199D01*
X-27703087Y47666556D01*
X-28102088Y47666556D01*
X-28129363Y47803675D01*
X-28132850Y47821206D01*
X-28148842Y47859814D01*
X-28193190Y47966882D01*
X-28193197Y47966895D01*
X-28280798Y48097998D01*
X-28280801Y48098002D01*
X-28392295Y48209496D01*
X-28392299Y48209499D01*
X-28523402Y48297100D01*
X-28523415Y48297107D01*
X-28669086Y48357445D01*
X-28669098Y48357448D01*
X-28823742Y48388209D01*
X-28823745Y48388209D01*
X-28981429Y48388209D01*
X-28981432Y48388209D01*
X-29136077Y48357448D01*
X-29136089Y48357445D01*
X-29281760Y48297107D01*
X-29281773Y48297100D01*
X-29412876Y48209499D01*
X-29412880Y48209496D01*
X-29524374Y48098002D01*
X-29524377Y48097998D01*
X-29611978Y47966895D01*
X-29611985Y47966882D01*
X-29672323Y47821211D01*
X-29672326Y47821199D01*
X-29703087Y47666556D01*
X-52742720Y47666556D01*
X-52823530Y47688209D01*
X-52981644Y47688209D01*
X-53134371Y47647286D01*
X-53134378Y47647283D01*
X-53271297Y47568234D01*
X-53271305Y47568228D01*
X-53383106Y47456427D01*
X-53383112Y47456419D01*
X-53462161Y47319500D01*
X-53462164Y47319493D01*
X-53503087Y47166766D01*
X-56354692Y47166766D01*
X-55996505Y47268679D01*
X-55994606Y47269201D01*
X-55904380Y47292999D01*
X-55843016Y47312304D01*
X-55839893Y47313239D01*
X-55576508Y47388178D01*
X-55189577Y47517865D01*
X-55099231Y47546285D01*
X-55040674Y47567772D01*
X-54787857Y47652507D01*
X-54395762Y47804406D01*
X-54306840Y47837032D01*
X-54252783Y47859796D01*
X-54012255Y47952977D01*
X-53615899Y48127986D01*
X-53528947Y48164600D01*
X-53479450Y48188234D01*
X-53251358Y48288946D01*
X-52851534Y48488036D01*
X-52767263Y48528270D01*
X-52722384Y48552345D01*
X-52506789Y48659698D01*
X-52104337Y48883863D01*
X-52023463Y48927242D01*
X-51983218Y48951325D01*
X-51780137Y49064440D01*
X-51375909Y49314728D01*
X-51299180Y49360639D01*
X-51263539Y49384305D01*
X-51072952Y49502310D01*
X-50667908Y49779772D01*
X-50596008Y49827509D01*
X-50564920Y49850321D01*
X-50386745Y49972373D01*
X-50129328Y50166766D01*
X-45503087Y50166766D01*
X-45503087Y50008652D01*
X-45493366Y49972375D01*
X-45462164Y49855926D01*
X-45462161Y49855919D01*
X-45383112Y49719000D01*
X-45383108Y49718995D01*
X-45383107Y49718993D01*
X-45271303Y49607189D01*
X-45271301Y49607188D01*
X-45271297Y49607185D01*
X-45137347Y49529850D01*
X-45134371Y49528132D01*
X-44981644Y49487209D01*
X-44981642Y49487209D01*
X-44823532Y49487209D01*
X-44823530Y49487209D01*
X-44670803Y49528132D01*
X-44533871Y49607189D01*
X-44474504Y49666556D01*
X-29703087Y49666556D01*
X-29703087Y49508863D01*
X-29672326Y49354220D01*
X-29672323Y49354208D01*
X-29611985Y49208537D01*
X-29611978Y49208524D01*
X-29524377Y49077421D01*
X-29524374Y49077417D01*
X-29412880Y48965923D01*
X-29412876Y48965920D01*
X-29281773Y48878319D01*
X-29281760Y48878312D01*
X-29136089Y48817974D01*
X-29136084Y48817972D01*
X-28986461Y48788210D01*
X-28981434Y48787210D01*
X-28981431Y48787209D01*
X-28981429Y48787209D01*
X-28823743Y48787209D01*
X-28823742Y48787210D01*
X-28669090Y48817972D01*
X-28523408Y48878315D01*
X-28392298Y48965920D01*
X-28280798Y49077420D01*
X-28193193Y49208530D01*
X-28132850Y49354212D01*
X-28102087Y49508867D01*
X-28102087Y49666551D01*
X-28102087Y49666554D01*
X-28102088Y49666556D01*
X-27703087Y49666556D01*
X-27703087Y49508863D01*
X-27672326Y49354220D01*
X-27672323Y49354208D01*
X-27611985Y49208537D01*
X-27611978Y49208524D01*
X-27524377Y49077421D01*
X-27524374Y49077417D01*
X-27412880Y48965923D01*
X-27412876Y48965920D01*
X-27281773Y48878319D01*
X-27281760Y48878312D01*
X-27136089Y48817974D01*
X-27136084Y48817972D01*
X-26986461Y48788210D01*
X-26981434Y48787210D01*
X-26981431Y48787209D01*
X-26981429Y48787209D01*
X-26823743Y48787209D01*
X-26823742Y48787210D01*
X-26669090Y48817972D01*
X-26523408Y48878315D01*
X-26392298Y48965920D01*
X-26280798Y49077420D01*
X-26193193Y49208530D01*
X-26132850Y49354212D01*
X-26102087Y49508867D01*
X-26102087Y49666551D01*
X-26102087Y49666554D01*
X-26102088Y49666556D01*
X-26112518Y49718992D01*
X-26132850Y49821206D01*
X-26159611Y49885813D01*
X-26193190Y49966882D01*
X-26193197Y49966895D01*
X-26280798Y50097998D01*
X-26280801Y50098002D01*
X-26392295Y50209496D01*
X-26392299Y50209499D01*
X-26523402Y50297100D01*
X-26523415Y50297107D01*
X-26669086Y50357445D01*
X-26669098Y50357448D01*
X-26823742Y50388209D01*
X-26823745Y50388209D01*
X-26981429Y50388209D01*
X-26981432Y50388209D01*
X-27136077Y50357448D01*
X-27136089Y50357445D01*
X-27281760Y50297107D01*
X-27281773Y50297100D01*
X-27412876Y50209499D01*
X-27412880Y50209496D01*
X-27524374Y50098002D01*
X-27524377Y50097998D01*
X-27611978Y49966895D01*
X-27611985Y49966882D01*
X-27672323Y49821211D01*
X-27672326Y49821199D01*
X-27703087Y49666556D01*
X-28102088Y49666556D01*
X-28112518Y49718992D01*
X-28132850Y49821206D01*
X-28159611Y49885813D01*
X-28193190Y49966882D01*
X-28193197Y49966895D01*
X-28280798Y50097998D01*
X-28280801Y50098002D01*
X-28392295Y50209496D01*
X-28392299Y50209499D01*
X-28523402Y50297100D01*
X-28523415Y50297107D01*
X-28669086Y50357445D01*
X-28669098Y50357448D01*
X-28823742Y50388209D01*
X-28823745Y50388209D01*
X-28981429Y50388209D01*
X-28981432Y50388209D01*
X-29136077Y50357448D01*
X-29136089Y50357445D01*
X-29281760Y50297107D01*
X-29281773Y50297100D01*
X-29412876Y50209499D01*
X-29412880Y50209496D01*
X-29524374Y50098002D01*
X-29524377Y50097998D01*
X-29611978Y49966895D01*
X-29611985Y49966882D01*
X-29672323Y49821211D01*
X-29672326Y49821199D01*
X-29703087Y49666556D01*
X-44474504Y49666556D01*
X-44422067Y49718993D01*
X-44418818Y49724621D01*
X-44413031Y49734643D01*
X-44363055Y49821206D01*
X-44343010Y49855925D01*
X-44302087Y50008652D01*
X-44302087Y50166766D01*
X-44343010Y50319493D01*
X-44382683Y50388209D01*
X-44422063Y50456419D01*
X-44422069Y50456427D01*
X-44533870Y50568228D01*
X-44533878Y50568234D01*
X-44670797Y50647283D01*
X-44670801Y50647285D01*
X-44670803Y50647286D01*
X-44823530Y50688209D01*
X-44981644Y50688209D01*
X-45134371Y50647286D01*
X-45134378Y50647283D01*
X-45271297Y50568234D01*
X-45271305Y50568228D01*
X-45383106Y50456427D01*
X-45383112Y50456419D01*
X-45462161Y50319500D01*
X-45462164Y50319493D01*
X-45503087Y50166766D01*
X-50129328Y50166766D01*
X-49982348Y50277761D01*
X-49981263Y50278567D01*
X-49915492Y50326825D01*
X-49890399Y50347114D01*
X-49887201Y50349611D01*
X-49723024Y50473592D01*
X-49723024Y50473593D01*
X-49722979Y50473626D01*
X-49319115Y50808991D01*
X-49259128Y50857489D01*
X-49236781Y50877361D01*
X-49155827Y50944584D01*
X-41780905Y50944584D01*
X-41780905Y50786470D01*
X-41762824Y50718993D01*
X-41739982Y50633744D01*
X-41739979Y50633737D01*
X-41660930Y50496818D01*
X-41660926Y50496813D01*
X-41660925Y50496811D01*
X-41549121Y50385007D01*
X-41549119Y50385006D01*
X-41549115Y50385003D01*
X-41412196Y50305954D01*
X-41412189Y50305950D01*
X-41259462Y50265027D01*
X-41259460Y50265027D01*
X-41101350Y50265027D01*
X-41101348Y50265027D01*
X-40948621Y50305950D01*
X-40811689Y50385007D01*
X-40699885Y50496811D01*
X-40620828Y50633743D01*
X-40579905Y50786470D01*
X-40579905Y50944584D01*
X-40620828Y51097311D01*
X-40699885Y51234243D01*
X-40811689Y51346047D01*
X-40811691Y51346048D01*
X-40811696Y51346052D01*
X-40934178Y51416766D01*
X-40410627Y51416766D01*
X-40410627Y51258651D01*
X-40392146Y51189677D01*
X-40392139Y51189653D01*
X-40369704Y51105925D01*
X-40290647Y50968993D01*
X-40178843Y50857189D01*
X-40178841Y50857188D01*
X-40178837Y50857185D01*
X-40056355Y50786471D01*
X-40041911Y50778132D01*
X-39889184Y50737209D01*
X-39889182Y50737209D01*
X-39731072Y50737209D01*
X-39731070Y50737209D01*
X-39578343Y50778132D01*
X-39441411Y50857189D01*
X-39329607Y50968993D01*
X-39250550Y51105925D01*
X-39234248Y51166766D01*
X-38003087Y51166766D01*
X-38003087Y51008652D01*
X-37962501Y50857185D01*
X-37962164Y50855926D01*
X-37962161Y50855919D01*
X-37883112Y50719000D01*
X-37883108Y50718995D01*
X-37883107Y50718993D01*
X-37771303Y50607189D01*
X-37771301Y50607188D01*
X-37771297Y50607185D01*
X-37703822Y50568229D01*
X-37634371Y50528132D01*
X-37481644Y50487209D01*
X-37481642Y50487209D01*
X-37323532Y50487209D01*
X-37323530Y50487209D01*
X-37170803Y50528132D01*
X-37033871Y50607189D01*
X-36922067Y50718993D01*
X-36843010Y50855925D01*
X-36802087Y51008652D01*
X-36802087Y51166766D01*
X-36843010Y51319493D01*
X-36858344Y51346052D01*
X-36922063Y51456419D01*
X-36922069Y51456427D01*
X-37033870Y51568228D01*
X-37033878Y51568234D01*
X-37170797Y51647283D01*
X-37170801Y51647285D01*
X-37170803Y51647286D01*
X-37242720Y51666556D01*
X-29703087Y51666556D01*
X-29703087Y51508863D01*
X-29672326Y51354220D01*
X-29672323Y51354208D01*
X-29611985Y51208537D01*
X-29611978Y51208524D01*
X-29524377Y51077421D01*
X-29524374Y51077417D01*
X-29412880Y50965923D01*
X-29412876Y50965920D01*
X-29281773Y50878319D01*
X-29281760Y50878312D01*
X-29139756Y50819493D01*
X-29136084Y50817972D01*
X-28981434Y50787210D01*
X-28981431Y50787209D01*
X-28981429Y50787209D01*
X-28823743Y50787209D01*
X-28823742Y50787210D01*
X-28669090Y50817972D01*
X-28523408Y50878315D01*
X-28392298Y50965920D01*
X-28280798Y51077420D01*
X-28193193Y51208530D01*
X-28132850Y51354212D01*
X-28102087Y51508867D01*
X-28102087Y51666551D01*
X-28102087Y51666554D01*
X-28102088Y51666556D01*
X-27703087Y51666556D01*
X-27703087Y51508863D01*
X-27672326Y51354220D01*
X-27672323Y51354208D01*
X-27611985Y51208537D01*
X-27611978Y51208524D01*
X-27524377Y51077421D01*
X-27524374Y51077417D01*
X-27412880Y50965923D01*
X-27412876Y50965920D01*
X-27281773Y50878319D01*
X-27281760Y50878312D01*
X-27139756Y50819493D01*
X-27136084Y50817972D01*
X-26981434Y50787210D01*
X-26981431Y50787209D01*
X-26981429Y50787209D01*
X-26823743Y50787209D01*
X-26823742Y50787210D01*
X-26669090Y50817972D01*
X-26523408Y50878315D01*
X-26392298Y50965920D01*
X-26280798Y51077420D01*
X-26193193Y51208530D01*
X-26132850Y51354212D01*
X-26102087Y51508867D01*
X-26102087Y51666551D01*
X-26102087Y51666554D01*
X-26102088Y51666556D01*
X-26110017Y51706419D01*
X-26132850Y51821206D01*
X-26164363Y51897286D01*
X-26193190Y51966882D01*
X-26193197Y51966895D01*
X-26280798Y52097998D01*
X-26280801Y52098002D01*
X-26392295Y52209496D01*
X-26392299Y52209499D01*
X-26523402Y52297100D01*
X-26523415Y52297107D01*
X-26669086Y52357445D01*
X-26669098Y52357448D01*
X-26823742Y52388209D01*
X-26823745Y52388209D01*
X-26981429Y52388209D01*
X-26981432Y52388209D01*
X-27136077Y52357448D01*
X-27136089Y52357445D01*
X-27281760Y52297107D01*
X-27281773Y52297100D01*
X-27412876Y52209499D01*
X-27412880Y52209496D01*
X-27524374Y52098002D01*
X-27524377Y52097998D01*
X-27611978Y51966895D01*
X-27611985Y51966882D01*
X-27672323Y51821211D01*
X-27672326Y51821199D01*
X-27703087Y51666556D01*
X-28102088Y51666556D01*
X-28110017Y51706419D01*
X-28132850Y51821206D01*
X-28164363Y51897286D01*
X-28193190Y51966882D01*
X-28193197Y51966895D01*
X-28280798Y52097998D01*
X-28280801Y52098002D01*
X-28392295Y52209496D01*
X-28392299Y52209499D01*
X-28523402Y52297100D01*
X-28523415Y52297107D01*
X-28669086Y52357445D01*
X-28669098Y52357448D01*
X-28823742Y52388209D01*
X-28823745Y52388209D01*
X-28981429Y52388209D01*
X-28981432Y52388209D01*
X-29136077Y52357448D01*
X-29136089Y52357445D01*
X-29281760Y52297107D01*
X-29281773Y52297100D01*
X-29412876Y52209499D01*
X-29412880Y52209496D01*
X-29524374Y52098002D01*
X-29524377Y52097998D01*
X-29611978Y51966895D01*
X-29611985Y51966882D01*
X-29672323Y51821211D01*
X-29672326Y51821199D01*
X-29703087Y51666556D01*
X-37242720Y51666556D01*
X-37323530Y51688209D01*
X-37481644Y51688209D01*
X-37634371Y51647286D01*
X-37634378Y51647283D01*
X-37771297Y51568234D01*
X-37771305Y51568228D01*
X-37883106Y51456427D01*
X-37883112Y51456419D01*
X-37962161Y51319500D01*
X-37962164Y51319493D01*
X-38003087Y51166766D01*
X-39234248Y51166766D01*
X-39209627Y51258652D01*
X-39209627Y51416766D01*
X-39250550Y51569493D01*
X-39250554Y51569500D01*
X-39329603Y51706419D01*
X-39329609Y51706427D01*
X-39441410Y51818228D01*
X-39441418Y51818234D01*
X-39578337Y51897283D01*
X-39578341Y51897285D01*
X-39578343Y51897286D01*
X-39731070Y51938209D01*
X-39889184Y51938209D01*
X-40041911Y51897286D01*
X-40041918Y51897283D01*
X-40178837Y51818234D01*
X-40178845Y51818228D01*
X-40290646Y51706427D01*
X-40290652Y51706419D01*
X-40369701Y51569500D01*
X-40369704Y51569493D01*
X-40410627Y51416766D01*
X-40934178Y51416766D01*
X-40948615Y51425101D01*
X-40948619Y51425103D01*
X-40948621Y51425104D01*
X-41101348Y51466027D01*
X-41259462Y51466027D01*
X-41412189Y51425104D01*
X-41412196Y51425101D01*
X-41549115Y51346052D01*
X-41549123Y51346046D01*
X-41660924Y51234245D01*
X-41660930Y51234237D01*
X-41739979Y51097318D01*
X-41739982Y51097311D01*
X-41780905Y50944584D01*
X-49155827Y50944584D01*
X-49083071Y51004999D01*
X-48681204Y51371350D01*
X-48628359Y51418335D01*
X-48610145Y51436129D01*
X-48468386Y51565358D01*
X-48069454Y51964291D01*
X-48024572Y52008131D01*
X-48010313Y52023432D01*
X-47880236Y52153508D01*
X-47485292Y52586742D01*
X-47449093Y52625579D01*
X-47438533Y52638035D01*
X-47319877Y52768193D01*
X-46929937Y53237781D01*
X-46903188Y53269322D01*
X-46896053Y53278586D01*
X-46788504Y53408101D01*
X-46404550Y53916539D01*
X-46388056Y53937946D01*
X-46384042Y53943696D01*
X-46287251Y54071867D01*
X-45910215Y54622272D01*
X-45904831Y54629980D01*
X-45903637Y54631876D01*
X-45817188Y54758074D01*
X-45379318Y55465259D01*
X-44974576Y56191911D01*
X-44603824Y56936480D01*
X-44267855Y57697377D01*
X-43967385Y58472979D01*
X-43888279Y58708998D01*
X-30753087Y58708998D01*
X-30753087Y58466421D01*
X-30721426Y58225924D01*
X-30658640Y57991605D01*
X-30565814Y57767504D01*
X-30565811Y57767497D01*
X-30444523Y57557420D01*
X-30444521Y57557417D01*
X-30444520Y57557416D01*
X-30296854Y57364973D01*
X-30296848Y57364966D01*
X-30125331Y57193449D01*
X-30125325Y57193444D01*
X-29932876Y57045773D01*
X-29722799Y56924485D01*
X-29498687Y56831655D01*
X-29264376Y56768871D01*
X-29084001Y56745125D01*
X-29023876Y56737209D01*
X-29023875Y56737209D01*
X-28781298Y56737209D01*
X-28733199Y56743542D01*
X-28540798Y56768871D01*
X-28306487Y56831655D01*
X-28082375Y56924485D01*
X-27872298Y57045773D01*
X-27679849Y57193444D01*
X-27508322Y57364971D01*
X-27360651Y57557420D01*
X-27239363Y57767497D01*
X-27146533Y57991609D01*
X-27083749Y58225920D01*
X-27052087Y58466421D01*
X-27052087Y58708997D01*
X-27083749Y58949498D01*
X-27146533Y59183809D01*
X-27239363Y59407921D01*
X-27360651Y59617998D01*
X-27508322Y59810447D01*
X-27508327Y59810453D01*
X-27679844Y59981970D01*
X-27679851Y59981976D01*
X-27872294Y60129642D01*
X-27872295Y60129643D01*
X-27872298Y60129645D01*
X-28082375Y60250933D01*
X-28082382Y60250936D01*
X-28306483Y60343762D01*
X-28540802Y60406548D01*
X-28781298Y60438209D01*
X-28781299Y60438209D01*
X-29023875Y60438209D01*
X-29023876Y60438209D01*
X-29264373Y60406548D01*
X-29498692Y60343762D01*
X-29722793Y60250936D01*
X-29722802Y60250932D01*
X-29932881Y60129642D01*
X-30125324Y59981976D01*
X-30125331Y59981970D01*
X-30296848Y59810453D01*
X-30296854Y59810446D01*
X-30444520Y59618003D01*
X-30565810Y59407924D01*
X-30565814Y59407915D01*
X-30658640Y59183814D01*
X-30721426Y58949495D01*
X-30753087Y58708998D01*
X-43888279Y58708998D01*
X-43703056Y59261630D01*
X-43475432Y60061647D01*
X-43284998Y60871322D01*
X-43136304Y61666766D01*
X-35003087Y61666766D01*
X-35003087Y61508652D01*
X-34975844Y61406982D01*
X-34962164Y61355926D01*
X-34962161Y61355919D01*
X-34883112Y61219000D01*
X-34883108Y61218995D01*
X-34883107Y61218993D01*
X-34771303Y61107189D01*
X-34771301Y61107188D01*
X-34771297Y61107185D01*
X-34634378Y61028136D01*
X-34634371Y61028132D01*
X-34481644Y60987209D01*
X-34481642Y60987209D01*
X-34323532Y60987209D01*
X-34323530Y60987209D01*
X-34170803Y61028132D01*
X-34033871Y61107189D01*
X-33922067Y61218993D01*
X-33843010Y61355925D01*
X-33802087Y61508652D01*
X-33802087Y61666766D01*
X-33843010Y61819493D01*
X-33860346Y61849520D01*
X-33922063Y61956419D01*
X-33922069Y61956427D01*
X-34033870Y62068228D01*
X-34033878Y62068234D01*
X-34170797Y62147283D01*
X-34170801Y62147285D01*
X-34170803Y62147286D01*
X-34323530Y62188209D01*
X-34481644Y62188209D01*
X-34634371Y62147286D01*
X-34634378Y62147283D01*
X-34771297Y62068234D01*
X-34771305Y62068228D01*
X-34883106Y61956427D01*
X-34883112Y61956419D01*
X-34962161Y61819500D01*
X-34962164Y61819493D01*
X-35003087Y61666766D01*
X-43136304Y61666766D01*
X-43132161Y61688929D01*
X-43017247Y62512722D01*
X-42940501Y63340943D01*
X-42902087Y64171824D01*
X-42902087Y64463209D01*
X-42882402Y64530248D01*
X-42829598Y64576003D01*
X-42778087Y64587209D01*
X-27905149Y64587209D01*
X-27900025Y64587103D01*
G37*
%TD.AperFunction*%
%TD*%
M02*
