%TF.GenerationSoftware,KiCad,Pcbnew,9.0.3*%
%TF.CreationDate,2025-10-14T09:07:42-04:00*%
%TF.ProjectId,flight_stick,666c6967-6874-45f7-9374-69636b2e6b69,5*%
%TF.SameCoordinates,Original*%
%TF.FileFunction,Soldermask,Top*%
%TF.FilePolarity,Negative*%
%FSLAX46Y46*%
G04 Gerber Fmt 4.6, Leading zero omitted, Abs format (unit mm)*
G04 Created by KiCad (PCBNEW 9.0.3) date 2025-10-14 09:07:42*
%MOMM*%
%LPD*%
G01*
G04 APERTURE LIST*
G04 Aperture macros list*
%AMRoundRect*
0 Rectangle with rounded corners*
0 $1 Rounding radius*
0 $2 $3 $4 $5 $6 $7 $8 $9 X,Y pos of 4 corners*
0 Add a 4 corners polygon primitive as box body*
4,1,4,$2,$3,$4,$5,$6,$7,$8,$9,$2,$3,0*
0 Add four circle primitives for the rounded corners*
1,1,$1+$1,$2,$3*
1,1,$1+$1,$4,$5*
1,1,$1+$1,$6,$7*
1,1,$1+$1,$8,$9*
0 Add four rect primitives between the rounded corners*
20,1,$1+$1,$2,$3,$4,$5,0*
20,1,$1+$1,$4,$5,$6,$7,0*
20,1,$1+$1,$6,$7,$8,$9,0*
20,1,$1+$1,$8,$9,$2,$3,0*%
%AMHorizOval*
0 Thick line with rounded ends*
0 $1 width*
0 $2 $3 position (X,Y) of the first rounded end (center of the circle)*
0 $4 $5 position (X,Y) of the second rounded end (center of the circle)*
0 Add line between two ends*
20,1,$1,$2,$3,$4,$5,0*
0 Add two circle primitives to create the rounded ends*
1,1,$1,$2,$3*
1,1,$1,$4,$5*%
%AMRotRect*
0 Rectangle, with rotation*
0 The origin of the aperture is its center*
0 $1 length*
0 $2 width*
0 $3 Rotation angle, in degrees counterclockwise*
0 Add horizontal line*
21,1,$1,$2,0,0,$3*%
G04 Aperture macros list end*
%ADD10RoundRect,0.250000X-0.262500X-0.450000X0.262500X-0.450000X0.262500X0.450000X-0.262500X0.450000X0*%
%ADD11RoundRect,0.225000X0.250000X-0.225000X0.250000X0.225000X-0.250000X0.225000X-0.250000X-0.225000X0*%
%ADD12RoundRect,0.200000X-0.053033X0.335876X-0.335876X0.053033X0.053033X-0.335876X0.335876X-0.053033X0*%
%ADD13RoundRect,0.200000X0.053033X-0.335876X0.335876X-0.053033X-0.053033X0.335876X-0.335876X0.053033X0*%
%ADD14RoundRect,0.062500X0.309359X-0.220971X-0.220971X0.309359X-0.309359X0.220971X0.220971X-0.309359X0*%
%ADD15RoundRect,0.062500X0.309359X0.220971X0.220971X0.309359X-0.309359X-0.220971X-0.220971X-0.309359X0*%
%ADD16RotRect,5.600000X5.600000X135.000000*%
%ADD17RoundRect,0.225000X-0.225000X-0.250000X0.225000X-0.250000X0.225000X0.250000X-0.225000X0.250000X0*%
%ADD18RotRect,1.000000X1.000000X45.000000*%
%ADD19C,1.000000*%
%ADD20RoundRect,0.100000X-0.100000X0.712500X-0.100000X-0.712500X0.100000X-0.712500X0.100000X0.712500X0*%
%ADD21RoundRect,0.225000X0.017678X-0.335876X0.335876X-0.017678X-0.017678X0.335876X-0.335876X0.017678X0*%
%ADD22RoundRect,0.250000X0.088388X-0.936916X0.936916X-0.088388X-0.088388X0.936916X-0.936916X0.088388X0*%
%ADD23HorizOval,1.700000X-0.088388X0.088388X0.088388X-0.088388X0*%
%ADD24RotRect,0.600000X1.450000X315.000000*%
%ADD25RotRect,0.300000X1.450000X315.000000*%
%ADD26HorizOval,1.000000X-0.388909X-0.388909X0.388909X0.388909X0*%
%ADD27HorizOval,1.000000X-0.212132X-0.212132X0.212132X0.212132X0*%
%ADD28RoundRect,0.200000X-0.275000X0.200000X-0.275000X-0.200000X0.275000X-0.200000X0.275000X0.200000X0*%
%ADD29RoundRect,0.200000X0.275000X-0.200000X0.275000X0.200000X-0.275000X0.200000X-0.275000X-0.200000X0*%
%ADD30RoundRect,0.140000X0.021213X-0.219203X0.219203X-0.021213X-0.021213X0.219203X-0.219203X0.021213X0*%
%ADD31RoundRect,0.200000X0.200000X0.275000X-0.200000X0.275000X-0.200000X-0.275000X0.200000X-0.275000X0*%
%ADD32RoundRect,0.125000X-0.468458X0.291682X0.291682X-0.468458X0.468458X-0.291682X-0.291682X0.468458X0*%
%ADD33RoundRect,0.062500X0.062500X-0.312500X0.062500X0.312500X-0.062500X0.312500X-0.062500X-0.312500X0*%
%ADD34R,2.400000X0.840000*%
%ADD35RotRect,0.204000X0.807999X45.000000*%
%ADD36RotRect,0.204000X0.807999X315.000000*%
%ADD37RotRect,1.750000X1.750000X315.000000*%
%ADD38RoundRect,0.243750X0.243750X0.456250X-0.243750X0.456250X-0.243750X-0.456250X0.243750X-0.456250X0*%
%ADD39RoundRect,0.225000X-0.250000X0.225000X-0.250000X-0.225000X0.250000X-0.225000X0.250000X0.225000X0*%
%ADD40R,0.750000X0.300000*%
%ADD41R,1.300000X1.500000*%
%ADD42RoundRect,0.225000X-0.017678X0.335876X-0.335876X0.017678X0.017678X-0.335876X0.335876X-0.017678X0*%
%ADD43RoundRect,0.250000X-1.400000X-1.000000X1.400000X-1.000000X1.400000X1.000000X-1.400000X1.000000X0*%
%ADD44RoundRect,0.160000X0.240000X-0.565000X0.240000X0.565000X-0.240000X0.565000X-0.240000X-0.565000X0*%
%ADD45RoundRect,0.120000X0.180000X-0.605000X0.180000X0.605000X-0.180000X0.605000X-0.180000X-0.605000X0*%
%ADD46RoundRect,0.225000X0.225000X0.250000X-0.225000X0.250000X-0.225000X-0.250000X0.225000X-0.250000X0*%
%ADD47RoundRect,0.200000X-0.200000X-0.275000X0.200000X-0.275000X0.200000X0.275000X-0.200000X0.275000X0*%
%ADD48RoundRect,0.225000X0.335876X0.017678X0.017678X0.335876X-0.335876X-0.017678X-0.017678X-0.335876X0*%
%ADD49RotRect,0.400000X1.900000X45.000000*%
%ADD50RoundRect,0.250000X0.350000X-0.350000X0.350000X0.350000X-0.350000X0.350000X-0.350000X-0.350000X0*%
%ADD51C,1.200000*%
%ADD52RotRect,2.400000X0.740000X45.000000*%
%ADD53RoundRect,0.150000X-0.512500X-0.150000X0.512500X-0.150000X0.512500X0.150000X-0.512500X0.150000X0*%
%ADD54RotRect,0.889000X0.990600X315.000000*%
%ADD55RotRect,1.701800X0.558800X315.000000*%
%ADD56R,1.000000X1.000000*%
%ADD57RoundRect,0.218750X-0.256250X0.218750X-0.256250X-0.218750X0.256250X-0.218750X0.256250X0.218750X0*%
%ADD58RoundRect,0.250000X1.400000X1.000000X-1.400000X1.000000X-1.400000X-1.000000X1.400000X-1.000000X0*%
G04 APERTURE END LIST*
D10*
%TO.C,R4*%
X-56134100Y25571600D03*
X-54309100Y25571600D03*
%TD*%
D11*
%TO.C,C4*%
X-88902587Y52812709D03*
X-88902587Y54362709D03*
%TD*%
D12*
%TO.C,R14*%
X-79319224Y55671072D03*
X-80485950Y54504346D03*
%TD*%
D13*
%TO.C,R24*%
X-84485950Y31004346D03*
X-83319224Y32171072D03*
%TD*%
D14*
%TO.C,U4*%
X-60416451Y32212486D03*
X-60062898Y32566039D03*
X-59709344Y32919593D03*
X-59355791Y33273146D03*
X-59002238Y33626699D03*
X-58648684Y33980253D03*
X-58295131Y34333806D03*
X-57941577Y34687360D03*
X-57588024Y35040913D03*
X-57234471Y35394466D03*
X-56880917Y35748020D03*
X-56527364Y36101573D03*
D15*
X-56527364Y37073845D03*
X-56880917Y37427398D03*
X-57234471Y37780952D03*
X-57588024Y38134505D03*
X-57941577Y38488058D03*
X-58295131Y38841612D03*
X-58648684Y39195165D03*
X-59002238Y39548719D03*
X-59355791Y39902272D03*
X-59709344Y40255825D03*
X-60062898Y40609379D03*
X-60416451Y40962932D03*
D14*
X-61388723Y40962932D03*
X-61742276Y40609379D03*
X-62095830Y40255825D03*
X-62449383Y39902272D03*
X-62802936Y39548719D03*
X-63156490Y39195165D03*
X-63510043Y38841612D03*
X-63863597Y38488058D03*
X-64217150Y38134505D03*
X-64570703Y37780952D03*
X-64924257Y37427398D03*
X-65277810Y37073845D03*
D15*
X-65277810Y36101573D03*
X-64924257Y35748020D03*
X-64570703Y35394466D03*
X-64217150Y35040913D03*
X-63863597Y34687360D03*
X-63510043Y34333806D03*
X-63156490Y33980253D03*
X-62802936Y33626699D03*
X-62449383Y33273146D03*
X-62095830Y32919593D03*
X-61742276Y32566039D03*
X-61388723Y32212486D03*
D16*
X-60902587Y36587709D03*
%TD*%
D17*
%TO.C,C11*%
X-86177587Y56087709D03*
X-84627587Y56087709D03*
%TD*%
D18*
%TO.C,J12*%
X-75596664Y50781787D03*
D19*
X-74698638Y49883761D03*
X-73800613Y48985736D03*
X-72902587Y48087710D03*
%TD*%
D20*
%TO.C,U7*%
X-90927587Y52200209D03*
X-91577587Y52200209D03*
X-92227587Y52200209D03*
X-92877587Y52200209D03*
X-92877587Y47975209D03*
X-92227587Y47975209D03*
X-91577587Y47975209D03*
X-90927587Y47975209D03*
%TD*%
D21*
%TO.C,C13*%
X-74950595Y43039701D03*
X-73854579Y44135717D03*
%TD*%
D22*
%TO.C,J1*%
X-33938121Y30052175D03*
D23*
X-32170354Y31819942D03*
X-30402587Y33587709D03*
X-28634820Y35355476D03*
%TD*%
D24*
%TO.C,J10*%
X-90840437Y39246053D03*
X-90274752Y38680368D03*
D25*
X-89426224Y37831839D03*
X-88719117Y37124733D03*
X-88365563Y36771179D03*
X-87658457Y36064072D03*
D24*
X-86809928Y35215544D03*
X-86244243Y34649859D03*
X-86244243Y34649859D03*
X-86809928Y35215544D03*
D25*
X-87304903Y35710519D03*
X-88012010Y36417626D03*
X-89072670Y37478286D03*
X-89779777Y38185393D03*
D24*
X-90274752Y38680368D03*
X-90840437Y39246053D03*
D26*
X-92244044Y39355655D03*
D27*
X-95199750Y36399948D03*
D26*
X-86134641Y33246252D03*
D27*
X-89090348Y30290546D03*
%TD*%
D28*
%TO.C,R3*%
X-53902587Y44912709D03*
X-53902587Y43262709D03*
%TD*%
D29*
%TO.C,R8*%
X-40902587Y52737712D03*
X-40902587Y54387712D03*
%TD*%
D30*
%TO.C,C23*%
X-49241998Y27748298D03*
X-48563176Y28427120D03*
%TD*%
D21*
%TO.C,C17*%
X-54450595Y33539701D03*
X-53354579Y34635717D03*
%TD*%
D11*
%TO.C,C3*%
X-57402587Y14812709D03*
X-57402587Y16362709D03*
%TD*%
D31*
%TO.C,R13*%
X-65077587Y45587709D03*
X-66727587Y45587709D03*
%TD*%
D32*
%TO.C,U6*%
X-47017492Y27581472D03*
X-47477111Y27121853D03*
X-47936731Y26662233D03*
X-48396350Y26202614D03*
X-46787682Y24593946D03*
X-46328063Y25053565D03*
X-45868443Y25513185D03*
X-45408824Y25972804D03*
%TD*%
D33*
%TO.C,U8*%
X-61421600Y16071598D03*
X-60921600Y16071599D03*
X-60421600Y16071599D03*
X-59921600Y16071599D03*
X-59421599Y16071599D03*
X-59421600Y18071600D03*
X-59921600Y18071599D03*
X-60421600Y18071599D03*
X-60921600Y18071599D03*
X-61421601Y18071599D03*
D34*
X-60421600Y17071599D03*
%TD*%
D11*
%TO.C,C1*%
X-63902587Y14812709D03*
X-63902587Y16362709D03*
%TD*%
D35*
%TO.C,U3*%
X-81271211Y45763189D03*
X-81554055Y45480345D03*
X-81836897Y45197503D03*
X-82119739Y44914661D03*
X-82402583Y44631817D03*
D36*
X-82402583Y43719085D03*
X-82119739Y43436241D03*
X-81836897Y43153399D03*
X-81554055Y42870557D03*
X-81271211Y42587713D03*
D35*
X-80358479Y42587713D03*
X-80075635Y42870557D03*
X-79792793Y43153399D03*
X-79509951Y43436241D03*
X-79227107Y43719085D03*
D36*
X-79227107Y44631817D03*
X-79509951Y44914661D03*
X-79792793Y45197503D03*
X-80075635Y45480345D03*
X-80358479Y45763189D03*
D37*
X-80814845Y44175451D03*
%TD*%
D13*
%TO.C,R23*%
X-94985950Y40504346D03*
X-93819224Y41671072D03*
%TD*%
D38*
%TO.C,D1*%
X-50384100Y24971600D03*
X-52259100Y24971600D03*
%TD*%
D28*
%TO.C,R16*%
X-84402587Y59912709D03*
X-84402587Y58262709D03*
%TD*%
D39*
%TO.C,C6*%
X-88902587Y50862709D03*
X-88902587Y49312709D03*
%TD*%
D17*
%TO.C,C16*%
X-61677587Y30087709D03*
X-60127587Y30087709D03*
%TD*%
D40*
%TO.C,U2*%
X-46902586Y45587708D03*
X-46902586Y46087708D03*
X-46902586Y46587708D03*
X-46902586Y47087708D03*
X-49802586Y47087708D03*
X-49802586Y46587708D03*
X-49802586Y46087708D03*
X-49802586Y45587708D03*
D41*
X-48352586Y46337708D03*
%TD*%
D39*
%TO.C,C2*%
X-57402587Y20862709D03*
X-57402587Y19312709D03*
%TD*%
D42*
%TO.C,C14*%
X-74854579Y46135717D03*
X-75950595Y45039701D03*
%TD*%
D29*
%TO.C,R9*%
X-38902587Y52737712D03*
X-38902587Y54387712D03*
%TD*%
D42*
%TO.C,C18*%
X-66854579Y38635717D03*
X-67950595Y37539701D03*
%TD*%
D12*
%TO.C,R15*%
X-77319224Y54171072D03*
X-78485950Y53004346D03*
%TD*%
D43*
%TO.C,D6*%
X-68921600Y21971600D03*
X-68921600Y15171600D03*
%TD*%
D44*
%TO.C,D4*%
X-40002587Y57062709D03*
D45*
X-38952587Y57062709D03*
D44*
X-37902587Y57062709D03*
X-37902587Y60112709D03*
D45*
X-38952587Y60112709D03*
D44*
X-40002587Y60112709D03*
%TD*%
D22*
%TO.C,J3*%
X-44705888Y19284408D03*
D23*
X-42938121Y21052175D03*
X-41170354Y22819942D03*
X-39402587Y24587709D03*
%TD*%
D29*
%TO.C,R10*%
X-36902587Y52737712D03*
X-36902587Y54387712D03*
%TD*%
D46*
%TO.C,C5*%
X-91127587Y45587709D03*
X-92677587Y45587709D03*
%TD*%
D47*
%TO.C,R7*%
X-77727587Y32087709D03*
X-76077587Y32087709D03*
%TD*%
D48*
%TO.C,C12*%
X-76354579Y47539701D03*
X-77450595Y48635717D03*
%TD*%
D39*
%TO.C,C8*%
X-68902587Y45362709D03*
X-68902587Y43812709D03*
%TD*%
D49*
%TO.C,Y1*%
X-57751115Y30890653D03*
X-56902587Y31739181D03*
X-56054059Y32587709D03*
%TD*%
D48*
%TO.C,C9*%
X-80354579Y51539701D03*
X-81450595Y52635717D03*
%TD*%
D28*
%TO.C,R2*%
X-51902587Y44912709D03*
X-51902587Y43262709D03*
%TD*%
D12*
%TO.C,R20*%
X-74138237Y22154963D03*
X-75304963Y20988237D03*
%TD*%
D50*
%TO.C,J2*%
X-28902587Y43587709D03*
D51*
X-26902587Y43587709D03*
X-28902587Y45587709D03*
X-26902587Y45587709D03*
X-28902587Y47587709D03*
X-26902587Y47587709D03*
X-28902587Y49587709D03*
X-26902587Y49587709D03*
X-28902587Y51587709D03*
X-26902587Y51587709D03*
%TD*%
D52*
%TO.C,J9*%
X-85475522Y25902928D03*
X-82717806Y28660644D03*
X-84577496Y25004902D03*
X-81819780Y27762618D03*
X-83679471Y24106876D03*
X-80921754Y26864593D03*
X-82781445Y23208851D03*
X-80023729Y25966567D03*
X-81883420Y22310825D03*
X-79125703Y25068542D03*
X-80985394Y21412800D03*
X-78227678Y24170516D03*
X-80087368Y20514774D03*
X-77329652Y23272490D03*
%TD*%
D53*
%TO.C,U5*%
X-78040087Y36537709D03*
X-78040087Y35587709D03*
X-78040087Y34637709D03*
X-75765087Y34637709D03*
X-75765087Y35587709D03*
X-75765087Y36537709D03*
%TD*%
D54*
%TO.C,SW1*%
X-77289363Y19102107D03*
X-74390228Y16202972D03*
X-78420736Y17970734D03*
X-75521601Y15071599D03*
D55*
X-75397854Y18094481D03*
%TD*%
D56*
%TO.C,J4*%
X-80702587Y62787709D03*
D19*
X-80702587Y61517709D03*
X-80702587Y60247709D03*
X-80702587Y58977709D03*
%TD*%
D39*
%TO.C,C19*%
X-55902587Y44862709D03*
X-55902587Y43312709D03*
%TD*%
D56*
%TO.C,J6*%
X-62712586Y44587709D03*
D19*
X-61442586Y44587709D03*
X-60172586Y44587709D03*
X-58902586Y44587709D03*
%TD*%
D57*
%TO.C,L2*%
X-63902587Y20375209D03*
X-63902587Y18800209D03*
%TD*%
D58*
%TO.C,D7*%
X-52721600Y15171600D03*
X-52721600Y21971600D03*
%TD*%
D31*
%TO.C,R12*%
X-65077587Y43587709D03*
X-66727587Y43587709D03*
%TD*%
D28*
%TO.C,R17*%
X-86402587Y59912709D03*
X-86402587Y58262709D03*
%TD*%
M02*
