%TF.GenerationSoftware,KiCad,Pcbnew,9.0.3*%
%TF.CreationDate,2025-10-08T17:43:42-04:00*%
%TF.ProjectId,flight_stick,666c6967-6874-45f7-9374-69636b2e6b69,5*%
%TF.SameCoordinates,Original*%
%TF.FileFunction,Copper,L1,Top*%
%TF.FilePolarity,Positive*%
%FSLAX46Y46*%
G04 Gerber Fmt 4.6, Leading zero omitted, Abs format (unit mm)*
G04 Created by KiCad (PCBNEW 9.0.3) date 2025-10-08 17:43:42*
%MOMM*%
%LPD*%
G01*
G04 APERTURE LIST*
G04 Aperture macros list*
%AMRoundRect*
0 Rectangle with rounded corners*
0 $1 Rounding radius*
0 $2 $3 $4 $5 $6 $7 $8 $9 X,Y pos of 4 corners*
0 Add a 4 corners polygon primitive as box body*
4,1,4,$2,$3,$4,$5,$6,$7,$8,$9,$2,$3,0*
0 Add four circle primitives for the rounded corners*
1,1,$1+$1,$2,$3*
1,1,$1+$1,$4,$5*
1,1,$1+$1,$6,$7*
1,1,$1+$1,$8,$9*
0 Add four rect primitives between the rounded corners*
20,1,$1+$1,$2,$3,$4,$5,0*
20,1,$1+$1,$4,$5,$6,$7,0*
20,1,$1+$1,$6,$7,$8,$9,0*
20,1,$1+$1,$8,$9,$2,$3,0*%
%AMHorizOval*
0 Thick line with rounded ends*
0 $1 width*
0 $2 $3 position (X,Y) of the first rounded end (center of the circle)*
0 $4 $5 position (X,Y) of the second rounded end (center of the circle)*
0 Add line between two ends*
20,1,$1,$2,$3,$4,$5,0*
0 Add two circle primitives to create the rounded ends*
1,1,$1,$2,$3*
1,1,$1,$4,$5*%
%AMRotRect*
0 Rectangle, with rotation*
0 The origin of the aperture is its center*
0 $1 length*
0 $2 width*
0 $3 Rotation angle, in degrees counterclockwise*
0 Add horizontal line*
21,1,$1,$2,0,0,$3*%
G04 Aperture macros list end*
%TA.AperFunction,EtchedComponent*%
%ADD10C,0.000000*%
%TD*%
%TA.AperFunction,SMDPad,CuDef*%
%ADD11RoundRect,0.250000X-0.262500X-0.450000X0.262500X-0.450000X0.262500X0.450000X-0.262500X0.450000X0*%
%TD*%
%TA.AperFunction,SMDPad,CuDef*%
%ADD12RoundRect,0.225000X0.250000X-0.225000X0.250000X0.225000X-0.250000X0.225000X-0.250000X-0.225000X0*%
%TD*%
%TA.AperFunction,SMDPad,CuDef*%
%ADD13RoundRect,0.200000X-0.053033X0.335876X-0.335876X0.053033X0.053033X-0.335876X0.335876X-0.053033X0*%
%TD*%
%TA.AperFunction,SMDPad,CuDef*%
%ADD14RoundRect,0.200000X0.053033X-0.335876X0.335876X-0.053033X-0.053033X0.335876X-0.335876X0.053033X0*%
%TD*%
%TA.AperFunction,SMDPad,CuDef*%
%ADD15RoundRect,0.062500X0.309359X-0.220971X-0.220971X0.309359X-0.309359X0.220971X0.220971X-0.309359X0*%
%TD*%
%TA.AperFunction,SMDPad,CuDef*%
%ADD16RoundRect,0.062500X0.309359X0.220971X0.220971X0.309359X-0.309359X-0.220971X-0.220971X-0.309359X0*%
%TD*%
%TA.AperFunction,HeatsinkPad*%
%ADD17RotRect,5.600000X5.600000X135.000000*%
%TD*%
%TA.AperFunction,SMDPad,CuDef*%
%ADD18RoundRect,0.225000X-0.225000X-0.250000X0.225000X-0.250000X0.225000X0.250000X-0.225000X0.250000X0*%
%TD*%
%TA.AperFunction,ComponentPad*%
%ADD19RotRect,1.000000X1.000000X45.000000*%
%TD*%
%TA.AperFunction,ComponentPad*%
%ADD20C,1.000000*%
%TD*%
%TA.AperFunction,SMDPad,CuDef*%
%ADD21RoundRect,0.100000X-0.100000X0.712500X-0.100000X-0.712500X0.100000X-0.712500X0.100000X0.712500X0*%
%TD*%
%TA.AperFunction,SMDPad,CuDef*%
%ADD22RoundRect,0.225000X0.017678X-0.335876X0.335876X-0.017678X-0.017678X0.335876X-0.335876X0.017678X0*%
%TD*%
%TA.AperFunction,ComponentPad*%
%ADD23RoundRect,0.250000X0.088388X-0.936916X0.936916X-0.088388X-0.088388X0.936916X-0.936916X0.088388X0*%
%TD*%
%TA.AperFunction,ComponentPad*%
%ADD24HorizOval,1.700000X-0.088388X0.088388X0.088388X-0.088388X0*%
%TD*%
%TA.AperFunction,SMDPad,CuDef*%
%ADD25RotRect,0.600000X1.450000X315.000000*%
%TD*%
%TA.AperFunction,SMDPad,CuDef*%
%ADD26RotRect,0.300000X1.450000X315.000000*%
%TD*%
%TA.AperFunction,HeatsinkPad*%
%ADD27HorizOval,1.000000X-0.388909X-0.388909X0.388909X0.388909X0*%
%TD*%
%TA.AperFunction,HeatsinkPad*%
%ADD28HorizOval,1.000000X-0.212132X-0.212132X0.212132X0.212132X0*%
%TD*%
%TA.AperFunction,SMDPad,CuDef*%
%ADD29RoundRect,0.200000X-0.275000X0.200000X-0.275000X-0.200000X0.275000X-0.200000X0.275000X0.200000X0*%
%TD*%
%TA.AperFunction,SMDPad,CuDef*%
%ADD30RoundRect,0.200000X0.275000X-0.200000X0.275000X0.200000X-0.275000X0.200000X-0.275000X-0.200000X0*%
%TD*%
%TA.AperFunction,SMDPad,CuDef*%
%ADD31RoundRect,0.140000X0.021213X-0.219203X0.219203X-0.021213X-0.021213X0.219203X-0.219203X0.021213X0*%
%TD*%
%TA.AperFunction,ComponentPad*%
%ADD32C,1.300000*%
%TD*%
%TA.AperFunction,SMDPad,CuDef*%
%ADD33RoundRect,0.200000X0.200000X0.275000X-0.200000X0.275000X-0.200000X-0.275000X0.200000X-0.275000X0*%
%TD*%
%TA.AperFunction,SMDPad,CuDef*%
%ADD34RoundRect,0.125000X-0.468458X0.291682X0.291682X-0.468458X0.468458X-0.291682X-0.291682X0.468458X0*%
%TD*%
%TA.AperFunction,SMDPad,CuDef*%
%ADD35RotRect,0.204000X0.807999X45.000000*%
%TD*%
%TA.AperFunction,SMDPad,CuDef*%
%ADD36RotRect,0.204000X0.807999X315.000000*%
%TD*%
%TA.AperFunction,SMDPad,CuDef*%
%ADD37RotRect,1.750000X1.750000X315.000000*%
%TD*%
%TA.AperFunction,SMDPad,CuDef*%
%ADD38RoundRect,0.243750X0.243750X0.456250X-0.243750X0.456250X-0.243750X-0.456250X0.243750X-0.456250X0*%
%TD*%
%TA.AperFunction,SMDPad,CuDef*%
%ADD39RoundRect,0.225000X-0.250000X0.225000X-0.250000X-0.225000X0.250000X-0.225000X0.250000X0.225000X0*%
%TD*%
%TA.AperFunction,SMDPad,CuDef*%
%ADD40R,0.750000X0.300000*%
%TD*%
%TA.AperFunction,SMDPad,CuDef*%
%ADD41R,1.300000X1.500000*%
%TD*%
%TA.AperFunction,SMDPad,CuDef*%
%ADD42RoundRect,0.225000X-0.017678X0.335876X-0.335876X0.017678X0.017678X-0.335876X0.335876X-0.017678X0*%
%TD*%
%TA.AperFunction,SMDPad,CuDef*%
%ADD43RoundRect,0.250000X-1.400000X-1.000000X1.400000X-1.000000X1.400000X1.000000X-1.400000X1.000000X0*%
%TD*%
%TA.AperFunction,SMDPad,CuDef*%
%ADD44RoundRect,0.160000X0.240000X-0.565000X0.240000X0.565000X-0.240000X0.565000X-0.240000X-0.565000X0*%
%TD*%
%TA.AperFunction,SMDPad,CuDef*%
%ADD45RoundRect,0.120000X0.180000X-0.605000X0.180000X0.605000X-0.180000X0.605000X-0.180000X-0.605000X0*%
%TD*%
%TA.AperFunction,SMDPad,CuDef*%
%ADD46RoundRect,0.225000X0.225000X0.250000X-0.225000X0.250000X-0.225000X-0.250000X0.225000X-0.250000X0*%
%TD*%
%TA.AperFunction,SMDPad,CuDef*%
%ADD47RoundRect,0.200000X-0.200000X-0.275000X0.200000X-0.275000X0.200000X0.275000X-0.200000X0.275000X0*%
%TD*%
%TA.AperFunction,SMDPad,CuDef*%
%ADD48RoundRect,0.225000X0.335876X0.017678X0.017678X0.335876X-0.335876X-0.017678X-0.017678X-0.335876X0*%
%TD*%
%TA.AperFunction,SMDPad,CuDef*%
%ADD49RotRect,0.400000X1.900000X45.000000*%
%TD*%
%TA.AperFunction,ComponentPad*%
%ADD50RoundRect,0.250000X0.350000X-0.350000X0.350000X0.350000X-0.350000X0.350000X-0.350000X-0.350000X0*%
%TD*%
%TA.AperFunction,ComponentPad*%
%ADD51C,1.200000*%
%TD*%
%TA.AperFunction,SMDPad,CuDef*%
%ADD52RotRect,2.400000X0.740000X45.000000*%
%TD*%
%TA.AperFunction,SMDPad,CuDef*%
%ADD53RoundRect,0.150000X-0.512500X-0.150000X0.512500X-0.150000X0.512500X0.150000X-0.512500X0.150000X0*%
%TD*%
%TA.AperFunction,SMDPad,CuDef*%
%ADD54RotRect,0.889000X0.990600X315.000000*%
%TD*%
%TA.AperFunction,SMDPad,CuDef*%
%ADD55RotRect,1.701800X0.558800X315.000000*%
%TD*%
%TA.AperFunction,ComponentPad*%
%ADD56R,1.000000X1.000000*%
%TD*%
%TA.AperFunction,SMDPad,CuDef*%
%ADD57RoundRect,0.218750X-0.256250X0.218750X-0.256250X-0.218750X0.256250X-0.218750X0.256250X0.218750X0*%
%TD*%
%TA.AperFunction,SMDPad,CuDef*%
%ADD58RoundRect,0.250000X1.400000X1.000000X-1.400000X1.000000X-1.400000X-1.000000X1.400000X-1.000000X0*%
%TD*%
%TA.AperFunction,SMDPad,CuDef*%
%ADD59RoundRect,0.062500X0.062500X-0.312500X0.062500X0.312500X-0.062500X0.312500X-0.062500X-0.312500X0*%
%TD*%
%TA.AperFunction,HeatsinkPad*%
%ADD60C,0.500000*%
%TD*%
%TA.AperFunction,HeatsinkPad*%
%ADD61R,2.400000X0.840000*%
%TD*%
%TA.AperFunction,ViaPad*%
%ADD62C,0.800000*%
%TD*%
%TA.AperFunction,Conductor*%
%ADD63C,0.250000*%
%TD*%
%TA.AperFunction,Conductor*%
%ADD64C,0.200000*%
%TD*%
%TA.AperFunction,Conductor*%
%ADD65C,0.300000*%
%TD*%
%TA.AperFunction,Conductor*%
%ADD66C,0.500000*%
%TD*%
%TA.AperFunction,Conductor*%
%ADD67C,1.000000*%
%TD*%
%TA.AperFunction,Conductor*%
%ADD68C,0.800000*%
%TD*%
%TA.AperFunction,Conductor*%
%ADD69C,0.400000*%
%TD*%
%TA.AperFunction,Conductor*%
%ADD70C,0.600000*%
%TD*%
G04 APERTURE END LIST*
D10*
%TA.AperFunction,EtchedComponent*%
%TO.C,NT1*%
G36*
X-87252587Y41787709D02*
G01*
X-88552587Y41787709D01*
X-88552587Y44387709D01*
X-87252587Y44387709D01*
X-87252587Y41787709D01*
G37*
%TD.AperFunction*%
%TD*%
D11*
%TO.P,R4,1*%
%TO.N,+3.3V*%
X-56134100Y25571600D03*
%TO.P,R4,2*%
%TO.N,Net-(D1-A)*%
X-54309100Y25571600D03*
%TD*%
D12*
%TO.P,C4,1*%
%TO.N,+3.3VA*%
X-88902587Y52812709D03*
%TO.P,C4,2*%
%TO.N,Net-(U7-BYP)*%
X-88902587Y54362709D03*
%TD*%
D13*
%TO.P,R14,1*%
%TO.N,Net-(J12-Pin_2)*%
X-79319224Y55671072D03*
%TO.P,R14,2*%
%TO.N,Net-(U3-AIN1P)*%
X-80485950Y54504346D03*
%TD*%
D14*
%TO.P,R24,1*%
%TO.N,GND*%
X-84485950Y31004346D03*
%TO.P,R24,2*%
%TO.N,Net-(J10-CC2)*%
X-83319224Y32171072D03*
%TD*%
D15*
%TO.P,U4,1,VBAT*%
%TO.N,unconnected-(U4-VBAT-Pad1)*%
X-60416451Y32212486D03*
%TO.P,U4,2,PC13*%
%TO.N,unconnected-(U4-PC13-Pad2)*%
X-60062898Y32566039D03*
%TO.P,U4,3,PC14*%
%TO.N,unconnected-(U4-PC14-Pad3)*%
X-59709344Y32919593D03*
%TO.P,U4,4,PC15*%
%TO.N,unconnected-(U4-PC15-Pad4)*%
X-59355791Y33273146D03*
%TO.P,U4,5,PD0*%
%TO.N,/OSC+*%
X-59002238Y33626699D03*
%TO.P,U4,6,PD1*%
%TO.N,/OSC-*%
X-58648684Y33980253D03*
%TO.P,U4,7,NRST*%
%TO.N,/~{RESET}*%
X-58295131Y34333806D03*
%TO.P,U4,8,VSSA*%
%TO.N,GND*%
X-57941577Y34687360D03*
%TO.P,U4,9,VDDA*%
%TO.N,+3.3V*%
X-57588024Y35040913D03*
%TO.P,U4,10,PA0*%
%TO.N,unconnected-(U4-PA0-Pad10)*%
X-57234471Y35394466D03*
%TO.P,U4,11,PA1*%
%TO.N,/MTX_COL5*%
X-56880917Y35748020D03*
%TO.P,U4,12,PA2*%
%TO.N,/MTX_COL4*%
X-56527364Y36101573D03*
D16*
%TO.P,U4,13,PA3*%
%TO.N,/MTX_COL3*%
X-56527364Y37073845D03*
%TO.P,U4,14,PA4*%
%TO.N,/MTX_COL2*%
X-56880917Y37427398D03*
%TO.P,U4,15,PA5*%
%TO.N,/MTX_COL1*%
X-57234471Y37780952D03*
%TO.P,U4,16,PA6*%
%TO.N,/MTX_ROW1*%
X-57588024Y38134505D03*
%TO.P,U4,17,PA7*%
%TO.N,/MTX_ROW2*%
X-57941577Y38488058D03*
%TO.P,U4,18,PB0*%
%TO.N,/MTX_ROW3*%
X-58295131Y38841612D03*
%TO.P,U4,19,PB1*%
%TO.N,/MTX_ROW4*%
X-58648684Y39195165D03*
%TO.P,U4,20,PB2*%
%TO.N,/MTX_ROW5*%
X-59002238Y39548719D03*
%TO.P,U4,21,PB10*%
%TO.N,/EEPROM_SCK*%
X-59355791Y39902272D03*
%TO.P,U4,22,PB11*%
%TO.N,/EEPROM_SDA*%
X-59709344Y40255825D03*
%TO.P,U4,23,VSS*%
%TO.N,GND*%
X-60062898Y40609379D03*
%TO.P,U4,24,VDD*%
%TO.N,+3.3V*%
X-60416451Y40962932D03*
D15*
%TO.P,U4,25,PB12*%
%TO.N,/ADC_DRDY*%
X-61388723Y40962932D03*
%TO.P,U4,26,PB13*%
%TO.N,/ADC_SCK*%
X-61742276Y40609379D03*
%TO.P,U4,27,PB14*%
%TO.N,/ADC_MISO*%
X-62095830Y40255825D03*
%TO.P,U4,28,PB15*%
%TO.N,/ADC_MOSI*%
X-62449383Y39902272D03*
%TO.P,U4,29,PA8*%
%TO.N,/ADC_MCO*%
X-62802936Y39548719D03*
%TO.P,U4,30,PA9*%
%TO.N,/ADC_CS*%
X-63156490Y39195165D03*
%TO.P,U4,31,PA10*%
%TO.N,/ADC_RST*%
X-63510043Y38841612D03*
%TO.P,U4,32,PA11*%
%TO.N,/USBN*%
X-63863597Y38488058D03*
%TO.P,U4,33,PA12*%
%TO.N,/USBP*%
X-64217150Y38134505D03*
%TO.P,U4,34,PA13*%
%TO.N,/PRC_DIO*%
X-64570703Y37780952D03*
%TO.P,U4,35,VSS*%
%TO.N,GND*%
X-64924257Y37427398D03*
%TO.P,U4,36,VDD*%
%TO.N,+3.3V*%
X-65277810Y37073845D03*
D16*
%TO.P,U4,37,PA14*%
%TO.N,/PRG_CLK*%
X-65277810Y36101573D03*
%TO.P,U4,38,PA15*%
%TO.N,unconnected-(U4-PA15-Pad38)*%
X-64924257Y35748020D03*
%TO.P,U4,39,PB3*%
%TO.N,/RGB_B*%
X-64570703Y35394466D03*
%TO.P,U4,40,PB4*%
%TO.N,/RGB_R*%
X-64217150Y35040913D03*
%TO.P,U4,41,PB5*%
%TO.N,/RGB_G*%
X-63863597Y34687360D03*
%TO.P,U4,42,PB6*%
%TO.N,/COMPRT_TX*%
X-63510043Y34333806D03*
%TO.P,U4,43,PB7*%
%TO.N,/COMPRT_RX*%
X-63156490Y33980253D03*
%TO.P,U4,44,BOOT0*%
%TO.N,GND*%
X-62802936Y33626699D03*
%TO.P,U4,45,PB8*%
%TO.N,/CAN_RX*%
X-62449383Y33273146D03*
%TO.P,U4,46,PB9*%
%TO.N,/CAN_TX*%
X-62095830Y32919593D03*
%TO.P,U4,47,VSS*%
%TO.N,GND*%
X-61742276Y32566039D03*
%TO.P,U4,48,VDD*%
%TO.N,+3.3V*%
X-61388723Y32212486D03*
D17*
%TO.P,U4,49,VSS*%
%TO.N,GND*%
X-60902587Y36587709D03*
%TD*%
D18*
%TO.P,C11,1*%
%TO.N,Net-(U3-AIN2N)*%
X-86177587Y56087709D03*
%TO.P,C11,2*%
%TO.N,Net-(U3-AIN2P)*%
X-84627587Y56087709D03*
%TD*%
D19*
%TO.P,J12,1,Pin_1*%
%TO.N,+3.3VA*%
X-75596664Y50781787D03*
D20*
%TO.P,J12,2,Pin_2*%
%TO.N,Net-(J12-Pin_2)*%
X-74698638Y49883761D03*
%TO.P,J12,3,Pin_3*%
%TO.N,Net-(J12-Pin_3)*%
X-73800613Y48985736D03*
%TO.P,J12,4,Pin_4*%
%TO.N,GNDA*%
X-72902587Y48087710D03*
%TD*%
D21*
%TO.P,U7,1,OUT*%
%TO.N,+3.3VA*%
X-90927587Y52200209D03*
%TO.P,U7,2,SENSE*%
X-91577587Y52200209D03*
%TO.P,U7,3,BYP*%
%TO.N,Net-(U7-BYP)*%
X-92227587Y52200209D03*
%TO.P,U7,4,GND*%
%TO.N,GNDA*%
X-92877587Y52200209D03*
%TO.P,U7,5,~{SHDN}*%
X-92877587Y47975209D03*
%TO.P,U7,6,NC*%
%TO.N,unconnected-(U7-NC-Pad6)*%
X-92227587Y47975209D03*
%TO.P,U7,7,NC*%
%TO.N,unconnected-(U7-NC-Pad7)*%
X-91577587Y47975209D03*
%TO.P,U7,8,IN*%
%TO.N,/Power/Vin_{pwr}*%
X-90927587Y47975209D03*
%TD*%
D22*
%TO.P,C13,1*%
%TO.N,Net-(U3-CAP)*%
X-74950595Y43039701D03*
%TO.P,C13,2*%
%TO.N,GND*%
X-73854579Y44135717D03*
%TD*%
D23*
%TO.P,J1,1,Pin_1*%
%TO.N,GND*%
X-33938121Y30052175D03*
D24*
%TO.P,J1,2,Pin_2*%
%TO.N,+12V*%
X-32170354Y31819942D03*
%TO.P,J1,3,Pin_3*%
%TO.N,/CAN_IO/CAN_L*%
X-30402587Y33587709D03*
%TO.P,J1,4,Pin_4*%
%TO.N,/CAN_IO/CAN_H*%
X-28634820Y35355476D03*
%TD*%
D25*
%TO.P,J10,A1,GND*%
%TO.N,GND*%
X-90840437Y39246053D03*
%TO.P,J10,A4,VBUS*%
%TO.N,+5V*%
X-90274752Y38680368D03*
D26*
%TO.P,J10,A5,CC1*%
%TO.N,Net-(J10-CC1)*%
X-89426224Y37831839D03*
%TO.P,J10,A6,D+*%
%TO.N,/D+*%
X-88719117Y37124733D03*
%TO.P,J10,A7,D-*%
%TO.N,/D-*%
X-88365563Y36771179D03*
%TO.P,J10,A8,SBU1*%
%TO.N,unconnected-(J10-SBU1-PadA8)*%
X-87658457Y36064072D03*
D25*
%TO.P,J10,A9,VBUS*%
%TO.N,+5V*%
X-86809928Y35215544D03*
%TO.P,J10,A12,GND*%
%TO.N,GND*%
X-86244243Y34649859D03*
%TO.P,J10,B1,GND*%
X-86244243Y34649859D03*
%TO.P,J10,B4,VBUS*%
%TO.N,+5V*%
X-86809928Y35215544D03*
D26*
%TO.P,J10,B5,CC2*%
%TO.N,Net-(J10-CC2)*%
X-87304903Y35710519D03*
%TO.P,J10,B6,D+*%
%TO.N,/D+*%
X-88012010Y36417626D03*
%TO.P,J10,B7,D-*%
%TO.N,/D-*%
X-89072670Y37478286D03*
%TO.P,J10,B8,SBU2*%
%TO.N,unconnected-(J10-SBU2-PadB8)*%
X-89779777Y38185393D03*
D25*
%TO.P,J10,B9,VBUS*%
%TO.N,+5V*%
X-90274752Y38680368D03*
%TO.P,J10,B12,GND*%
%TO.N,GND*%
X-90840437Y39246053D03*
D27*
%TO.P,J10,S1,SHIELD*%
X-92244044Y39355655D03*
D28*
X-95199750Y36399948D03*
D27*
X-86134641Y33246252D03*
D28*
X-89090348Y30290546D03*
%TD*%
D29*
%TO.P,R3,1*%
%TO.N,+3.3V*%
X-53902587Y44912709D03*
%TO.P,R3,2*%
%TO.N,/EEPROM_SDA*%
X-53902587Y43262709D03*
%TD*%
D30*
%TO.P,R8,1*%
%TO.N,/RGB_B*%
X-40902587Y52737712D03*
%TO.P,R8,2*%
%TO.N,Net-(D4-BA)*%
X-40902587Y54387712D03*
%TD*%
D31*
%TO.P,C23,1*%
%TO.N,+3.3V*%
X-49241998Y27748298D03*
%TO.P,C23,2*%
%TO.N,GND*%
X-48563176Y28427120D03*
%TD*%
D22*
%TO.P,C17,1*%
%TO.N,GND*%
X-54450595Y33539701D03*
%TO.P,C17,2*%
%TO.N,+3.3V*%
X-53354579Y34635717D03*
%TD*%
D12*
%TO.P,C3,1*%
%TO.N,/Power/Vin_{pwr}*%
X-57402587Y14812709D03*
%TO.P,C3,2*%
%TO.N,GND*%
X-57402587Y16362709D03*
%TD*%
D32*
%TO.P,NT1,1,1*%
%TO.N,GNDA*%
X-87902587Y44387709D03*
%TO.P,NT1,2,2*%
%TO.N,GND*%
X-87902587Y41787709D03*
%TD*%
D33*
%TO.P,R13,1*%
%TO.N,Net-(J6-Pin_3)*%
X-65077587Y45587709D03*
%TO.P,R13,2*%
%TO.N,Net-(U3-AIN0N)*%
X-66727587Y45587709D03*
%TD*%
D34*
%TO.P,U6,1,TXD*%
%TO.N,/CAN_TX*%
X-47017492Y27581472D03*
%TO.P,U6,2,GND*%
%TO.N,GND*%
X-47477111Y27121853D03*
%TO.P,U6,3,V_{CC}*%
%TO.N,+3.3V*%
X-47936731Y26662233D03*
%TO.P,U6,4,RXD*%
%TO.N,/CAN_RX*%
X-48396350Y26202614D03*
%TO.P,U6,5,V_{IO}*%
%TO.N,+3.3V*%
X-46787682Y24593946D03*
%TO.P,U6,6,CANL*%
%TO.N,/CAN_IO/CAN_L*%
X-46328063Y25053565D03*
%TO.P,U6,7,CANH*%
%TO.N,/CAN_IO/CAN_H*%
X-45868443Y25513185D03*
%TO.P,U6,8,STB*%
%TO.N,GND*%
X-45408824Y25972804D03*
%TD*%
D12*
%TO.P,C1,1*%
%TO.N,/Power/Vin_{pwr}*%
X-63902587Y14812709D03*
%TO.P,C1,2*%
%TO.N,GND*%
X-63902587Y16362709D03*
%TD*%
D35*
%TO.P,U3,1,AIN0P*%
%TO.N,Net-(U3-AIN0P)*%
X-81271211Y45763189D03*
%TO.P,U3,2,AIN0N*%
%TO.N,Net-(U3-AIN0N)*%
X-81554055Y45480345D03*
%TO.P,U3,3,AIN1N*%
%TO.N,Net-(U3-AIN1N)*%
X-81836897Y45197503D03*
%TO.P,U3,4,AIN1P*%
%TO.N,Net-(U3-AIN1P)*%
X-82119739Y44914661D03*
%TO.P,U3,5,AIN2P*%
%TO.N,Net-(U3-AIN2P)*%
X-82402583Y44631817D03*
D36*
%TO.P,U3,6,AIN2N*%
%TO.N,Net-(U3-AIN2N)*%
X-82402583Y43719085D03*
%TO.P,U3,7,NC*%
%TO.N,unconnected-(U3-NC-Pad7)*%
X-82119739Y43436241D03*
%TO.P,U3,8,NC*%
%TO.N,unconnected-(U3-NC-Pad8)*%
X-81836897Y43153399D03*
%TO.P,U3,9,~{RESET}*%
%TO.N,/ADC_RST*%
X-81554055Y42870557D03*
%TO.P,U3,10,~{CS}*%
%TO.N,/ADC_CS*%
X-81271211Y42587713D03*
D35*
%TO.P,U3,11,DRDY*%
%TO.N,/ADC_DRDY*%
X-80358479Y42587713D03*
%TO.P,U3,12,SCLK*%
%TO.N,/ADC_SCK*%
X-80075635Y42870557D03*
%TO.P,U3,13,DOUT*%
%TO.N,/ADC_MISO*%
X-79792793Y43153399D03*
%TO.P,U3,14,DIN*%
%TO.N,/ADC_MOSI*%
X-79509951Y43436241D03*
%TO.P,U3,15,CLKIN*%
%TO.N,/ADC_MCO*%
X-79227107Y43719085D03*
D36*
%TO.P,U3,16,CAP*%
%TO.N,Net-(U3-CAP)*%
X-79227107Y44631817D03*
%TO.P,U3,17,DGND*%
%TO.N,GND*%
X-79509951Y44914661D03*
%TO.P,U3,18,DVDD*%
%TO.N,+3.3V*%
X-79792793Y45197503D03*
%TO.P,U3,19,AVDD*%
%TO.N,+3.3VA*%
X-80075635Y45480345D03*
%TO.P,U3,20,AGND*%
%TO.N,GNDA*%
X-80358479Y45763189D03*
D37*
%TO.P,U3,21,AGND*%
X-80814845Y44175451D03*
%TD*%
D14*
%TO.P,R23,1*%
%TO.N,GND*%
X-94985950Y40504346D03*
%TO.P,R23,2*%
%TO.N,Net-(J10-CC1)*%
X-93819224Y41671072D03*
%TD*%
D38*
%TO.P,D1,1,K*%
%TO.N,GND*%
X-50384100Y24971600D03*
%TO.P,D1,2,A*%
%TO.N,Net-(D1-A)*%
X-52259100Y24971600D03*
%TD*%
D29*
%TO.P,R16,1*%
%TO.N,Net-(J4-Pin_2)*%
X-84402587Y59912709D03*
%TO.P,R16,2*%
%TO.N,Net-(U3-AIN2P)*%
X-84402587Y58262709D03*
%TD*%
D39*
%TO.P,C6,1*%
%TO.N,+3.3VA*%
X-88902587Y50862709D03*
%TO.P,C6,2*%
%TO.N,GNDA*%
X-88902587Y49312709D03*
%TD*%
D18*
%TO.P,C16,1*%
%TO.N,GND*%
X-61677587Y30087709D03*
%TO.P,C16,2*%
%TO.N,+3.3V*%
X-60127587Y30087709D03*
%TD*%
D40*
%TO.P,U2,1,A0*%
%TO.N,GND*%
X-46902586Y45587708D03*
%TO.P,U2,2,A1*%
X-46902586Y46087708D03*
%TO.P,U2,3,A2*%
X-46902586Y46587708D03*
%TO.P,U2,4,GND*%
X-46902586Y47087708D03*
%TO.P,U2,5,SDA*%
%TO.N,/EEPROM_SDA*%
X-49802586Y47087708D03*
%TO.P,U2,6,SCL*%
%TO.N,/EEPROM_SCK*%
X-49802586Y46587708D03*
%TO.P,U2,7,WP*%
%TO.N,GND*%
X-49802586Y46087708D03*
%TO.P,U2,8,VCC*%
%TO.N,+3.3V*%
X-49802586Y45587708D03*
D41*
%TO.P,U2,9,GND*%
%TO.N,GND*%
X-48352586Y46337708D03*
%TD*%
D39*
%TO.P,C2,1*%
%TO.N,+3.3V*%
X-57402587Y20862709D03*
%TO.P,C2,2*%
%TO.N,GND*%
X-57402587Y19312709D03*
%TD*%
D42*
%TO.P,C14,1*%
%TO.N,+3.3V*%
X-74854579Y46135717D03*
%TO.P,C14,2*%
%TO.N,GND*%
X-75950595Y45039701D03*
%TD*%
D30*
%TO.P,R9,1*%
%TO.N,/RGB_R*%
X-38902587Y52737712D03*
%TO.P,R9,2*%
%TO.N,Net-(D4-RA)*%
X-38902587Y54387712D03*
%TD*%
D42*
%TO.P,C18,1*%
%TO.N,GND*%
X-66854579Y38635717D03*
%TO.P,C18,2*%
%TO.N,+3.3V*%
X-67950595Y37539701D03*
%TD*%
D13*
%TO.P,R15,1*%
%TO.N,Net-(J12-Pin_3)*%
X-77319224Y54171072D03*
%TO.P,R15,2*%
%TO.N,Net-(U3-AIN1N)*%
X-78485950Y53004346D03*
%TD*%
D43*
%TO.P,D6,1,K*%
%TO.N,/Power/Vin_{pwr}*%
X-68921600Y21971600D03*
%TO.P,D6,2,A*%
%TO.N,+5V*%
X-68921600Y15171600D03*
%TD*%
D44*
%TO.P,D4,1,BA*%
%TO.N,Net-(D4-BA)*%
X-40002587Y57062709D03*
D45*
%TO.P,D4,2,RA*%
%TO.N,Net-(D4-RA)*%
X-38952587Y57062709D03*
D44*
%TO.P,D4,3,GA*%
%TO.N,Net-(D4-GA)*%
X-37902587Y57062709D03*
%TO.P,D4,4,GK*%
%TO.N,GND*%
X-37902587Y60112709D03*
D45*
%TO.P,D4,5,RK*%
X-38952587Y60112709D03*
D44*
%TO.P,D4,6,BK*%
X-40002587Y60112709D03*
%TD*%
D23*
%TO.P,J3,1,Pin_1*%
%TO.N,GND*%
X-44705888Y19284408D03*
D24*
%TO.P,J3,2,Pin_2*%
%TO.N,+12V*%
X-42938121Y21052175D03*
%TO.P,J3,3,Pin_3*%
%TO.N,/CAN_IO/CAN_L*%
X-41170354Y22819942D03*
%TO.P,J3,4,Pin_4*%
%TO.N,/CAN_IO/CAN_H*%
X-39402587Y24587709D03*
%TD*%
D30*
%TO.P,R10,1*%
%TO.N,/RGB_G*%
X-36902587Y52737712D03*
%TO.P,R10,2*%
%TO.N,Net-(D4-GA)*%
X-36902587Y54387712D03*
%TD*%
D46*
%TO.P,C5,1*%
%TO.N,/Power/Vin_{pwr}*%
X-91127587Y45587709D03*
%TO.P,C5,2*%
%TO.N,GNDA*%
X-92677587Y45587709D03*
%TD*%
D47*
%TO.P,R7,1*%
%TO.N,+3.3V*%
X-77727587Y32087709D03*
%TO.P,R7,2*%
%TO.N,/USBP*%
X-76077587Y32087709D03*
%TD*%
D48*
%TO.P,C12,1*%
%TO.N,+3.3VA*%
X-76354579Y47539701D03*
%TO.P,C12,2*%
%TO.N,GNDA*%
X-77450595Y48635717D03*
%TD*%
D39*
%TO.P,C8,1*%
%TO.N,Net-(U3-AIN0N)*%
X-68902587Y45362709D03*
%TO.P,C8,2*%
%TO.N,Net-(U3-AIN0P)*%
X-68902587Y43812709D03*
%TD*%
D49*
%TO.P,Y1,1,1*%
%TO.N,/OSC+*%
X-57751115Y30890653D03*
%TO.P,Y1,2,2*%
%TO.N,GND*%
X-56902587Y31739181D03*
%TO.P,Y1,3,3*%
%TO.N,/OSC-*%
X-56054059Y32587709D03*
%TD*%
D48*
%TO.P,C9,1*%
%TO.N,Net-(U3-AIN1N)*%
X-80354579Y51539701D03*
%TO.P,C9,2*%
%TO.N,Net-(U3-AIN1P)*%
X-81450595Y52635717D03*
%TD*%
D29*
%TO.P,R2,1*%
%TO.N,+3.3V*%
X-51902587Y44912709D03*
%TO.P,R2,2*%
%TO.N,/EEPROM_SCK*%
X-51902587Y43262709D03*
%TD*%
D13*
%TO.P,R20,1*%
%TO.N,+3.3V*%
X-74138237Y22154963D03*
%TO.P,R20,2*%
%TO.N,/~{RESET}*%
X-75304963Y20988237D03*
%TD*%
D50*
%TO.P,J2,1,Pin_1*%
%TO.N,/MTX_ROW1*%
X-28902587Y43587709D03*
D51*
%TO.P,J2,2,Pin_2*%
%TO.N,/MTX_COL1*%
X-26902587Y43587709D03*
%TO.P,J2,3,Pin_3*%
%TO.N,/MTX_ROW2*%
X-28902587Y45587709D03*
%TO.P,J2,4,Pin_4*%
%TO.N,/MTX_COL2*%
X-26902587Y45587709D03*
%TO.P,J2,5,Pin_5*%
%TO.N,/MTX_ROW3*%
X-28902587Y47587709D03*
%TO.P,J2,6,Pin_6*%
%TO.N,/MTX_COL3*%
X-26902587Y47587709D03*
%TO.P,J2,7,Pin_7*%
%TO.N,/MTX_ROW4*%
X-28902587Y49587709D03*
%TO.P,J2,8,Pin_8*%
%TO.N,/MTX_COL4*%
X-26902587Y49587709D03*
%TO.P,J2,9,Pin_9*%
%TO.N,/MTX_ROW5*%
X-28902587Y51587709D03*
%TO.P,J2,10,Pin_10*%
%TO.N,/MTX_COL5*%
X-26902587Y51587709D03*
%TD*%
D52*
%TO.P,J9,1,NC*%
%TO.N,unconnected-(J9-NC-Pad1)*%
X-85475522Y25902928D03*
%TO.P,J9,2,NC*%
%TO.N,unconnected-(J9-NC-Pad2)*%
X-82717806Y28660644D03*
%TO.P,J9,3,VCC*%
%TO.N,+3.3V*%
X-84577496Y25004902D03*
%TO.P,J9,4,JTMS/SWDIO*%
%TO.N,/PRC_DIO*%
X-81819780Y27762618D03*
%TO.P,J9,5,GND*%
%TO.N,GND*%
X-83679471Y24106876D03*
%TO.P,J9,6,JCLK/SWCLK*%
%TO.N,/PRG_CLK*%
X-80921754Y26864593D03*
%TO.P,J9,7,GND*%
%TO.N,GND*%
X-82781445Y23208851D03*
%TO.P,J9,8,JTDO/SWO*%
%TO.N,unconnected-(J9-JTDO{slash}SWO-Pad8)*%
X-80023729Y25966567D03*
%TO.P,J9,9,JRCLK/NC*%
%TO.N,unconnected-(J9-JRCLK{slash}NC-Pad9)*%
X-81883420Y22310825D03*
%TO.P,J9,10,JTDI/NC*%
%TO.N,unconnected-(J9-JTDI{slash}NC-Pad10)*%
X-79125703Y25068542D03*
%TO.P,J9,11,GNDDetect*%
%TO.N,GND*%
X-80985394Y21412800D03*
%TO.P,J9,12,~{RST}*%
%TO.N,/~{RESET}*%
X-78227678Y24170516D03*
%TO.P,J9,13,VCP_RX*%
%TO.N,/COMPRT_RX*%
X-80087368Y20514774D03*
%TO.P,J9,14,VCP_TX*%
%TO.N,/COMPRT_TX*%
X-77329652Y23272490D03*
%TD*%
D53*
%TO.P,U5,1,I/O1*%
%TO.N,/D-*%
X-78040087Y36537709D03*
%TO.P,U5,2,GND*%
%TO.N,GND*%
X-78040087Y35587709D03*
%TO.P,U5,3,I/O2*%
%TO.N,/D+*%
X-78040087Y34637709D03*
%TO.P,U5,4,I/O2*%
%TO.N,/USBP*%
X-75765087Y34637709D03*
%TO.P,U5,5,VBUS*%
%TO.N,+5V*%
X-75765087Y35587709D03*
%TO.P,U5,6,I/O1*%
%TO.N,/USBN*%
X-75765087Y36537709D03*
%TD*%
D54*
%TO.P,SW1,1,1*%
%TO.N,/~{RESET}*%
X-77289363Y19102107D03*
%TO.P,SW1,2,2*%
X-74390228Y16202972D03*
%TO.P,SW1,3,3*%
%TO.N,GND*%
X-78420736Y17970734D03*
%TO.P,SW1,4,4*%
X-75521601Y15071599D03*
D55*
%TO.P,SW1,5,5*%
X-75397854Y18094481D03*
%TD*%
D56*
%TO.P,J4,1,Pin_1*%
%TO.N,+3.3VA*%
X-80702587Y62787709D03*
D20*
%TO.P,J4,2,Pin_2*%
%TO.N,Net-(J4-Pin_2)*%
X-80702587Y61517709D03*
%TO.P,J4,3,Pin_3*%
%TO.N,Net-(J4-Pin_3)*%
X-80702587Y60247709D03*
%TO.P,J4,4,Pin_4*%
%TO.N,GNDA*%
X-80702587Y58977709D03*
%TD*%
D39*
%TO.P,C19,1*%
%TO.N,+3.3V*%
X-55902587Y44862709D03*
%TO.P,C19,2*%
%TO.N,GND*%
X-55902587Y43312709D03*
%TD*%
D56*
%TO.P,J6,1,Pin_1*%
%TO.N,+3.3VA*%
X-62712586Y44587709D03*
D20*
%TO.P,J6,2,Pin_2*%
%TO.N,Net-(J6-Pin_2)*%
X-61442586Y44587709D03*
%TO.P,J6,3,Pin_3*%
%TO.N,Net-(J6-Pin_3)*%
X-60172586Y44587709D03*
%TO.P,J6,4,Pin_4*%
%TO.N,GNDA*%
X-58902586Y44587709D03*
%TD*%
D57*
%TO.P,L2,1,1*%
%TO.N,Net-(U1-SW)*%
X-63902587Y20375209D03*
%TO.P,L2,2,2*%
%TO.N,+3.3V*%
X-63902587Y18800209D03*
%TD*%
D58*
%TO.P,D7,1,K*%
%TO.N,/Power/Vin_{pwr}*%
X-52721600Y15171600D03*
%TO.P,D7,2,A*%
%TO.N,+12V*%
X-52721600Y21971600D03*
%TD*%
D33*
%TO.P,R12,1*%
%TO.N,Net-(J6-Pin_2)*%
X-65077587Y43587709D03*
%TO.P,R12,2*%
%TO.N,Net-(U3-AIN0P)*%
X-66727587Y43587709D03*
%TD*%
D59*
%TO.P,U1,1,PGND*%
%TO.N,GND*%
X-61402588Y16087710D03*
%TO.P,U1,2,VIN*%
%TO.N,/Power/Vin_{pwr}*%
X-60902588Y16087710D03*
%TO.P,U1,3,EN*%
X-60402588Y16087710D03*
%TO.P,U1,4,NC*%
%TO.N,GND*%
X-59902588Y16087710D03*
%TO.P,U1,5,FB*%
X-59402588Y16087710D03*
%TO.P,U1,6,AGND*%
X-59402588Y18087710D03*
%TO.P,U1,7,PG*%
%TO.N,Net-(JP1-B)*%
X-59902588Y18087710D03*
%TO.P,U1,8,~{SLEEP}*%
%TO.N,+3.3V*%
X-60402588Y18087710D03*
%TO.P,U1,9,SW*%
%TO.N,Net-(U1-SW)*%
X-60902588Y18087710D03*
%TO.P,U1,10,VOS*%
%TO.N,+3.3V*%
X-61402588Y18087710D03*
D60*
%TO.P,U1,11,PAD*%
%TO.N,GND*%
X-61352588Y17087710D03*
X-60402588Y17087710D03*
D61*
X-60402588Y17087710D03*
D60*
X-59452588Y17087710D03*
%TD*%
D29*
%TO.P,R17,1*%
%TO.N,Net-(J4-Pin_3)*%
X-86402587Y59912709D03*
%TO.P,R17,2*%
%TO.N,Net-(U3-AIN2N)*%
X-86402587Y58262709D03*
%TD*%
D62*
%TO.N,/~{RESET}*%
X-78721600Y19371600D03*
%TO.N,+3.3V*%
X-58902587Y29787709D03*
X-81902587Y32237709D03*
X-51902587Y35087709D03*
X-65902587Y20087709D03*
X-72711980Y23861980D03*
X-72402587Y45087709D03*
X-54402587Y46087709D03*
X-68152587Y35837709D03*
%TO.N,GND*%
X-34402587Y61587709D03*
X-60921600Y38771600D03*
X-66402587Y37587709D03*
X-80402587Y33587709D03*
X-44902587Y28587709D03*
X-60921600Y35071600D03*
X-73297256Y42632378D03*
X-44902587Y50087709D03*
X-62821600Y36571600D03*
X-58921600Y36671600D03*
%TO.N,+5V*%
X-89902587Y34587709D03*
X-85902587Y39587709D03*
%TO.N,/ADC_DRDY*%
X-82402587Y39587709D03*
X-70302587Y45837709D03*
%TO.N,/ADC_SCK*%
X-80902587Y40087709D03*
X-71145730Y44587709D03*
%TO.N,Net-(JP1-B)*%
X-59727667Y20571600D03*
%TO.N,/~{RESET}*%
X-70621600Y24371600D03*
X-53902587Y32087709D03*
X-78402587Y21587709D03*
%TO.N,+3.3VA*%
X-86902587Y53087709D03*
X-86902587Y50587709D03*
X-77902587Y46587709D03*
%TO.N,/Power/Vin_{pwr}*%
X-95402587Y43587709D03*
X-68921600Y27071600D03*
%TO.N,/EEPROM_SCK*%
X-51402587Y46087709D03*
X-50402587Y44087709D03*
%TO.N,/EEPROM_SDA*%
X-52902587Y44087709D03*
X-52902587Y47087709D03*
%TO.N,/RGB_B*%
X-41180405Y50865527D03*
X-67902587Y32087709D03*
%TO.N,/RGB_R*%
X-65892146Y33307378D03*
X-39810127Y51337709D03*
%TO.N,/RGB_G*%
X-37402587Y51087709D03*
X-64863680Y33207377D03*
%TO.N,/ADC_MISO*%
X-71902587Y43377966D03*
X-79402587Y40587709D03*
%TO.N,/ADC_MOSI*%
X-77902587Y41587709D03*
X-76841320Y43878400D03*
%TO.N,GNDA*%
X-94821600Y49071600D03*
X-78450595Y48439701D03*
%TD*%
D63*
%TO.N,/~{RESET}*%
X-57156579Y33833717D02*
X-57648595Y33833717D01*
%TO.N,/MTX_COL2*%
X-55961012Y38488709D02*
X-55663109Y38488709D01*
X-56191950Y38257771D02*
X-55961012Y38488709D01*
X-56191950Y38222416D02*
X-56191950Y38257771D01*
%TO.N,/MTX_COL1*%
X-56304112Y38815963D02*
X-56181366Y38938709D01*
X-56181366Y38938709D02*
X-55402587Y38938709D01*
X-56304112Y38712709D02*
X-56304112Y38815963D01*
D64*
%TO.N,/ADC_DRDY*%
X-70003587Y45188709D02*
X-70302587Y45487709D01*
X-70003587Y44417320D02*
X-70003587Y45188709D01*
X-69628587Y44042320D02*
X-70003587Y44417320D01*
X-69628587Y43384308D02*
X-69628587Y44042320D01*
X-67119939Y42861709D02*
X-67345939Y43087709D01*
X-67345939Y43087709D02*
X-68425188Y43087709D01*
X-70302587Y45487709D02*
X-70302587Y45837709D01*
X-68425188Y43087709D02*
X-68449187Y43111708D01*
X-63176588Y42861709D02*
X-67119939Y42861709D01*
X-61388723Y41073844D02*
X-63176588Y42861709D01*
X-68449187Y43111708D02*
X-69355987Y43111708D01*
X-69355987Y43111708D02*
X-69628587Y43384308D01*
X-61388723Y40962929D02*
X-61388723Y41073844D01*
D65*
%TO.N,/~{RESET}*%
X-77289363Y19102107D02*
X-78452107Y19102107D01*
X-78452107Y19102107D02*
X-78721600Y19371600D01*
X-76939133Y19452337D02*
X-77289363Y19102107D01*
X-75934900Y19452337D02*
X-76939133Y19452337D01*
X-74297611Y17815048D02*
X-75934900Y19452337D01*
X-74297611Y16295589D02*
X-74297611Y17815048D01*
X-74390228Y16202972D02*
X-74297611Y16295589D01*
D63*
X-70621600Y24371600D02*
X-74004963Y20988237D01*
X-74004963Y20988237D02*
X-75304963Y20988237D01*
D65*
%TO.N,+3.3V*%
X-47779047Y24593946D02*
X-46787682Y24593946D01*
X-49856701Y26671600D02*
X-47779047Y24593946D01*
D63*
%TO.N,Net-(JP1-B)*%
X-59902588Y18790612D02*
X-59902588Y18087710D01*
X-59727667Y20571600D02*
X-59727667Y18965533D01*
X-59727667Y18965533D02*
X-59902588Y18790612D01*
D64*
%TO.N,/COMPRT_RX*%
X-63522256Y33614487D02*
X-63156491Y33980252D01*
X-64166621Y32207378D02*
X-63522256Y32851743D01*
X-66282918Y32207378D02*
X-64166621Y32207378D01*
X-77975526Y20514770D02*
X-66282918Y32207378D01*
X-63522256Y32851743D02*
X-63522256Y33614487D01*
X-80087369Y20514770D02*
X-77975526Y20514770D01*
D65*
%TO.N,+3.3V*%
X-61921600Y22771600D02*
X-63321600Y21371600D01*
D63*
X-63321600Y21371600D02*
X-62511478Y21371600D01*
D65*
X-57402587Y22452587D02*
X-57721600Y22771600D01*
X-57721600Y22771600D02*
X-61921600Y22771600D01*
X-57402587Y20862709D02*
X-57402587Y22452587D01*
D63*
X-56521600Y21743697D02*
X-57402587Y20862710D01*
X-56521600Y25184100D02*
X-56521600Y21743697D01*
X-60402588Y19262710D02*
X-60402588Y18087710D01*
D65*
%TO.N,/CAN_TX*%
X-47788740Y29090067D02*
X-53402587Y29090067D01*
X-47017490Y28318817D02*
X-47788740Y29090067D01*
X-63402587Y31087709D02*
X-62515762Y31974534D01*
X-53904945Y28587709D02*
X-61904945Y28587709D01*
X-61904945Y28587709D02*
X-63402587Y30085351D01*
X-47017490Y27581470D02*
X-47017490Y28318817D01*
X-53402587Y29090067D02*
X-53904945Y28587709D01*
X-62515762Y32499662D02*
X-62095830Y32919594D01*
X-62515762Y31974534D02*
X-62515762Y32499662D01*
X-63402587Y30085351D02*
X-63402587Y31087709D01*
D63*
%TO.N,+3.3V*%
X-77727587Y32087709D02*
X-81752587Y32087709D01*
D64*
X-74854579Y46135717D02*
X-73450595Y46135717D01*
X-60416449Y41750623D02*
X-60430311Y41764485D01*
X-67950595Y37539701D02*
X-67950595Y36039701D01*
D65*
X-55321600Y26671600D02*
X-56134100Y25859100D01*
D64*
X-79152587Y45837709D02*
X-77591926Y45837709D01*
X-67248603Y36837709D02*
X-66152587Y36837709D01*
X-51016926Y44912709D02*
X-51902587Y44912709D01*
D65*
X-59202587Y30087709D02*
X-60127586Y30087709D01*
D66*
X-65902587Y20087709D02*
X-65190088Y20087709D01*
D64*
X-67950595Y36039701D02*
X-68152587Y35837709D01*
D63*
X-64921600Y21071600D02*
X-64621600Y21371600D01*
X-57182826Y34635717D02*
X-53354579Y34635717D01*
D64*
X-66152587Y36837709D02*
X-65916449Y37073847D01*
D65*
X-58902587Y29787709D02*
X-59202587Y30087709D01*
D64*
X-49902587Y45087709D02*
X-50841926Y45087709D01*
D65*
X-49856701Y26671600D02*
X-55321600Y26671600D01*
D64*
X-77293918Y46135717D02*
X-74854579Y46135717D01*
D63*
X-51902587Y35087709D02*
X-52902587Y35087709D01*
D64*
X-65916449Y37073847D02*
X-65277810Y37073847D01*
X-50841926Y45087709D02*
X-51016926Y44912709D01*
D66*
X-81902587Y32087709D02*
X-81902587Y32237709D01*
D63*
X-61402589Y18087711D02*
X-63902585Y18087711D01*
X-74138237Y22254963D02*
X-73538237Y22854963D01*
D65*
X-60127586Y30087709D02*
X-60127586Y30951347D01*
X-49241998Y27748298D02*
X-49022795Y27748298D01*
D63*
X-57588023Y35040914D02*
X-57182826Y34635717D01*
D64*
X-60430311Y41764485D02*
X-57332086Y44862710D01*
X-57332086Y44862710D02*
X-55902587Y44862710D01*
D65*
X-47224971Y25031235D02*
X-47224971Y25950474D01*
X-60127586Y30951347D02*
X-61388725Y32212486D01*
D66*
X-83902587Y27581272D02*
X-84228963Y27907648D01*
D64*
X-67950595Y37539701D02*
X-67248603Y36837709D01*
D63*
X-64921600Y19819221D02*
X-64921600Y21071600D01*
X-63902585Y18087711D02*
X-63902587Y18087709D01*
D65*
X-46787684Y24593948D02*
X-47224971Y25031235D01*
D63*
X-62511478Y21371600D02*
X-60402588Y19262710D01*
X-63902587Y18087709D02*
X-63902587Y18800208D01*
D64*
X-77591926Y45837709D02*
X-77293918Y46135717D01*
D65*
X-49022795Y27748298D02*
X-47936734Y26662237D01*
D63*
X-64621600Y21371600D02*
X-63321600Y21371600D01*
X-63902587Y18800208D02*
X-64921600Y19819221D01*
D64*
X-55627589Y44912709D02*
X-53902587Y44912709D01*
X-53902587Y44912709D02*
X-51902587Y44912709D01*
D63*
X-73538237Y22854963D02*
X-73538237Y23035723D01*
D64*
X-79792793Y45197503D02*
X-79152587Y45837709D01*
X-49802586Y45587708D02*
X-49802586Y45187710D01*
D66*
X-84228963Y27907648D02*
X-84228963Y29761333D01*
X-83902587Y25679814D02*
X-83902587Y27581272D01*
X-65190088Y20087709D02*
X-63902587Y18800208D01*
X-84228963Y29761333D02*
X-81902587Y32087709D01*
D64*
X-55902587Y44862710D02*
X-54677588Y46087709D01*
X-49802586Y45187710D02*
X-49902587Y45087709D01*
D63*
X-73538237Y23035723D02*
X-72711980Y23861980D01*
D65*
X-47224971Y25950474D02*
X-47936734Y26662237D01*
D63*
X-52902587Y35087709D02*
X-53354579Y34635717D01*
X-81752587Y32087709D02*
X-81902587Y32237709D01*
D64*
X-54677588Y46087709D02*
X-54402587Y46087709D01*
X-60416449Y40962932D02*
X-60416449Y41750623D01*
X-73450595Y46135717D02*
X-72402587Y45087709D01*
D67*
%TO.N,GND*%
X-36427586Y61587709D02*
X-34402587Y61587709D01*
D64*
X-46902586Y45587708D02*
X-47602586Y45587708D01*
X-75950595Y45039701D02*
X-76398603Y45487709D01*
D63*
X-60902587Y39769688D02*
X-60062895Y40609380D01*
D68*
X-45505490Y49587710D02*
X-45005491Y50087709D01*
D66*
X-82636421Y20799666D02*
X-81598527Y20799666D01*
D64*
X-47602586Y45587708D02*
X-48352586Y46337708D01*
D66*
X-83394579Y21557824D02*
X-82636421Y20799666D01*
D64*
X-73854579Y44135717D02*
X-73854579Y43189701D01*
D65*
X-48563176Y28427120D02*
X-48563176Y28207920D01*
D66*
X-84485950Y31597561D02*
X-86134641Y33246252D01*
D63*
X-55145611Y34234717D02*
X-57488933Y34234717D01*
D64*
X-66854579Y38039701D02*
X-66402587Y37587709D01*
D63*
X-79631573Y17971592D02*
X-78417838Y17971592D01*
D69*
X-77377588Y35587709D02*
X-77026587Y35236708D01*
D63*
X-53888827Y33539701D02*
X-54450595Y33539701D01*
D64*
X-46902587Y46087709D02*
X-48102587Y46087709D01*
D63*
X-64924258Y37427401D02*
X-64084566Y36587709D01*
D65*
X-45408825Y25972807D02*
X-45846106Y26410088D01*
X-62065762Y31788138D02*
X-62065762Y32242555D01*
D66*
X-75394960Y18095335D02*
X-76968271Y16522025D01*
D63*
X-81473527Y19813546D02*
X-79631573Y17971592D01*
X-61402589Y16087709D02*
X-61402589Y17037709D01*
X-58177588Y43312708D02*
X-55902587Y43312708D01*
D67*
X-40002587Y60112706D02*
X-37902588Y60112707D01*
D63*
X-59055489Y17137711D02*
X-57402587Y18790613D01*
X-59723205Y41767091D02*
X-58177588Y43312708D01*
D64*
X-74758563Y45039701D02*
X-75950595Y45039701D01*
D66*
X-84485950Y31004346D02*
X-86986684Y28503612D01*
D63*
X-59402588Y18087710D02*
X-59402588Y17137710D01*
D64*
X-46902586Y47087708D02*
X-47602586Y47087708D01*
D63*
X-59767365Y41044916D02*
X-59767365Y41543549D01*
X-56251115Y31087709D02*
X-52902587Y31087709D01*
D70*
X-45521600Y48468694D02*
X-45521600Y49587710D01*
D64*
X-46902586Y47087708D02*
X-46902586Y45587708D01*
D63*
X-54450595Y33539701D02*
X-55145611Y34234717D01*
D66*
X-90840437Y39246053D02*
X-92134442Y39246053D01*
X-45005491Y50087709D02*
X-44902587Y50087709D01*
D67*
X-40002587Y60112706D02*
X-43402587Y56712706D01*
D65*
X-62076671Y30986792D02*
X-62076671Y31777229D01*
D66*
X-46902586Y47087708D02*
X-45521600Y48468694D01*
D63*
X-57488933Y34234717D02*
X-57941576Y34687360D01*
D64*
X-66854579Y38635717D02*
X-66854579Y38039701D01*
D69*
X-77402587Y33587709D02*
X-80402587Y33587709D01*
D66*
X-95199751Y36399947D02*
X-92244044Y39355655D01*
D63*
X-62802936Y33626698D02*
X-60902587Y35527047D01*
D67*
X-43402587Y51587709D02*
X-44902587Y50087709D01*
D65*
X-48563176Y28207920D02*
X-47477110Y27121854D01*
D63*
X-59902588Y16087710D02*
X-59402587Y16087709D01*
D67*
X-37902588Y60112707D02*
X-36427586Y61587709D01*
D69*
X-77026587Y33963709D02*
X-77402587Y33587709D01*
D66*
X-86986684Y25149929D02*
X-85330498Y23493745D01*
D69*
X-77026587Y35236708D02*
X-77026587Y33963709D01*
D63*
X-57402587Y18790613D02*
X-57402587Y19312708D01*
D64*
X-66132574Y38635717D02*
X-64924258Y37427401D01*
D66*
X-86244243Y34649859D02*
X-86244243Y33355854D01*
X-84485950Y31004346D02*
X-84485950Y31597561D01*
D63*
X-59902588Y16587710D02*
X-60402588Y17087710D01*
D66*
X-45521600Y49587710D02*
X-45505490Y49587710D01*
D65*
X-61677588Y30587709D02*
X-62076671Y30986792D01*
D66*
X-89090347Y30290546D02*
X-86134641Y33246252D01*
X-83679472Y24106877D02*
X-82781445Y23208849D01*
D63*
X-61402589Y16087709D02*
X-61677590Y16362710D01*
D64*
X-76398603Y45487709D02*
X-78936903Y45487709D01*
D65*
X-46765344Y26410088D02*
X-47477110Y27121854D01*
D66*
X-76968271Y16522025D02*
X-78417838Y17971592D01*
D63*
X-59767367Y41722929D02*
X-58177588Y43312708D01*
D66*
X-93392735Y40504346D02*
X-92244044Y39355655D01*
D64*
X-47602586Y47087708D02*
X-48352586Y46337708D01*
D65*
X-45408825Y28081471D02*
X-44902587Y28587709D01*
D63*
X-61677590Y16362710D02*
X-63902587Y16362710D01*
D65*
X-61677588Y30087709D02*
X-61677588Y30587709D01*
X-45408825Y25972807D02*
X-45408825Y28081471D01*
X-62076671Y31777229D02*
X-62065762Y31788138D01*
D63*
X-56902587Y31739181D02*
X-56251115Y31087709D01*
D69*
X-78040087Y35587709D02*
X-77377588Y35587709D01*
D64*
X-78936903Y45487709D02*
X-79509950Y44914662D01*
D66*
X-75518705Y15072459D02*
X-76968271Y16522025D01*
D63*
X-52902587Y31087709D02*
X-52902587Y32553461D01*
X-59402587Y17137711D02*
X-59055489Y17137711D01*
D66*
X-85330498Y23493745D02*
X-84292604Y23493745D01*
D65*
X-62065762Y32242555D02*
X-61742279Y32566038D01*
D63*
X-59402587Y16087709D02*
X-57677588Y16087709D01*
D64*
X-73854579Y43189701D02*
X-73297256Y42632378D01*
D67*
X-43402587Y56712706D02*
X-43402587Y51587709D01*
D64*
X-73854579Y44135717D02*
X-74758563Y45039701D01*
D66*
X-44705888Y19355888D02*
X-50352850Y25002850D01*
D64*
X-46902584Y46587711D02*
X-48102583Y46587711D01*
X-66854579Y38635717D02*
X-66132574Y38635717D01*
D66*
X-86986684Y28503612D02*
X-86986684Y25149929D01*
D65*
X-45846106Y26410088D02*
X-46765344Y26410088D01*
D66*
X-94985950Y40504346D02*
X-93392735Y40504346D01*
D63*
X-57941576Y34687360D02*
X-59841925Y36587709D01*
D66*
X-83394579Y22595715D02*
X-83394579Y21557824D01*
D63*
X-59767367Y40904910D02*
X-59767367Y41722929D01*
X-60062898Y40609379D02*
X-59767367Y40904910D01*
X-81473527Y20924666D02*
X-81473527Y19813546D01*
X-59402587Y16087709D02*
X-59402587Y17037709D01*
D64*
X-48602589Y46087705D02*
X-49802588Y46087705D01*
D63*
X-59902588Y16087710D02*
X-59902588Y16587710D01*
X-52902587Y32553461D02*
X-53888827Y33539701D01*
X-61742279Y32566038D02*
X-60902587Y33405730D01*
D64*
%TO.N,Net-(U3-AIN0P)*%
X-74534524Y47302001D02*
X-73718240Y46485717D01*
X-77841926Y50087709D02*
X-77402587Y50087709D01*
X-77402587Y50087709D02*
X-74616879Y47302001D01*
X-81271211Y45763193D02*
X-81271211Y47719085D01*
X-79152587Y49837709D02*
X-79152587Y49898370D01*
X-78091926Y50337709D02*
X-77841926Y50087709D01*
X-73305621Y46485717D02*
X-72907613Y46087709D01*
X-69652587Y46398370D02*
X-69652587Y44562708D01*
X-70963248Y46587709D02*
X-69841926Y46587709D01*
X-78713248Y50337709D02*
X-78091926Y50337709D01*
X-71463248Y46087709D02*
X-70963248Y46587709D01*
X-66727587Y43587709D02*
X-68677588Y43587709D01*
X-69841926Y46587709D02*
X-69652587Y46398370D01*
X-73718240Y46485717D02*
X-73305621Y46485717D01*
X-69652587Y44562708D02*
X-68902587Y43812708D01*
X-72907613Y46087709D02*
X-71463248Y46087709D01*
X-79152587Y49898370D02*
X-78713248Y50337709D01*
X-81271211Y47719085D02*
X-79152587Y49837709D01*
X-74616879Y47302001D02*
X-74534524Y47302001D01*
D65*
%TO.N,+5V*%
X-77336619Y37138709D02*
X-83453587Y37138709D01*
D66*
X-91902587Y32587709D02*
X-89902587Y34587709D01*
X-91402587Y36587709D02*
X-90902587Y37087709D01*
D63*
X-90274751Y38680368D02*
X-90902587Y38052532D01*
D66*
X-89902587Y34587709D02*
X-88402587Y34587709D01*
X-89902587Y34587709D02*
X-91402587Y36087709D01*
D65*
X-77076587Y36236710D02*
X-77076587Y36878677D01*
D63*
X-90902587Y38052532D02*
X-90902587Y37087709D01*
D66*
X-91902587Y29087709D02*
X-91902587Y32587709D01*
D65*
X-75765087Y35587709D02*
X-76427586Y35587709D01*
D66*
X-76821792Y14006914D02*
X-70086287Y14006914D01*
D65*
X-83453587Y37138709D02*
X-85902587Y39587709D01*
D66*
X-76821792Y14006914D02*
X-91902587Y29087709D01*
D63*
X-86809929Y35215545D02*
X-87437765Y34587709D01*
X-87437765Y34587709D02*
X-88402587Y34587709D01*
D65*
X-76427586Y35587709D02*
X-77076587Y36236710D01*
D66*
X-70086287Y14006914D02*
X-68921600Y15171601D01*
D65*
X-77076587Y36878677D02*
X-77336619Y37138709D01*
D66*
X-91402587Y36087709D02*
X-91402587Y36587709D01*
D64*
%TO.N,Net-(U3-AIN0N)*%
X-77846951Y50587709D02*
X-77946952Y50687709D01*
X-68902587Y46143344D02*
X-69846952Y47087709D01*
X-68902587Y45362710D02*
X-68902587Y46143344D01*
X-79502587Y49987709D02*
X-81880006Y47610290D01*
X-68902587Y45362710D02*
X-66952586Y45362710D01*
X-72752587Y46437709D02*
X-76902587Y50587709D01*
X-81880006Y45806296D02*
X-81554056Y45480346D01*
X-77946952Y50687709D02*
X-78858223Y50687709D01*
X-69846952Y47087709D02*
X-70958223Y47087709D01*
X-71608223Y46437709D02*
X-72752587Y46437709D01*
X-78858223Y50687709D02*
X-79502587Y50043344D01*
X-79502587Y50043344D02*
X-79502587Y49987709D01*
X-76902587Y50587709D02*
X-77846951Y50587709D01*
X-70958223Y47087709D02*
X-71608223Y46437709D01*
X-81880006Y47610290D02*
X-81880006Y45806296D01*
%TO.N,Net-(U3-AIN1P)*%
X-80485950Y53600362D02*
X-81450595Y52635717D01*
X-82752587Y45547509D02*
X-82119740Y44914662D01*
X-82752587Y51333725D02*
X-82752587Y45547509D01*
X-80485950Y54504346D02*
X-80485950Y53600362D01*
X-81450595Y52635717D02*
X-82752587Y51333725D01*
%TO.N,Net-(U3-AIN1N)*%
X-82402587Y49491693D02*
X-82402587Y45763193D01*
X-82402587Y45763193D02*
X-81836897Y45197503D01*
X-80354579Y51539701D02*
X-82402587Y49491693D01*
X-78485950Y53004346D02*
X-79950595Y51539701D01*
%TO.N,Net-(U3-AIN2N)*%
X-85902587Y57762709D02*
X-85902587Y56312708D01*
X-86402587Y58262709D02*
X-85902587Y57762709D01*
X-85677588Y55612709D02*
X-85402587Y55337708D01*
X-85402587Y55337708D02*
X-85402587Y47136845D01*
X-85702588Y55612709D02*
X-85677588Y55612709D01*
X-83280001Y45014259D02*
X-83280001Y44596499D01*
X-86177588Y56087709D02*
X-85702588Y55612709D01*
X-83280001Y44596499D02*
X-82402587Y43719085D01*
X-85402587Y47136845D02*
X-83280001Y45014259D01*
%TO.N,Net-(U3-AIN2P)*%
X-84402587Y58262709D02*
X-84402587Y56362710D01*
X-84902587Y55762706D02*
X-84902587Y47131820D01*
X-84902587Y47131820D02*
X-82402584Y44631817D01*
%TO.N,Net-(U3-CAP)*%
X-74950595Y43039701D02*
X-76542711Y44631817D01*
X-76542711Y44631817D02*
X-79227103Y44631817D01*
D67*
%TO.N,+12V*%
X-30902587Y29087709D02*
X-40902587Y19087709D01*
X-32059775Y31744897D02*
X-30902587Y30587709D01*
X-43254039Y16639161D02*
X-40902587Y18990613D01*
X-52721600Y21971599D02*
X-50786477Y21971599D01*
X-45454039Y16639161D02*
X-43254039Y16639161D01*
X-40902587Y18990613D02*
X-40902587Y19087709D01*
X-42867054Y21052176D02*
X-40902587Y19087709D01*
X-50786477Y21971599D02*
X-45454039Y16639161D01*
X-30902587Y30587709D02*
X-30902587Y29087709D01*
D63*
%TO.N,Net-(J10-CC1)*%
X-89426223Y37831839D02*
X-88885059Y38373003D01*
X-91849830Y41671072D02*
X-93819224Y41671072D01*
X-88885059Y38373003D02*
X-88885059Y38706301D01*
X-88885059Y38706301D02*
X-91849830Y41671072D01*
%TO.N,Net-(J10-CC2)*%
X-83319224Y33140468D02*
X-83319224Y32171072D01*
X-87304905Y35710519D02*
X-86799095Y36216329D01*
X-86799095Y36216329D02*
X-86395085Y36216329D01*
X-86395085Y36216329D02*
X-83319224Y33140468D01*
%TO.N,/ADC_CS*%
X-63156491Y39195166D02*
X-64888326Y40927001D01*
X-74225561Y40927001D02*
X-77064852Y38087709D01*
X-82902586Y38087709D02*
X-83402587Y38587710D01*
X-83402587Y38587710D02*
X-83402587Y40456336D01*
X-64888326Y40927001D02*
X-74225561Y40927001D01*
X-77064852Y38087709D02*
X-82902586Y38087709D01*
X-83402587Y40456336D02*
X-81271211Y42587712D01*
D64*
%TO.N,/ADC_DRDY*%
X-80358479Y42587709D02*
X-80358479Y41631817D01*
X-80358479Y41631817D02*
X-82402587Y39587709D01*
%TO.N,/ADC_SCK*%
X-67490913Y42737709D02*
X-67264913Y42511709D01*
X-79402587Y41587709D02*
X-80902587Y40087709D01*
X-70671562Y44113541D02*
X-70671562Y43932308D01*
X-63644605Y42511709D02*
X-61742276Y40609380D01*
X-67264913Y42511709D02*
X-63644605Y42511709D01*
X-80075634Y42870556D02*
X-79402587Y42197509D01*
X-71145730Y44587709D02*
X-70671562Y44113541D01*
X-70671562Y43932308D02*
X-69476963Y42737709D01*
X-79402587Y42197509D02*
X-79402587Y41587709D01*
X-69476963Y42737709D02*
X-67490913Y42737709D01*
%TO.N,/D-*%
X-79033838Y36537709D02*
X-78040087Y36537709D01*
X-84823353Y35812709D02*
X-79758838Y35812709D01*
X-87682233Y37383771D02*
X-86394415Y37383771D01*
X-88208562Y37994451D02*
X-88556504Y37994451D01*
X-87849398Y37635287D02*
X-88208562Y37994451D01*
X-79758838Y35812709D02*
X-79033838Y36537709D01*
X-86394415Y37383771D02*
X-84823353Y35812709D01*
X-88365564Y36771180D02*
X-87849398Y37287346D01*
X-88294824Y36771180D02*
X-87682233Y37383771D01*
X-87849398Y37287346D02*
X-87849398Y37635287D01*
X-88556504Y37994451D02*
X-89072670Y37478285D01*
%TO.N,/D+*%
X-82084780Y35022709D02*
X-82344780Y35022709D01*
X-85009721Y35362709D02*
X-82684780Y35362709D01*
X-79758838Y35362709D02*
X-81744780Y35362709D01*
X-78040087Y34637709D02*
X-79033838Y34637709D01*
X-89235282Y36260626D02*
X-89235282Y36608567D01*
X-89235282Y36608567D02*
X-88719116Y37124733D01*
X-88876118Y35901462D02*
X-89235282Y36260626D01*
X-79033838Y34637709D02*
X-79758838Y35362709D01*
X-85009721Y35362709D02*
X-86580803Y36933791D01*
X-86580803Y36933791D02*
X-87355839Y36933791D01*
X-88012010Y36417626D02*
X-88528174Y35901462D01*
X-88528174Y35901462D02*
X-88876118Y35901462D01*
X-87942007Y36347623D02*
X-88012010Y36417626D01*
X-87355839Y36933791D02*
X-87942007Y36347623D01*
X-82514780Y35192709D02*
G75*
G03*
X-82684780Y35362720I-170020J-9D01*
G01*
X-82344780Y35022709D02*
G75*
G02*
X-82514791Y35192709I-20J169991D01*
G01*
X-81914780Y35192709D02*
G75*
G02*
X-82084780Y35022680I-170020J-9D01*
G01*
X-81744780Y35362709D02*
G75*
G03*
X-81914809Y35192709I-20J-170009D01*
G01*
D63*
%TO.N,Net-(D1-A)*%
X-52259100Y24971600D02*
X-53496600Y24971600D01*
X-53496600Y24971600D02*
X-53996600Y25471600D01*
D65*
%TO.N,/CAN_IO/CAN_H*%
X-39402587Y28587709D02*
X-39902587Y29087709D01*
X-39902587Y29087709D02*
X-39902587Y31087709D01*
X-35634820Y35355476D02*
X-28634820Y35355476D01*
X-45868440Y25513181D02*
X-44942968Y24587709D01*
X-44942968Y24587709D02*
X-39402587Y24587709D01*
X-39402587Y24587709D02*
X-39402587Y28587709D01*
X-39902587Y31087709D02*
X-35634820Y35355476D01*
%TO.N,/CAN_IO/CAN_L*%
X-30402587Y33587709D02*
X-35402587Y33587709D01*
X-38902587Y30087709D02*
X-38902587Y29087709D01*
X-44094442Y22819942D02*
X-41170354Y22819942D01*
X-39170354Y22819942D02*
X-41170354Y22819942D01*
X-35402587Y33587709D02*
X-38902587Y30087709D01*
X-36402587Y25587709D02*
X-36402587Y26587709D01*
X-36402587Y25587709D02*
X-39170354Y22819942D01*
X-46328064Y25053564D02*
X-44094442Y22819942D01*
X-38902587Y29087709D02*
X-36402587Y26587709D01*
%TO.N,/MTX_ROW5*%
X-58681708Y39869249D02*
X-58612410Y39869249D01*
X-57259059Y41222600D02*
X-40116226Y41222600D01*
X-59002238Y39548720D02*
X-58681708Y39869249D01*
X-58612410Y39869249D02*
X-57259059Y41222600D01*
X-29751115Y51587711D02*
X-28902587Y51587711D01*
X-40116226Y41222600D02*
X-29751115Y51587711D01*
%TO.N,/MTX_COL5*%
X-24651587Y49336709D02*
X-24651587Y42655314D01*
X-53449017Y37138709D02*
X-55160239Y35427487D01*
X-36074815Y38960709D02*
X-37896815Y37138709D01*
X-55160239Y35427487D02*
X-56560386Y35427487D01*
X-56560386Y35427487D02*
X-56880916Y35748017D01*
X-24651587Y42655314D02*
X-28346192Y38960709D01*
X-28346192Y38960709D02*
X-36074815Y38960709D01*
X-37896815Y37138709D02*
X-53449017Y37138709D01*
X-26902586Y51587708D02*
X-24651587Y49336709D01*
%TO.N,/MTX_COL1*%
X-26902587Y43587709D02*
X-29728587Y40761709D01*
X-36819399Y40761709D02*
X-38642399Y38938709D01*
X-38642399Y38938709D02*
X-55402587Y38938709D01*
D63*
X-56617950Y38398870D02*
X-56304112Y38712709D01*
X-57234471Y37780953D02*
X-57200513Y37780953D01*
X-57200513Y37780953D02*
X-56617950Y38363516D01*
X-56617950Y38363516D02*
X-56617950Y38398870D01*
D65*
X-29728587Y40761709D02*
X-36819399Y40761709D01*
%TO.N,/MTX_ROW1*%
X-34629795Y43587709D02*
X-38828794Y39388709D01*
D63*
X-57588025Y38134504D02*
X-56962363Y38760166D01*
D65*
X-28902587Y43587709D02*
X-34629795Y43587709D01*
X-38828794Y39388709D02*
X-56333819Y39388710D01*
X-56333819Y39388710D02*
X-56962363Y38760166D01*
%TO.N,/MTX_COL3*%
X-36447607Y39860709D02*
X-28718984Y39860709D01*
X-38269607Y38038709D02*
X-36447607Y39860709D01*
D63*
X-55367451Y37073845D02*
X-54402587Y38038709D01*
X-56527367Y37073845D02*
X-55367451Y37073845D01*
D65*
X-25551587Y46236708D02*
X-26902588Y47587709D01*
X-54402587Y38038709D02*
X-38269607Y38038709D01*
X-28718984Y39860709D02*
X-25551587Y43028106D01*
X-25551587Y43028106D02*
X-25551587Y46236708D01*
%TO.N,/MTX_COL4*%
X-38083211Y37588709D02*
X-36261211Y39410709D01*
X-25101587Y47786708D02*
X-26902589Y49587710D01*
X-53902587Y37588709D02*
X-38083211Y37588709D01*
X-28532588Y39410709D02*
X-25101587Y42841710D01*
X-25101587Y42841710D02*
X-25101587Y47786708D01*
D63*
X-55389725Y36101571D02*
X-53902587Y37588709D01*
D65*
X-36261211Y39410709D02*
X-28532588Y39410709D01*
D63*
X-56527364Y36101571D02*
X-55389725Y36101571D01*
D65*
%TO.N,/MTX_ROW3*%
X-56777734Y40289710D02*
X-57208722Y39858722D01*
X-33451587Y46038709D02*
X-33453001Y46038709D01*
X-33453001Y46038709D02*
X-39202000Y40289709D01*
X-56777734Y40289710D02*
X-39202000Y40289709D01*
X-57208722Y39858722D02*
X-58225831Y38841613D01*
X-58225831Y38841613D02*
X-58295130Y38841613D01*
X-57208722Y39858722D02*
X-56777734Y40289710D01*
X-28902587Y47587709D02*
X-31902587Y47587709D01*
X-31902587Y47587709D02*
X-33451587Y46038709D01*
D63*
%TO.N,/MTX_ROW2*%
X-57941576Y38488058D02*
X-57456709Y38972925D01*
D65*
X-33266191Y45587709D02*
X-39015190Y39838709D01*
X-39015190Y39838709D02*
X-56590924Y39838710D01*
X-28902587Y45587709D02*
X-33266191Y45587709D01*
X-56590924Y39838710D02*
X-57456709Y38972925D01*
%TO.N,/MTX_ROW4*%
X-39357920Y40771600D02*
X-57072249Y40771600D01*
X-30541810Y49587710D02*
X-39357920Y40771600D01*
X-30541810Y49587710D02*
X-28902588Y49587710D01*
X-57072249Y40771600D02*
X-58648683Y39195166D01*
%TO.N,/MTX_COL2*%
X-28905380Y40310709D02*
X-36634003Y40310709D01*
X-38456003Y38488709D02*
X-55663109Y38488709D01*
D63*
X-56880916Y37427398D02*
X-56880916Y37533450D01*
D65*
X-26001587Y43214502D02*
X-28905380Y40310709D01*
X-26902587Y45587709D02*
X-26001587Y44686709D01*
X-26001587Y44686709D02*
X-26001587Y43214502D01*
X-36634003Y40310709D02*
X-38456003Y38488709D01*
D63*
X-56880916Y37533450D02*
X-56191950Y38222416D01*
%TO.N,Net-(J4-Pin_3)*%
X-80702588Y60247706D02*
X-81713585Y59236709D01*
X-81713585Y59236709D02*
X-85726587Y59236709D01*
X-85726587Y59236709D02*
X-86402587Y59912709D01*
%TO.N,Net-(J4-Pin_2)*%
X-83746866Y62267709D02*
X-83628866Y62267709D01*
X-83392866Y62031709D02*
X-83392866Y61823709D01*
X-84602587Y61387709D02*
X-84402587Y61587709D01*
X-84602587Y60112709D02*
X-84602587Y61387709D01*
X-83156866Y61587709D02*
X-80772588Y61587709D01*
X-84402587Y61587709D02*
X-84218866Y61587709D01*
X-83982866Y61823709D02*
X-83982866Y62031709D01*
X-83392866Y61823709D02*
G75*
G03*
X-83156866Y61587734I235966J-9D01*
G01*
X-83982866Y62031709D02*
G75*
G02*
X-83746866Y62267666I235966J-9D01*
G01*
X-83628866Y62267709D02*
G75*
G02*
X-83392891Y62031709I-34J-236009D01*
G01*
X-84218866Y61587709D02*
G75*
G03*
X-83982909Y61823709I-34J235991D01*
G01*
D64*
%TO.N,Net-(J6-Pin_3)*%
X-61172586Y45587709D02*
X-65077587Y45587709D01*
X-60172585Y44587708D02*
X-61172586Y45587709D01*
%TO.N,Net-(J6-Pin_2)*%
X-61442585Y43880603D02*
X-61735479Y43587709D01*
X-61442585Y44587709D02*
X-61442585Y43880603D01*
X-61735479Y43587709D02*
X-65077587Y43587709D01*
D65*
%TO.N,Net-(D4-GA)*%
X-36902587Y56062712D02*
X-36902587Y54387712D01*
X-37902587Y57062712D02*
X-36902587Y56062712D01*
%TO.N,Net-(D4-BA)*%
X-40902587Y56162710D02*
X-40002586Y57062711D01*
X-40902587Y54387712D02*
X-40902587Y56162710D01*
%TO.N,Net-(D4-RA)*%
X-38952587Y57062709D02*
X-38952587Y54437712D01*
D63*
%TO.N,/~{RESET}*%
X-57739047Y33833717D02*
X-58239135Y34333805D01*
X-57648595Y33833717D02*
X-57739047Y33833717D01*
D64*
X-75321600Y21067834D02*
X-77286469Y19102965D01*
D63*
X-54025323Y32087709D02*
X-55771331Y33833717D01*
X-55771331Y33833717D02*
X-57156579Y33833717D01*
D64*
X-78690806Y21875928D02*
X-78402587Y21587709D01*
D63*
X-53902587Y32087709D02*
X-54025323Y32087709D01*
D64*
X-78690806Y23707385D02*
X-78690806Y21875928D01*
%TO.N,/PRG_CLK*%
X-65739670Y36101573D02*
X-65277807Y36101573D01*
X-73753534Y28087709D02*
X-65739670Y36101573D01*
X-80921753Y26864594D02*
X-79698638Y28087709D01*
X-79698638Y28087709D02*
X-73753534Y28087709D01*
%TO.N,/COMPRT_TX*%
X-64311595Y32557378D02*
X-63872256Y32996717D01*
X-63872256Y33971593D02*
X-63510044Y34333805D01*
X-75712781Y23272489D02*
X-66427892Y32557378D01*
X-63872256Y32996717D02*
X-63872256Y33971593D01*
X-66427892Y32557378D02*
X-64311595Y32557378D01*
X-77329648Y23272489D02*
X-75712781Y23272489D01*
%TO.N,/PRC_DIO*%
X-69443597Y37073417D02*
X-69443597Y33046699D01*
X-66340207Y39112709D02*
X-66679499Y39452001D01*
X-69443597Y33046699D02*
X-74052587Y28437709D01*
X-65902459Y39112709D02*
X-64570702Y37780952D01*
X-74052587Y28437709D02*
X-80621431Y28437709D01*
X-81296520Y27762620D02*
X-81819779Y27762620D01*
X-67065013Y39452001D02*
X-69443597Y37073417D01*
X-66679499Y39452001D02*
X-67065013Y39452001D01*
X-80621431Y28437709D02*
X-81296520Y27762620D01*
X-66340207Y39112709D02*
X-65902459Y39112709D01*
%TO.N,Net-(J12-Pin_2)*%
X-75492695Y51739894D02*
X-76002587Y51739894D01*
X-74698638Y49883761D02*
X-74198639Y50383760D01*
X-77695156Y53432463D02*
X-76002587Y51739894D01*
X-77695156Y53517759D02*
X-79319224Y55141827D01*
X-74198639Y50445838D02*
X-75492695Y51739894D01*
X-79319224Y55141827D02*
X-79319224Y55671072D01*
X-77695156Y53517759D02*
X-77695156Y53432463D01*
X-74198639Y50383760D02*
X-74198639Y50445838D01*
%TO.N,Net-(J12-Pin_3)*%
X-73800613Y50652461D02*
X-77319224Y54171072D01*
X-73800613Y48985735D02*
X-73800613Y50652461D01*
D66*
%TO.N,+3.3VA*%
X-88902587Y50862710D02*
X-89590090Y50862710D01*
X-87177588Y52812708D02*
X-86902587Y53087709D01*
X-88902587Y52812708D02*
X-87177588Y52812708D01*
X-87177588Y50862710D02*
X-86902587Y50587709D01*
X-88902587Y50862710D02*
X-87177588Y50862710D01*
X-88902587Y52812708D02*
X-90315088Y52812708D01*
X-89590090Y50862710D02*
X-90927588Y52200208D01*
X-90315088Y52812708D02*
X-90927588Y52200208D01*
X-90927588Y52200208D02*
X-91577588Y52200209D01*
D64*
X-77902587Y46587709D02*
X-77306571Y46587709D01*
X-80075634Y45480346D02*
X-78016279Y47539701D01*
X-77306571Y46587709D02*
X-76354579Y47539701D01*
X-78016279Y47539701D02*
X-76354579Y47539701D01*
D63*
%TO.N,/Power/Vin_{pwr}*%
X-60402588Y16087710D02*
X-60402588Y15712711D01*
D67*
X-92652586Y43587709D02*
X-91127586Y45112709D01*
X-52721600Y15171601D02*
X-55721599Y15171601D01*
X-56080491Y14812709D02*
X-57402587Y14812709D01*
X-55721599Y15171601D02*
X-56080491Y14812709D01*
D63*
X-60402588Y15712711D02*
X-59502586Y14812709D01*
D67*
X-68921600Y27071600D02*
X-68921600Y19371600D01*
D66*
X-90927588Y47975208D02*
X-90927588Y45787707D01*
D67*
X-64362708Y14812708D02*
X-63902587Y14812708D01*
D63*
X-59502586Y14812709D02*
X-57402587Y14812709D01*
X-60902588Y15712711D02*
X-61802591Y14812708D01*
X-61802591Y14812708D02*
X-63902587Y14812708D01*
X-60902588Y16087710D02*
X-60402588Y16087710D01*
X-60902588Y16087710D02*
X-60902588Y15712711D01*
D67*
X-95402587Y43587709D02*
X-92652586Y43587709D01*
X-68921600Y19371600D02*
X-64362708Y14812708D01*
X-91127586Y45112709D02*
X-91127586Y45587709D01*
D64*
%TO.N,/EEPROM_SCK*%
X-50902589Y46587707D02*
X-49802585Y46587707D01*
X-51227587Y43262709D02*
X-50402587Y44087709D01*
X-51902587Y43262709D02*
X-51227587Y43262709D01*
X-53752587Y41887709D02*
X-57370354Y41887709D01*
X-52377587Y43262709D02*
X-53752587Y41887709D01*
X-57370354Y41887709D02*
X-59355791Y39902272D01*
X-51402587Y46087709D02*
X-50902589Y46587707D01*
X-51902587Y43262709D02*
X-52377587Y43262709D01*
%TO.N,/EEPROM_SDA*%
X-52902587Y47087709D02*
X-49802586Y47087708D01*
X-55373563Y42611708D02*
X-54722562Y43262709D01*
D63*
X-59709344Y40383856D02*
X-59709344Y40255825D01*
D64*
X-53727587Y43262709D02*
X-52902587Y44087709D01*
D63*
X-57992099Y42611708D02*
X-57992099Y42101101D01*
D64*
X-57992099Y42611708D02*
X-55373563Y42611708D01*
D63*
X-57992099Y42101101D02*
X-59709344Y40383856D01*
D64*
X-54722562Y43262709D02*
X-53902587Y43262709D01*
%TO.N,/RGB_B*%
X-64595831Y35394465D02*
X-65402587Y34587709D01*
X-40902587Y52737712D02*
X-40902587Y51143345D01*
X-40902587Y51143345D02*
X-41180405Y50865527D01*
X-66902587Y33087709D02*
X-66902587Y33587709D01*
X-66902587Y33587709D02*
X-65902587Y34587709D01*
X-66902587Y33087709D02*
X-67902587Y32087709D01*
X-65902587Y34587709D02*
X-65402587Y34587709D01*
%TO.N,/RGB_R*%
X-64217149Y34982375D02*
X-65892146Y33307378D01*
X-38902587Y52245249D02*
X-39810127Y51337709D01*
X-64217149Y35040914D02*
X-64217149Y34982375D01*
X-38902587Y52737712D02*
X-38902587Y52245249D01*
D63*
%TO.N,/RGB_G*%
X-36902587Y51587709D02*
X-37402587Y51087709D01*
X-36902587Y52737712D02*
X-36902587Y51587709D01*
X-64863680Y33687278D02*
X-63863598Y34687360D01*
X-64863680Y33207377D02*
X-64863680Y33687278D01*
D64*
%TO.N,/ADC_MCO*%
X-62802936Y39548720D02*
X-64715925Y41461709D01*
X-64715925Y41461709D02*
X-75360926Y41461709D01*
X-75360926Y41461709D02*
X-77618302Y43719085D01*
X-77618302Y43719085D02*
X-79227106Y43719085D01*
%TO.N,/ADC_MISO*%
X-67409887Y42161709D02*
X-63933693Y42161709D01*
X-67585888Y42337709D02*
X-67409887Y42161709D01*
X-78652587Y41337709D02*
X-79402587Y40587709D01*
X-79792793Y43153399D02*
X-79792793Y43128063D01*
X-71902587Y43377966D02*
X-71192844Y43377966D01*
X-70152587Y42337709D02*
X-67585888Y42337709D01*
X-63933693Y42161709D02*
X-62095831Y40323847D01*
X-71192844Y43377966D02*
X-70152587Y42337709D01*
X-79792793Y43128063D02*
X-78652587Y41987857D01*
X-62095831Y40323847D02*
X-62095831Y40255825D01*
X-78652587Y41987857D02*
X-78652587Y41337709D01*
%TO.N,/ADC_MOSI*%
X-75126587Y41811709D02*
X-76841320Y43526442D01*
X-78661419Y42587709D02*
X-78211739Y42587709D01*
X-64275634Y41811709D02*
X-75126587Y41811709D01*
X-62640020Y40092909D02*
X-62640020Y40176095D01*
X-77902587Y42278557D02*
X-77902587Y41587709D01*
X-62640020Y40176095D02*
X-64275634Y41811709D01*
X-79509950Y43436240D02*
X-78661419Y42587709D01*
X-78211739Y42587709D02*
X-77902587Y42278557D01*
X-76841320Y43526442D02*
X-76841320Y43878400D01*
D63*
%TO.N,/ADC_RST*%
X-66234219Y40527001D02*
X-74059875Y40527001D01*
X-83902587Y38522024D02*
X-83902587Y40522025D01*
X-74059875Y40527001D02*
X-76899167Y37687709D01*
X-83068272Y37687709D02*
X-83902587Y38522024D01*
X-83902587Y40522025D02*
X-81554056Y42870556D01*
X-76899167Y37687709D02*
X-83068272Y37687709D01*
X-63510044Y38841613D02*
X-64856141Y40187710D01*
X-64856141Y40187710D02*
X-65894929Y40187710D01*
X-65894929Y40187710D02*
X-66234219Y40527001D01*
D65*
%TO.N,/CAN_RX*%
X-48396349Y26202611D02*
X-48749902Y26202611D01*
X-49904945Y27711207D02*
X-50281447Y28087709D01*
X-49904945Y27357654D02*
X-49904945Y27711207D01*
X-63902587Y31905727D02*
X-62535169Y33273145D01*
X-62535169Y33273145D02*
X-62449382Y33273145D01*
X-63902587Y29587709D02*
X-63902587Y31905727D01*
X-50281447Y28087709D02*
X-62402587Y28087709D01*
X-48749902Y26202611D02*
X-49904945Y27357654D01*
X-62402587Y28087709D02*
X-63902587Y29587709D01*
D64*
%TO.N,/USBP*%
X-67699141Y39802001D02*
X-67709389Y39791753D01*
X-64468448Y38325142D02*
X-64407789Y38325142D01*
X-74771336Y34637709D02*
X-74046336Y35362709D01*
X-72679136Y35063035D02*
X-72979462Y35063035D01*
X-67709389Y39791753D02*
X-67709389Y39780907D01*
X-75765087Y34637709D02*
X-76077587Y34325209D01*
X-76077587Y34325209D02*
X-76077587Y32087709D01*
X-66534524Y39802001D02*
X-67699141Y39802001D01*
X-74771336Y34637709D02*
X-75765087Y34637709D01*
X-67709389Y39780907D02*
X-72127587Y35362709D01*
X-65606015Y39462709D02*
X-66195233Y39462709D01*
X-65606015Y39462709D02*
X-64468448Y38325142D01*
X-66195233Y39462709D02*
X-66534524Y39802001D01*
X-72127587Y35362709D02*
X-72379462Y35362709D01*
X-74046336Y35362709D02*
X-73279136Y35362709D01*
X-72529299Y35212872D02*
G75*
G02*
X-72679136Y35063099I-149801J28D01*
G01*
X-72979462Y35063035D02*
G75*
G02*
X-73129365Y35212872I-38J149865D01*
G01*
X-73129299Y35212872D02*
G75*
G03*
X-73279136Y35362701I-149801J28D01*
G01*
X-72379462Y35362709D02*
G75*
G03*
X-72529309Y35212872I-38J-149809D01*
G01*
%TO.N,/USBN*%
X-68252587Y39732683D02*
X-68252587Y39743530D01*
X-72172561Y35812709D02*
X-68252587Y39732683D01*
X-74771336Y36537709D02*
X-74046336Y35812709D01*
X-66389549Y40152001D02*
X-66050258Y39812709D01*
X-75765087Y36537709D02*
X-74771336Y36537709D01*
X-63863598Y38548720D02*
X-65127587Y39812709D01*
X-65127587Y39812709D02*
X-66050258Y39812709D01*
X-68252587Y39743530D02*
X-67844116Y40152001D01*
X-63863598Y38488058D02*
X-63863598Y38548720D01*
X-74046336Y35812709D02*
X-72172561Y35812709D01*
X-67844116Y40152001D02*
X-66389549Y40152001D01*
%TO.N,GNDA*%
X-80323122Y45763190D02*
X-78450595Y47635717D01*
X-78450595Y47635717D02*
X-78450595Y48439701D01*
X-80814845Y45240353D02*
X-80358479Y45696719D01*
D66*
X-92877586Y48849001D02*
X-92877586Y47975210D01*
X-88902587Y49312708D02*
X-88902587Y49087709D01*
X-92877586Y52200210D02*
X-92877586Y49071600D01*
X-88902587Y49087709D02*
X-87902587Y48087709D01*
X-87902587Y48087709D02*
X-87902587Y44387709D01*
X-92877586Y45787707D02*
X-92877586Y47975210D01*
D64*
X-80358479Y45696719D02*
X-80358479Y45763190D01*
X-78254579Y48635717D02*
X-78450595Y48439701D01*
X-80358479Y45763190D02*
X-80323122Y45763190D01*
D66*
X-88902587Y49312708D02*
X-92413879Y49312708D01*
D64*
X-77450595Y48635717D02*
X-78254579Y48635717D01*
D66*
X-92877586Y49071600D02*
X-94821600Y49071600D01*
X-92413879Y49312708D02*
X-92877586Y48849001D01*
X-92877586Y49071600D02*
X-92877586Y48849001D01*
D64*
%TO.N,/OSC+*%
X-57966760Y31106298D02*
X-57966760Y32591220D01*
X-57966760Y32591220D02*
X-59002238Y33626698D01*
%TO.N,/OSC-*%
X-57328948Y32803354D02*
X-57471785Y32803354D01*
X-57113303Y32587709D02*
X-57328948Y32803354D01*
X-56054059Y32587709D02*
X-57113303Y32587709D01*
X-57471785Y32803354D02*
X-58648683Y33980252D01*
D66*
%TO.N,Net-(U7-BYP)*%
X-92227587Y53074002D02*
X-92227587Y52200207D01*
X-88902587Y54362710D02*
X-90938879Y54362710D01*
X-90938879Y54362710D02*
X-92227587Y53074002D01*
D63*
%TO.N,Net-(U1-SW)*%
X-60902588Y18462709D02*
X-60902588Y18087710D01*
X-62815089Y20375210D02*
X-60902588Y18462709D01*
X-63902587Y20375210D02*
X-62815089Y20375210D01*
%TD*%
M02*
